<?xml version="1.0" encoding="UTF-8" standalone="no"?>
<!-- Created with Inkscape (http://www.inkscape.org/) -->

<svg
   xmlns:dc="http://purl.org/dc/elements/1.1/"
   xmlns:cc="http://creativecommons.org/ns#"
   xmlns:rdf="http://www.w3.org/1999/02/22-rdf-syntax-ns#"
   xmlns:svg="http://www.w3.org/2000/svg"
   xmlns="http://www.w3.org/2000/svg"
   xmlns:sodipodi="http://sodipodi.sourceforge.net/DTD/sodipodi-0.dtd"
   xmlns:inkscape="http://www.inkscape.org/namespaces/inkscape"
   width="185"
   height="65"
   viewBox="0 0 185 65"
   id="svg4476"
   version="1.1"
   inkscape:version="0.91 r13725"
   sodipodi:docname="hoike-letter.svg">
  <defs
     id="defs4478" />
  <sodipodi:namedview
     id="base"
     pagecolor="#ffffff"
     bordercolor="#666666"
     borderopacity="1.0"
     inkscape:pageopacity="0.0"
     inkscape:pageshadow="2"
     inkscape:zoom="1.4"
     inkscape:cx="129.35543"
     inkscape:cy="21.389082"
     inkscape:document-units="px"
     inkscape:current-layer="layer1"
     showgrid="false"
     units="px"
     inkscape:window-width="1280"
     inkscape:window-height="709"
     inkscape:window-x="0"
     inkscape:window-y="0"
     inkscape:window-maximized="1" />
  <metadata
     id="metadata4481">
    <rdf:RDF>
      <cc:Work
         rdf:about="">
        <dc:format>image/svg+xml</dc:format>
        <dc:type
           rdf:resource="http://purl.org/dc/dcmitype/StillImage" />
        <dc:title></dc:title>
      </cc:Work>
    </rdf:RDF>
  </metadata>
  <g
     inkscape:label="Layer 1"
     inkscape:groupmode="layer"
     id="layer1"
     transform="translate(0,-987.36216)">
    <g
       id="g5071"
       transform="matrix(0.96898773,0,0,0.98131723,-323.10747,482.29182)">
      <g
         id="text4432"
         style="font-style:normal;font-weight:normal;font-size:97.57592773px;line-height:125%;font-family:sans-serif;letter-spacing:0px;word-spacing:0px;fill:#333333;fill-opacity:1;stroke:none;stroke-width:1px;stroke-linecap:butt;stroke-linejoin:miter;stroke-opacity:1">
        <path
           d="m 524.36935,560.1861 c 0,-5.25 -2.1,-9.8 -6.125,-13.7375 -3.9375,-3.7625 -8.6625,-5.6875 -14,-5.6875 -5.6,0 -10.325,2.0125 -14.2625,5.95 -3.9375,3.9375 -5.8625,8.6625 -5.8625,14.175 0,5.6 1.925,10.325 5.8625,14.175 1.8375,1.8375 3.9375,3.2375 6.3875,4.2875 2.45,1.05 5.3375,1.575 8.75,1.575 3.4125,0 6.7375,-1.05 10.0625,-3.15 3.325,-2.1 5.775,-5.075 7.4375,-8.75 l -7,0 c -1.4,1.8375 -3.0625,3.2375 -5.075,4.2875 -2.0125,1.05 -4.1125,1.4875 -6.3,1.4875 -3.325,0 -6.3,-1.05 -8.925,-3.2375 -2.625,-2.1 -4.2875,-4.8125 -4.8125,-8.1375 l 33.8625,0 0,-3.2375 z m -6.475,-2.0125 -27.3,0 c 0.35,-1.575 0.9625,-3.0625 1.8375,-4.4625 2.8,-4.55 6.7375,-6.825 11.8125,-6.825 3.2375,0 6.125,1.05 8.6625,3.15 2.625,2.1875 4.2,4.9 4.9875,8.1375 z m -61.93906,22.1375 0,-18.4625 15.1375,18.4625 8.1375,0 -16.8875,-19.8625 15.8375,-18.725 -8.1375,0 -14.0875,17.4125 0,-44.45 -6.125,0 0,65.625 6.125,0 z m -46.40234,-19.425 c 0,3.85 -1.4,7.0875 -4.1125,9.8 -2.8,2.8 -6.0375,4.1125 -9.8875,4.1125 -3.85,0 -7.175,-1.3125 -9.8875,-4.1125 -2.8,-2.7125 -4.1125,-5.95 -4.1125,-9.8 0,-3.85 1.3125,-7.0875 4.1125,-9.8875 2.7125,-2.7125 6.0375,-4.1125 9.8875,-4.1125 3.85,0 7.0875,1.4 9.8875,4.1125 2.7125,2.8 4.1125,6.0375 4.1125,9.8875 z m 6.125,0 c 0,-5.5125 -2.0125,-10.2375 -5.95,-14.175 -3.9375,-3.9375 -8.6625,-5.95 -14.175,-5.95 -5.6,0 -10.325,2.0125 -14.2625,5.95 -3.9375,3.9375 -5.8625,8.6625 -5.8625,14.175 0,5.6 1.925,10.325 5.8625,14.175 3.9375,3.9375 8.75,5.8625 14.2625,5.8625 5.425,0 10.2375,-1.925 14.175,-5.8625 3.9375,-3.85 5.95,-8.575 5.95,-14.175 z m -76.10449,19.425 0,-16.1 c 0,-5.3375 0.875,-9.3625 2.7125,-12.1625 1.05,-1.575 2.3625,-2.7125 4.025,-3.5875 1.575,-0.875 3.7625,-1.3125 6.3875,-1.3125 2.625,0 4.4625,0.9625 5.6,2.7125 1.1375,1.75 1.75,3.9375 1.75,6.3875 l 0,24.0625 6.125,0 0,-24.0625 c 0,-4.4625 -1.225,-8.05 -3.5,-10.7625 -1.225,-1.4 -2.625,-2.45 -4.2875,-3.2375 -1.75,-0.7875 -3.9375,-1.225 -6.65,-1.225 -2.8,0 -5.1625,0.7875 -7.2625,2.1875 -2.0125,1.3125 -3.675,3.0625 -4.9,5.25 l 0,-33.775 -6.125,0 0,65.625 6.125,0 z"
           style="font-style:normal;font-variant:normal;font-weight:normal;font-stretch:normal;font-size:87.5px;font-family:'Glacial Indifference';-inkscape-font-specification:'Glacial Indifference';fill:#333333;fill-opacity:1"
           id="path5064"
           inkscape:connector-curvature="0" />
      </g>
      <g
         id="text4436"
         style="font-style:normal;font-weight:normal;font-size:97.57592773px;line-height:125%;font-family:sans-serif;letter-spacing:0px;word-spacing:0px;fill:#3333ff;fill-opacity:1;stroke:none;stroke-width:1px;stroke-linecap:butt;stroke-linejoin:miter;stroke-opacity:1"
         transform="scale(-1,-1)">
        <path
           d="m -431.76098,-579.69886 c -0.7875,-0.7 -1.75,-1.1375 -2.8,-1.1375 -1.05,0 -2.0125,0.4375 -2.7125,1.1375 -0.7875,0.7875 -1.1375,1.75 -1.1375,2.8 0,1.05 0.35,2.0125 1.1375,2.7125 0.7,0.7875 1.6625,1.1375 2.7125,1.1375 1.05,0 2.0125,-0.35 2.8,-1.1375 0.7,-0.7 1.1375,-1.6625 1.1375,-2.7125 0,-1.05 -0.4375,-2.0125 -1.1375,-2.8 z m 0.35,51.8 0,-38.5 -6.125,0 0,38.5 6.125,0 z"
           style="font-style:normal;font-variant:normal;font-weight:normal;font-stretch:normal;font-size:87.5px;font-family:'Glacial Indifference';-inkscape-font-specification:'Glacial Indifference';fill:#3333ff;fill-opacity:1"
           id="path5068"
           inkscape:connector-curvature="0" />
      </g>
    </g>
  </g>
</svg>
