<?xml version="1.0" encoding="UTF-8" standalone="no"?>
<!-- Created with Inkscape (http://www.inkscape.org/) -->

<svg
   xmlns:dc="http://purl.org/dc/elements/1.1/"
   xmlns:cc="http://creativecommons.org/ns#"
   xmlns:rdf="http://www.w3.org/1999/02/22-rdf-syntax-ns#"
   xmlns:svg="http://www.w3.org/2000/svg"
   xmlns="http://www.w3.org/2000/svg"
   xmlns:sodipodi="http://sodipodi.sourceforge.net/DTD/sodipodi-0.dtd"
   xmlns:inkscape="http://www.inkscape.org/namespaces/inkscape"
   width="400"
   height="142"
   viewBox="0 0 400.00001 142"
   id="svg2"
   version="1.1"
   inkscape:version="0.91 r13725"
   sodipodi:docname="belgika.svg">
  <defs
     id="defs4" />
  <sodipodi:namedview
     id="base"
     pagecolor="#ffffff"
     bordercolor="#666666"
     borderopacity="1.0"
     inkscape:pageopacity="0.0"
     inkscape:pageshadow="2"
     inkscape:zoom="1.4"
     inkscape:cx="266.45691"
     inkscape:cy="8.8885784"
     inkscape:document-units="px"
     inkscape:current-layer="layer1"
     showgrid="false"
     units="px"
     inkscape:window-width="1280"
     inkscape:window-height="709"
     inkscape:window-x="0"
     inkscape:window-y="0"
     inkscape:window-maximized="1"
     inkscape:snap-bbox="true"
     inkscape:bbox-paths="true"
     inkscape:bbox-nodes="true"
     inkscape:snap-bbox-edge-midpoints="true"
     inkscape:snap-bbox-midpoints="true" />
  <metadata
     id="metadata7">
    <rdf:RDF>
      <cc:Work
         rdf:about="">
        <dc:format>image/svg+xml</dc:format>
        <dc:type
           rdf:resource="http://purl.org/dc/dcmitype/StillImage" />
        <dc:title></dc:title>
      </cc:Work>
    </rdf:RDF>
  </metadata>
  <g
     inkscape:label="Layer 1"
     inkscape:groupmode="layer"
     id="layer1"
     transform="translate(0,-910.3622)">
    <g
       transform="scale(1.0362118,0.96505368)"
       style="font-style:normal;font-weight:normal;font-size:51.99171829px;line-height:125%;font-family:sans-serif;letter-spacing:0px;word-spacing:0px;fill:#1a1a1a;fill-opacity:1;stroke:none;stroke-width:1px;stroke-linecap:butt;stroke-linejoin:miter;stroke-opacity:1"
       id="text4213" />
    <g
       transform="scale(1.0277581,0.97299163)"
       style="font-style:normal;font-weight:normal;font-size:52.41936874px;line-height:125%;font-family:sans-serif;letter-spacing:0px;word-spacing:0px;fill:#1a1a1a;fill-opacity:1;stroke:none;stroke-width:1px;stroke-linecap:butt;stroke-linejoin:miter;stroke-opacity:1"
       id="text4236" />
    <g
       transform="scale(1.0362118,0.96505368)"
       style="font-style:normal;font-weight:normal;font-size:51.99171829px;line-height:125%;font-family:sans-serif;letter-spacing:0px;word-spacing:0px;fill:#1a1a1a;fill-opacity:1;stroke:none;stroke-width:1px;stroke-linecap:butt;stroke-linejoin:miter;stroke-opacity:1"
       id="text4240">
      <path
         id="path4876"
         style="font-style:normal;font-variant:normal;font-weight:bold;font-stretch:normal;font-family:Belgika;-inkscape-font-specification:'Belgika Bold';fill:#1a1a1a"
         d="m 361.74133,1090.4701 c 1.8717,0 3.48344,-1.5598 3.48344,-3.4315 l 0,-13.8817 13.88179,0 0,13.8817 c 0,1.8717 1.55975,3.4315 3.43146,3.4315 1.8717,0 3.48344,-1.5598 3.48344,-3.4315 l 0,-34.6784 c 0,-1.8717 -1.55975,-3.4835 -3.48344,-3.4835 -1.87171,0 -3.43146,1.6118 -3.43146,3.4835 l 0,13.8818 -13.88179,0 0,-13.8818 c 0,-1.8717 -1.55975,-3.4835 -3.48344,-3.4835 -1.8717,0 -3.43145,1.6118 -3.43145,3.4835 l 0,17.3132 0,17.3652 c 0,1.8717 1.55975,3.4315 3.43145,3.4315 z m -43.76567,-38.1099 c 0,1.8717 1.55976,3.4834 3.43146,3.4834 l 10.39834,0 0,31.195 c 0,1.8717 1.61174,3.4315 3.48345,3.4315 1.8717,0 3.48344,-1.5598 3.48344,-3.4315 l 0,-31.195 10.39834,0 c 1.87171,0 3.43146,-1.5597 3.43146,-3.4834 0,-1.8717 -1.55975,-3.4835 -3.43146,-3.4835 l -13.88178,0 -13.88179,0 c -1.8717,0 -3.43146,1.6118 -3.43146,3.4835 z m -27.51335,25.2159 c -1.29979,0.52 -2.13166,1.8198 -2.13166,3.1715 0,0.468 0.10398,0.9359 0.25996,1.3518 2.07967,4.8872 6.96689,8.3707 12.63399,8.3707 7.59079,0 13.7778,-6.135 13.7778,-13.7258 0,-7.5388 -6.03104,-13.5699 -13.56984,-13.7778 l -3.1195,0 0,-7.1229 10.45034,0 c 1.8717,0 3.43145,-1.6117 3.43145,-3.4834 0,-1.8717 -1.55975,-3.4835 -3.43145,-3.4835 l -13.93378,0 c -1.87171,0 -3.48345,1.6118 -3.48345,3.4835 l 0,14.0897 c 0,1.9237 1.61174,3.4835 3.48345,3.4835 l 6.49896,0 c 3.7434,0.1039 6.70693,3.1195 6.70693,6.8109 0,3.7954 -3.01552,6.8109 -6.81091,6.8109 -2.75556,0 -5.19917,-1.7157 -6.23901,-4.1593 -0.57191,-1.2998 -1.8717,-2.1317 -3.22349,-2.1317 -0.41593,0 -0.88385,0.104 -1.29979,0.3119 z m -76.64637,-5.823 3.06751,-8.8386 c 0.93586,2.7036 1.97569,5.7191 3.11951,8.8386 l -6.18702,0 z m 6.34299,-20.5887 c -0.46792,-1.3518 -1.81971,-2.2877 -3.27548,-2.2877 0,0 0,0.052 0,0.052 -1.40377,0 -2.75556,0.8839 -3.27547,2.2876 l -12.01009,34.6785 c -0.15598,0.364 -0.20797,0.7279 -0.20797,1.0918 0,1.4558 0.88386,2.8076 2.33963,3.3275 0.36394,0.104 0.72788,0.156 1.09183,0.156 1.45576,0 2.80755,-0.8839 3.27547,-2.2876 l 3.32747,-9.4625 10.97026,0 c 1.14381,3.2754 2.28763,6.5509 3.32747,9.4625 0.46792,1.4037 1.8717,2.2876 3.27547,2.2876 0.36395,0 0.77988,-0.052 1.14382,-0.156 1.40378,-0.5199 2.28764,-1.8717 2.28764,-3.3275 0,-0.3639 -0.052,-0.7278 -0.15598,-1.0918 -4.62726,-13.2059 -11.80212,-33.8466 -12.11407,-34.7304 z m -24.5807,-1.2478 c -0.6759,-0.6759 -1.55976,-0.9879 -2.49561,-0.9879 -0.88386,0 -1.76771,0.312 -2.39162,0.9879 l -14.03776,13.8817 0,-11.4381 c 0,-1.8717 -1.61174,-3.4835 -3.48344,-3.4835 -1.87171,0 -3.43146,1.6118 -3.43146,3.4835 l 0,34.6784 c 0,1.8717 1.55975,3.4315 3.43146,3.4315 1.92369,0 3.48344,-1.5598 3.48344,-3.4315 l 0,-11.4381 14.03776,13.8818 c 0.62391,0.6758 1.50776,0.9878 2.44362,0.9878 0.88385,0 1.76771,-0.312 2.44361,-0.9878 0.67589,-0.6759 0.98784,-1.5598 0.98784,-2.4437 0,-0.8838 -0.36394,-1.8197 -1.03984,-2.4956 l -14.97361,-14.8696 14.97361,-14.8176 c 0.6759,-0.6759 1.03984,-1.6118 1.03984,-2.4956 0,-0.8839 -0.31195,-1.7678 -0.98784,-2.4436 z m -40.77614,-1.0399 c -1.8717,0 -3.43145,1.6118 -3.43145,3.4835 l 0,34.6784 c 0,1.8717 1.55975,3.4315 3.43145,3.4315 1.9237,0 3.48345,-1.5598 3.48345,-3.4315 l 0,-34.6784 c 0,-1.8717 -1.61174,-3.4835 -3.48345,-3.4835 z m -30.4842,21.8885 c 0,1.9237 1.55975,3.4835 3.48344,3.4835 l 6.08303,0 0,6.187 c -2.54759,2.0797 -5.66709,3.1195 -8.7866,3.1195 -3.53543,0 -7.12286,-1.3518 -9.82643,-4.0554 -2.65158,-2.7035 -4.00336,-6.239 -4.00336,-9.8264 0,-3.5354 1.35178,-7.0709 4.00336,-9.7744 2.75556,-2.7036 6.239,-4.0554 9.77444,-4.0554 3.58743,0 7.12287,1.2998 9.82644,4.0034 0.67589,0.6759 1.55975,0.9878 2.44361,0.9878 0.88386,0 1.81971,-0.3119 2.44361,-0.9878 0.67589,-0.6759 1.03983,-1.5598 1.03983,-2.4436 0,-0.8839 -0.36394,-1.7678 -1.03983,-2.4437 -4.05536,-4.1073 -9.4105,-6.083 -14.71366,-6.083 -5.30315,0 -10.60631,2.0797 -14.66166,6.135 -4.05536,4.0554 -6.08303,9.4105 -6.08303,14.6617 0,5.3032 2.02767,10.6583 6.08303,14.7137 4.05535,4.1073 9.4105,6.083 14.71365,6.083 5.30316,0 10.65831,-1.9757 14.71366,-6.083 0.57191,-0.52 1.03983,-1.5078 1.03983,-2.4436 l 0,-11.1783 c 0,-1.4557 -1.40377,-3.4314 -3.48344,-3.4314 l -9.56648,0 c -1.92369,0 -3.48344,1.5597 -3.48344,3.4314 z m -49.952675,-21.8885 c -1.871702,0 -3.431453,1.6118 -3.431453,3.4835 l 0,34.6784 c 0,2.0797 1.975685,3.4315 3.431453,3.4315 l 20.796687,0 c 1.871702,0 3.483446,-1.5598 3.483446,-3.4315 0,-1.9237 -1.611744,-3.4834 -3.483446,-3.4834 l -17.313242,0 0,-31.195 c 0,-1.8717 -1.611743,-3.4835 -3.483445,-3.4835 z m -12.164434,3.4835 c 0,-1.8717 -1.611743,-3.4835 -3.483445,-3.4835 l -19.080961,0 c -2.079668,0 -3.431453,2.0277 -3.431453,3.4835 l 0,17.3132 0,17.3652 c 0,2.0797 1.975685,3.4315 3.431453,3.4315 l 19.080961,0 c 1.871702,0 3.483445,-1.5598 3.483445,-3.4315 0,-1.9237 -1.611743,-3.4834 -3.483445,-3.4834 l -15.597516,0 0,-10.3983 12.114071,0 c 1.871702,0 3.483445,-1.5598 3.483445,-3.4835 0,-1.8717 -1.611743,-3.4314 -3.483445,-3.4314 l -12.114071,0 0,-10.3984 15.597516,0 c 1.871702,0 3.483445,-1.6117 3.483445,-3.4834 z m -55.129907,10.3983 0,-6.9149 3.483445,0 c 1.923694,0 3.431454,1.5598 3.431454,3.4835 0,1.1958 -0.571909,2.2356 -1.50776,2.8595 -0.415934,0.3119 -0.88386,0.5199 -1.403777,0.5719 l -4.003362,0 z m 4.419296,6.9149 2.599586,0 c 0.207967,0.052 0.363942,0.052 0.571909,0.052 3.535437,0.3119 6.290998,3.2755 6.290998,6.9149 0,3.8474 -3.119503,6.9149 -6.96689,6.9149 l -6.914899,0 0,-13.8818 2.9115362,0 c 0.2079668,0.052 0.3639418,0.052 0.5719088,0.052 0.31195,0 0.623901,0 0.935851,-0.052 z m 8.318675,-5.6671 c 0.727884,-1.4038 1.143818,-3.0155 1.143818,-4.6792 0,-5.7711 -4.679255,-10.3464 -10.346352,-10.4504 l -7.0188821,0 c -1.4557681,0 -3.48344514,1.4038 -3.48344514,3.4835 l 0,34.6264 c 0,1.7158 1.50775984,3.4835 3.48344514,3.4835 l 10.3983441,0 c 7.642782,0 13.881788,-6.135 13.881788,-13.8298 0,-5.5631 -3.275478,-10.3983 -8.058716,-12.634 z m 319.815675,-27.0738 c 1.2478,0 2.28763,-1.0042 2.28763,-2.2725 l 0,-16.2252 17.26125,0 0,16.2252 c 0,1.2683 1.03984,2.2725 2.28764,2.2725 1.24779,0 2.28763,-1.0042 2.28763,-2.2725 l 0,-36.99545 c 0,-1.26842 -1.03984,-2.32542 -2.28763,-2.32542 -1.2478,0 -2.28764,1.057 -2.28764,2.32542 l 0,16.17225 -17.26125,0 0,-16.17225 c 0,-1.26842 -1.03983,-2.32542 -2.28763,-2.32542 -1.24781,0 -2.28764,1.057 -2.28764,2.32542 l 0,18.49765 0,18.4978 c 0,1.2683 1.03983,2.2725 2.28764,2.2725 z m -41.1555,-39.26795 c 0,1.26841 1.03983,2.27257 2.28763,2.27257 l 12.27005,0 0,34.72288 c 0,1.2683 1.03983,2.2725 2.28763,2.2725 1.24781,0 2.28763,-1.0042 2.28763,-2.2725 l 0,-34.72288 12.27006,0 c 1.24779,0 2.28763,-1.00416 2.28763,-2.27257 0,-1.26842 -1.03984,-2.32542 -2.28763,-2.32542 l -14.55769,0 -14.55768,0 c -1.2478,0 -2.28763,1.057 -2.28763,2.32542 z m -14.92568,17.28205 c 4.73125,0 8.57864,3.911 8.57864,8.6675 0,4.8095 -3.84739,8.7204 -8.57864,8.7204 -4.67925,0 -8.52664,-3.9109 -8.52664,-8.7204 0,-4.7565 3.84739,-8.6675 8.52664,-8.6675 z m 13.10191,8.6675 c 0,-4.8093 -2.54758,-9.0902 -6.39498,-11.4157 1.81971,-1.7968 2.96354,-4.2808 2.96354,-7.0819 0,-5.39079 -4.36731,-9.77737 -9.67047,-9.77737 -5.30315,0 -9.61847,4.38658 -9.61847,9.77737 0,2.8011 1.09183,5.2851 2.91154,7.0819 -3.7954,2.3255 -6.39498,6.6064 -6.39498,11.4157 0,7.3463 5.87506,13.3184 13.10191,13.3184 7.22685,0 13.10191,-5.9721 13.10191,-13.3184 z m -8.00672,-18.4976 c 0,2.8539 -2.28763,5.1793 -5.09519,5.1793 -2.80755,0 -5.09518,-2.3254 -5.09518,-5.1793 0,-2.8011 2.28763,-5.17938 5.09518,-5.17938 2.80756,0 5.09519,2.37828 5.09519,5.17938 z m -88.65157,14.6396 5.14717,-15.0624 c 1.35179,4.0167 3.2235,9.4073 5.14719,15.0624 l -10.29436,0 z m 7.27884,-22.88431 c -0.10398,-0.36996 -0.36395,-0.73991 -0.67589,-1.00416 -0.20797,-0.15855 -0.46793,-0.31711 -0.72788,-0.4228 -0.10399,0 -0.20797,-0.0528 -0.31196,-0.0528 -0.10398,-0.0528 -0.25996,-0.0528 -0.41594,-0.0528 0,0 0,0 0,0 -0.93584,0 -1.8197,0.6342 -2.13165,1.53266 l -12.68599,36.99537 c -0.052,0.2643 -0.10397,0.5285 -0.10397,0.7399 0,1.0042 0.57191,1.9026 1.50776,2.2198 0.25995,0.1056 0.51991,0.1056 0.72788,0.1056 0.98785,0 1.87171,-0.5813 2.18365,-1.5327 l 3.7954,-11.0457 13.46585,0 c 1.2998,3.8581 2.59959,7.6633 3.7954,11.0457 0.31194,0.9514 1.1958,1.5327 2.13166,1.5327 0.25996,0 0.51991,0 0.77987,-0.1056 0.88386,-0.3172 1.50776,-1.2156 1.50776,-2.2198 0,-0.2114 -0.052,-0.4756 -0.15598,-0.7399 -4.83523,-14.1111 -12.37402,-36.20261 -12.68597,-36.99537 z m -22.02257,-0.84561 c -0.41592,-0.47566 -0.98784,-0.68705 -1.61174,-0.68705 -0.5719,0 -1.14381,0.21139 -1.61174,0.68705 l -17.00129,17.12362 0,-15.48525 c 0,-1.26842 -1.03984,-2.32542 -2.28763,-2.32542 -1.24781,0 -2.28765,1.057 -2.28765,2.32542 l 0,36.99545 c 0,1.2683 1.03984,2.2725 2.28765,2.2725 1.24779,0 2.28763,-1.0042 2.28763,-2.2725 l 0,-15.5381 17.00129,17.1764 c 0.46793,0.4228 1.03984,0.6342 1.61174,0.6342 0.6239,0 1.19582,-0.2114 1.61174,-0.6342 0.46794,-0.4757 0.67589,-1.057 0.67589,-1.6383 0,-0.6343 -0.20795,-1.2157 -0.67589,-1.6384 l -16.74132,-16.8594 16.74132,-16.85928 c 0.46794,-0.47566 0.67589,-1.05702 0.67589,-1.63837 0,-0.58135 -0.20795,-1.21557 -0.67589,-1.63837 z m -38.23991,-0.68705 c -1.24779,0 -2.23564,1.057 -2.23564,2.32542 l 0,36.99545 c 0,1.2683 0.98785,2.2725 2.23564,2.2725 1.24781,0 2.28764,-1.0042 2.28764,-2.2725 l 0,-36.99545 c 0,-1.26842 -1.03983,-2.32542 -2.28764,-2.32542 z m -27.18597,21.98577 c 0,1.2157 1.03983,2.2726 2.28763,2.2726 l 7.79876,0 0,8.6675 c -3.01551,2.6954 -6.86291,4.0695 -10.60631,4.0695 -4.05535,0 -8.1627,-1.5855 -11.28221,-4.7565 -3.1195,-3.1183 -4.62726,-7.2934 -4.62726,-11.4158 0,-4.1223 1.50776,-8.2975 4.62726,-11.4685 3.11951,-3.1711 7.17487,-4.75658 11.23022,-4.75658 4.05535,0 8.1627,1.58548 11.2822,4.70368 0.41594,0.4757 0.98785,0.6871 1.61174,0.6871 0.57191,0 1.14383,-0.2114 1.61175,-0.6871 0.41594,-0.4228 0.62389,-1.057 0.62389,-1.6383 0,-0.5814 -0.20795,-1.1628 -0.62389,-1.6384 -4.05536,-4.06951 -9.30651,-6.02497 -14.50569,-6.02497 -5.19917,0 -10.45033,2.00831 -14.4537,6.07777 -4.00336,4.0695 -5.979046,9.4074 -5.979046,14.7453 0,5.2851 1.975686,10.623 5.979046,14.6925 4.00337,4.0695 9.25453,6.0778 14.50569,6.0778 5.19917,0 10.50233,-2.0083 14.4537,-6.0778 0.36394,-0.37 0.67589,-1.0042 0.67589,-1.6384 l 0,-11.8914 c 0,-1.0042 -0.88386,-2.3253 -2.28764,-2.3253 l -10.0344,0 c -1.2478,0 -2.28763,1.0569 -2.28763,2.3253 z M 69.511299,995.33913 c -1.247801,0 -2.287635,1.057 -2.287635,2.32542 l 0,36.99545 c 0,1.3741 1.299793,2.2725 2.287635,2.2725 l 21.836522,0 c 1.247801,0 2.287635,-1.0042 2.287635,-2.2725 0,-1.2685 -1.039834,-2.3255 -2.287635,-2.3255 l -19.548886,0 0,-34.66995 c 0,-1.26842 -1.039834,-2.32542 -2.287636,-2.32542 z m -10.596561,2.32542 c 0,-1.26842 -1.039834,-2.32542 -2.287635,-2.32542 l -20.016812,0 c -1.403776,0 -2.287635,1.32126 -2.287635,2.32542 l 0,18.49765 0,18.4978 c 0,1.3741 1.299793,2.2725 2.287635,2.2725 l 20.016812,0 c 1.247801,0 2.287635,-1.0042 2.287635,-2.2725 0,-1.2685 -1.039834,-2.3255 -2.287635,-2.3255 l -17.729176,0 0,-13.8997 14.089755,0 c 1.247802,0 2.287637,-1.0041 2.287637,-2.2726 0,-1.2684 -1.039835,-2.3254 -2.287637,-2.3254 l -14.089755,0 0,-13.89968 17.729176,0 c 1.247801,0 2.287635,-1.00416 2.287635,-2.27257 z m -54.3914585,12.47275 0,-10.20018 5.0431965,0 c 2.755561,0.0528 4.991205,2.32538 4.991205,5.12648 0,1.9026 -0.987843,3.541 -2.495602,4.4394 -0.519918,0.3172 -1.143818,0.5285 -1.81971,0.6343 l -5.7190895,0 z m 5.9790475,4.598 2.755561,0 c 4.783238,0.052 8.578633,3.9637 8.578633,8.826 0,4.8623 -3.899379,8.7732 -8.630625,8.7732 l -8.6826165,-0.052 0,-17.5464 4.5752711,0 c 0.1559751,0.052 0.3119503,0.052 0.4679254,0.052 0.3119503,0 0.6239,0 0.935851,-0.052 z m 6.758924,-3.9638 c 1.143817,-1.5856 1.871701,-3.541 1.871701,-5.7079 0,-5.39073 -4.315313,-9.67162 -9.5144842,-9.72447 l -7.3308322,0 C 1.299793,995.33913 7.9455093e-8,996.23759 7.9455093e-8,997.66455 l 0,36.94245 c 0,1.11 0.987842630544907,2.3255 2.287635520544907,2.3255 l 10.9182604,0 c 7.27884,0 13.205896,-5.9193 13.205896,-13.3712 0,-5.9721 -3.847387,-10.9929 -9.150541,-12.7898 z M 338.58714,984.92139 c 0.67589,0 1.2478,-0.51992 1.2478,-1.19581 l 0,-18.35308 21.00465,0 0,18.35308 c 0,0.67589 0.57191,1.19581 1.2478,1.19581 0.6759,0 1.19581,-0.51992 1.19581,-1.19581 l 0,-39.14977 c 0,-0.67589 -0.51991,-1.2478 -1.19581,-1.2478 -0.67589,0 -1.2478,0.57191 -1.2478,1.2478 l 0,18.35308 -21.00465,0 0,-18.35308 c 0,-0.67589 -0.57191,-1.2478 -1.2478,-1.2478 -0.6759,0 -1.19581,0.57191 -1.19581,1.2478 l 0,19.54889 0,19.60088 c 0,0.67589 0.51991,1.19581 1.19581,1.19581 z m -39.97191,-40.34558 c 0,0.6759 0.51992,1.2478 1.19581,1.2478 l 14.4537,0 0,37.90197 c 0,0.67589 0.51992,1.19581 1.19581,1.19581 0.67589,0 1.2478,-0.51992 1.2478,-1.19581 l 0,-37.90197 14.40171,0 c 0.67589,0 1.2478,-0.5719 1.2478,-1.2478 0,-0.67589 -0.57191,-1.2478 -1.2478,-1.2478 l -15.64951,0 -15.64951,0 c -0.67589,0 -1.19581,0.57191 -1.19581,1.2478 z m -24.71718,20.01681 0,-8.37066 c 0,-5.71909 4.67926,-10.39835 10.39835,-10.39835 4.10734,0 7.64278,2.33963 9.35851,5.82308 0.20796,0.41593 0.6239,0.67589 1.09182,0.67589 0.15598,0 0.36394,-0.052 0.51992,-0.15598 0.41593,-0.20796 0.67589,-0.6239 0.67589,-1.09182 0,-0.15598 0,-0.36394 -0.10398,-0.51992 -2.13166,-4.26332 -6.44698,-7.22685 -11.54216,-7.22685 -7.07088,0 -12.84196,5.82307 -12.84196,12.89395 l 0,15.90946 c 0,7.07088 5.77108,12.78997 12.84196,12.78997 7.12286,0 12.89394,-5.71909 12.89394,-12.78997 0,-7.07087 -5.77108,-12.89394 -12.89394,-12.89394 -4.26332,0 -8.05872,2.13166 -10.39835,5.35514 z m 0,7.64279 c 0,-0.052 0,-0.052 0,-0.10399 0,-5.71908 4.67926,-10.45033 10.39835,-10.45033 5.77108,0 10.45033,4.73125 10.45033,10.45033 0,5.71909 -4.67925,10.34636 -10.45033,10.34636 -5.6671,0 -10.34636,-4.57528 -10.39835,-10.24237 z m -16.08655,12.68598 c 0.67589,0 1.19581,-0.51992 1.19581,-1.19581 l 0,-39.14977 c 0,-0.31195 -0.10399,-0.6239 -0.36394,-0.83186 -0.20797,-0.25996 -0.51992,-0.36395 -0.83187,-0.36395 0,0 0,-0.052 0,-0.052 l 0,0 c -0.36394,0 -0.6239,0.15598 -0.88386,0.36394 -0.20797,0.25996 -0.36394,0.51992 -0.36394,0.88386 -0.052,4.10735 -3.37946,7.48681 -7.59079,7.48681 -0.6239,0 -1.19581,0.57191 -1.19581,1.2478 0,0.6239 0.57191,1.19581 1.19581,1.19581 3.06751,0 5.77108,-1.35178 7.59079,-3.48344 l 0,32.70279 c 0,0.67589 0.57191,1.19581 1.2478,1.19581 z m -63.5152,-15.75349 7.22684,-20.84868 c 1.55976,4.3673 4.36731,12.53 7.27885,20.84868 l -14.50569,0 z m 21.3166,15.7015 c 0.46793,-0.15598 0.77988,-0.62391 0.77988,-1.14382 0,-0.15598 0,-0.25996 -0.052,-0.41594 -5.30315,-15.23357 -13.62183,-39.14976 -13.62183,-39.14976 -0.10398,-0.15598 -0.20796,-0.31195 -0.31195,-0.46793 -0.10398,-0.10398 -0.25995,-0.20796 -0.46792,-0.25995 -0.10398,-0.052 -0.25996,-0.052 -0.41594,-0.052 -0.10398,0 -0.25995,0 -0.36394,0.052 -0.20796,0.052 -0.36394,0.15597 -0.46792,0.25995 -0.15598,0.15598 -0.25996,0.31195 -0.31195,0.46793 l -13.56984,39.14976 c -0.052,0.15598 -0.10398,0.25996 -0.10398,0.41594 0,0.51991 0.31195,0.98784 0.83186,1.14382 0.10399,0.052 0.25996,0.052 0.41594,0.052 0.46792,0 0.98784,-0.31195 1.14381,-0.77988 l 4.31532,-12.53 16.2734,0 c 1.50776,4.3673 3.01552,8.73461 4.36731,12.53 0.15597,0.46793 0.6239,0.77988 1.14382,0.77988 0.15597,0 0.25996,0 0.41593,-0.052 z m -56.66122,-41.54139 c -0.67589,0 -1.19581,0.57191 -1.19581,1.2478 l 0,39.14977 c 0,0.67589 0.51992,1.19581 1.19581,1.19581 0.6759,0 1.24781,-0.51992 1.24781,-1.19581 l 0,-39.14977 c 0,-0.67589 -0.57191,-1.2478 -1.24781,-1.2478 z m 23.39628,0.36394 C 182.088,943.48399 181.77605,943.38 181.4641,943.38 c -0.31195,0 -0.6239,0.10399 -0.88386,0.31195 l -19.75685,19.60088 c -0.20797,0.20797 -0.36395,0.51992 -0.36395,0.88386 0,0.31195 0.15598,0.6239 0.36395,0.83187 l 19.75685,19.60088 c 0.25996,0.20796 0.57191,0.31195 0.88386,0.31195 0.31195,0 0.6239,-0.10399 0.88386,-0.31195 0.20796,-0.25996 0.31195,-0.57191 0.31195,-0.88386 0,-0.31195 -0.10399,-0.6239 -0.31195,-0.88386 l -18.92499,-18.71702 18.92499,-18.66503 c 0.20796,-0.25996 0.31195,-0.57191 0.31195,-0.88386 0,-0.31195 -0.10399,-0.6239 -0.31195,-0.88386 z m -37.3455,-0.36394 c -0.6239,0 -1.19581,0.57191 -1.19581,1.2478 l 0,39.14977 c 0,0.67589 0.57191,1.19581 1.19581,1.19581 0.67589,0 1.2478,-0.51992 1.2478,-1.19581 l 0,-39.14977 c 0,-0.67589 -0.57191,-1.2478 -1.2478,-1.2478 z m -24.99502,22.04449 c 0,0.67589 0.51992,1.2478 1.19581,1.2478 l 9.61847,0 0,10.86627 c -3.58743,3.32747 -8.11071,4.99121 -12.63399,4.99121 -4.67925,0 -9.4105,-1.76772 -12.99793,-5.35515 -3.58743,-3.58743 -5.355145,-8.26668 -5.355145,-12.99793 0,-4.67926 1.767715,-9.35851 5.355145,-12.94594 3.58743,-3.58743 8.26669,-5.35515 12.94594,-5.35515 4.67925,0 9.4105,1.71573 12.99793,5.30316 0.20797,0.20797 0.51992,0.36394 0.83187,0.36394 0.31195,0 0.6239,-0.15597 0.88386,-0.36394 0.20796,-0.25996 0.36394,-0.57191 0.36394,-0.88386 0,-0.31195 -0.15598,-0.6239 -0.36394,-0.83187 -4.05536,-4.10734 -9.4105,-6.08303 -14.71366,-6.08303 -5.30316,0 -10.60631,2.07967 -14.66166,6.13502 -4.055358,4.05536 -6.083035,9.41051 -6.083035,14.66167 0,5.30315 2.027677,10.6583 6.083035,14.71366 4.05535,4.10734 9.4105,6.08303 14.71365,6.08303 5.30316,0 10.6583,-1.97569 14.71366,-6.08303 0.20797,-0.15598 0.36394,-0.51992 0.36394,-0.83187 l 0,-12.63399 c 0,-0.51992 -0.51992,-1.2478 -1.2478,-1.2478 l -10.81428,0 c -0.67589,0 -1.19581,0.57191 -1.19581,1.2478 z M 67.661538,943.32801 c -0.675892,0 -1.195809,0.57191 -1.195809,1.2478 l 0,39.14977 c 0,0.72788 0.675892,1.19581 1.195809,1.19581 l 23.500257,0 c 0.675892,0 1.19581,-0.51992 1.19581,-1.19581 0,-0.6759 -0.519918,-1.2478 -1.19581,-1.2478 l -22.252455,0 0,-37.90197 c 0,-0.67589 -0.571909,-1.2478 -1.247802,-1.2478 z m -9.620907,1.2478 c 0,-0.67589 -0.571909,-1.2478 -1.247801,-1.2478 l -21.524572,0 c -0.727884,0 -1.195809,0.72789 -1.195809,1.2478 l 0,19.54889 0,19.60088 c 0,0.72788 0.675892,1.19581 1.195809,1.19581 l 21.524572,0 c 0.675892,0 1.247801,-0.51992 1.247801,-1.19581 0,-0.6759 -0.571909,-1.2478 -1.247801,-1.2478 l -20.27677,0 0,-17.10528 16.377391,0 c 0.675892,0 1.195809,-0.57191 1.195809,-1.2478 0,-0.6239 -0.519917,-1.19581 -1.195809,-1.19581 l -16.377391,0 0,-17.10528 20.27677,0 c 0.675892,0 1.247801,-0.5719 1.247801,-1.2478 z m -55.4410448,14.4537 0,-13.2059 6.6029483,0 c 3.6394205,0 6.6029485,2.96353 6.6029485,6.60295 0,2.70357 -1.611744,4.99121 -3.899379,6.03104 -0.571909,0.25996 -1.247801,0.46793 -1.9236938,0.57191 l -7.382824,0 z m 7.5387988,2.44361 3.067512,0 c 5.77108,0.052 10.398343,4.73125 10.398343,10.50233 0,5.87506 -4.679254,10.50233 -10.502327,10.50233 l -10.5023268,0 0,-21.00466 6.2390062,0 c 0.1039835,0 0.2599586,0.052 0.3639421,0.052 0.3119503,0 0.6239006,-0.052 0.9358505,-0.052 z m 5.095189,-2.28763 c 1.81971,-1.66374 3.015519,-4.05536 3.015519,-6.75893 0,-4.9912 -4.055354,-8.99456 -8.9945668,-9.09855 l -7.9027412,0 c -0.51991719,0 -1.24780124,0.51992 -1.24780124,1.2478 l 0,39.09778 c 0,0.6239 0.5719089,1.2478 1.24780124,1.2478 l 11.750128,0 c 7.122866,0 12.945938,-5.71909 12.945938,-12.94594 0,-6.44697 -4.627263,-11.75013 -10.814277,-12.78996 z" />
    </g>
  </g>
</svg>
