<?xml version="1.0" encoding="UTF-8" standalone="no"?>
<!-- Created with Inkscape (http://www.inkscape.org/) -->

<svg
   xmlns:dc="http://purl.org/dc/elements/1.1/"
   xmlns:cc="http://creativecommons.org/ns#"
   xmlns:rdf="http://www.w3.org/1999/02/22-rdf-syntax-ns#"
   xmlns:svg="http://www.w3.org/2000/svg"
   xmlns="http://www.w3.org/2000/svg"
   xmlns:sodipodi="http://sodipodi.sourceforge.net/DTD/sodipodi-0.dtd"
   xmlns:inkscape="http://www.inkscape.org/namespaces/inkscape"
   width="500"
   height="40"
   viewBox="0 0 500.00001 40.000001"
   id="svg2"
   version="1.1"
   inkscape:version="0.91 r13725"
   sodipodi:docname="glacial-indifference.svg">
  <defs
     id="defs4" />
  <sodipodi:namedview
     id="base"
     pagecolor="#ffffff"
     bordercolor="#666666"
     borderopacity="1.0"
     inkscape:pageopacity="0.0"
     inkscape:pageshadow="2"
     inkscape:zoom="0.98994949"
     inkscape:cx="342.93505"
     inkscape:cy="29.725522"
     inkscape:document-units="px"
     inkscape:current-layer="layer1"
     showgrid="false"
     units="px"
     inkscape:window-width="1280"
     inkscape:window-height="709"
     inkscape:window-x="0"
     inkscape:window-y="0"
     inkscape:window-maximized="1" />
  <metadata
     id="metadata7">
    <rdf:RDF>
      <cc:Work
         rdf:about="">
        <dc:format>image/svg+xml</dc:format>
        <dc:type
           rdf:resource="http://purl.org/dc/dcmitype/StillImage" />
        <dc:title></dc:title>
      </cc:Work>
    </rdf:RDF>
  </metadata>
  <g
     inkscape:label="Layer 1"
     inkscape:groupmode="layer"
     id="layer1"
     transform="translate(0,-1012.3622)">
    <g
       transform="scale(1.0174732,0.98282688)"
       style="font-style:normal;font-weight:normal;font-size:40.69892502px;line-height:125%;font-family:sans-serif;letter-spacing:0px;word-spacing:0px;fill:#1a1a1a;fill-opacity:1;stroke:none;stroke-width:1px;stroke-linecap:butt;stroke-linejoin:miter;stroke-opacity:1"
       id="text4136">
      <path
         id="path4210"
         style="font-style:normal;font-variant:normal;font-weight:normal;font-stretch:normal;font-family:'Glacial Indifference';-inkscape-font-specification:'Glacial Indifference';fill:#1a1a1a"
         d="m 491.41343,1046.3716 0,-3.7036 c -0.56978,-0.2442 -1.18027,-0.3663 -1.79075,-0.3663 -2.03495,0 -3.50011,1.1396 -4.43618,3.3374 l -0.1221,0.7325 0,-3.7036 -2.84893,0 0,17.9076 2.84893,0 0,-8.9538 c 0,-1.4652 0.32559,-2.7675 1.01747,-3.9478 0.32559,-0.6105 0.77328,-1.1396 1.30237,-1.5466 0.52908,-0.4069 1.18027,-0.6511 1.91285,-0.6511 0.73258,0 1.42446,0.3256 2.11634,0.8953 z m -18.16442,5.2502 c 0,1.7501 -0.61049,3.2966 -1.83145,4.5583 -1.22097,1.3023 -2.72683,1.9535 -4.47689,1.9535 -1.79075,0 -3.29661,-0.6512 -4.51758,-1.9535 -1.22096,-1.2617 -1.79075,-2.8082 -1.79075,-4.5583 0,-1.7094 0.56979,-3.2559 1.79075,-4.5583 1.22097,-1.3023 2.72683,-1.9535 4.51758,-1.9535 1.75006,0 3.25592,0.6512 4.47689,1.9535 1.22096,1.3024 1.83145,2.8489 1.83145,4.5583 z m 2.84892,8.9538 0,-17.9076 -2.84892,0 0,3.0932 c -0.1628,-0.2442 -0.36629,-0.4477 -0.52909,-0.6512 -1.70935,-1.8722 -3.785,-2.849 -6.22693,-2.849 -2.48264,0 -4.55828,0.9768 -6.26764,2.849 -1.62795,1.8721 -2.44193,4.0292 -2.44193,6.5118 0,2.5233 0.81398,4.6804 2.44193,6.5118 1.70936,1.9129 3.785,2.849 6.26764,2.849 2.44193,0 4.51758,-0.9361 6.22693,-2.849 0.1628,-0.1628 0.36629,-0.3663 0.52909,-0.6105 l 0,3.0525 2.84892,0 z m -23.22701,0 0,-30.5242 -2.84893,0 0,30.5242 2.84893,0 z m -11.22337,-3.0525 0,3.0525 2.84892,0 0,-17.9076 -2.84892,0 0,7.4886 c 0,2.5234 -0.48839,4.4362 -1.42446,5.8607 -0.89538,1.3837 -2.48264,2.0756 -4.68038,2.0756 -1.22097,0 -2.11634,-0.407 -2.64543,-1.2209 -0.52909,-0.814 -0.77328,-1.8315 -0.77328,-3.0118 l 0,-11.1922 -2.84892,0 0,11.1922 c 0,2.0757 0.52908,3.785 1.66865,5.1281 1.13957,1.3024 2.68613,1.9536 4.72108,1.9536 2.64543,0 4.63967,-1.1396 5.98274,-3.4188 z m -21.33321,-5.9013 c 0,1.7501 -0.61049,3.2966 -1.83145,4.5583 -1.22097,1.3023 -2.72683,1.9535 -4.47689,1.9535 -1.75005,0 -3.25591,-0.6512 -4.47688,-1.9535 -1.22096,-1.2617 -1.83145,-2.7675 -1.83145,-4.5583 0,-1.7501 0.61049,-3.2559 1.83145,-4.5583 1.22097,-1.3023 2.72683,-1.9535 4.47688,-1.9535 1.75006,0 3.25592,0.6512 4.47689,1.9535 1.22096,1.3024 1.83145,2.8489 1.83145,4.5583 z m -12.69807,11.3957 -2.93032,0 c 0.32559,1.9128 1.18027,3.5815 2.64543,5.006 1.79075,1.8314 3.9885,2.7268 6.55253,2.7268 2.52333,0 4.72107,-0.8954 6.55253,-2.7268 1.79075,-1.7908 2.72682,-3.9885 2.72682,-6.5526 l 0,-18.8029 -2.84892,0 0,3.0118 c -0.1628,-0.1628 -0.32559,-0.3663 -0.48839,-0.5698 -1.79075,-1.8722 -3.8664,-2.849 -6.22693,-2.849 -2.52334,0 -4.59898,0.9768 -6.30834,2.849 -1.62795,1.8721 -2.44193,4.0292 -2.44193,6.5118 0,2.5233 0.81398,4.6804 2.44193,6.5118 1.70936,1.9129 3.785,2.849 6.30834,2.849 2.44193,0 4.51758,-0.9361 6.22693,-2.849 0.1628,-0.1628 0.32559,-0.3663 0.48839,-0.5291 l 0,3.8664 c 0,1.7908 -0.65118,3.2967 -1.91285,4.5583 -1.26167,1.2617 -2.76753,1.8722 -4.51758,1.8722 -1.79075,0 -3.29661,-0.6105 -4.55828,-1.8722 -0.89538,-0.8954 -1.46516,-1.8721 -1.70936,-3.0117 z m -6.46795,-11.8027 c 0,-2.4419 -0.97677,-4.5583 -2.84892,-6.3897 -1.83145,-1.7501 -4.02919,-2.6455 -6.51183,-2.6455 -2.60473,0 -4.80247,0.9361 -6.63392,2.7676 -1.83145,1.8314 -2.72683,4.0292 -2.72683,6.5932 0,2.6047 0.89538,4.8025 2.72683,6.5932 0.85467,0.8547 1.83145,1.5059 2.97102,1.9943 1.13957,0.4884 2.48263,0.7326 4.06989,0.7326 1.58726,0 3.13382,-0.4884 4.68038,-1.4652 1.54656,-0.9768 2.68613,-2.3605 3.45941,-4.0699 l -3.25592,0 c -0.65118,0.8547 -1.42446,1.5059 -2.36054,1.9942 -0.93607,0.4884 -1.91285,0.6919 -2.93032,0.6919 -1.54656,0 -2.93032,-0.4884 -4.15129,-1.5058 -1.22097,-0.9768 -1.99425,-2.2385 -2.23844,-3.785 l 15.75048,0 0,-1.5059 z m -3.01172,-0.9361 -12.69806,0 c 0.16279,-0.7325 0.44769,-1.4244 0.85468,-2.0756 1.30236,-2.1164 3.13381,-3.1745 5.49435,-3.1745 1.50586,0 2.84893,0.4884 4.0292,1.4651 1.22096,1.0175 1.95354,2.2792 2.31983,3.785 z m -33.81762,-3.378 0,-11.2736 6.43043,0 c 1.66865,0 3.01172,0.5291 4.02919,1.5873 0.97677,1.0582 1.50586,2.3605 1.50586,3.9885 0,1.6279 -0.52909,2.971 -1.58726,4.0699 -1.05817,1.0988 -2.36053,1.6279 -3.94779,1.6279 l -6.43043,0 z m 14.81441,-5.6571 c 0,-2.3606 -0.89538,-4.3955 -2.60474,-5.9828 -1.66865,-1.5465 -3.7443,-2.3605 -6.18623,-2.3605 l -8.87237,0 0,27.6753 2.84893,0 0,-10.948 3.29661,0 8.13978,10.948 3.8257,0 -8.54677,-10.948 c 2.15704,-0.1221 3.98849,-0.8954 5.49435,-2.3199 1.70936,-1.5872 2.60474,-3.6222 2.60474,-6.0641 z m -33.31017,9.9712 c 0,-2.4419 -0.97677,-4.5583 -2.84892,-6.3897 -1.83146,-1.7501 -4.0292,-2.6455 -6.51183,-2.6455 -2.60473,0 -4.80248,0.9361 -6.63393,2.7676 -1.83145,1.8314 -2.72682,4.0292 -2.72682,6.5932 0,2.6047 0.89537,4.8025 2.72682,6.5932 0.85468,0.8547 1.83145,1.5059 2.97102,1.9943 1.13957,0.4884 2.48264,0.7326 4.0699,0.7326 1.58726,0 3.13381,-0.4884 4.68037,-1.4652 1.54656,-0.9768 2.68613,-2.3605 3.45941,-4.0699 l -3.25591,0 c -0.65118,0.8547 -1.42446,1.5059 -2.36054,1.9942 -0.93607,0.4884 -1.91285,0.6919 -2.93032,0.6919 -1.54656,0 -2.93032,-0.4884 -4.15129,-1.5058 -1.22097,-0.9768 -1.99425,-2.2385 -2.23844,-3.785 l 15.75048,0 0,-1.5059 z m -3.01172,-0.9361 -12.69806,0 c 0.16279,-0.7325 0.44768,-1.4244 0.85467,-2.0756 1.30237,-2.1164 3.13382,-3.1745 5.49436,-3.1745 1.50586,0 2.84892,0.4884 4.02919,1.4651 1.22097,1.0175 1.95355,2.2792 2.31984,3.785 z m -18.98541,-1.1802 c -0.56978,-1.9943 -1.66865,-3.6222 -3.25591,-4.8839 -1.66866,-1.2617 -3.50011,-1.9129 -5.53505,-1.9129 -2.56404,0 -4.76178,0.9361 -6.51183,2.7676 -1.79075,1.8314 -2.64543,4.0292 -2.64543,6.5525 0,2.564 0.85468,4.7211 2.64543,6.5932 0.81398,0.8547 1.75005,1.5466 2.88962,2.035 1.09887,0.4884 2.23844,0.7326 3.37801,0.7326 1.13957,0 2.15705,-0.1221 3.05242,-0.4477 2.84893,-1.0175 4.80248,-2.9304 5.81995,-5.82 l -3.21522,0 c -0.56978,1.0175 -1.30236,1.8315 -2.27914,2.4013 -0.97677,0.6104 -1.99424,0.8953 -3.13381,0.8953 -1.75006,0 -3.21522,-0.6105 -4.43619,-1.8721 -1.22096,-1.2617 -1.79075,-2.7675 -1.79075,-4.5176 0,-1.6687 0.56979,-3.1745 1.79075,-4.4362 0.56979,-0.5698 1.22097,-1.0582 1.99425,-1.3837 0.73258,-0.3256 1.66866,-0.5291 2.72683,-0.5291 1.05817,0 2.07564,0.3663 3.13382,1.0581 1.01747,0.7326 1.79075,1.628 2.27914,2.7676 l 3.09311,0 z m -25.1017,11.4771 2.84893,0 0,-11.1922 c 0,-2.0757 -0.56979,-3.7443 -1.62796,-5.006 -0.56979,-0.6512 -1.22097,-1.1396 -1.99425,-1.5059 -0.81398,-0.3663 -1.83145,-0.5698 -3.09312,-0.5698 -1.30236,0 -2.40123,0.3663 -3.37801,1.0175 -0.93607,0.6105 -1.70935,1.4245 -2.27914,2.442 l 0,-3.0932 -2.84892,0 0,17.9076 2.84892,0 0,-7.4886 c 0,-2.2792 0.40699,-4.0699 1.26167,-5.413 0.48839,-0.7326 1.09887,-1.3431 1.87215,-1.8314 0.73258,-0.4477 1.75005,-0.6919 2.97102,-0.6919 1.22097,0 2.07565,0.4477 2.60473,1.2616 0.52909,0.814 0.81398,1.8315 0.81398,2.9711 l 0,11.1922 z m -17.04967,-9.3608 c 0,-2.4419 -0.97677,-4.5583 -2.84892,-6.3897 -1.83145,-1.7501 -4.0292,-2.6455 -6.51183,-2.6455 -2.60473,0 -4.80247,0.9361 -6.63393,2.7676 -1.83145,1.8314 -2.72682,4.0292 -2.72682,6.5932 0,2.6047 0.89537,4.8025 2.72682,6.5932 0.85468,0.8547 1.83146,1.5059 2.97103,1.9943 1.13957,0.4884 2.48263,0.7326 4.06989,0.7326 1.58726,0 3.13382,-0.4884 4.68037,-1.4652 1.54656,-0.9768 2.68613,-2.3605 3.45941,-4.0699 l -3.25591,0 c -0.65118,0.8547 -1.42446,1.5059 -2.36054,1.9942 -0.93607,0.4884 -1.91285,0.6919 -2.93032,0.6919 -1.54656,0 -2.93032,-0.4884 -4.15129,-1.5058 -1.22097,-0.9768 -1.99425,-2.2385 -2.23844,-3.785 l 15.75048,0 0,-1.5059 z m -3.01172,-0.9361 -12.69806,0 c 0.16279,-0.7325 0.44769,-1.4244 0.85467,-2.0756 1.30237,-2.1164 3.13382,-3.1745 5.49436,-3.1745 1.50586,0 2.84892,0.4884 4.02919,1.4651 1.22097,1.0175 1.95355,2.2792 2.31984,3.785 z m -17.92979,-3.9071 0,-3.7036 c -0.56978,-0.2442 -1.18027,-0.3663 -1.79075,-0.3663 -2.03495,0 -3.50011,1.1396 -4.43619,3.3374 l -0.12209,0.7325 0,-3.7036 -2.84893,0 0,17.9076 2.84893,0 0,-8.9538 c 0,-1.4652 0.32559,-2.7675 1.01747,-3.9478 0.32559,-0.6105 0.77328,-1.1396 1.30237,-1.5466 0.52908,-0.4069 1.18027,-0.6511 1.91285,-0.6511 0.73258,0 1.42446,0.3256 2.11634,0.8953 z m -13.87515,4.8432 c 0,-2.4419 -0.97678,-4.5583 -2.84893,-6.3897 -1.83145,-1.7501 -4.02919,-2.6455 -6.51183,-2.6455 -2.60473,0 -4.80247,0.9361 -6.63392,2.7676 -1.83145,1.8314 -2.72683,4.0292 -2.72683,6.5932 0,2.6047 0.89538,4.8025 2.72683,6.5932 0.85468,0.8547 1.83145,1.5059 2.97102,1.9943 1.13957,0.4884 2.48263,0.7326 4.06989,0.7326 1.58726,0 3.13382,-0.4884 4.68038,-1.4652 1.54656,-0.9768 2.68613,-2.3605 3.45941,-4.0699 l -3.25592,0 c -0.65118,0.8547 -1.42446,1.5059 -2.36053,1.9942 -0.93608,0.4884 -1.91285,0.6919 -2.93033,0.6919 -1.54656,0 -2.93032,-0.4884 -4.15129,-1.5058 -1.22096,-0.9768 -1.99424,-2.2385 -2.23844,-3.785 l 15.75049,0 0,-1.5059 z m -3.01172,-0.9361 -12.69807,0 c 0.1628,-0.7325 0.44769,-1.4244 0.85468,-2.0756 1.30236,-2.1164 3.13382,-3.1745 5.49435,-3.1745 1.50586,0 2.84893,0.4884 4.0292,1.4651 1.22096,1.0175 1.95355,2.2792 2.31984,3.785 z m -18.79464,-17.5819 0,-2.6454 -2.03495,0 c -2.03494,0 -3.45941,0.5291 -4.31408,1.5058 -0.85468,0.9768 -1.26167,2.4013 -1.26167,4.192 l 0,6.9188 -3.6222,0 0,2.6455 3.6222,0 0,15.2621 2.84892,0 0,-15.2621 4.76178,0 0,-2.6455 -4.76178,0 0,-7.7328 c 0,-0.6104 0.1221,-1.1395 0.44769,-1.5872 0.28489,-0.407 0.89538,-0.6512 1.87215,-0.6512 l 2.44194,0 z m -13.91077,0 0,-2.6454 -2.03494,0 c -2.03495,0 -3.45941,0.5291 -4.31409,1.5058 -0.85468,0.9768 -1.26167,2.4013 -1.26167,4.192 l 0,6.9188 -3.6222,0 0,2.6455 3.6222,0 0,15.2621 2.84893,0 0,-15.2621 4.76177,0 0,-2.6455 -4.76177,0 0,-7.7328 c 0,-0.6104 0.12209,-1.1395 0.44769,-1.5872 0.28489,-0.407 0.89537,-0.6512 1.87215,-0.6512 l 2.44193,0 z m -16.01566,3.785 c -0.36629,-0.3256 -0.81398,-0.5291 -1.30237,-0.5291 -0.48838,0 -0.93607,0.2035 -1.26166,0.5291 -0.36629,0.3663 -0.52909,0.814 -0.52909,1.3024 0,0.4884 0.1628,0.936 0.52909,1.2616 0.32559,0.3663 0.77328,0.5291 1.26166,0.5291 0.48839,0 0.93608,-0.1628 1.30237,-0.5291 0.32559,-0.3256 0.52909,-0.7732 0.52909,-1.2616 0,-0.4884 -0.2035,-0.9361 -0.52909,-1.3024 z m 0.1628,24.0938 0,-17.9076 -2.84893,0 0,17.9076 2.84893,0 z m -12.0189,-8.9538 c 0,1.7501 -0.61049,3.2966 -1.83146,4.5583 -1.22096,1.3023 -2.72682,1.9535 -4.47688,1.9535 -1.79075,0 -3.29661,-0.6512 -4.51758,-1.9535 -1.22097,-1.2617 -1.79075,-2.8082 -1.79075,-4.5583 0,-1.7094 0.56978,-3.2559 1.79075,-4.5583 1.22097,-1.3023 2.72683,-1.9535 4.51758,-1.9535 1.75006,0 3.25592,0.6512 4.47688,1.9535 1.22097,1.3024 1.83146,2.8489 1.83146,4.5583 z m 2.84892,8.9538 0,-30.5242 -2.84892,0 0,15.7098 c -0.1628,-0.2442 -0.3663,-0.4477 -0.52909,-0.6512 -1.70936,-1.8722 -3.785,-2.849 -6.22694,-2.849 -2.48263,0 -4.55828,0.9768 -6.26763,2.849 -1.62796,1.8721 -2.44194,4.0292 -2.44194,6.5118 0,2.5233 0.81398,4.6804 2.44194,6.5118 1.70935,1.9129 3.785,2.849 6.26763,2.849 2.44194,0 4.51758,-0.9361 6.22694,-2.849 0.16279,-0.1628 0.36629,-0.3663 0.52909,-0.6105 l 0,3.0525 2.84892,0 z m -25.46799,0 2.84892,0 0,-11.1922 c 0,-2.0757 -0.56978,-3.7443 -1.62796,-5.006 -0.56978,-0.6512 -1.22096,-1.1396 -1.99424,-1.5059 -0.81398,-0.3663 -1.83145,-0.5698 -3.09312,-0.5698 -1.30237,0 -2.40124,0.3663 -3.37801,1.0175 -0.93608,0.6105 -1.70936,1.4245 -2.27914,2.442 l 0,-3.0932 -2.84893,0 0,17.9076 2.84893,0 0,-7.4886 c 0,-2.2792 0.40699,-4.0699 1.26167,-5.413 0.48838,-0.7326 1.09887,-1.3431 1.87215,-1.8314 0.73258,-0.4477 1.75005,-0.6919 2.97102,-0.6919 1.22096,0 2.07564,0.4477 2.60473,1.2616 0.52908,0.814 0.81398,1.8315 0.81398,2.9711 l 0,11.1922 z m -18.50593,0 0,-27.6753 -2.84892,0 0,27.6753 2.84892,0 z m -19.95201,0 0,-30.5242 -2.84892,0 0,30.5242 2.84892,0 z m -11.81541,-8.9538 c 0,1.7501 -0.61048,3.2966 -1.83145,4.5583 -1.22096,1.3023 -2.72682,1.9535 -4.47688,1.9535 -1.79075,0 -3.29661,-0.6512 -4.517579,-1.9535 -1.220968,-1.2617 -1.790753,-2.8082 -1.790753,-4.5583 0,-1.7094 0.569785,-3.2559 1.790753,-4.5583 1.220969,-1.3023 2.726829,-1.9535 4.517579,-1.9535 1.75006,0 3.25592,0.6512 4.47688,1.9535 1.22097,1.3024 1.83145,2.8489 1.83145,4.5583 z m 2.84893,8.9538 0,-17.9076 -2.84893,0 0,3.0932 c -0.16279,-0.2442 -0.36629,-0.4477 -0.52908,-0.6512 -1.70936,-1.8722 -3.785,-2.849 -6.22694,-2.849 -2.48263,0 -4.558276,0.9768 -6.267631,2.849 -1.627957,1.8721 -2.441936,4.0292 -2.441936,6.5118 0,2.5233 0.813979,4.6804 2.441936,6.5118 1.709355,1.9129 3.785001,2.849 6.267631,2.849 2.44194,0 4.51758,-0.9361 6.22694,-2.849 0.16279,-0.1628 0.36629,-0.3663 0.52908,-0.6105 l 0,3.0525 2.84893,0 z m -23.504264,-24.0938 c -0.36629,-0.3256 -0.813979,-0.5291 -1.302366,-0.5291 -0.488387,0 -0.936075,0.2035 -1.261666,0.5291 -0.366291,0.3663 -0.529086,0.814 -0.529086,1.3024 0,0.4884 0.162795,0.936 0.529086,1.2616 0.325591,0.3663 0.773279,0.5291 1.261666,0.5291 0.488387,0 0.936076,-0.1628 1.302366,-0.5291 0.325591,-0.3256 0.529086,-0.7732 0.529086,-1.2616 0,-0.4884 -0.203495,-0.9361 -0.529086,-1.3024 z m 0.162796,24.0938 0,-17.9076 -2.848925,0 0,17.9076 2.848925,0 z m -7.549016,-11.4771 c -0.569785,-1.9943 -1.668656,-3.6222 -3.255914,-4.8839 -1.668656,-1.2617 -3.500107,-1.9129 -5.535053,-1.9129 -2.564033,0 -4.761775,0.9361 -6.511828,2.7676 -1.790753,1.8314 -2.645431,4.0292 -2.645431,6.5525 0,2.564 0.854678,4.7211 2.645431,6.5932 0.813978,0.8547 1.750053,1.5466 2.889623,2.035 1.098871,0.4884 2.238441,0.7326 3.378011,0.7326 1.13957,0 2.157043,-0.1221 3.052419,-0.4477 2.848925,-1.0175 4.802474,-2.9304 5.819947,-5.82 l -3.215215,0 c -0.569785,1.0175 -1.302366,1.8315 -2.27914,2.4013 -0.976774,0.6104 -1.994247,0.8953 -3.133817,0.8953 -1.750054,0 -3.215215,-0.6105 -4.436183,-1.8721 -1.220968,-1.2617 -1.790753,-2.7675 -1.790753,-4.5176 0,-1.6687 0.569785,-3.1745 1.790753,-4.4362 0.569785,-0.5698 1.220968,-1.0582 1.994247,-1.3837 0.732581,-0.3256 1.668656,-0.5291 2.726828,-0.5291 1.058172,0 2.075645,0.3663 3.133817,1.0581 1.017473,0.7326 1.790753,1.628 2.27914,2.7676 l 3.093118,0 z m -25.693739,2.5233 c 0,1.7501 -0.610484,3.2966 -1.831452,4.5583 -1.220968,1.3023 -2.726828,1.9535 -4.476882,1.9535 -1.790752,0 -3.296613,-0.6512 -4.51758,-1.9535 -1.220968,-1.2617 -1.790753,-2.8082 -1.790753,-4.5583 0,-1.7094 0.569785,-3.2559 1.790753,-4.5583 1.220967,-1.3023 2.726828,-1.9535 4.51758,-1.9535 1.750054,0 3.255914,0.6512 4.476882,1.9535 1.220968,1.3024 1.831452,2.8489 1.831452,4.5583 z m 2.848924,8.9538 0,-17.9076 -2.848924,0 0,3.0932 c -0.162796,-0.2442 -0.366291,-0.4477 -0.529086,-0.6512 -1.709355,-1.8722 -3.785,-2.849 -6.226936,-2.849 -2.482634,0 -4.55828,0.9768 -6.267634,2.849 -1.627957,1.8721 -2.441936,4.0292 -2.441936,6.5118 0,2.5233 0.813979,4.6804 2.441936,6.5118 1.709354,1.9129 3.785,2.849 6.267634,2.849 2.441936,0 4.517581,-0.9361 6.226936,-2.849 0.162795,-0.1628 0.36629,-0.3663 0.529086,-0.6105 l 0,3.0525 2.848924,0 z m -23.227003,0 0,-30.5242 -2.848925,0 0,30.5242 2.848925,0 z m -7.733432,-12.9423 -14.407419,0 0,2.4826 11.232903,0 c -0.854677,2.4013 -2.27914,4.3548 -4.314086,5.7793 -2.034946,1.4651 -4.314086,2.157 -6.79672,2.157 -3.174516,0 -5.8606455,-1.0988 -8.0990864,-3.3373 -2.1977419,-2.2384 -3.2966129,-4.9653 -3.2966129,-8.0991 0,-3.1338 1.098871,-5.8199 3.3373119,-8.0584 2.1977419,-2.1977 4.8838714,-3.3373 8.0583874,-3.3373 2.360537,0 4.51758,0.6919 6.43043,2.035 1.953548,1.343 3.337312,3.0931 4.232688,5.3315 l 3.011721,0 c -0.936076,-3.0524 -2.68613,-5.4943 -5.209463,-7.3665 -2.523333,-1.8721 -5.453656,-2.8489 -8.750269,-2.8489 -1.790752,0 -3.540806,0.407 -5.2501611,1.1396 -1.7500538,0.7326 -3.255914,1.75 -4.5582796,3.0524 -1.3023656,1.3024 -2.3198387,2.8082 -3.0524194,4.5176 -0.7325806,1.75 -1.098870928610228,3.6222 -1.098870928610228,5.5757 0,1.9536 0.366290328610228,3.8257 1.098870928610228,5.5351 0.7325807,1.75 1.7500538,3.2559 3.0524194,4.5583 1.3023656,1.3023 2.8082258,2.3198 4.5582796,3.0524 1.7093551,0.7326 3.5815051,1.0989 5.5350541,1.0989 3.337312,0 6.349032,-1.0582 9.035161,-3.2153 2.686129,-2.1977 4.354785,-4.9652 4.965269,-8.3432 l 0.284892,-1.7094 z" />
    </g>
  </g>
</svg>
