<?xml version="1.0" encoding="UTF-8" standalone="no"?>
<!-- Created with Inkscape (http://www.inkscape.org/) -->

<svg
   xmlns:dc="http://purl.org/dc/elements/1.1/"
   xmlns:cc="http://creativecommons.org/ns#"
   xmlns:rdf="http://www.w3.org/1999/02/22-rdf-syntax-ns#"
   xmlns:svg="http://www.w3.org/2000/svg"
   xmlns="http://www.w3.org/2000/svg"
   xmlns:sodipodi="http://sodipodi.sourceforge.net/DTD/sodipodi-0.dtd"
   xmlns:inkscape="http://www.inkscape.org/namespaces/inkscape"
   width="400"
   height="90"
   viewBox="0 0 400 90"
   id="svg10308"
   version="1.1"
   inkscape:version="0.91 r13725"
   sodipodi:docname="colors.svg">
  <defs
     id="defs10310">
    <marker
       inkscape:stockid="DotM"
       orient="auto"
       refY="0"
       refX="0"
       id="marker5077"
       style="overflow:visible"
       inkscape:isstock="true">
      <path
         inkscape:connector-curvature="0"
         id="path5079"
         d="m -2.5,-1 c 0,2.76 -2.24,5 -5,5 -2.76,0 -5,-2.24 -5,-5 0,-2.76 2.24,-5 5,-5 2.76,0 5,2.24 5,5 z"
         style="fill:#bbbbbb;fill-opacity:1;fill-rule:evenodd;stroke:#bbbbbb;stroke-width:1pt;stroke-opacity:1"
         transform="matrix(0.4,0,0,0.4,2.96,0.4)" />
    </marker>
    <marker
       inkscape:stockid="DotM"
       orient="auto"
       refY="0"
       refX="0"
       id="marker5081"
       style="overflow:visible"
       inkscape:isstock="true">
      <path
         inkscape:connector-curvature="0"
         id="path5083"
         d="m -2.5,-1 c 0,2.76 -2.24,5 -5,5 -2.76,0 -5,-2.24 -5,-5 0,-2.76 2.24,-5 5,-5 2.76,0 5,2.24 5,5 z"
         style="fill:#bbbbbb;fill-opacity:1;fill-rule:evenodd;stroke:#bbbbbb;stroke-width:1pt;stroke-opacity:1"
         transform="matrix(0.4,0,0,0.4,2.96,0.4)" />
    </marker>
    <marker
       inkscape:stockid="DotM"
       orient="auto"
       refY="0"
       refX="0"
       id="marker5115"
       style="overflow:visible"
       inkscape:isstock="true">
      <path
         inkscape:connector-curvature="0"
         id="path5117"
         d="m -2.5,-1 c 0,2.76 -2.24,5 -5,5 -2.76,0 -5,-2.24 -5,-5 0,-2.76 2.24,-5 5,-5 2.76,0 5,2.24 5,5 z"
         style="fill:#555555;fill-opacity:1;fill-rule:evenodd;stroke:#555555;stroke-width:1pt;stroke-opacity:1"
         transform="matrix(0.4,0,0,0.4,2.96,0.4)" />
    </marker>
    <marker
       inkscape:stockid="DotM"
       orient="auto"
       refY="0"
       refX="0"
       id="marker5111"
       style="overflow:visible"
       inkscape:isstock="true">
      <path
         inkscape:connector-curvature="0"
         id="path5113"
         d="m -2.5,-1 c 0,2.76 -2.24,5 -5,5 -2.76,0 -5,-2.24 -5,-5 0,-2.76 2.24,-5 5,-5 2.76,0 5,2.24 5,5 z"
         style="fill:#555555;fill-opacity:1;fill-rule:evenodd;stroke:#555555;stroke-width:1pt;stroke-opacity:1"
         transform="matrix(0.4,0,0,0.4,2.96,0.4)" />
    </marker>
  </defs>
  <sodipodi:namedview
     id="base"
     pagecolor="#ffffff"
     bordercolor="#666666"
     borderopacity="1.0"
     inkscape:pageopacity="0.0"
     inkscape:pageshadow="2"
     inkscape:zoom="0.98994949"
     inkscape:cx="250.31695"
     inkscape:cy="92.554052"
     inkscape:document-units="px"
     inkscape:current-layer="text5051"
     showgrid="false"
     units="px"
     showguides="true"
     inkscape:guide-bbox="true"
     inkscape:snap-bbox="true"
     inkscape:bbox-paths="true"
     inkscape:bbox-nodes="true"
     inkscape:snap-bbox-midpoints="true"
     inkscape:snap-bbox-edge-midpoints="true"
     inkscape:window-width="1280"
     inkscape:window-height="709"
     inkscape:window-x="0"
     inkscape:window-y="0"
     inkscape:window-maximized="1"
     inkscape:snap-global="true">
    <sodipodi:guide
       position="0,85.714286"
       orientation="1,0"
       id="guide11918" />
    <sodipodi:guide
       position="170.71578,21.213204"
       orientation="0,1"
       id="guide4409" />
    <sodipodi:guide
       position="204.55589,40.957391"
       orientation="0,1"
       id="guide5011" />
    <sodipodi:guide
       position="86.129402,111.75971"
       orientation="0,1"
       id="guide5117" />
    <sodipodi:guide
       position="160.62834,106.1105"
       orientation="0,1"
       id="guide5119" />
    <sodipodi:guide
       position="160.62834,117.40892"
       orientation="0,1"
       id="guide5121" />
    <sodipodi:guide
       position="65.714286,95.374641"
       orientation="0,1"
       id="guide5261" />
    <sodipodi:guide
       position="51.071429,58.665127"
       orientation="0,1"
       id="guide5265" />
    <sodipodi:guide
       position="38.601611,47.929268"
       orientation="0,1"
       id="guide5267" />
    <sodipodi:guide
       position="176.78572,50.446429"
       orientation="1,0"
       id="guide5273" />
  </sodipodi:namedview>
  <metadata
     id="metadata10313">
    <rdf:RDF>
      <cc:Work
         rdf:about="">
        <dc:format>image/svg+xml</dc:format>
        <dc:type
           rdf:resource="http://purl.org/dc/dcmitype/StillImage" />
        <dc:title></dc:title>
      </cc:Work>
    </rdf:RDF>
  </metadata>
  <g
     inkscape:label="Layer 1"
     inkscape:groupmode="layer"
     id="layer1"
     transform="translate(0,-962.36219)">
    <g
       id="g5255"
       transform="matrix(1,0,0,1.0356644,-1.2662659e-7,5.3018428)">
      <path
         inkscape:connector-curvature="0"
         d="m 6.7650807,1005.3545 152.9498393,0"
         style="fill:#0055dd;fill-opacity:1;fill-rule:evenodd;stroke:#0055dd;stroke-width:2.51099992;stroke-linecap:butt;stroke-linejoin:miter;stroke-miterlimit:4;stroke-dasharray:2.511, 7.533;stroke-dashoffset:0;stroke-opacity:1"
         id="path5045" />
      <path
         inkscape:connector-curvature="0"
         d="m 159.79929,1005.3545 152.94984,0"
         style="fill:none;fill-rule:evenodd;stroke:#555555;stroke-width:2.51099992;stroke-linecap:butt;stroke-linejoin:miter;stroke-miterlimit:4;stroke-dasharray:2.511, 7.533;stroke-dashoffset:0;stroke-opacity:1"
         id="path5043" />
    </g>
    <g
       id="g5139"
       transform="matrix(1,0,0,1.0356644,-1.2662659e-7,5.3018428)">
      <path
         transform="matrix(0,1,-1,0,0,0)"
         sodipodi:open="true"
         d="m 1010.8629,-159.69887 a 5.578794,5.6492119 0 0 1 -2.7894,4.89236 5.578794,5.6492119 0 0 1 -5.5788,0 5.578794,5.6492119 0 0 1 -2.78938,-4.89236"
         sodipodi:end="3.1415927"
         sodipodi:start="0"
         sodipodi:ry="5.6492119"
         sodipodi:rx="5.578794"
         sodipodi:cy="-159.69887"
         sodipodi:cx="1005.2841"
         sodipodi:type="arc"
         id="ellipse5123"
         style="fill:#0055dd;fill-opacity:1;stroke:none;stroke-width:2.89199996;stroke-miterlimit:4;stroke-dasharray:2.892, 8.676;stroke-dashoffset:0;stroke-opacity:1" />
      <path
         style="fill:#555555;fill-opacity:1;stroke:none;stroke-width:2.89199996;stroke-miterlimit:4;stroke-dasharray:2.892, 8.676;stroke-dashoffset:0;stroke-opacity:1"
         id="path5137"
         sodipodi:type="arc"
         sodipodi:cx="1005.2841"
         sodipodi:cy="159.69887"
         sodipodi:rx="5.578794"
         sodipodi:ry="5.6492119"
         sodipodi:start="0"
         sodipodi:end="3.1415927"
         d="m 1010.8629,159.69887 a 5.578794,5.6492119 0 0 1 -2.7894,4.89236 5.578794,5.6492119 0 0 1 -5.5788,0 5.578794,5.6492119 0 0 1 -2.78938,-4.89236"
         sodipodi:open="true"
         transform="matrix(0,1,1,0,0,0)" />
    </g>
    <ellipse
       style="fill:#bbbbbb;fill-opacity:1;stroke:none;stroke-width:2.89199996;stroke-miterlimit:4;stroke-dasharray:2.892, 8.67600000000000016;stroke-dashoffset:0;stroke-opacity:1;marker-end:"
       id="ellipse5089"
       cx="394.85028"
       cy="970.65369"
       rx="5.578794"
       ry="5.850687" />
    <ellipse
       ry="5.850687"
       rx="5.578794"
       cy="970.65369"
       cx="160.62834"
       id="ellipse5015"
       style="fill:#222222;fill-opacity:1;stroke:none;stroke-width:2.89199996;stroke-miterlimit:4;stroke-dasharray:2.892, 8.67600000000000016;stroke-dashoffset:0;stroke-opacity:1;marker-end:" />
    <g
       transform="matrix(0.86816211,0,0,0.86189987,18.506883,128.2886)"
       style="font-style:normal;font-weight:normal;font-size:19.411129px;line-height:125%;font-family:sans-serif;letter-spacing:0px;word-spacing:0px;fill:#222222;fill-opacity:1;stroke:none;stroke-width:1px;stroke-linecap:butt;stroke-linejoin:miter;stroke-opacity:1"
       id="text4999">
      <path
         id="path12452"
         style="font-style:normal;font-variant:normal;font-weight:600;font-stretch:normal;font-family:Belgika;-inkscape-font-specification:'Belgika Semi-Bold';fill:#222222;fill-opacity:1"
         d="m 151.11941,967.96755 c -0.15529,-0.1747 -0.36881,-0.25235 -0.60175,-0.25235 -0.21352,0 -0.42704,0.0777 -0.60174,0.25235 l -6.34744,6.2892 0,-5.68746 c 0,-0.46587 -0.38822,-0.85409 -0.85409,-0.85409 -0.46587,0 -0.85409,0.38822 -0.85409,0.85409 l 0,13.58779 c 0,0.46587 0.38822,0.83468 0.85409,0.83468 0.46587,0 0.85409,-0.36881 0.85409,-0.83468 l 0,-5.70687 6.34744,6.30862 c 0.1747,0.15529 0.38822,0.23293 0.60174,0.23293 0.23294,0 0.44646,-0.0776 0.60175,-0.23293 0.1747,-0.1747 0.25234,-0.38823 0.25234,-0.60175 0,-0.23293 -0.0776,-0.44645 -0.25234,-0.60174 l -6.25039,-6.19215 6.25039,-6.19215 c 0.1747,-0.1747 0.25234,-0.38823 0.25234,-0.60175 0,-0.21352 -0.0776,-0.44645 -0.25234,-0.60174 z m -12.80649,11.99607 c -0.1747,-0.1747 -0.38823,-0.25234 -0.60175,-0.25234 -0.21352,0 -0.44646,0.0776 -0.60174,0.25234 -0.83468,0.83468 -1.96053,1.33937 -3.24166,1.33937 -2.54286,0 -4.60044,-2.05758 -4.60044,-4.58102 l 0,-2.71756 c 0,-2.54286 2.05758,-4.60044 4.60044,-4.60044 1.28113,0 2.40698,0.5241 3.24166,1.35878 0.15528,0.15529 0.38822,0.25234 0.60174,0.25234 0.21352,0 0.42705,-0.097 0.60175,-0.25234 0.15528,-0.1747 0.25234,-0.38822 0.25234,-0.60175 0,-0.21352 -0.0971,-0.44645 -0.25234,-0.60174 -1.14526,-1.12585 -2.69815,-1.84406 -4.44515,-1.84406 -3.47459,0 -6.28921,2.81462 -6.28921,6.28921 l 0,2.71756 c 0,3.47459 2.81462,6.26979 6.28921,6.26979 1.747,0 3.29989,-0.6988 4.44515,-1.84406 0.15528,-0.15529 0.23293,-0.36881 0.23293,-0.60174 0,-0.21352 -0.0777,-0.42705 -0.23293,-0.58234 z m -20.5112,-3.28048 1.9217,-5.53217 c 0.50469,1.47525 1.20349,3.45518 1.9217,5.53217 l -3.8434,0 z m 2.71756,-8.40502 c -0.0388,-0.13587 -0.13588,-0.27175 -0.25235,-0.36881 -0.0776,-0.0582 -0.1747,-0.11646 -0.27175,-0.15529 -0.0388,0 -0.0777,-0.0194 -0.11647,-0.0194 -0.0388,-0.0194 -0.097,-0.0194 -0.15529,-0.0194 0,0 0,0 0,0 -0.3494,0 -0.67939,0.23294 -0.79585,0.56292 l -4.73632,13.58779 c -0.0194,0.0971 -0.0388,0.19412 -0.0388,0.27176 0,0.36881 0.21352,0.6988 0.56292,0.81527 0.0971,0.0388 0.19411,0.0388 0.27176,0.0388 0.36881,0 0.6988,-0.21352 0.81526,-0.56292 l 1.41702,-4.05693 5.02748,0 c 0.48528,1.41701 0.97056,2.81462 1.41701,4.05693 0.11647,0.3494 0.44646,0.56292 0.79586,0.56292 0.0971,0 0.19411,0 0.29117,-0.0388 0.32998,-0.11647 0.56292,-0.44646 0.56292,-0.81527 0,-0.0776 -0.0194,-0.1747 -0.0582,-0.27176 -1.80523,-5.18277 -4.61984,-13.29662 -4.73631,-13.58779 z m -16.62715,-0.56292 c -0.46587,0 -0.85409,0.38822 -0.85409,0.85409 l 0,13.58779 c 0,0.50469 0.48528,0.83468 0.85409,0.83468 l 8.15268,0 c 0.46586,0 0.85409,-0.36881 0.85409,-0.83468 0,-0.46587 -0.38823,-0.85409 -0.85409,-0.85409 l -7.29859,0 0,-12.7337 c 0,-0.46587 -0.38822,-0.85409 -0.85409,-0.85409 z m -11.979698,5.43512 0,-3.74635 1.88288,0 c 1.028789,0.0194 1.863468,0.85409 1.863468,1.88288 0,0.6988 -0.368812,1.30055 -0.931734,1.63053 -0.194112,0.11647 -0.427045,0.19412 -0.67939,0.23294 l -2.135224,0 z m 2.23228,1.68877 1.02879,0 c 1.785824,0.0194 3.202836,1.45583 3.202836,3.24165 0,1.78583 -1.455835,3.22225 -3.222247,3.22225 l -3.241659,-0.0194 0,-6.44449 1.708179,0 c 0.05823,0.0194 0.116467,0.0194 0.174701,0.0194 0.116466,0 0.232933,0 0.3494,-0.0194 z m 2.523447,-1.45584 c 0.427044,-0.58233 0.6988,-1.30054 0.6988,-2.0964 0,-1.97994 -1.611123,-3.55224 -3.552236,-3.57165 l -2.73697,0 c -0.368811,0 -0.854089,0.32999 -0.854089,0.85409 l 0,13.56838 c 0,0.40763 0.368811,0.85409 0.854089,0.85409 l 4.076338,0 c 2.717558,0 4.930429,-2.17405 4.930429,-4.91102 0,-2.19345 -1.436426,-4.03751 -3.416361,-4.69749 z"
         inkscape:connector-curvature="0" />
    </g>
    <rect
       y="987.62311"
       x="161.2419"
       height="38.018734"
       width="77.734055"
       id="rect4553"
       style="fill:#555555;fill-opacity:1;stroke:none;stroke-width:1;stroke-miterlimit:4;stroke-dasharray:none;stroke-dashoffset:0;stroke-opacity:1" />
    <path
       id="rect4614"
       style="fill:#222222;fill-opacity:1;stroke:none;stroke-width:1;stroke-miterlimit:4;stroke-dasharray:none;stroke-dashoffset:0;stroke-opacity:1;marker-end:"
       d="m 83.50782,987.6231 77.73405,0 0,38.0188 -77.73405,0 z"
       inkscape:connector-curvature="0" />
    <rect
       style="fill:#eeeeee;fill-opacity:1;stroke:none;stroke-width:1;stroke-miterlimit:4;stroke-dasharray:none;stroke-dashoffset:0;stroke-opacity:1"
       id="rect4620"
       width="77.734055"
       height="38.018734"
       x="316.71011"
       y="987.62311" />
    <rect
       y="987.62311"
       x="238.97603"
       height="38.018734"
       width="77.734055"
       id="rect4626"
       style="fill:#9c9c9c;fill-opacity:1;stroke:none;stroke-width:1;stroke-miterlimit:4;stroke-dasharray:none;stroke-dashoffset:0;stroke-opacity:1" />
    <rect
       style="fill:#0055dd;fill-opacity:1;stroke:none;stroke-width:1;stroke-miterlimit:4;stroke-dasharray:none;stroke-dashoffset:0;stroke-opacity:1"
       id="rect4638"
       width="77.734055"
       height="38.018734"
       x="5.7737412"
       y="987.62311" />
    <g
       transform="matrix(1.0133735,0,0,1.0219967,-1.2662659e-7,-30.422025)"
       style="font-style:normal;font-weight:normal;font-size:13.68063068px;line-height:125%;font-family:sans-serif;letter-spacing:0px;word-spacing:0px;fill:#ffffff;fill-opacity:1;stroke:none;stroke-width:1px;stroke-linecap:butt;stroke-linejoin:miter;stroke-opacity:1"
       id="text4555">
      <path
         id="path12844"
         style="font-style:normal;font-variant:normal;font-weight:bold;font-stretch:normal;font-family:Belgika;-inkscape-font-specification:'Belgika Bold';text-align:center;text-anchor:middle;fill:#ffffff;fill-opacity:1"
         d="m 220.87732,1017.7517 c -0.34202,0.1368 -0.56091,0.4788 -0.56091,0.8345 0,0.1231 0.0274,0.2462 0.0684,0.3557 0.54723,1.286 1.83321,2.2026 3.3244,2.2026 1.99737,0 3.62536,-1.6143 3.62536,-3.6117 0,-1.9837 -1.58695,-3.5707 -3.57064,-3.6254 l -0.82084,0 0,-1.8742 2.74981,0 c 0.4925,0 0.90292,-0.4241 0.90292,-0.9166 0,-0.4925 -0.41042,-0.9166 -0.90292,-0.9166 l -3.66641,0 c -0.4925,0 -0.9166,0.4241 -0.9166,0.9166 l 0,3.7074 c 0,0.5062 0.4241,0.9166 0.9166,0.9166 l 1.71008,0 c 0.985,0.027 1.7648,0.8209 1.7648,1.7922 0,0.9987 -0.79348,1.7921 -1.79216,1.7921 -0.72508,0 -1.36807,-0.4514 -1.64168,-1.0944 -0.15049,-0.342 -0.4925,-0.5609 -0.8482,-0.5609 -0.10944,0 -0.23257,0.027 -0.34201,0.082 z m -8.44352,0 c -0.34201,0.1368 -0.5609,0.4788 -0.5609,0.8345 0,0.1231 0.0274,0.2462 0.0684,0.3557 0.54723,1.286 1.83321,2.2026 3.3244,2.2026 1.99737,0 3.62536,-1.6143 3.62536,-3.6117 0,-1.9837 -1.58695,-3.5707 -3.57064,-3.6254 l -0.82084,0 0,-1.8742 2.74981,0 c 0.4925,0 0.90292,-0.4241 0.90292,-0.9166 0,-0.4925 -0.41042,-0.9166 -0.90292,-0.9166 l -3.66641,0 c -0.49251,0 -0.9166,0.4241 -0.9166,0.9166 l 0,3.7074 c 0,0.5062 0.42409,0.9166 0.9166,0.9166 l 1.71008,0 c 0.985,0.027 1.7648,0.8209 1.7648,1.7922 0,0.9987 -0.79348,1.7921 -1.79216,1.7921 -0.72508,0 -1.36807,-0.4514 -1.64168,-1.0944 -0.15049,-0.342 -0.4925,-0.5609 -0.8482,-0.5609 -0.10944,0 -0.23257,0.027 -0.34202,0.082 z m -8.44351,0 c -0.34202,0.1368 -0.56091,0.4788 -0.56091,0.8345 0,0.1231 0.0274,0.2462 0.0684,0.3557 0.54722,1.286 1.8332,2.2026 3.32439,2.2026 1.99737,0 3.62537,-1.6143 3.62537,-3.6117 0,-1.9837 -1.58696,-3.5707 -3.57065,-3.6254 l -0.82084,0 0,-1.8742 2.74981,0 c 0.4925,0 0.90292,-0.4241 0.90292,-0.9166 0,-0.4925 -0.41042,-0.9166 -0.90292,-0.9166 l -3.66641,0 c -0.4925,0 -0.9166,0.4241 -0.9166,0.9166 l 0,3.7074 c 0,0.5062 0.4241,0.9166 0.9166,0.9166 l 1.71008,0 c 0.98501,0.027 1.7648,0.8209 1.7648,1.7922 0,0.9987 -0.79347,1.7921 -1.79216,1.7921 -0.72507,0 -1.36806,-0.4514 -1.64168,-1.0944 -0.15048,-0.342 -0.4925,-0.5609 -0.8482,-0.5609 -0.10944,0 -0.23257,0.027 -0.34201,0.082 z m -8.44351,0 c -0.34202,0.1368 -0.56091,0.4788 -0.56091,0.8345 0,0.1231 0.0274,0.2462 0.0684,0.3557 0.54723,1.286 1.83321,2.2026 3.3244,2.2026 1.99737,0 3.62536,-1.6143 3.62536,-3.6117 0,-1.9837 -1.58695,-3.5707 -3.57064,-3.6254 l -0.82084,0 0,-1.8742 2.74981,0 c 0.4925,0 0.90292,-0.4241 0.90292,-0.9166 0,-0.4925 -0.41042,-0.9166 -0.90292,-0.9166 l -3.66641,0 c -0.4925,0 -0.9166,0.4241 -0.9166,0.9166 l 0,3.7074 c 0,0.5062 0.4241,0.9166 0.9166,0.9166 l 1.71008,0 c 0.985,0.027 1.7648,0.8209 1.7648,1.7922 0,0.9987 -0.79348,1.7921 -1.79216,1.7921 -0.72508,0 -1.36807,-0.4514 -1.64168,-1.0944 -0.15049,-0.342 -0.4925,-0.5609 -0.8482,-0.5609 -0.10944,0 -0.23257,0.027 -0.34201,0.082 z m -8.44352,0 c -0.34201,0.1368 -0.5609,0.4788 -0.5609,0.8345 0,0.1231 0.0274,0.2462 0.0684,0.3557 0.54722,1.286 1.8332,2.2026 3.32439,2.2026 1.99737,0 3.62537,-1.6143 3.62537,-3.6117 0,-1.9837 -1.58695,-3.5707 -3.57065,-3.6254 l -0.82083,0 0,-1.8742 2.7498,0 c 0.49251,0 0.90292,-0.4241 0.90292,-0.9166 0,-0.4925 -0.41041,-0.9166 -0.90292,-0.9166 l -3.66641,0 c -0.4925,0 -0.9166,0.4241 -0.9166,0.9166 l 0,3.7074 c 0,0.5062 0.4241,0.9166 0.9166,0.9166 l 1.71008,0 c 0.98501,0.027 1.7648,0.8209 1.7648,1.7922 0,0.9987 -0.79347,1.7921 -1.79216,1.7921 -0.72507,0 -1.36806,-0.4514 -1.64167,-1.0944 -0.15049,-0.342 -0.49251,-0.5609 -0.8482,-0.5609 -0.10945,0 -0.23257,0.027 -0.34202,0.082 z m -8.44351,0 c -0.34202,0.1368 -0.56091,0.4788 -0.56091,0.8345 0,0.1231 0.0274,0.2462 0.0684,0.3557 0.54722,1.286 1.8332,2.2026 3.32439,2.2026 1.99737,0 3.62537,-1.6143 3.62537,-3.6117 0,-1.9837 -1.58696,-3.5707 -3.57065,-3.6254 l -0.82084,0 0,-1.8742 2.74981,0 c 0.4925,0 0.90292,-0.4241 0.90292,-0.9166 0,-0.4925 -0.41042,-0.9166 -0.90292,-0.9166 l -3.66641,0 c -0.4925,0 -0.9166,0.4241 -0.9166,0.9166 l 0,3.7074 c 0,0.5062 0.4241,0.9166 0.9166,0.9166 l 1.71008,0 c 0.98501,0.027 1.7648,0.8209 1.7648,1.7922 0,0.9987 -0.79348,1.7921 -1.79216,1.7921 -0.72507,0 -1.36806,-0.4514 -1.64168,-1.0944 -0.15048,-0.342 -0.4925,-0.5609 -0.8482,-0.5609 -0.10944,0 -0.23257,0.027 -0.34201,0.082 z m -6.29737,-1.4228 -1.28598,0 0.23257,-0.7114 1.2723,0 -0.21889,0.7114 z m -0.30097,-6.0742 c -0.0958,-0.027 -0.17785,-0.041 -0.27361,-0.041 -0.38306,0 -0.75244,0.2463 -0.87556,0.6294 l -0.94397,2.955 -0.58826,0 c -0.49251,0 -0.90293,0.4104 -0.90293,0.9166 0,0.4925 0.41042,0.9029 0.90293,0.9029 l 0.0137,0 -0.23257,0.7114 -0.65667,0 c -0.49251,0 -0.90293,0.4104 -0.90293,0.9166 0,0.4925 0.41042,0.9029 0.90293,0.9029 l 0.0821,0 -0.57459,1.8195 c -0.0274,0.082 -0.041,0.1779 -0.041,0.26 0,0.3967 0.24625,0.7524 0.62931,0.8755 0.0958,0.027 0.17785,0.041 0.27361,0.041 0.38306,0 0.75244,-0.2463 0.87556,-0.6293 l 0.75244,-2.3668 1.2723,0 -0.57459,1.8195 c -0.0274,0.082 -0.041,0.1779 -0.041,0.26 0,0.3967 0.24625,0.7524 0.62931,0.8755 0.0958,0.027 0.19153,0.041 0.27361,0.041 0.39674,0 0.75243,-0.2463 0.87556,-0.6293 l 0.75243,-2.3668 0.60195,0 c 0.4925,0 0.90292,-0.4104 0.90292,-0.9029 0,-0.5062 -0.41042,-0.9166 -0.90292,-0.9166 l -0.0137,0 0.21889,-0.7114 0.56091,0 c 0.4925,0 0.90292,-0.4104 0.90292,-0.9029 0,-0.4925 -0.39674,-0.9029 -0.87556,-0.9166 l 0.76611,-2.4078 c 0.0274,-0.082 0.041,-0.1779 0.041,-0.26 0,-0.3967 -0.25994,-0.7524 -0.64299,-0.8755 -0.0821,-0.027 -0.17785,-0.041 -0.27362,-0.041 -0.38305,0 -0.73875,0.2463 -0.86188,0.6294 l -0.94396,2.955 -1.28598,0 0.76612,-2.4078 c 0.0274,-0.082 0.041,-0.1779 0.041,-0.26 0,-0.3967 -0.24625,-0.7524 -0.62931,-0.8755 z"
         inkscape:connector-curvature="0" />
    </g>
    <g
       transform="matrix(1.0133735,0,0,1.0219967,-1.2662659e-7,-30.422025)"
       style="font-style:normal;font-weight:normal;font-size:13.68063068px;line-height:125%;font-family:sans-serif;letter-spacing:0px;word-spacing:0px;fill:#ffffff;fill-opacity:1;stroke:none;stroke-width:1px;stroke-linecap:butt;stroke-linejoin:miter;stroke-opacity:1"
       id="text4616">
      <path
         id="path12862"
         style="font-style:normal;font-variant:normal;font-weight:bold;font-stretch:normal;font-family:Belgika;-inkscape-font-specification:'Belgika Bold';text-align:center;text-anchor:middle;fill:#ffffff;fill-opacity:1"
         d="m 145.29097,1013.0592 c 0.12312,0.055 0.23257,0.082 0.35569,0.082 0.3557,0 0.69771,-0.2189 0.8482,-0.5609 0.041,-0.1094 0.0821,-0.1779 0.19153,-0.2736 0.19153,-0.1915 0.39674,-0.2736 0.65667,-0.2736 0.50618,0 0.94396,0.4241 0.94396,0.9303 0,0.041 -0.041,0.2188 -0.12312,0.3693 l -3.8853,6.4299 c 0,0 -0.25993,0.3831 -0.25993,0.7388 0,0.3283 0.21889,0.643 1.03973,0.643 l 4.4462,0 c 0.4925,0 0.9166,-0.4104 0.9166,-0.903 0,-0.5061 -0.4241,-0.9166 -0.9166,-0.9166 l -2.83189,0 3.07814,-5.0755 c 0,-0.014 0.0137,-0.041 0.0274,-0.055 0.17785,-0.3557 0.32834,-0.7661 0.32834,-1.2312 0,-1.5323 -1.25862,-2.7635 -2.76349,-2.7635 -0.75243,0 -1.43647,0.3146 -1.92897,0.7934 -0.23257,0.2326 -0.46514,0.5473 -0.60195,0.8756 -0.0547,0.1094 -0.0684,0.2326 -0.0684,0.3557 0,0.3557 0.20521,0.6977 0.54723,0.8345 z m -8.44352,0 c 0.12313,0.055 0.23257,0.082 0.3557,0.082 0.3557,0 0.69771,-0.2189 0.8482,-0.5609 0.041,-0.1094 0.0821,-0.1779 0.19153,-0.2736 0.19153,-0.1915 0.39674,-0.2736 0.65667,-0.2736 0.50618,0 0.94396,0.4241 0.94396,0.9303 0,0.041 -0.041,0.2188 -0.12312,0.3693 l -3.8853,6.4299 c 0,0 -0.25993,0.3831 -0.25993,0.7388 0,0.3283 0.21889,0.643 1.03972,0.643 l 4.44621,0 c 0.4925,0 0.9166,-0.4104 0.9166,-0.903 0,-0.5061 -0.4241,-0.9166 -0.9166,-0.9166 l -2.83189,0 3.07814,-5.0755 c 0,-0.014 0.0137,-0.041 0.0274,-0.055 0.17785,-0.3557 0.32834,-0.7661 0.32834,-1.2312 0,-1.5323 -1.25862,-2.7635 -2.76349,-2.7635 -0.75244,0 -1.43647,0.3146 -1.92897,0.7934 -0.23257,0.2326 -0.46514,0.5473 -0.60195,0.8756 -0.0547,0.1094 -0.0684,0.2326 -0.0684,0.3557 0,0.3557 0.20521,0.6977 0.54722,0.8345 z m -8.44351,0 c 0.12312,0.055 0.23257,0.082 0.35569,0.082 0.3557,0 0.69772,-0.2189 0.8482,-0.5609 0.041,-0.1094 0.0821,-0.1779 0.19153,-0.2736 0.19153,-0.1915 0.39674,-0.2736 0.65667,-0.2736 0.50619,0 0.94397,0.4241 0.94397,0.9303 0,0.041 -0.0411,0.2188 -0.12313,0.3693 l -3.8853,6.4299 c 0,0 -0.25993,0.3831 -0.25993,0.7388 0,0.3283 0.21889,0.643 1.03973,0.643 l 4.4462,0 c 0.49251,0 0.9166,-0.4104 0.9166,-0.903 0,-0.5061 -0.42409,-0.9166 -0.9166,-0.9166 l -2.83189,0 3.07814,-5.0755 c 0,-0.014 0.0137,-0.041 0.0274,-0.055 0.17784,-0.3557 0.32833,-0.7661 0.32833,-1.2312 0,-1.5323 -1.25862,-2.7635 -2.76349,-2.7635 -0.75243,0 -1.43646,0.3146 -1.92897,0.7934 -0.23257,0.2326 -0.46514,0.5473 -0.60194,0.8756 -0.0547,0.1094 -0.0684,0.2326 -0.0684,0.3557 0,0.3557 0.20521,0.6977 0.54723,0.8345 z m -8.44351,0 c 0.12312,0.055 0.23257,0.082 0.35569,0.082 0.3557,0 0.69772,-0.2189 0.8482,-0.5609 0.041,-0.1094 0.0821,-0.1779 0.19153,-0.2736 0.19153,-0.1915 0.39674,-0.2736 0.65667,-0.2736 0.50618,0 0.94396,0.4241 0.94396,0.9303 0,0.041 -0.041,0.2188 -0.12312,0.3693 l -3.8853,6.4299 c 0,0 -0.25993,0.3831 -0.25993,0.7388 0,0.3283 0.21889,0.643 1.03973,0.643 l 4.4462,0 c 0.4925,0 0.9166,-0.4104 0.9166,-0.903 0,-0.5061 -0.4241,-0.9166 -0.9166,-0.9166 l -2.83189,0 3.07814,-5.0755 c 0,-0.014 0.0137,-0.041 0.0274,-0.055 0.17785,-0.3557 0.32834,-0.7661 0.32834,-1.2312 0,-1.5323 -1.25862,-2.7635 -2.76349,-2.7635 -0.75243,0 -1.43647,0.3146 -1.92897,0.7934 -0.23257,0.2326 -0.46514,0.5473 -0.60195,0.8756 -0.0547,0.1094 -0.0684,0.2326 -0.0684,0.3557 0,0.3557 0.20521,0.6977 0.54723,0.8345 z m -8.44352,0 c 0.12313,0.055 0.23257,0.082 0.3557,0.082 0.35569,0 0.69771,-0.2189 0.8482,-0.5609 0.041,-0.1094 0.0821,-0.1779 0.19152,-0.2736 0.19153,-0.1915 0.39674,-0.2736 0.65668,-0.2736 0.50618,0 0.94396,0.4241 0.94396,0.9303 0,0.041 -0.041,0.2188 -0.12313,0.3693 l -3.8853,6.4299 c 0,0 -0.25993,0.3831 -0.25993,0.7388 0,0.3283 0.21889,0.643 1.03973,0.643 l 4.4462,0 c 0.49251,0 0.91661,-0.4104 0.91661,-0.903 0,-0.5061 -0.4241,-0.9166 -0.91661,-0.9166 l -2.83189,0 3.07815,-5.0755 c 0,-0.014 0.0137,-0.041 0.0274,-0.055 0.17785,-0.3557 0.32833,-0.7661 0.32833,-1.2312 0,-1.5323 -1.25862,-2.7635 -2.76348,-2.7635 -0.75244,0 -1.43647,0.3146 -1.92897,0.7934 -0.23257,0.2326 -0.46515,0.5473 -0.60195,0.8756 -0.0547,0.1094 -0.0684,0.2326 -0.0684,0.3557 0,0.3557 0.2052,0.6977 0.54722,0.8345 z m -8.44351,0 c 0.12312,0.055 0.23257,0.082 0.35569,0.082 0.3557,0 0.69772,-0.2189 0.8482,-0.5609 0.0411,-0.1094 0.0821,-0.1779 0.19153,-0.2736 0.19153,-0.1915 0.39674,-0.2736 0.65667,-0.2736 0.50619,0 0.94397,0.4241 0.94397,0.9303 0,0.041 -0.0411,0.2188 -0.12313,0.3693 l -3.8853,6.4299 c 0,0 -0.25993,0.3831 -0.25993,0.7388 0,0.3283 0.21889,0.643 1.03973,0.643 l 4.4462,0 c 0.4925,0 0.9166,-0.4104 0.9166,-0.903 0,-0.5061 -0.4241,-0.9166 -0.9166,-0.9166 l -2.83189,0 3.07814,-5.0755 c 0,-0.014 0.0137,-0.041 0.0274,-0.055 0.17785,-0.3557 0.32834,-0.7661 0.32834,-1.2312 0,-1.5323 -1.25862,-2.7635 -2.76349,-2.7635 -0.75243,0 -1.43646,0.3146 -1.92897,0.7934 -0.23257,0.2326 -0.46514,0.5473 -0.60194,0.8756 -0.0547,0.1094 -0.0684,0.2326 -0.0684,0.3557 0,0.3557 0.20521,0.6977 0.54723,0.8345 z m -7.21397,3.2697 -1.285979,0 0.232571,-0.7114 1.272299,0 -0.218891,0.7114 z m -0.300973,-6.0742 c -0.09577,-0.027 -0.177849,-0.041 -0.273613,-0.041 -0.383058,0 -0.752435,0.2463 -0.87556,0.6294 l -0.943964,2.955 -0.588267,0 c -0.492503,0 -0.902922,0.4104 -0.902922,0.9166 0,0.4925 0.410419,0.9029 0.902922,0.9029 l 0.01368,0 -0.232571,0.7114 -0.65667,0 c -0.492503,0 -0.902922,0.4104 -0.902922,0.9166 0,0.4925 0.410419,0.9029 0.902922,0.9029 l 0.08208,0 -0.574586,1.8195 c -0.02736,0.082 -0.04104,0.1779 -0.04104,0.26 0,0.3967 0.246251,0.7524 0.629309,0.8755 0.09576,0.027 0.177848,0.041 0.273613,0.041 0.383057,0 0.752434,-0.2463 0.87556,-0.6293 l 0.752435,-2.3668 1.272298,0 -0.574586,1.8195 c -0.02736,0.082 -0.04104,0.1779 -0.04104,0.26 0,0.3967 0.246251,0.7524 0.629309,0.8755 0.09576,0.027 0.191529,0.041 0.273613,0.041 0.396738,0 0.752434,-0.2463 0.87556,-0.6293 l 0.752435,-2.3668 0.601947,0 c 0.492503,0 0.902922,-0.4104 0.902922,-0.9029 0,-0.5062 -0.410419,-0.9166 -0.902922,-0.9166 l -0.01368,0 0.21889,-0.7114 0.560906,0 c 0.492502,0 0.902921,-0.4104 0.902921,-0.9029 0,-0.4925 -0.396738,-0.9029 -0.87556,-0.9166 l 0.766115,-2.4078 c 0.02736,-0.082 0.04104,-0.1779 0.04104,-0.26 0,-0.3967 -0.259932,-0.7524 -0.642989,-0.8755 -0.08208,-0.027 -0.177849,-0.041 -0.273613,-0.041 -0.383058,0 -0.738754,0.2463 -0.86188,0.6294 l -0.943963,2.955 -1.28598,0 0.766116,-2.4078 c 0.02736,-0.082 0.04104,-0.1779 0.04104,-0.26 0,-0.3967 -0.246252,-0.7524 -0.629309,-0.8755 z"
         inkscape:connector-curvature="0" />
    </g>
    <g
       transform="matrix(1.0133735,0,0,1.0219967,-1.2662659e-7,-30.422025)"
       style="font-style:normal;font-weight:normal;font-size:13.68063068px;line-height:125%;font-family:sans-serif;letter-spacing:0px;word-spacing:0px;fill:#222222;fill-opacity:1;stroke:none;stroke-width:1px;stroke-linecap:butt;stroke-linejoin:miter;stroke-opacity:1"
       id="text4622">
      <path
         id="path12812"
         style="font-style:normal;font-variant:normal;font-weight:bold;font-stretch:normal;font-family:Belgika;-inkscape-font-specification:'Belgika Bold';text-align:center;text-anchor:middle;fill:#222222;fill-opacity:1"
         d="m 382.76155,1011.1166 c 0,-0.4925 -0.4241,-0.9166 -0.9166,-0.9166 l -5.02079,0 c -0.54723,0 -0.90292,0.5335 -0.90292,0.9166 l 0,4.5556 0,4.5693 c 0,0.5473 0.51986,0.903 0.90292,0.903 l 5.02079,0 c 0.4925,0 0.9166,-0.4104 0.9166,-0.903 0,-0.5061 -0.4241,-0.9166 -0.9166,-0.9166 l -4.10419,0 0,-2.7361 3.18759,0 c 0.4925,0 0.9166,-0.4104 0.9166,-0.9166 0,-0.4925 -0.4241,-0.9029 -0.9166,-0.9029 l -3.18759,0 0,-2.7361 4.10419,0 c 0.4925,0 0.9166,-0.4241 0.9166,-0.9166 z m -9.13823,0 c 0,-0.4925 -0.4241,-0.9166 -0.9166,-0.9166 l -5.02079,0 c -0.54723,0 -0.90292,0.5335 -0.90292,0.9166 l 0,4.5556 0,4.5693 c 0,0.5473 0.51986,0.903 0.90292,0.903 l 5.02079,0 c 0.4925,0 0.9166,-0.4104 0.9166,-0.903 0,-0.5061 -0.4241,-0.9166 -0.9166,-0.9166 l -4.10419,0 0,-2.7361 3.18759,0 c 0.4925,0 0.9166,-0.4104 0.9166,-0.9166 0,-0.4925 -0.4241,-0.9029 -0.9166,-0.9029 l -3.18759,0 0,-2.7361 4.10419,0 c 0.4925,0 0.9166,-0.4241 0.9166,-0.9166 z m -9.13824,0 c 0,-0.4925 -0.4241,-0.9166 -0.9166,-0.9166 l -5.02079,0 c -0.54723,0 -0.90292,0.5335 -0.90292,0.9166 l 0,4.5556 0,4.5693 c 0,0.5473 0.51986,0.903 0.90292,0.903 l 5.02079,0 c 0.4925,0 0.9166,-0.4104 0.9166,-0.903 0,-0.5061 -0.4241,-0.9166 -0.9166,-0.9166 l -4.10419,0 0,-2.7361 3.18759,0 c 0.4925,0 0.9166,-0.4104 0.9166,-0.9166 0,-0.4925 -0.4241,-0.9029 -0.9166,-0.9029 l -3.18759,0 0,-2.7361 4.10419,0 c 0.4925,0 0.9166,-0.4241 0.9166,-0.9166 z m -9.13823,0 c 0,-0.4925 -0.4241,-0.9166 -0.9166,-0.9166 l -5.02079,0 c -0.54723,0 -0.90292,0.5335 -0.90292,0.9166 l 0,4.5556 0,4.5693 c 0,0.5473 0.51986,0.903 0.90292,0.903 l 5.02079,0 c 0.4925,0 0.9166,-0.4104 0.9166,-0.903 0,-0.5061 -0.4241,-0.9166 -0.9166,-0.9166 l -4.10419,0 0,-2.7361 3.18759,0 c 0.4925,0 0.9166,-0.4104 0.9166,-0.9166 0,-0.4925 -0.4241,-0.9029 -0.9166,-0.9029 l -3.18759,0 0,-2.7361 4.10419,0 c 0.4925,0 0.9166,-0.4241 0.9166,-0.9166 z m -9.13823,0 c 0,-0.4925 -0.4241,-0.9166 -0.91661,-0.9166 l -5.02079,0 c -0.54722,0 -0.90292,0.5335 -0.90292,0.9166 l 0,4.5556 0,4.5693 c 0,0.5473 0.51987,0.903 0.90292,0.903 l 5.02079,0 c 0.49251,0 0.91661,-0.4104 0.91661,-0.903 0,-0.5061 -0.4241,-0.9166 -0.91661,-0.9166 l -4.10418,0 0,-2.7361 3.18758,0 c 0.49251,0 0.9166,-0.4104 0.9166,-0.9166 0,-0.4925 -0.42409,-0.9029 -0.9166,-0.9029 l -3.18758,0 0,-2.7361 4.10418,0 c 0.49251,0 0.91661,-0.4241 0.91661,-0.9166 z m -9.13824,0 c 0,-0.4925 -0.4241,-0.9166 -0.9166,-0.9166 l -5.02079,0 c -0.54723,0 -0.90292,0.5335 -0.90292,0.9166 l 0,4.5556 0,4.5693 c 0,0.5473 0.51986,0.903 0.90292,0.903 l 5.02079,0 c 0.4925,0 0.9166,-0.4104 0.9166,-0.903 0,-0.5061 -0.4241,-0.9166 -0.9166,-0.9166 l -4.10419,0 0,-2.7361 3.18759,0 c 0.4925,0 0.9166,-0.4104 0.9166,-0.9166 0,-0.4925 -0.4241,-0.9029 -0.9166,-0.9029 l -3.18759,0 0,-2.7361 4.10419,0 c 0.4925,0 0.9166,-0.4241 0.9166,-0.9166 z m -13.30184,5.2123 -1.28598,0 0.23257,-0.7114 1.2723,0 -0.21889,0.7114 z m -0.30098,-6.0742 c -0.0958,-0.027 -0.17785,-0.041 -0.27361,-0.041 -0.38306,0 -0.75244,0.2463 -0.87556,0.6294 l -0.94397,2.955 -0.58826,0 c -0.49251,0 -0.90292,0.4104 -0.90292,0.9166 0,0.4925 0.41041,0.9029 0.90292,0.9029 l 0.0137,0 -0.23257,0.7114 -0.65667,0 c -0.49251,0 -0.90292,0.4104 -0.90292,0.9166 0,0.4925 0.41041,0.9029 0.90292,0.9029 l 0.0821,0 -0.57459,1.8195 c -0.0274,0.082 -0.041,0.1779 -0.041,0.26 0,0.3967 0.24625,0.7524 0.62931,0.8755 0.0958,0.027 0.17785,0.041 0.27361,0.041 0.38306,0 0.75244,-0.2463 0.87556,-0.6293 l 0.75244,-2.3668 1.2723,0 -0.57459,1.8195 c -0.0274,0.082 -0.041,0.1779 -0.041,0.26 0,0.3967 0.24625,0.7524 0.62931,0.8755 0.0958,0.027 0.19153,0.041 0.27361,0.041 0.39674,0 0.75244,-0.2463 0.87556,-0.6293 l 0.75244,-2.3668 0.60194,0 c 0.49251,0 0.90293,-0.4104 0.90293,-0.9029 0,-0.5062 -0.41042,-0.9166 -0.90293,-0.9166 l -0.0137,0 0.21889,-0.7114 0.56091,0 c 0.4925,0 0.90292,-0.4104 0.90292,-0.9029 0,-0.4925 -0.39674,-0.9029 -0.87556,-0.9166 l 0.76612,-2.4078 c 0.0274,-0.082 0.041,-0.1779 0.041,-0.26 0,-0.3967 -0.25993,-0.7524 -0.64299,-0.8755 -0.0821,-0.027 -0.17785,-0.041 -0.27361,-0.041 -0.38306,0 -0.73876,0.2463 -0.86188,0.6294 l -0.94397,2.955 -1.28598,0 0.76612,-2.4078 c 0.0274,-0.082 0.041,-0.1779 0.041,-0.26 0,-0.3967 -0.24625,-0.7524 -0.62931,-0.8755 z"
         inkscape:connector-curvature="0" />
    </g>
    <g
       transform="matrix(1.0133735,0,0,1.0219967,-1.2662659e-7,-30.422025)"
       style="font-style:normal;font-weight:normal;font-size:13.68063068px;line-height:125%;font-family:sans-serif;letter-spacing:0px;word-spacing:0px;fill:#ffffff;fill-opacity:1;stroke:none;stroke-width:1px;stroke-linecap:butt;stroke-linejoin:miter;stroke-opacity:1"
       id="text4628">
      <path
         id="path12828"
         style="font-style:normal;font-variant:normal;font-weight:bold;font-stretch:normal;font-family:Belgika;-inkscape-font-specification:'Belgika Bold';text-align:center;text-anchor:middle;fill:#ffffff;fill-opacity:1"
         d="m 306.32561,1018.5178 c -0.16417,-0.1642 -0.41042,-0.2599 -0.64299,-0.2599 -0.23257,0 -0.46514,0.082 -0.64299,0.2599 -0.4925,0.5062 -1.16285,0.8071 -1.92897,0.8071 -1.51855,0 -2.74981,-1.2175 -2.74981,-2.7361 l 0,-1.8195 c 0,-1.5186 1.23126,-2.7361 2.74981,-2.7361 0.76612,0 1.43647,0.3009 1.92897,0.8071 0.17785,0.1779 0.41042,0.26 0.64299,0.26 0.24625,0 0.47882,-0.082 0.65667,-0.26 0.16417,-0.1778 0.25993,-0.4104 0.25993,-0.643 0,-0.2462 -0.0958,-0.4788 -0.25993,-0.6566 -0.83452,-0.8209 -1.95633,-1.3407 -3.22863,-1.3407 -2.51724,0 -4.56933,2.0384 -4.56933,4.5693 l 0,1.8195 c 0,2.5309 2.05209,4.5557 4.56933,4.5557 1.2723,0 2.39411,-0.5062 3.21495,-1.3271 0.17785,-0.1778 0.27361,-0.4104 0.27361,-0.6429 0,-0.2463 -0.0958,-0.4789 -0.27361,-0.6567 z m -11.41221,-1.5459 0,0.5609 c 0,0.014 0,0.027 0,0.041 -0.0137,0.9714 -0.82084,1.7511 -1.79216,1.7511 -0.72508,0 -1.32702,-0.4104 -1.628,-1.0123 -0.15049,-0.3147 -0.47882,-0.5062 -0.82084,-0.5062 -0.1368,0 -0.27361,0.041 -0.39673,0.096 -0.31466,0.1641 -0.50619,0.4925 -0.50619,0.8208 0,0.1368 0.0274,0.2736 0.0958,0.4104 0.58826,1.1902 1.81952,2.0111 3.25599,2.0111 1.98369,0 3.62536,-1.6007 3.62536,-3.6117 0,-0.014 0,-0.027 0,-0.041 l 0,-3.6664 c 0,-1.9973 -1.62799,-3.6253 -3.62536,-3.6253 -1.99738,0 -3.62537,1.628 -3.62537,3.6253 0,2.0111 1.62799,3.6254 3.62537,3.6254 0.64299,0 1.2723,-0.1642 1.79216,-0.4788 z m 0,-3.1466 c 0,0.9987 -0.80716,1.8059 -1.79216,1.8059 -0.99869,0 -1.80585,-0.8072 -1.80585,-1.8059 0,-0.985 0.80716,-1.7921 1.80585,-1.7921 0.985,0 1.79216,0.8071 1.79216,1.7921 z m -7.26506,4.6925 c -0.16416,-0.1642 -0.41042,-0.2599 -0.64299,-0.2599 -0.23257,0 -0.46514,0.082 -0.64299,0.2599 -0.4925,0.5062 -1.16285,0.8071 -1.92897,0.8071 -1.51855,0 -2.7498,-1.2175 -2.7498,-2.7361 l 0,-1.8195 c 0,-1.5186 1.23125,-2.7361 2.7498,-2.7361 0.76612,0 1.43647,0.3009 1.92897,0.8071 0.17785,0.1779 0.41042,0.26 0.64299,0.26 0.24625,0 0.47883,-0.082 0.65667,-0.26 0.16417,-0.1778 0.25994,-0.4104 0.25994,-0.643 0,-0.2462 -0.0958,-0.4788 -0.25994,-0.6566 -0.83451,-0.8209 -1.95633,-1.3407 -3.22863,-1.3407 -2.51723,0 -4.56933,2.0384 -4.56933,4.5693 l 0,1.8195 c 0,2.5309 2.0521,4.5557 4.56933,4.5557 1.2723,0 2.39412,-0.5062 3.21495,-1.3271 0.17785,-0.1778 0.27362,-0.4104 0.27362,-0.6429 0,-0.2463 -0.0958,-0.4789 -0.27362,-0.6567 z m -11.41221,-1.5459 0,0.5609 c 0,0.014 0,0.027 0,0.041 -0.0137,0.9714 -0.82084,1.7511 -1.79216,1.7511 -0.72508,0 -1.32702,-0.4104 -1.628,-1.0123 -0.15048,-0.3147 -0.47882,-0.5062 -0.82084,-0.5062 -0.1368,0 -0.27361,0.041 -0.39673,0.096 -0.31466,0.1641 -0.50619,0.4925 -0.50619,0.8208 0,0.1368 0.0274,0.2736 0.0958,0.4104 0.58826,1.1902 1.81952,2.0111 3.25599,2.0111 1.98369,0 3.62536,-1.6007 3.62536,-3.6117 0,-0.014 0,-0.027 0,-0.041 l 0,-3.6664 c 0,-1.9973 -1.62799,-3.6253 -3.62536,-3.6253 -1.99737,0 -3.62537,1.628 -3.62537,3.6253 0,2.0111 1.628,3.6254 3.62537,3.6254 0.64299,0 1.2723,-0.1642 1.79216,-0.4788 z m 0,-3.1466 c 0,0.9987 -0.80716,1.8059 -1.79216,1.8059 -0.99869,0 -1.80585,-0.8072 -1.80585,-1.8059 0,-0.985 0.80716,-1.7921 1.80585,-1.7921 0.985,0 1.79216,0.8071 1.79216,1.7921 z m -7.26506,4.6925 c -0.16416,-0.1642 -0.41041,-0.2599 -0.64299,-0.2599 -0.23257,0 -0.46514,0.082 -0.64299,0.2599 -0.4925,0.5062 -1.16285,0.8071 -1.92896,0.8071 -1.51855,0 -2.74981,-1.2175 -2.74981,-2.7361 l 0,-1.8195 c 0,-1.5186 1.23126,-2.7361 2.74981,-2.7361 0.76611,0 1.43646,0.3009 1.92896,0.8071 0.17785,0.1779 0.41042,0.26 0.64299,0.26 0.24626,0 0.47883,-0.082 0.65667,-0.26 0.16417,-0.1778 0.25994,-0.4104 0.25994,-0.643 0,-0.2462 -0.0958,-0.4788 -0.25994,-0.6566 -0.83451,-0.8209 -1.95633,-1.3407 -3.22862,-1.3407 -2.51724,0 -4.56933,2.0384 -4.56933,4.5693 l 0,1.8195 c 0,2.5309 2.05209,4.5557 4.56933,4.5557 1.27229,0 2.39411,-0.5062 3.21494,-1.3271 0.17785,-0.1778 0.27362,-0.4104 0.27362,-0.6429 0,-0.2463 -0.0958,-0.4789 -0.27362,-0.6567 z m -11.41221,-1.5459 0,0.5609 c 0,0.014 0,0.027 0,0.041 -0.0137,0.9714 -0.82083,1.7511 -1.79216,1.7511 -0.72507,0 -1.32702,-0.4104 -1.62799,-1.0123 -0.15049,-0.3147 -0.47883,-0.5062 -0.82084,-0.5062 -0.13681,0 -0.27361,0.041 -0.39674,0.096 -0.31465,0.1641 -0.50618,0.4925 -0.50618,0.8208 0,0.1368 0.0274,0.2736 0.0958,0.4104 0.58827,1.1902 1.81953,2.0111 3.25599,2.0111 1.98369,0 3.62537,-1.6007 3.62537,-3.6117 0,-0.014 0,-0.027 0,-0.041 l 0,-3.6664 c 0,-1.9973 -1.628,-3.6253 -3.62537,-3.6253 -1.99737,0 -3.62537,1.628 -3.62537,3.6253 0,2.0111 1.628,3.6254 3.62537,3.6254 0.64299,0 1.2723,-0.1642 1.79216,-0.4788 z m 0,-3.1466 c 0,0.9987 -0.80715,1.8059 -1.79216,1.8059 -0.99868,0 -1.80584,-0.8072 -1.80584,-1.8059 0,-0.985 0.80716,-1.7921 1.80584,-1.7921 0.98501,0 1.79216,0.8071 1.79216,1.7921 z m -11.04454,2.5036 -1.28598,0 0.23257,-0.7114 1.2723,0 -0.21889,0.7114 z m -0.30097,-6.0742 c -0.0958,-0.027 -0.17785,-0.041 -0.27362,-0.041 -0.38305,0 -0.75243,0.2463 -0.87556,0.6294 l -0.94396,2.955 -0.58827,0 c -0.4925,0 -0.90292,0.4104 -0.90292,0.9166 0,0.4925 0.41042,0.9029 0.90292,0.9029 l 0.0137,0 -0.23257,0.7114 -0.65667,0 c -0.4925,0 -0.90292,0.4104 -0.90292,0.9166 0,0.4925 0.41042,0.9029 0.90292,0.9029 l 0.0821,0 -0.57459,1.8195 c -0.0274,0.082 -0.041,0.1779 -0.041,0.26 0,0.3967 0.24625,0.7524 0.62931,0.8755 0.0958,0.027 0.17785,0.041 0.27361,0.041 0.38306,0 0.75243,-0.2463 0.87556,-0.6293 l 0.75243,-2.3668 1.2723,0 -0.57458,1.8195 c -0.0274,0.082 -0.0411,0.1779 -0.0411,0.26 0,0.3967 0.24626,0.7524 0.62931,0.8755 0.0958,0.027 0.19153,0.041 0.27362,0.041 0.39673,0 0.75243,-0.2463 0.87556,-0.6293 l 0.75243,-2.3668 0.60195,0 c 0.4925,0 0.90292,-0.4104 0.90292,-0.9029 0,-0.5062 -0.41042,-0.9166 -0.90292,-0.9166 l -0.0137,0 0.21889,-0.7114 0.5609,0 c 0.49251,0 0.90293,-0.4104 0.90293,-0.9029 0,-0.4925 -0.39674,-0.9029 -0.87556,-0.9166 l 0.76611,-2.4078 c 0.0274,-0.082 0.041,-0.1779 0.041,-0.26 0,-0.3967 -0.25993,-0.7524 -0.64299,-0.8755 -0.0821,-0.027 -0.17784,-0.041 -0.27361,-0.041 -0.38306,0 -0.73875,0.2463 -0.86188,0.6294 l -0.94396,2.955 -1.28598,0 0.76611,-2.4078 c 0.0274,-0.082 0.041,-0.1779 0.041,-0.26 0,-0.3967 -0.24626,-0.7524 -0.62931,-0.8755 z"
         inkscape:connector-curvature="0" />
    </g>
    <g
       transform="matrix(1.0133735,0,0,1.0219967,-1.2662659e-7,-30.422025)"
       style="font-style:normal;font-weight:normal;font-size:13.68063068px;line-height:125%;font-family:sans-serif;letter-spacing:0px;word-spacing:0px;fill:#ffffff;fill-opacity:1;stroke:none;stroke-width:1px;stroke-linecap:butt;stroke-linejoin:miter;stroke-opacity:1"
       id="text4640">
      <path
         id="path12878"
         style="font-style:normal;font-variant:normal;font-weight:bold;font-stretch:normal;font-family:Belgika;-inkscape-font-specification:'Belgika Bold';text-align:center;text-anchor:middle;fill:#ffffff;fill-opacity:1"
         d="m 69.577357,1019.3249 0,-7.2917 1.368063,0 c 0.930283,0 1.860566,0.3557 2.571959,1.0671 0.711393,0.7114 1.067089,1.6416 1.067089,2.5719 0,0.944 -0.355696,1.8743 -1.067089,2.5857 -0.711393,0.7113 -1.669037,1.067 -2.585639,1.067 l -1.354383,0 z m -1.819524,0.9166 c 0,0.3831 0.355697,0.903 0.902922,0.903 l 2.270985,0 c 1.381743,0 2.804529,-0.5199 3.871618,-1.6007 1.067089,-1.0671 1.600634,-2.4625 1.600634,-3.8716 0,-1.3954 -0.533545,-2.7908 -1.600634,-3.8579 -1.067089,-1.0671 -2.462513,-1.6143 -3.857938,-1.6143 l -2.284665,0 c -0.383058,0 -0.902922,0.3693 -0.902922,0.9166 l 0,9.1249 z m -9.242549,-0.9166 0,-7.2917 1.368064,0 c 0.930282,0 1.860565,0.3557 2.571958,1.0671 0.711393,0.7114 1.067089,1.6416 1.067089,2.5719 0,0.944 -0.355696,1.8743 -1.067089,2.5857 -0.711393,0.7113 -1.669037,1.067 -2.585639,1.067 l -1.354383,0 z m -1.819523,0.9166 c 0,0.3831 0.355696,0.903 0.902921,0.903 l 2.270985,0 c 1.381744,0 2.804529,-0.5199 3.871618,-1.6007 1.06709,-1.0671 1.600634,-2.4625 1.600634,-3.8716 0,-1.3954 -0.533544,-2.7908 -1.600634,-3.8579 -1.067089,-1.0671 -2.462513,-1.6143 -3.857937,-1.6143 l -2.284666,0 c -0.383057,0 -0.902921,0.3693 -0.902921,0.9166 l 0,9.1249 z m -8.607684,-2.4898 c -0.342016,0.1368 -0.560906,0.4788 -0.560906,0.8345 0,0.1231 0.02736,0.2462 0.0684,0.3557 0.547225,1.286 1.833204,2.2026 3.324393,2.2026 1.997372,0 3.625367,-1.6143 3.625367,-3.6117 0,-1.9837 -1.586953,-3.5707 -3.570645,-3.6254 l -0.820838,0 0,-1.8742 2.749807,0 c 0.492503,0 0.902922,-0.4241 0.902922,-0.9166 0,-0.4925 -0.410419,-0.9166 -0.902922,-0.9166 l -3.666409,0 c -0.492502,0 -0.916602,0.4241 -0.916602,0.9166 l 0,3.7074 c 0,0.5062 0.4241,0.9166 0.916602,0.9166 l 1.710079,0 c 0.985005,0.027 1.764801,0.8209 1.764801,1.7922 0,0.9987 -0.793476,1.7921 -1.792162,1.7921 -0.725074,0 -1.368063,-0.4514 -1.641676,-1.0944 -0.150487,-0.342 -0.492503,-0.5609 -0.848199,-0.5609 -0.109445,0 -0.232571,0.027 -0.342016,0.082 z m -8.443512,0 c -0.342015,0.1368 -0.560906,0.4788 -0.560906,0.8345 0,0.1231 0.02736,0.2462 0.0684,0.3557 0.547225,1.286 1.833204,2.2026 3.324393,2.2026 1.997372,0 3.625367,-1.6143 3.625367,-3.6117 0,-1.9837 -1.586953,-3.5707 -3.570645,-3.6254 l -0.820837,0 0,-1.8742 2.749806,0 c 0.492503,0 0.902922,-0.4241 0.902922,-0.9166 0,-0.4925 -0.410419,-0.9166 -0.902922,-0.9166 l -3.666409,0 c -0.492502,0 -0.916602,0.4241 -0.916602,0.9166 l 0,3.7074 c 0,0.5062 0.4241,0.9166 0.916602,0.9166 l 1.710079,0 c 0.985006,0.027 1.764801,0.8209 1.764801,1.7922 0,0.9987 -0.793476,1.7921 -1.792162,1.7921 -0.725074,0 -1.368063,-0.4514 -1.641676,-1.0944 -0.150487,-0.342 -0.492503,-0.5609 -0.848199,-0.5609 -0.109445,0 -0.232571,0.027 -0.342016,0.082 z m -8.922338,-4.1179 0,4.0905 c 0,1.8879 1.532231,3.4202 3.433839,3.4202 1.887927,0 3.420157,-1.5323 3.420157,-3.4202 l 0,-4.0905 c 0,-1.8879 -1.53223,-3.4338 -3.420157,-3.4338 -1.901608,0 -3.433839,1.5459 -3.433839,3.4338 z m 1.819524,0 c 0,-0.8892 0.725074,-1.6006 1.614315,-1.6006 0.889241,0 1.600634,0.7114 1.600634,1.6006 l 0,4.0905 c 0,0.8893 -0.711393,1.6006 -1.600634,1.6006 -0.889241,0 -1.614315,-0.7113 -1.614315,-1.6006 l 0,-4.0905 z m -10.263036,0 0,4.0905 c 0,1.8879 1.53223,3.4202 3.433838,3.4202 1.887927,0 3.420157,-1.5323 3.420157,-3.4202 l 0,-4.0905 c 0,-1.8879 -1.53223,-3.4338 -3.420157,-3.4338 -1.901608,0 -3.433838,1.5459 -3.433838,3.4338 z m 1.819523,0 c 0,-0.8892 0.725074,-1.6006 1.614315,-1.6006 0.889241,0 1.600634,0.7114 1.600634,1.6006 l 0,4.0905 c 0,0.8893 -0.711393,1.6006 -1.600634,1.6006 -0.889241,0 -1.614315,-0.7113 -1.614315,-1.6006 l 0,-4.0905 z m -7.638066,2.6951 -1.28598,0 0.232571,-0.7114 1.272299,0 -0.21889,0.7114 z m -0.300974,-6.0742 c -0.09577,-0.027 -0.177849,-0.041 -0.273613,-0.041 -0.383058,0 -0.752435,0.2463 -0.87556,0.6294 l -0.943964,2.955 -0.588267,0 c -0.492503,0 -0.902922,0.4104 -0.902922,0.9166 0,0.4925 0.410419,0.9029 0.902922,0.9029 l 0.01368,0 -0.232571,0.7114 -0.65667,0 c -0.492503,0 -0.902922,0.4104 -0.902922,0.9166 0,0.4925 0.410419,0.9029 0.902922,0.9029 l 0.08208,0 -0.574586,1.8195 c -0.02736,0.082 -0.04104,0.1779 -0.04104,0.26 0,0.3967 0.246251,0.7524 0.629309,0.8755 0.09577,0.027 0.177848,0.041 0.273613,0.041 0.383057,0 0.752434,-0.2463 0.87556,-0.6293 l 0.752435,-2.3668 1.272298,0 -0.574586,1.8195 c -0.02736,0.082 -0.04104,0.1779 -0.04104,0.26 0,0.3967 0.246251,0.7524 0.629309,0.8755 0.09576,0.027 0.191529,0.041 0.273613,0.041 0.396738,0 0.752434,-0.2463 0.87556,-0.6293 l 0.752435,-2.3668 0.601947,0 c 0.492503,0 0.902922,-0.4104 0.902922,-0.9029 0,-0.5062 -0.410419,-0.9166 -0.902922,-0.9166 l -0.01368,0 0.21889,-0.7114 0.560906,0 c 0.492503,0 0.902921,-0.4104 0.902921,-0.9029 0,-0.4925 -0.396738,-0.9029 -0.87556,-0.9166 l 0.766115,-2.4078 c 0.02736,-0.082 0.04104,-0.1779 0.04104,-0.26 0,-0.3967 -0.259932,-0.7524 -0.642989,-0.8755 -0.08208,-0.027 -0.177849,-0.041 -0.273613,-0.041 -0.383058,0 -0.738754,0.2463 -0.86188,0.6294 l -0.943963,2.955 -1.28598,0 0.766116,-2.4078 c 0.02736,-0.082 0.04104,-0.1779 0.04104,-0.26 0,-0.3967 -0.246252,-0.7524 -0.629309,-0.8755 z"
         inkscape:connector-curvature="0" />
    </g>
    <rect
       style="fill:#ffffff;fill-opacity:1;stroke:none;stroke-width:2.51099992;stroke-miterlimit:4;stroke-dasharray:2.511, 7.533;stroke-dashoffset:0;stroke-opacity:1"
       id="rect5269"
       width="75.040497"
       height="15.490486"
       x="41.817867"
       y="1036.7605" />
    <g
       transform="matrix(1.0213663,0,0,1.013999,-1.4931877,85.047995)"
       style="font-style:normal;font-weight:normal;font-size:19.411129px;line-height:125%;font-family:sans-serif;letter-spacing:0px;word-spacing:0px;fill:#0055dd;fill-opacity:1;stroke:none;stroke-width:1px;stroke-linecap:butt;stroke-linejoin:miter;stroke-opacity:1"
       id="text5047">
      <path
         id="path12219"
         style="font-style:normal;font-variant:normal;font-weight:600;font-stretch:normal;font-family:Belgika;-inkscape-font-specification:'Belgika Semi-Bold';fill:#0055dd;fill-opacity:1"
         d="m 102.77645,938.57354 c -0.46587,0 -0.85409,0.38822 -0.85409,0.85409 l 0,10.88964 -7.958565,-11.37492 c -0.09706,-0.11647 -0.194112,-0.21352 -0.310578,-0.27176 -0.116467,-0.0582 -0.252345,-0.097 -0.388223,-0.097 -0.09706,0 -0.1747,0.0194 -0.252345,0.0388 -0.09705,0.0194 -0.1747,0.0582 -0.232933,0.11647 -0.116467,0.0776 -0.213523,0.1747 -0.271756,0.31058 -0.05823,0.11646 -0.09706,0.25234 -0.09706,0.38822 l 0,13.58779 c 0,0.46587 0.388223,0.83468 0.85409,0.83468 0.465867,0 0.85409,-0.36881 0.85409,-0.83468 l 0,-10.88964 7.95857,11.37492 c 0.0776,0.11646 0.1747,0.19411 0.31057,0.25234 0.11647,0.0776 0.25235,0.0971 0.38823,0.0971 0.0776,0 0.1747,0 0.25234,-0.0388 0.0777,-0.0194 0.15529,-0.0582 0.23294,-0.0971 0.11646,-0.0971 0.19411,-0.19411 0.25234,-0.31058 0.0776,-0.11647 0.11647,-0.25234 0.11647,-0.38822 l 0,-13.58779 c 0,-0.46587 -0.38823,-0.85409 -0.85409,-0.85409 z m -15.383324,0 c -0.465867,0 -0.834678,0.38822 -0.834678,0.85409 l 0,13.58779 c 0,0.46587 0.368811,0.83468 0.834678,0.83468 0.465867,0 0.85409,-0.36881 0.85409,-0.83468 l 0,-13.58779 c 0,-0.46587 -0.388223,-0.85409 -0.85409,-0.85409 z m -11.155028,8.96794 1.921702,-5.53217 c 0.504689,1.47524 1.20349,3.45518 1.921701,5.53217 l -3.843403,0 z m 2.717558,-8.40502 c -0.03882,-0.13588 -0.135878,-0.27175 -0.252345,-0.36881 -0.07764,-0.0582 -0.1747,-0.11647 -0.271756,-0.15529 -0.03882,0 -0.07764,-0.0194 -0.116466,-0.0194 -0.03882,-0.0194 -0.09706,-0.0194 -0.155289,-0.0194 0,0 0,0 0,0 -0.349401,0 -0.67939,0.23293 -0.795857,0.56292 l -4.736315,13.58779 c -0.01941,0.0971 -0.03882,0.19411 -0.03882,0.27176 0,0.36881 0.213522,0.6988 0.562922,0.81527 0.09706,0.0388 0.194112,0.0388 0.271756,0.0388 0.368812,0 0.698801,-0.21352 0.815268,-0.56293 l 1.417012,-4.05692 5.027482,0 c 0.485279,1.41701 0.970557,2.81461 1.417013,4.05692 0.116467,0.34941 0.446456,0.56293 0.795856,0.56293 0.09706,0 0.194111,0 0.291167,-0.0388 0.329989,-0.11647 0.562923,-0.44646 0.562923,-0.81527 0,-0.0776 -0.01941,-0.1747 -0.05823,-0.27176 -1.805235,-5.18277 -4.619848,-13.29662 -4.736315,-13.58779 z m -24.305463,0.29117 0,13.58779 c 0,0.46587 0.388222,0.83468 0.854089,0.83468 0.465867,0 0.85409,-0.36881 0.85409,-0.83468 l 0,-10.01614 5.202183,10.38495 c 0.05823,0.0971 0.09705,0.15529 0.1747,0.23293 0.05823,0.0582 0.135878,0.11647 0.213522,0.15529 0.116467,0.0582 0.252345,0.0776 0.388223,0.0776 0.116467,0 0.252344,-0.0194 0.368811,-0.0776 0.07765,-0.0388 0.155289,-0.0971 0.213523,-0.15529 0.07764,-0.0776 0.116466,-0.13587 0.1747,-0.23293 l 5.182771,-10.36554 0,9.99673 c 0,0.46587 0.388223,0.83468 0.85409,0.83468 0.446456,0 0.834679,-0.36881 0.834679,-0.83468 l 0,-13.58779 c 0,-0.1747 -0.03882,-0.31058 -0.116467,-0.44646 -0.09706,-0.13588 -0.194112,-0.25234 -0.349401,-0.31058 -0.05823,-0.0388 -0.116466,-0.0582 -0.1747,-0.0776 -0.07764,-0.0194 -0.135878,-0.0194 -0.194111,-0.0194 -0.1747,0 -0.329989,0.0388 -0.446456,0.13588 -0.135878,0.0776 -0.252345,0.19411 -0.329989,0.32999 l -6.036861,12.07372 -6.056273,-12.05431 c -0.135877,-0.29117 -0.427044,-0.48528 -0.757034,-0.48528 -0.465867,0 -0.854089,0.38822 -0.854089,0.85409 z"
         inkscape:connector-curvature="0" />
    </g>
    <rect
       y="1036.2075"
       x="176.78572"
       height="15.490486"
       width="119.01908"
       id="rect5271"
       style="fill:#ffffff;fill-opacity:1;stroke:none;stroke-width:2.51099992;stroke-miterlimit:4;stroke-dasharray:2.511, 7.533;stroke-dashoffset:0;stroke-opacity:1" />
    <g
       transform="matrix(1.0213663,0,0,0.97908067,0,-33.506326)"
       style="font-style:normal;font-weight:normal;font-size:19.411129px;line-height:125%;font-family:sans-serif;letter-spacing:0px;word-spacing:0px;fill:#555555;fill-opacity:1;stroke:none;stroke-width:1px;stroke-linecap:butt;stroke-linejoin:miter;stroke-opacity:1"
       id="text5051">
      <path
         id="path12708"
         style="font-style:normal;font-variant:normal;font-weight:600;font-stretch:normal;font-family:Belgika;-inkscape-font-specification:'Belgika Semi-Bold';fill:#555555;fill-opacity:1;marker-end:"
         d="m 289.61674,1093.4541 c 0,-0.4825 -0.38822,-0.8846 -0.85409,-0.8846 l -7.47328,0 c -0.5241,0 -0.85409,0.5027 -0.85409,0.8846 l 0,7.0361 0,7.0363 c 0,0.5226 0.48528,0.8644 0.85409,0.8644 l 7.47328,0 c 0.46587,0 0.85409,-0.3819 0.85409,-0.8644 0,-0.4825 -0.38822,-0.8846 -0.85409,-0.8846 l -6.61919,0 0,-5.2871 5.26042,0 c 0.46586,0 0.85409,-0.382 0.85409,-0.8646 0,-0.4825 -0.38823,-0.8845 -0.85409,-0.8845 l -5.26042,0 0,-5.2872 6.61919,0 c 0.46587,0 0.85409,-0.3819 0.85409,-0.8644 z m -20.80054,-0.8846 c -0.46586,0 -0.85409,0.4021 -0.85409,0.8846 l 0,14.0724 c 0,0.5226 0.48528,0.8644 0.85409,0.8644 l 8.15268,0 c 0.46586,0 0.85409,-0.3819 0.85409,-0.8644 0,-0.4825 -0.38823,-0.8846 -0.85409,-0.8846 l -7.29859,0 0,-13.1878 c 0,-0.4825 -0.38822,-0.8846 -0.85409,-0.8846 z m -10.96091,9.2878 1.9217,-5.7295 c 0.50469,1.5279 1.20349,3.5785 1.9217,5.7295 l -3.8434,0 z m 2.71756,-8.7048 c -0.0388,-0.1406 -0.13588,-0.2815 -0.25235,-0.382 -0.0776,-0.06 -0.1747,-0.1206 -0.27176,-0.1608 -0.0388,0 -0.0776,-0.019 -0.11646,-0.019 -0.0388,-0.019 -0.0971,-0.019 -0.15529,-0.019 0,0 0,0 0,0 -0.3494,0 -0.67939,0.2412 -0.79586,0.5829 l -4.73631,14.0724 c -0.0194,0.1005 -0.0388,0.201 -0.0388,0.2815 0,0.3819 0.21353,0.7238 0.56293,0.8443 0.097,0.041 0.19411,0.041 0.27175,0.041 0.36881,0 0.6988,-0.2212 0.81527,-0.5831 l 1.41701,-4.2016 5.02749,0 c 0.48527,1.4676 0.97055,2.915 1.41701,4.2016 0.11646,0.3619 0.44645,0.5831 0.79585,0.5831 0.0971,0 0.19412,0 0.29117,-0.041 0.32999,-0.1205 0.56292,-0.4624 0.56292,-0.8443 0,-0.081 -0.0194,-0.1809 -0.0582,-0.2815 -1.80523,-5.3675 -4.61985,-13.7708 -4.73631,-14.0724 z m -8.55546,12.1023 c -0.1747,-0.181 -0.38823,-0.2613 -0.60175,-0.2613 -0.21352,0 -0.44645,0.081 -0.60174,0.2613 -0.83468,0.8644 -1.96053,1.3871 -3.24166,1.3871 -2.54286,0 -4.60044,-2.131 -4.60044,-4.7444 l 0,-2.8145 c 0,-2.6335 2.05758,-4.7645 4.60044,-4.7645 1.28113,0 2.40698,0.5428 3.24166,1.4073 0.15529,0.1607 0.38822,0.2613 0.60174,0.2613 0.21352,0 0.42705,-0.1005 0.60175,-0.2613 0.15529,-0.1809 0.25234,-0.4021 0.25234,-0.6232 0,-0.2212 -0.097,-0.4624 -0.25234,-0.6233 -1.14526,-1.166 -2.69815,-1.9098 -4.44515,-1.9098 -3.47459,0 -6.28921,2.915 -6.28921,6.5135 l 0,2.8145 c 0,3.5986 2.81462,6.4934 6.28921,6.4934 1.747,0 3.29989,-0.7237 4.44515,-1.9099 0.15529,-0.1608 0.23293,-0.3819 0.23293,-0.6231 0,-0.2212 -0.0776,-0.4423 -0.23293,-0.6031 z m -21.32677,-0.6835 c -0.32998,0.1407 -0.5241,0.4824 -0.5241,0.8242 0,0.1206 0.0194,0.2211 0.0582,0.3417 0.21352,0.5227 0.5241,0.9851 0.91232,1.3872 0.75703,0.784 1.82465,1.2665 2.98931,1.2665 2.32934,0 4.19281,-1.9501 4.19281,-4.3624 0,-1.1459 -0.42705,-2.4526 -1.55289,-3.2971 l -3.80458,-2.8747 c -0.38823,-0.3015 -0.79586,-1.1057 -0.79586,-1.568 0,-1.0655 0.85409,-1.9702 1.90229,-1.9702 0.5241,0 0.98997,0.2211 1.35878,0.583 0.19411,0.2011 0.31058,0.3619 0.38822,0.6031 0.13588,0.3217 0.46587,0.5227 0.79586,0.5227 0.11647,0 0.21352,-0.019 0.32999,-0.06 0.31058,-0.1407 0.50469,-0.4825 0.50469,-0.8242 0,-0.1005 -0.0194,-0.2211 -0.0582,-0.3419 -0.1747,-0.4422 -0.44645,-0.8241 -0.79585,-1.1659 -0.62116,-0.6433 -1.53348,-1.0655 -2.52345,-1.0655 -1.99935,0 -3.59106,1.6886 -3.59106,3.7192 0,1.1459 0.62116,2.3319 1.47525,2.9954 l 3.80458,2.8546 c 0.60174,0.4624 0.8735,1.1661 0.8735,1.8898 0,1.4475 -1.12585,2.6135 -2.50404,2.6135 -0.6988,0 -1.33936,-0.2816 -1.80523,-0.764 -0.21352,-0.2413 -0.38822,-0.5026 -0.5241,-0.8243 -0.13588,-0.3417 -0.44646,-0.5428 -0.79586,-0.5428 -0.0971,0 -0.21352,0.019 -0.31058,0.06 z m -13.63055,-11.841 c -0.23294,0.1809 -0.3494,0.4423 -0.3494,0.7238 0,0.1809 0.0582,0.3618 0.15529,0.5026 l 4.75572,6.815 0,6.7548 c 0,0.4825 0.38823,0.8644 0.85409,0.8644 0.44646,0 0.83468,-0.3819 0.83468,-0.8644 l 0,-6.7548 4.77514,-6.815 c 0.0971,-0.1408 0.15529,-0.3217 0.15529,-0.5026 0,-0.2815 -0.11647,-0.5429 -0.3494,-0.7238 -0.15529,-0.1005 -0.32999,-0.1608 -0.48528,-0.1608 -0.27176,0 -0.54351,0.1206 -0.6988,0.3618 l -4.23163,6.0513 -4.23162,-6.0513 c -0.15529,-0.2412 -0.42705,-0.3618 -0.67939,-0.3618 -0.1747,0 -0.3494,0.06 -0.50469,0.1608 z m -9.09745,9.127 1.9217,-5.7295 c 0.50469,1.5279 1.20349,3.5785 1.9217,5.7295 l -3.8434,0 z m 2.71756,-8.7048 c -0.0388,-0.1406 -0.13588,-0.2815 -0.25235,-0.382 -0.0776,-0.06 -0.1747,-0.1206 -0.27175,-0.1608 -0.0388,0 -0.0777,-0.019 -0.11647,-0.019 -0.0388,-0.019 -0.0971,-0.019 -0.15529,-0.019 0,0 0,0 0,0 -0.3494,0 -0.67939,0.2412 -0.79586,0.5829 l -4.73631,14.0724 c -0.0194,0.1005 -0.0388,0.201 -0.0388,0.2815 0,0.3819 0.21352,0.7238 0.56292,0.8443 0.0971,0.041 0.19411,0.041 0.27176,0.041 0.36881,0 0.6988,-0.2212 0.81526,-0.5831 l 1.41702,-4.2016 5.02748,0 c 0.48528,1.4676 0.97055,2.915 1.41701,4.2016 0.11647,0.3619 0.44646,0.5831 0.79586,0.5831 0.097,0 0.19411,0 0.29116,-0.041 0.32999,-0.1205 0.56293,-0.4624 0.56293,-0.8443 0,-0.081 -0.0194,-0.1809 -0.0582,-0.2815 -1.80523,-5.3675 -4.61985,-13.7708 -4.73631,-14.0724 z m -15.11005,8.2023 1.66936,0 3.18342,6.5536 c 0.15529,0.3217 0.44646,0.4825 0.77645,0.4825 0.11646,0 0.25234,-0.019 0.36881,-0.081 0.29117,-0.1608 0.46587,-0.4623 0.46587,-0.804 0,-0.1207 -0.0388,-0.2614 -0.0971,-0.382 l -2.85344,-5.8702 c 1.88288,-0.4624 3.2999,-2.1913 3.2999,-4.2821 0,-2.4124 -1.86347,-4.4026 -4.23163,-4.4026 l -3.41636,0 c -0.36881,0 -0.85409,0.3417 -0.85409,0.8846 l 0,14.0724 c 0,0.4825 0.38822,0.8644 0.85409,0.8644 0.46587,0 0.83468,-0.3819 0.83468,-0.8644 l 0,-6.1718 z m 0,-1.7491 0,-5.2872 2.58168,0 c 1.3976,0 2.52345,1.1861 2.52345,2.6537 0,1.4675 -1.14526,2.6335 -2.54286,2.6335 l -2.56227,0 z m -10.79046,1.3268 c 0,0.4624 0.38822,0.8645 0.85409,0.8645 l 2.91166,0 0,3.2969 c -1.12584,1.0253 -2.56226,1.548 -3.95987,1.548 -1.51406,0 -3.04754,-0.6031 -4.21221,-1.8093 -1.16467,-1.1861 -1.72759,-2.7743 -1.72759,-4.3424 0,-1.568 0.56292,-3.1562 1.72759,-4.3624 1.16467,-1.2063 2.67874,-1.8093 4.1928,-1.8093 1.51407,0 3.04755,0.603 4.21222,1.7892 0.15529,0.181 0.36881,0.2613 0.60174,0.2613 0.21353,0 0.42705,-0.081 0.60175,-0.2613 0.15529,-0.1608 0.23293,-0.4021 0.23293,-0.6232 0,-0.2211 -0.0776,-0.4422 -0.23293,-0.6232 -1.51407,-1.548 -3.47459,-2.2918 -5.41571,-2.2918 -1.94111,0 -3.90163,0.7639 -5.39629,2.3119 -1.49466,1.5479 -2.23228,3.5784 -2.23228,5.6088 0,2.0104 0.73762,4.0408 2.23228,5.5888 1.49466,1.5479 3.45518,2.3119 5.4157,2.3119 1.94112,0 3.92105,-0.764 5.3963,-2.3119 0.13588,-0.1407 0.25234,-0.3819 0.25234,-0.6232 l 0,-4.5233 c 0,-0.382 -0.32999,-0.8846 -0.85409,-0.8846 l -3.74634,0 c -0.46587,0 -0.85409,0.4021 -0.85409,0.8846 z"
         inkscape:connector-curvature="0" />
    </g>
    <g
       transform="matrix(0.86816211,0,0,0.86189987,54.506883,128.2886)"
       style="font-style:normal;font-weight:normal;font-size:19.411129px;line-height:125%;font-family:sans-serif;letter-spacing:0px;word-spacing:0px;fill:#bbbbbb;fill-opacity:1;stroke:none;stroke-width:1px;stroke-linecap:butt;stroke-linejoin:miter;stroke-opacity:1"
       id="text5073">
      <path
         id="path12540"
         style="font-style:normal;font-variant:normal;font-weight:600;font-stretch:normal;font-family:Belgika;-inkscape-font-specification:'Belgika Semi-Bold';fill:#bbbbbb;fill-opacity:1"
         d="m 380.17913,968.56929 c 0,-0.46587 -0.38822,-0.85409 -0.85409,-0.85409 l -7.47328,0 c -0.5241,0 -0.85409,0.48528 -0.85409,0.85409 l 0,6.7939 0,6.79389 c 0,0.50469 0.48528,0.83468 0.85409,0.83468 l 7.47328,0 c 0.46587,0 0.85409,-0.36881 0.85409,-0.83468 0,-0.46587 -0.38822,-0.85409 -0.85409,-0.85409 l -6.61919,0 0,-5.10512 5.26041,0 c 0.46587,0 0.85409,-0.36882 0.85409,-0.83468 0,-0.46587 -0.38822,-0.85409 -0.85409,-0.85409 l -5.26041,0 0,-5.10513 6.61919,0 c 0.46587,0 0.85409,-0.36881 0.85409,-0.83468 z m -23.69279,0 c 0,0.46587 0.38822,0.83468 0.85409,0.83468 l 4.58102,0 0,12.75311 c 0,0.46587 0.38823,0.83468 0.85409,0.83468 0.46587,0 0.85409,-0.36881 0.85409,-0.83468 l 0,-12.75311 4.58103,0 c 0.46587,0 0.85409,-0.36881 0.85409,-0.83468 0,-0.46587 -0.38822,-0.85409 -0.85409,-0.85409 l -5.43512,0 -5.43511,0 c -0.46587,0 -0.85409,0.38822 -0.85409,0.85409 z m -2.97961,-0.85409 c -0.46587,0 -0.83468,0.38822 -0.83468,0.85409 l 0,13.58779 c 0,0.46587 0.36881,0.83468 0.83468,0.83468 0.46587,0 0.85409,-0.36881 0.85409,-0.83468 l 0,-13.58779 c 0,-0.46587 -0.38822,-0.85409 -0.85409,-0.85409 z m -14.03213,15.27656 c 0.46587,0 0.85409,-0.36881 0.85409,-0.83468 l 0,-5.95921 6.4445,0 0,5.95921 c 0,0.46587 0.38822,0.83468 0.85409,0.83468 0.46587,0 0.85409,-0.36881 0.85409,-0.83468 l 0,-13.58779 c 0,-0.46587 -0.38822,-0.85409 -0.85409,-0.85409 -0.46587,0 -0.85409,0.38822 -0.85409,0.85409 l 0,5.93981 -6.4445,0 0,-5.93981 c 0,-0.46587 -0.38822,-0.85409 -0.85409,-0.85409 -0.46586,0 -0.85409,0.38822 -0.85409,0.85409 l 0,6.7939 0,6.79389 c 0,0.46587 0.38823,0.83468 0.85409,0.83468 z m -12.82893,-15.23774 c -0.13588,0.0388 -0.25235,0.11647 -0.3494,0.21353 -0.0971,0.0971 -0.1747,0.21352 -0.21353,0.3494 l -3.33871,10.92846 -3.29989,-10.92846 c -0.11647,-0.36881 -0.46587,-0.60175 -0.83468,-0.60175 -0.0776,0 -0.15529,0.0194 -0.23293,0.0388 -0.36881,0.11647 -0.60175,0.44646 -0.60175,0.81527 0,0.0776 0.0194,0.15529 0.0388,0.23293 l 4.13457,13.5878 c 0.0388,0.15528 0.11647,0.27175 0.21353,0.36881 0.0776,0.097 0.21352,0.15529 0.3494,0.21352 0.0776,0.0194 0.15529,0.0194 0.23293,0.0194 0.0971,0 0.1747,0 0.25235,-0.0194 0.13587,-0.0582 0.25234,-0.11647 0.3494,-0.21352 0.0971,-0.0971 0.1747,-0.21353 0.21352,-0.3494 l 3.33871,-10.92847 3.31931,10.90906 c 0.0388,0.15528 0.11646,0.27175 0.21352,0.36881 0.0971,0.097 0.21352,0.15529 0.3494,0.21352 0.0776,0.0194 0.15529,0.0194 0.23293,0.0194 0.0971,0 0.1747,0 0.25235,-0.0194 0.13587,-0.0582 0.25234,-0.11647 0.3494,-0.21352 0.0971,-0.0971 0.1747,-0.21353 0.21352,-0.3494 l 4.15398,-13.58779 c 0.0194,-0.0971 0.0388,-0.1747 0.0388,-0.25235 0,-0.36881 -0.25234,-0.6988 -0.60174,-0.81527 -0.0777,-0.0194 -0.1747,-0.0388 -0.25235,-0.0388 -0.3494,0 -0.6988,0.23294 -0.81526,0.60175 l -3.31931,10.92846 -3.3193,-10.92846 c -0.0388,-0.13588 -0.11647,-0.25235 -0.21352,-0.3494 -0.0971,-0.0971 -0.21353,-0.1747 -0.3494,-0.21353 -0.0971,-0.0194 -0.1747,-0.0388 -0.25235,-0.0388 -0.0776,0 -0.1747,0.0194 -0.25234,0.0388 z"
         inkscape:connector-curvature="0" />
    </g>
    <ellipse
       style="fill:#222222;fill-opacity:1;stroke:none;stroke-width:2.89199996;stroke-miterlimit:4;stroke-dasharray:2.892, 8.67600000000000016;stroke-dashoffset:0;stroke-opacity:1;marker-end:"
       id="path5013"
       cx="86.129402"
       cy="970.65369"
       rx="5.578794"
       ry="5.850687" />
    <ellipse
       ry="5.850687"
       rx="5.578794"
       cy="970.65369"
       cx="320.35135"
       id="ellipse5091"
       style="fill:#bbbbbb;fill-opacity:1;stroke:none;stroke-width:2.89199996;stroke-miterlimit:4;stroke-dasharray:2.892, 8.67600000000000016;stroke-dashoffset:0;stroke-opacity:1;marker-end:" />
    <ellipse
       style="fill:#0055dd;fill-opacity:1;stroke:none;stroke-width:2.89199996;stroke-miterlimit:4;stroke-dasharray:2.892, 8.67600000000000016;stroke-dashoffset:0;stroke-opacity:1;marker-end:"
       id="ellipse5155"
       cx="6.594244"
       cy="1046.5115"
       rx="5.578794"
       ry="5.850687" />
    <ellipse
       ry="5.850687"
       rx="5.578794"
       cy="1046.5115"
       cx="312.71912"
       id="ellipse5157"
       style="fill:#555555;fill-opacity:1;stroke:none;stroke-width:2.89199996;stroke-miterlimit:4;stroke-dasharray:2.892, 8.67600000000000016;stroke-dashoffset:0;stroke-opacity:1;marker-end:" />
  </g>
</svg>
