<?xml version="1.0" encoding="UTF-8" standalone="no"?>
<!-- Created with Inkscape (http://www.inkscape.org/) -->

<svg
   xmlns:dc="http://purl.org/dc/elements/1.1/"
   xmlns:cc="http://creativecommons.org/ns#"
   xmlns:rdf="http://www.w3.org/1999/02/22-rdf-syntax-ns#"
   xmlns:svg="http://www.w3.org/2000/svg"
   xmlns="http://www.w3.org/2000/svg"
   xmlns:sodipodi="http://sodipodi.sourceforge.net/DTD/sodipodi-0.dtd"
   xmlns:inkscape="http://www.inkscape.org/namespaces/inkscape"
   width="420"
   height="120"
   viewBox="0 0 420 120"
   id="svg5164"
   version="1.1"
   inkscape:version="0.91 r13725"
   sodipodi:docname="cover.svg">
  <defs
     id="defs5166" />
  <sodipodi:namedview
     id="base"
     pagecolor="#ffffff"
     bordercolor="#666666"
     borderopacity="1.0"
     inkscape:pageopacity="0.0"
     inkscape:pageshadow="2"
     inkscape:zoom="0.7"
     inkscape:cx="366.64811"
     inkscape:cy="62.790455"
     inkscape:document-units="px"
     inkscape:current-layer="layer1"
     showgrid="false"
     units="px"
     inkscape:window-width="1280"
     inkscape:window-height="709"
     inkscape:window-x="0"
     inkscape:window-y="0"
     inkscape:window-maximized="1" />
  <metadata
     id="metadata5169">
    <rdf:RDF>
      <cc:Work
         rdf:about="">
        <dc:format>image/svg+xml</dc:format>
        <dc:type
           rdf:resource="http://purl.org/dc/dcmitype/StillImage" />
        <dc:title></dc:title>
      </cc:Work>
    </rdf:RDF>
  </metadata>
  <g
     inkscape:label="Layer 1"
     inkscape:groupmode="layer"
     id="layer1"
     transform="translate(0,-932.36216)">
    <g
       inkscape:label="Layer 1"
       id="g4279"
       transform="matrix(1.2054829,0,0,1.1428571,0,-150.33747)">
      <path
         inkscape:connector-curvature="0"
         style="fill:#0055dd;fill-opacity:1;stroke:none;stroke-width:0.1;stroke-miterlimit:4;stroke-dasharray:none"
         d="m 21.120171,994.51451 0,10.69639 36.761038,0 0,-10.69639 z"
         id="path4281"
         sodipodi:nodetypes="ccccc" />
      <g
         id="g4283"
         style="fill:#222222;fill-opacity:1">
        <rect
           style="fill:#222222;fill-opacity:1;stroke:none;stroke-width:0.1;stroke-miterlimit:4;stroke-dasharray:none"
           id="rect4285"
           width="10.559587"
           height="105"
           x="68.440414"
           y="947.36218" />
        <rect
           y="947.36218"
           x="0"
           height="105"
           width="10.559587"
           id="rect4287"
           style="fill:#222222;fill-opacity:1;stroke:none;stroke-width:0.1;stroke-miterlimit:4;stroke-dasharray:none" />
      </g>
    </g>
    <path
       id="path6236"
       transform="scale(1.0270334,0.97367819)"
       style="font-style:normal;font-weight:normal;font-size:69.73614502px;line-height:125%;font-family:sans-serif;letter-spacing:0px;word-spacing:0px;fill:#222222;fill-opacity:1;stroke:none;stroke-width:1px;stroke-linecap:butt;stroke-linejoin:miter;stroke-opacity:1"
       d="m 137.67188,958.41992 c -7.11309,0 -14.2266,2.7891 -19.66602,8.22852 -5.43942,5.43942 -8.1582,12.62266 -8.1582,19.66601 0,7.11309 2.71878,14.29695 8.1582,19.73635 5.43942,5.5091 12.62324,8.1582 19.73633,8.1582 7.11308,0 14.29495,-2.6491 19.73437,-8.1582 0.27895,-0.2092 0.48828,-0.6988 0.48828,-1.1172 l 0,-16.94532 c 0,-0.69736 -0.69752,-1.67383 -1.67382,-1.67383 l -14.50391,0 c -0.90657,0 -1.60352,0.76726 -1.60352,1.67383 0,0.90657 0.69695,1.67383 1.60352,1.67383 l 12.90039,0 0,14.57419 c -4.81179,4.4631 -10.87827,6.6953 -16.94531,6.6953 -6.27626,0 -12.6218,-2.3718 -17.4336,-7.1836 -4.81179,-4.81175 -7.18359,-11.08756 -7.18359,-17.43355 0,-6.27625 2.3718,-12.55148 7.18359,-17.36328 4.8118,-4.81179 11.08703,-7.18359 17.36329,-7.18359 6.27625,0 12.62179,2.30149 17.43359,7.11328 0.27894,0.27894 0.69877,0.48828 1.11719,0.48828 0.41841,0 0.83686,-0.20934 1.18554,-0.48828 0.27895,-0.34868 0.48828,-0.76713 0.48828,-1.18555 0,-0.41841 -0.20933,-0.83629 -0.48828,-1.11523 -5.43942,-5.50916 -12.62324,-8.16016 -19.73632,-8.16016 z m 35.26953,0 c -0.69737,0 -1.67383,0.69752 -1.67383,1.67383 l 0,52.51175 c 0,0.9065 0.76726,1.6035 1.67383,1.6035 0.90657,0 1.67382,-0.697 1.67382,-1.6035 l 0,-24.61722 9.06641,0 12.76172,25.38472 c 0.27894,0.5579 0.83526,0.836 1.46289,0.836 0.20921,0 0.48806,8e-4 0.69727,-0.1387 0.55788,-0.2789 0.9082,-0.9069 0.9082,-1.4648 0,-0.279 -0.0709,-0.4887 -0.14063,-0.7676 l -12.06445,-23.91993 c 7.60124,-0.62763 13.5293,-6.90244 13.5293,-14.71289 0,-8.08939 -6.4854,-14.78516 -14.64453,-14.78516 l -13.25,0 z m 85.53515,0 c -0.9763,0 -1.60351,0.97647 -1.60351,1.67383 l 0,52.51175 c 0,0.9065 0.69694,1.6035 1.60351,1.6035 0.90657,0 1.67383,-0.697 1.67383,-1.6035 l 0,-19.38675 13.94727,0 c 9.62358,0 17.36523,-7.67191 17.36523,-17.36523 0,-9.55386 -7.60102,-17.29413 -17.22461,-17.4336 l -15.76172,0 z m 45.35547,0 c -0.90657,0 -1.60351,0.76726 -1.60351,1.67383 l 0,26.2207 0,26.29105 c 0,0.9065 0.69694,1.6035 1.60351,1.6035 0.90657,0 1.67383,-0.697 1.67383,-1.6035 l 0,-24.61722 28.17383,0 0,24.61722 c 0,0.9065 0.76726,1.6035 1.67383,1.6035 0.90657,0 1.60351,-0.697 1.60351,-1.6035 l 0,-52.51175 c 0,-0.90657 -0.69694,-1.67383 -1.60351,-1.67383 -0.90657,0 -1.67383,0.76726 -1.67383,1.67383 l 0,24.61719 -28.17383,0 0,-24.61719 c 0,-0.90657 -0.76726,-1.67383 -1.67383,-1.67383 z m 50.20899,0 c -0.83684,0 -1.60352,0.76726 -1.60352,1.67383 l 0,52.51175 c 0,0.9065 0.76668,1.6035 1.60352,1.6035 0.90657,0 1.67382,-0.697 1.67382,-1.6035 l 0,-52.51175 c 0,-0.90657 -0.76725,-1.67383 -1.67382,-1.67383 z m 38.44531,0 c -12.48277,0 -22.66406,10.18129 -22.66406,22.66406 l 0,10.53125 c 0,12.48277 10.18129,22.59377 22.66406,22.59377 6.34599,0 11.92658,-2.5106 16.04101,-6.625 0.27895,-0.279 0.41797,-0.6974 0.41797,-1.1856 0,-0.4184 -0.13902,-0.8363 -0.41797,-1.1152 -0.34868,-0.3487 -0.76713,-0.4883 -1.18554,-0.4883 -0.41842,0 -0.83687,0.1396 -1.18555,0.4883 -3.48681,3.4868 -8.2305,5.6484 -13.66992,5.6484 -10.66963,0 -19.38672,-8.6467 -19.38672,-19.31637 l 0,-10.53125 c 0,-10.66963 8.71709,-19.3164 19.38672,-19.3164 5.43942,0 10.18311,2.16163 13.66992,5.64844 0.34868,0.34868 0.76713,0.48828 1.18555,0.48828 0.41841,0 0.83686,-0.1396 1.18554,-0.48828 0.27895,-0.27895 0.41797,-0.6974 0.41797,-1.18555 0,-0.41842 -0.13902,-0.83629 -0.41797,-1.11524 -4.11443,-4.11443 -9.69502,-6.69531 -16.04101,-6.69531 z m -165.03125,0.0703 c -0.13947,0 -0.34881,5.8e-4 -0.48828,0.0703 -0.27895,0.0697 -0.48944,0.20818 -0.62891,0.34765 -0.20921,0.20921 -0.34823,0.41775 -0.41797,0.62696 l -18.20117,52.51177 c -0.0697,0.2092 -0.13867,0.3494 -0.13867,0.5586 0,0.6973 0.41787,1.324 1.11523,1.5332 0.13947,0.07 0.34939,0.07 0.5586,0.07 0.62762,0 1.32399,-0.4193 1.5332,-1.0469 l 5.78906,-16.80471 21.82617,0 c 2.02235,5.85791 4.04429,11.71401 5.85743,16.80471 0.2092,0.6276 0.83779,1.0469 1.53515,1.0469 0.20921,0 0.34939,-6e-4 0.5586,-0.07 0.62762,-0.2092 1.04492,-0.8359 1.04492,-1.5332 0,-0.2092 0.001,-0.3494 -0.0684,-0.5586 -7.11309,-20.43275 -18.27149,-52.51177 -18.27149,-52.51177 l -0.41797,-0.62696 c -0.13947,-0.13947 -0.34996,-0.27792 -0.6289,-0.34765 -0.13947,-0.0697 -0.34743,-0.0703 -0.55664,-0.0703 z m -52.83985,3.27735 11.57618,0 c 6.34599,0 11.36718,5.09151 11.36718,11.4375 0,6.41572 -5.15987,11.50586 -11.50586,11.50586 l -11.4375,0 0,-22.94336 z m 85.53516,0 14.08789,0 c 7.74071,0 13.94727,6.34522 13.94727,14.08594 0,7.81044 -6.27745,14.08789 -14.08789,14.08789 l -13.94727,0 0,-28.17383 z m -32.69531,3.34765 c 2.09208,5.85784 5.85649,16.80511 9.76172,27.96289 l -19.45508,0 9.69336,-27.96289 z" />
    <g
       transform="scale(1.0270334,0.97367819)"
       style="font-style:normal;font-weight:normal;font-size:61.00985336px;line-height:125%;font-family:sans-serif;letter-spacing:0px;word-spacing:0px;fill:#0055dd;fill-opacity:1;stroke:none;stroke-width:1px;stroke-linecap:butt;stroke-linejoin:miter;stroke-opacity:1"
       id="text4236">
      <path
         id="path6255"
         style="font-style:normal;font-variant:normal;font-weight:bold;font-stretch:normal;font-family:Belgika;-inkscape-font-specification:'Belgika Bold';fill:#0055dd;fill-opacity:1"
         d="m 373.071,1032.7963 c -1.03717,0.7931 -1.64726,2.0743 -1.64726,3.2945 0,0.8542 0.24404,1.7083 0.73211,2.3794 l 13.97126,19.2791 0,19.0351 c 0,2.1963 1.8303,4.0266 4.02665,4.0266 2.25737,0 4.08766,-1.8303 4.08766,-4.0266 l 0,-19.0351 13.97126,-19.2791 c 0.48808,-0.6711 0.73212,-1.5252 0.73212,-2.3794 0,-1.2202 -0.54909,-2.5014 -1.64727,-3.2945 -0.73212,-0.4881 -1.52525,-0.7321 -2.37938,-0.7321 -1.28121,0 -2.50141,0.5491 -3.29454,1.6472 l -11.46985,15.8016 -11.34783,-15.8016 c -0.79313,-1.0981 -2.07434,-1.6472 -3.35554,-1.6472 -0.79313,0 -1.64727,0.244 -2.37939,0.7321 z m -44.8899,3.2945 c 0,2.1964 1.8303,4.0877 4.02665,4.0877 l 12.20197,0 0,36.6059 c 0,2.1963 1.89131,4.0266 4.08766,4.0266 2.19636,0 4.08766,-1.8303 4.08766,-4.0266 l 0,-36.6059 12.20197,0 c 2.19636,0 4.02665,-1.8303 4.02665,-4.0877 0,-2.1963 -1.83029,-4.0876 -4.02665,-4.0876 l -16.28963,0 -16.28963,0 c -2.19635,0 -4.02665,1.8913 -4.02665,4.0876 z m -11.42601,-4.0876 c -2.19635,0 -4.02665,1.8913 -4.02665,4.0876 l 0,40.6936 c 0,2.1963 1.8303,4.0266 4.02665,4.0266 2.25737,0 4.08766,-1.8303 4.08766,-4.0266 l 0,-40.6936 c 0,-2.1963 -1.8913,-4.0876 -4.08766,-4.0876 z m -51.96705,4.0876 c 0,2.1964 1.83029,4.0877 4.02665,4.0877 l 12.20197,0 0,36.6059 c 0,2.1963 1.8913,4.0266 4.08766,4.0266 2.19635,0 4.08766,-1.8303 4.08766,-4.0266 l 0,-36.6059 12.20197,0 c 2.19635,0 4.02665,-1.8303 4.02665,-4.0877 0,-2.1963 -1.8303,-4.0876 -4.02665,-4.0876 l -16.28963,0 -16.28963,0 c -2.19636,0 -4.02665,1.8913 -4.02665,4.0876 z m -10.71295,-4.0876 c -2.19636,0 -4.08766,1.8913 -4.08766,4.0876 l 0,27.7595 -21.0484,-30.0779 c -0.42707,-0.5491 -0.91515,-0.9761 -1.46424,-1.2812 -0.54909,-0.305 -1.22019,-0.488 -1.8913,-0.488 -0.42707,0 -0.85414,0.122 -1.28121,0.244 -0.36606,0.122 -0.73212,0.305 -1.03717,0.5491 -0.54909,0.366 -0.97615,0.8541 -1.2812,1.4032 -0.30505,0.6101 -0.42707,1.2202 -0.42707,1.8913 l 0,40.6936 c 0,2.1963 1.83029,4.0266 4.02665,4.0266 2.19635,0 4.08766,-1.8303 4.08766,-4.0266 l 0,-27.7595 21.0484,30.0779 c 0.36606,0.549 0.85414,0.9761 1.40322,1.2202 0.6101,0.366 1.2202,0.488 1.95232,0.488 0.42707,0 0.79313,-0.061 1.2202,-0.183 0.36606,-0.122 0.73211,-0.305 1.09817,-0.5491 0.54909,-0.366 0.97616,-0.9151 1.28121,-1.4642 0.30505,-0.5491 0.48808,-1.1592 0.48808,-1.8303 l 0,-40.6936 c 0,-2.1963 -1.89131,-4.0876 -4.08766,-4.0876 z m -42.766,4.0876 c 0,-2.1963 -1.8913,-4.0876 -4.08766,-4.0876 l -22.39061,0 c -2.4404,0 -4.02665,2.3793 -4.02665,4.0876 l 0,20.3163 0,20.3773 c 0,2.4404 2.31837,4.0266 4.02665,4.0266 l 22.39061,0 c 2.19636,0 4.08766,-1.8303 4.08766,-4.0266 0,-2.2574 -1.8913,-4.0877 -4.08766,-4.0877 l -18.30295,0 0,-12.2019 14.21529,0 c 2.19636,0 4.08766,-1.8303 4.08766,-4.0877 0,-2.1964 -1.8913,-4.0267 -4.08766,-4.0267 l -14.21529,0 0,-12.2019 18.30295,0 c 2.19636,0 4.08766,-1.8913 4.08766,-4.0877 z m -71.7228,36.6059 0,-32.5182 6.10098,0 c 4.14867,0 8.29734,1.5862 11.46986,4.7587 3.17251,3.1726 4.75876,7.3212 4.75876,11.4699 0,4.2097 -1.58625,8.3583 -4.75876,11.5309 -3.17252,3.1725 -7.44321,4.7587 -11.53087,4.7587 l -6.03997,0 z m -8.11431,4.0877 c 0,1.7083 1.58625,4.0266 4.02665,4.0266 l 10.12763,0 c 6.162,0 12.50702,-2.3183 17.26579,-7.1381 4.75877,-4.7588 7.13815,-10.9818 7.13815,-17.2658 0,-6.223 -2.37938,-12.446 -7.13815,-17.2048 -4.75877,-4.7588 -10.98177,-7.1991 -17.20478,-7.1991 l -10.18864,0 c -1.70828,0 -4.02665,1.6472 -4.02665,4.0876 l 0,40.6936 z m -17.52699,-44.7812 c -2.19635,0 -4.02665,1.8913 -4.02665,4.0876 l 0,40.6936 c 0,2.1963 1.8303,4.0266 4.02665,4.0266 2.25736,0 4.08766,-1.8303 4.08766,-4.0266 l 0,-40.6936 c 0,-2.1963 -1.89131,-4.0876 -4.08766,-4.0876 z" />
    </g>
  </g>
</svg>
