<?xml version="1.0" encoding="UTF-8" standalone="no"?>
<!-- Created with Inkscape (http://www.inkscape.org/) -->

<svg
   xmlns:dc="http://purl.org/dc/elements/1.1/"
   xmlns:cc="http://creativecommons.org/ns#"
   xmlns:rdf="http://www.w3.org/1999/02/22-rdf-syntax-ns#"
   xmlns:svg="http://www.w3.org/2000/svg"
   xmlns="http://www.w3.org/2000/svg"
   xmlns:sodipodi="http://sodipodi.sourceforge.net/DTD/sodipodi-0.dtd"
   xmlns:inkscape="http://www.inkscape.org/namespaces/inkscape"
   width="265"
   height="100"
   viewBox="0 0 265 100"
   id="svg6735"
   version="1.1"
   inkscape:version="0.91 r13725"
   sodipodi:docname="logo-elements.svg">
  <defs
     id="defs6737">
    <marker
       inkscape:isstock="true"
       style="overflow:visible"
       id="marker4246"
       refX="0"
       refY="0"
       orient="auto"
       inkscape:stockid="StopL">
      <path
         inkscape:connector-curvature="0"
         transform="scale(0.8,0.8)"
         style="fill:#333333;fill-opacity:1;fill-rule:evenodd;stroke:#0055dd;stroke-width:1pt;stroke-opacity:1"
         d="M 0,5.65 0,-5.65"
         id="path4248" />
    </marker>
    <marker
       inkscape:isstock="true"
       style="overflow:visible"
       id="marker4224"
       refX="0"
       refY="0"
       orient="auto"
       inkscape:stockid="StopL">
      <path
         inkscape:connector-curvature="0"
         transform="scale(0.8,0.8)"
         style="fill:#0055dd;fill-opacity:1;fill-rule:evenodd;stroke:none;stroke-width:1pt;stroke-opacity:1"
         d="M 0,5.65 0,-5.65"
         id="path4226" />
    </marker>
    <marker
       inkscape:isstock="true"
       style="overflow:visible"
       id="marker8283"
       refX="0"
       refY="0"
       orient="auto"
       inkscape:stockid="StopL">
      <path
         inkscape:connector-curvature="0"
         transform="scale(0.8,0.8)"
         style="fill:#333333;fill-opacity:1;fill-rule:evenodd;stroke:#0055dd;stroke-width:1pt;stroke-opacity:1"
         d="M 0,5.65 0,-5.65"
         id="path8285" />
    </marker>
    <marker
       inkscape:stockid="StopL"
       orient="auto"
       refY="0"
       refX="0"
       id="StopL"
       style="overflow:visible"
       inkscape:isstock="true"
       inkscape:collect="always">
      <path
         id="path4872"
         d="M 0,5.65 0,-5.65"
         style="fill:#1a1a1a;fill-opacity:1;fill-rule:evenodd;stroke:#4d4d4d;stroke-width:1pt;stroke-opacity:1"
         transform="scale(0.8,0.8)"
         inkscape:connector-curvature="0" />
    </marker>
  </defs>
  <sodipodi:namedview
     id="base"
     pagecolor="#ffffff"
     bordercolor="#666666"
     borderopacity="1.0"
     inkscape:pageopacity="0.0"
     inkscape:pageshadow="2"
     inkscape:zoom="1.979899"
     inkscape:cx="153.05825"
     inkscape:cy="46.573207"
     inkscape:document-units="px"
     inkscape:current-layer="layer1"
     showgrid="false"
     units="px"
     inkscape:window-width="1280"
     inkscape:window-height="709"
     inkscape:window-x="0"
     inkscape:window-y="0"
     inkscape:window-maximized="1" />
  <metadata
     id="metadata6740">
    <rdf:RDF>
      <cc:Work
         rdf:about="">
        <dc:format>image/svg+xml</dc:format>
        <dc:type
           rdf:resource="http://purl.org/dc/dcmitype/StillImage" />
        <dc:title></dc:title>
      </cc:Work>
    </rdf:RDF>
  </metadata>
  <g
     inkscape:label="Layer 1"
     inkscape:groupmode="layer"
     id="layer1"
     transform="translate(0,-952.36216)">
    <path
       id="path6881"
       style="fill:#1a1a1a;fill-rule:evenodd;stroke:#4d4d4d;stroke-width:2.18684435;stroke-linecap:butt;stroke-linejoin:miter;stroke-miterlimit:4;stroke-dasharray:2.1868442, 6.5605326;stroke-dashoffset:0;stroke-opacity:1;marker-start:url(#StopL);marker-end:url(#StopL)"
       d="m 20.697947,1042.5048 242.813153,0"
       inkscape:connector-curvature="0" />
    <rect
       style="fill:#ffffff;fill-opacity:1;stroke:none;stroke-width:1;stroke-miterlimit:4;stroke-dasharray:1, 2;stroke-dashoffset:0;stroke-opacity:1"
       id="rect10287"
       width="60.246841"
       height="18.371731"
       x="187.27145"
       y="1032.124" />
    <path
       id="path4399"
       d="m 174.33869,953.0969 0,27.59059 20.23483,-27.49317 -20.23483,-0.0974 z m 47.7935,26.12343 0,5.95542 15.17431,0 0,-5.95542 -15.17431,0 z m -172.42034,0.12917 0,5.95545 21.289355,0 0,-5.95545 -21.289355,0 z m 130.72742,2.97771 0,9.85804 13.9378,19.37225 c 2.63877,0 5.27803,-3e-4 7.91678,0 l -21.85458,-29.23029 z"
       style="fill:#0055dd;fill-opacity:1;stroke:none;stroke-width:0.1;stroke-miterlimit:4;stroke-dasharray:none;marker-start:url(#marker4224)"
       inkscape:connector-curvature="0" />
    <g
       id="g4429"
       transform="matrix(0.63036512,0,0,0.60094313,37.480555,379.8354)">
      <g
         transform="matrix(3.5009785,0,0,3.5765379,-1158.5886,-1006.0692)"
         style="font-style:normal;font-weight:normal;font-size:40px;line-height:125%;font-family:sans-serif;letter-spacing:0px;word-spacing:0px;fill:#222222;fill-opacity:1;stroke:none;stroke-width:1px;stroke-linecap:butt;stroke-linejoin:miter;stroke-opacity:1"
         id="g4403">
        <path
           id="path4405"
           style="font-style:normal;font-variant:normal;font-weight:normal;font-stretch:normal;font-family:'Glacial Indifference';-inkscape-font-specification:'Glacial Indifference';fill:#222222;fill-opacity:1"
           d="m 425.19217,575.21741 0,-2.6 -13.36,0 0,-9.68 0,-2.64 0,-9.68 13.36,0 0,-2.6 -16.16,0 0,27.2 z m -35.1725,0 0,-27.2 -2.8,0 0,27.2 z m -10.4025,-13.68 c 0,3.12 -1.12,5.76 -3.28,7.92 -2.2,2.2 -4.84,3.28 -7.92,3.28 -3.08,0 -5.72,-1.08 -7.88,-3.28 -2.2,-2.16 -3.28,-4.8 -3.28,-7.92 0,-3.04 1.08,-5.68 3.28,-7.88 2.16,-2.16 4.8,-3.28 7.88,-3.28 3.08,0 5.72,1.12 7.92,3.28 2.16,2.2 3.28,4.84 3.28,7.88 z m 2.8,0 c 0,-1.92 -0.4,-3.72 -1.12,-5.44 -0.72,-1.68 -1.72,-3.16 -3,-4.44 -1.28,-1.24 -2.76,-2.24 -4.44,-2.96 -1.72,-0.72 -3.52,-1.12 -5.44,-1.12 -1.92,0 -3.76,0.4 -5.44,1.12 -1.68,0.72 -3.16,1.72 -4.44,2.96 -1.28,1.28 -2.28,2.76 -3,4.44 -0.72,1.72 -1.08,3.52 -1.08,5.44 0,1.92 0.36,3.76 1.08,5.44 0.72,1.72 1.72,3.2 3,4.48 1.28,1.28 2.76,2.28 4.44,3 1.68,0.72 3.52,1.08 5.44,1.08 1.92,0 3.72,-0.36 5.44,-1.08 1.68,-0.72 3.16,-1.72 4.44,-3 1.28,-1.28 2.28,-2.76 3,-4.48 0.72,-1.68 1.12,-3.52 1.12,-5.44 z"
           inkscape:connector-curvature="0"
           sodipodi:nodetypes="ccccccccccccccccssscssscsscccssccscssscscs" />
      </g>
      <rect
         y="953.93567"
         x="62.87751"
         height="97.281761"
         width="9.7012939"
         id="rect4407"
         style="fill:#222222;fill-opacity:1;stroke:none;stroke-width:0.1;stroke-miterlimit:4;stroke-dasharray:none" />
      <rect
         style="fill:#222222;fill-opacity:1;stroke:none;stroke-width:0.1;stroke-miterlimit:4;stroke-dasharray:none"
         id="rect4409"
         width="9.7012939"
         height="97.281761"
         x="0"
         y="953.93567" />
    </g>
    <path
       id="path7053"
       style="fill:#333333;fill-rule:evenodd;stroke:#0055dd;stroke-width:2.18641019;stroke-linecap:butt;stroke-linejoin:miter;stroke-miterlimit:4;stroke-dasharray:2.18641022, 6.55923064;stroke-dashoffset:0;stroke-opacity:1;marker-start:url(#marker4246);marker-end:url(#marker8283)"
       d="m 28.72757,1024.3891 61.956087,0"
       inkscape:connector-curvature="0" />
    <g
       transform="matrix(1.0111685,0,0,0.96397265,-80.570815,21.980638)"
       style="font-style:normal;font-weight:normal;font-size:15.56477547px;line-height:125%;font-family:sans-serif;letter-spacing:0px;word-spacing:0px;fill:#0055dd;fill-opacity:1;stroke:none;stroke-width:1px;stroke-linecap:butt;stroke-linejoin:miter;stroke-opacity:1"
       id="text9965">
      <path
         id="path7520"
         style="font-style:normal;font-variant:normal;font-weight:600;font-stretch:normal;font-family:Belgika;-inkscape-font-specification:'Belgika Semi-Bold';fill:#0055dd;fill-opacity:1"
         d="m 237.20961,1032.9364 c -0.37356,0 -0.68485,0.3113 -0.68485,0.6849 l 0,10.8953 c 0,0.4047 0.38912,0.6693 0.68485,0.6693 l 6.5372,0 c 0.37356,0 0.68485,-0.2957 0.68485,-0.6693 0,-0.3735 -0.31129,-0.6848 -0.68485,-0.6848 l -5.85235,0 0,-10.2105 c 0,-0.3736 -0.3113,-0.6849 -0.68485,-0.6849 z m -9.44588,10.8954 c -2.63044,0 -4.76282,-2.1324 -4.76282,-4.7628 0,-2.6305 2.13238,-4.7784 4.76282,-4.7784 2.63045,0 4.76282,2.1479 4.76282,4.7784 0,2.6304 -2.13237,4.7628 -4.76282,4.7628 z m 0,1.3541 c 3.37756,0 6.13252,-2.7394 6.13252,-6.1169 0,-3.3932 -2.75496,-6.1326 -6.13252,-6.1326 -3.39312,0 -6.13252,2.7394 -6.13252,6.1326 0,3.3775 2.7394,6.1169 6.13252,6.1169 z m -14.5088,-7.8913 0,-3.004 1.50978,0 c 0.82494,0.015 1.49422,0.6848 1.49422,1.5098 0,0.5603 -0.29573,1.0428 -0.74711,1.3074 -0.15565,0.093 -0.34242,0.1556 -0.54477,0.1868 l -1.71212,0 z m 1.78995,1.3541 0.82493,0 c 1.43196,0.016 2.56819,1.1674 2.56819,2.5993 0,1.432 -1.16736,2.5838 -2.58375,2.5838 l -2.59932,-0.016 0,-5.1675 1.3697,0 c 0.0467,0.016 0.0934,0.016 0.14008,0.016 0.0934,0 0.18678,0 0.28017,-0.016 z m 2.02342,-1.1674 c 0.34242,-0.4669 0.56033,-1.0428 0.56033,-1.6809 0,-1.5877 -1.29188,-2.8484 -2.84835,-2.864 l -2.19464,0 c -0.29573,0 -0.68485,0.2646 -0.68485,0.6849 l 0,10.8798 c 0,0.3268 0.29573,0.6848 0.68485,0.6848 l 3.26861,0 c 2.17907,0 3.95345,-1.7432 3.95345,-3.9379 0,-1.7588 -1.15179,-3.2374 -2.7394,-3.7667 z m -20.64108,-3.86 0,10.8953 c 0,0.3736 0.31129,0.6693 0.68485,0.6693 0.37355,0 0.68485,-0.2957 0.68485,-0.6693 l 0,-8.0314 4.17136,8.3272 c 0.0467,0.078 0.0778,0.1245 0.14008,0.1867 0.0467,0.047 0.10895,0.093 0.17121,0.1246 0.0934,0.047 0.20235,0.062 0.3113,0.062 0.0934,0 0.20234,-0.016 0.29573,-0.062 0.0623,-0.031 0.12452,-0.078 0.17121,-0.1246 0.0623,-0.062 0.0934,-0.1089 0.14009,-0.1867 l 4.15579,-8.3116 0,8.0158 c 0,0.3736 0.3113,0.6693 0.68485,0.6693 0.35799,0 0.66929,-0.2957 0.66929,-0.6693 l 0,-10.8953 c 0,-0.1401 -0.0311,-0.2491 -0.0934,-0.358 -0.0778,-0.109 -0.15565,-0.2023 -0.28017,-0.249 -0.0467,-0.031 -0.0934,-0.047 -0.14008,-0.062 -0.0623,-0.016 -0.10896,-0.016 -0.15565,-0.016 -0.14008,0 -0.2646,0.031 -0.35799,0.109 -0.10895,0.062 -0.20234,0.1556 -0.2646,0.2646 l -4.84065,9.6813 -4.85621,-9.6657 c -0.10895,-0.2335 -0.34242,-0.3892 -0.60702,-0.3892 -0.37356,0 -0.68485,0.3113 -0.68485,0.6849 z m -11.05415,-0.5603 c -0.18678,0.14 -0.28017,0.3424 -0.28017,0.5603 0,0.1401 0.0467,0.2802 0.12452,0.3891 l 3.81337,5.2765 0,5.2297 c 0,0.3736 0.3113,0.6693 0.68485,0.6693 0.35799,0 0.66929,-0.2957 0.66929,-0.6693 l 0,-5.2297 3.82893,-5.2765 c 0.0778,-0.1089 0.12452,-0.249 0.12452,-0.3891 0,-0.2179 -0.0934,-0.4203 -0.28017,-0.5603 -0.12452,-0.078 -0.2646,-0.1246 -0.38912,-0.1246 -0.2179,0 -0.43581,0.093 -0.56033,0.2802 l -3.39312,4.685 -3.39312,-4.685 c -0.12452,-0.1868 -0.34243,-0.2802 -0.54477,-0.2802 -0.14008,0 -0.28016,0.047 -0.40468,0.1246 z m -7.94874,9.1676 c -0.2646,0.109 -0.42025,0.3736 -0.42025,0.6382 0,0.093 0.0156,0.1712 0.0467,0.2646 0.17121,0.4046 0.42025,0.7626 0.73154,1.0739 0.60703,0.6071 1.46309,0.9806 2.39698,0.9806 1.86777,0 3.36199,-1.5098 3.36199,-3.3775 0,-0.8872 -0.34243,-1.8989 -1.24518,-2.5527 l -3.0507,-2.2257 c -0.3113,-0.2335 -0.63816,-0.8561 -0.63816,-1.2141 0,-0.8249 0.68485,-1.5253 1.52535,-1.5253 0.42025,0 0.79381,0.1712 1.08954,0.4513 0.15564,0.1557 0.24903,0.2802 0.31129,0.467 0.10896,0.249 0.37356,0.4047 0.63816,0.4047 0.0934,0 0.17121,-0.016 0.2646,-0.047 0.24904,-0.109 0.40468,-0.3736 0.40468,-0.6382 0,-0.078 -0.0156,-0.1712 -0.0467,-0.2646 -0.14008,-0.3424 -0.35799,-0.6381 -0.63816,-0.9027 -0.49807,-0.4981 -1.22961,-0.825 -2.02342,-0.825 -1.60317,0 -2.87948,1.3075 -2.87948,2.8795 0,0.8872 0.49807,1.8055 1.18292,2.3192 l 3.0507,2.2102 c 0.48251,0.358 0.70041,0.9027 0.70041,1.4631 0,1.1206 -0.90275,2.0234 -2.00785,2.0234 -0.56034,0 -1.07397,-0.2179 -1.44753,-0.5915 -0.17121,-0.1868 -0.31129,-0.3891 -0.42025,-0.6381 -0.10895,-0.2646 -0.35799,-0.4203 -0.63815,-0.4203 -0.0778,0 -0.17121,0.016 -0.24904,0.047 z"
         inkscape:connector-curvature="0" />
    </g>
    <g
       transform="matrix(1.0111685,0,0,0.96397265,-21.130415,21.980638)"
       style="font-style:normal;font-weight:normal;font-size:15.56477547px;line-height:125%;font-family:sans-serif;letter-spacing:0px;word-spacing:0px;fill:#1a1a1a;fill-opacity:1;stroke:none;stroke-width:1px;stroke-linecap:butt;stroke-linejoin:miter;stroke-opacity:1"
       id="text10334">
      <path
         id="path7530"
         style="font-style:normal;font-variant:normal;font-weight:600;font-stretch:normal;font-family:Belgika;-inkscape-font-specification:'Belgika Semi-Bold';fill:#1a1a1a"
         d="m 254.18968,1062.1962 c -2.63044,0 -4.76282,-2.1324 -4.76282,-4.7629 0,-2.6304 2.13238,-4.7783 4.76282,-4.7783 2.63045,0 4.76282,2.1479 4.76282,4.7783 0,2.6305 -2.13237,4.7629 -4.76282,4.7629 z m 0,1.3541 c 3.37756,0 6.13252,-2.7394 6.13252,-6.117 0,-3.3931 -2.75496,-6.1325 -6.13252,-6.1325 -3.39312,0 -6.13252,2.7394 -6.13252,6.1325 0,3.3776 2.7394,6.117 6.13252,6.117 z m -12.88593,-5.7745 c 0,0.358 0.3113,0.6692 0.68485,0.6692 l 2.33472,0 0,2.5527 c -0.90276,0.7938 -2.05455,1.1985 -3.17522,1.1985 -1.21405,0 -2.44367,-0.467 -3.37755,-1.4009 -0.93389,-0.9183 -1.38527,-2.1479 -1.38527,-3.362 0,-1.214 0.45138,-2.4436 1.38527,-3.3775 0.93388,-0.9339 2.14794,-1.4008 3.36199,-1.4008 1.21405,0 2.44367,0.4669 3.37755,1.3852 0.12452,0.1401 0.29573,0.2024 0.48251,0.2024 0.17121,0 0.34243,-0.062 0.48251,-0.2024 0.12452,-0.1245 0.18678,-0.3113 0.18678,-0.4825 0,-0.1712 -0.0623,-0.3424 -0.18678,-0.4825 -1.21405,-1.1985 -2.78609,-1.7744 -4.34257,-1.7744 -1.55648,0 -3.12852,0.5915 -4.32701,1.79 -1.19849,1.1985 -1.78995,2.7705 -1.78995,4.3425 0,1.5565 0.59146,3.1286 1.78995,4.327 1.19849,1.1985 2.77053,1.79 4.34257,1.79 1.55648,0 3.14409,-0.5915 4.32701,-1.79 0.10895,-0.1089 0.20234,-0.2957 0.20234,-0.4825 l 0,-3.502 c 0,-0.2958 -0.2646,-0.6849 -0.68485,-0.6849 l -3.004,0 c -0.37355,0 -0.68485,0.3113 -0.68485,0.6849 z m -14.50442,4.4204 c -2.63045,0 -4.76283,-2.1324 -4.76283,-4.7629 0,-2.6304 2.13238,-4.7783 4.76283,-4.7783 2.63044,0 4.76282,2.1479 4.76282,4.7783 0,2.6305 -2.13238,4.7629 -4.76282,4.7629 z m 0,1.3541 c 3.37755,0 6.13252,-2.7394 6.13252,-6.117 0,-3.3931 -2.75497,-6.1325 -6.13252,-6.1325 -3.39313,0 -6.13253,2.7394 -6.13253,6.1325 0,3.3776 2.7394,6.117 6.13253,6.117 z m -14.90449,-12.2495 c -0.37356,0 -0.68485,0.3113 -0.68485,0.6849 l 0,10.8953 c 0,0.4047 0.38912,0.6693 0.68485,0.6693 l 6.5372,0 c 0.37356,0 0.68485,-0.2957 0.68485,-0.6693 0,-0.3735 -0.31129,-0.6848 -0.68485,-0.6848 l -5.85235,0 0,-10.2105 c 0,-0.3736 -0.3113,-0.6849 -0.68485,-0.6849 z"
         inkscape:connector-curvature="0" />
    </g>
  </g>
</svg>
