<?xml version="1.0" encoding="UTF-8" standalone="no"?>
<!-- Created with Inkscape (http://www.inkscape.org/) -->

<svg
   xmlns:dc="http://purl.org/dc/elements/1.1/"
   xmlns:cc="http://creativecommons.org/ns#"
   xmlns:rdf="http://www.w3.org/1999/02/22-rdf-syntax-ns#"
   xmlns:svg="http://www.w3.org/2000/svg"
   xmlns="http://www.w3.org/2000/svg"
   xmlns:sodipodi="http://sodipodi.sourceforge.net/DTD/sodipodi-0.dtd"
   xmlns:inkscape="http://www.inkscape.org/namespaces/inkscape"
   width="315"
   height="295"
   viewBox="0 0 315 295"
   id="svg9050"
   version="1.1"
   inkscape:version="0.91 r13725"
   sodipodi:docname="logo-versions.svg">
  <defs
     id="defs9052" />
  <sodipodi:namedview
     id="base"
     pagecolor="#ffffff"
     bordercolor="#666666"
     borderopacity="1.0"
     inkscape:pageopacity="0.0"
     inkscape:pageshadow="2"
     inkscape:zoom="1.4"
     inkscape:cx="151.28932"
     inkscape:cy="124.33797"
     inkscape:document-units="px"
     inkscape:current-layer="layer1"
     showgrid="false"
     units="px"
     showguides="true"
     inkscape:guide-bbox="true"
     inkscape:snap-bbox="true"
     inkscape:bbox-paths="true"
     inkscape:bbox-nodes="true"
     inkscape:snap-bbox-edge-midpoints="true"
     inkscape:snap-bbox-midpoints="true"
     inkscape:window-width="1280"
     inkscape:window-height="709"
     inkscape:window-x="0"
     inkscape:window-y="0"
     inkscape:window-maximized="1">
    <sodipodi:guide
       position="-1.0101525,146.47212"
       orientation="1,0"
       id="guide9678" />
  </sodipodi:namedview>
  <metadata
     id="metadata9055">
    <rdf:RDF>
      <cc:Work
         rdf:about="">
        <dc:format>image/svg+xml</dc:format>
        <dc:type
           rdf:resource="http://purl.org/dc/dcmitype/StillImage" />
        <dc:title></dc:title>
      </cc:Work>
    </rdf:RDF>
  </metadata>
  <g
     inkscape:label="Layer 1"
     inkscape:groupmode="layer"
     id="layer1"
     transform="translate(0,-757.36216)">
    <g
       transform="scale(1.0207138,0.97970653)"
       style="font-style:normal;font-weight:normal;font-size:28.11752701px;line-height:125%;font-family:sans-serif;letter-spacing:0px;word-spacing:0px;fill:#000000;fill-opacity:1;stroke:none;stroke-width:1px;stroke-linecap:butt;stroke-linejoin:miter;stroke-opacity:1"
       id="text10494">
      <path
         id="path9706"
         style="font-style:normal;font-variant:normal;font-weight:bold;font-stretch:normal;font-family:Belgika;-inkscape-font-specification:'Belgika Bold'"
         d="m 80.035659,791.80444 c -4.133276,0 -7.479262,-3.34599 -7.479262,-7.50738 0,-4.13328 3.345986,-7.47927 7.479262,-7.47927 4.161394,0 7.50738,3.34599 7.50738,7.47927 0,4.16139 -3.345986,7.50738 -7.50738,7.50738 z m 0,3.73963 c 6.213974,0 11.247011,-5.03304 11.247011,-11.24701 0,-6.18586 -5.033037,-11.24701 -11.247011,-11.24701 -6.213973,0 -11.247011,5.06115 -11.247011,11.24701 0,6.21397 5.033038,11.24701 11.247011,11.24701 z M 55.395482,784.88752 c 0,1.04035 0.843526,1.88388 1.883874,1.88388 l 3.289751,0 0,3.34598 c -1.377759,1.12471 -3.06481,1.68706 -4.751862,1.68706 -1.911992,0 -3.852101,-0.73106 -5.314213,-2.19317 -1.433994,-1.46211 -2.165049,-3.3741 -2.165049,-5.31421 0,-1.912 0.731055,-3.82399 2.165049,-5.2861 1.490229,-1.46211 3.374104,-2.19317 5.286095,-2.19317 1.94011,0 3.852102,0.70294 5.314213,2.16505 0.365528,0.36553 0.843526,0.53424 1.321524,0.53424 0.477998,0 0.984113,-0.16871 1.321524,-0.53424 0.365527,-0.36552 0.56235,-0.84352 0.56235,-1.32152 0,-0.478 -0.196823,-0.956 -0.56235,-1.32152 -2.193168,-2.22129 -5.089273,-3.28975 -7.957261,-3.28975 -2.867987,0 -5.735975,1.1247 -7.929142,3.31786 -2.193167,2.19317 -3.289751,5.08928 -3.289751,7.92915 0,2.86798 1.096584,5.76409 3.289751,7.95726 2.193167,2.22128 5.089272,3.28975 7.95726,3.28975 2.867988,0 5.764093,-1.06847 7.95726,-3.28975 0.309293,-0.28118 0.562351,-0.81541 0.562351,-1.32153 l 0,-6.04527 c 0,-0.78729 -0.759174,-1.85575 -1.883875,-1.85575 l -5.173625,0 c -1.040348,0 -1.883874,0.84352 -1.883874,1.85575 z m -26.10317,6.91692 c -4.133276,0 -7.479262,-3.34599 -7.479262,-7.50738 0,-4.13328 3.345986,-7.47927 7.479262,-7.47927 4.161394,0 7.50738,3.34599 7.50738,7.47927 0,4.16139 -3.345986,7.50738 -7.50738,7.50738 z m 0,3.73963 c 6.213974,0 11.247011,-5.03304 11.247011,-11.24701 0,-6.18586 -5.033037,-11.24701 -11.247011,-11.24701 -6.213973,0 -11.247011,5.06115 -11.247011,11.24701 0,6.21397 5.033038,11.24701 11.247011,11.24701 z M 1.855757,773.05005 c -1.01223098,0 -1.85575679019165,0.87164 -1.85575679019165,1.88387 l 0,18.75439 c 0,1.1247 1.06846599019165,1.85576 1.85575679019165,1.85576 l 11.247011,0 c 1.012231,0 1.883874,-0.84353 1.883874,-1.85576 0,-1.04035 -0.871643,-1.88387 -1.883874,-1.88387 l -9.3631367,0 0,-16.87052 c 0,-1.01223 -0.8716433,-1.88387 -1.8838743,-1.88387 z" />
    </g>
    <g
       transform="scale(1.0207138,0.97970653)"
       style="font-style:normal;font-weight:normal;font-size:28.11752701px;line-height:125%;font-family:sans-serif;letter-spacing:0px;word-spacing:0px;fill:#0055dd;fill-opacity:1;stroke:none;stroke-width:1px;stroke-linecap:butt;stroke-linejoin:miter;stroke-opacity:1"
       id="text10498">
      <path
         id="path9724"
         style="font-style:normal;font-variant:normal;font-weight:normal;font-stretch:normal;font-family:Belgika;-inkscape-font-specification:Belgika;fill:#0055dd;fill-opacity:1"
         d="m 230.11063,791.07338 c -0.25306,0.11247 -0.39365,0.36553 -0.39365,0.61859 0,0.0844 0,0.1687 0.0562,0.25305 0.28117,0.70294 0.70293,1.34965 1.23717,1.88388 1.06846,1.06846 2.58681,1.71517 4.21763,1.71517 3.23351,0 5.87656,-2.64305 5.87656,-5.87657 0,-1.60269 -0.61859,-3.34598 -2.16505,-4.47068 l -5.9328,-4.30198 c -0.78729,-0.59047 -1.49023,-1.94011 -1.49023,-2.89611 0,-1.96823 1.6027,-3.59904 3.62716,-3.59904 0.98412,0 1.88388,0.39364 2.5587,1.04035 0.33741,0.33741 0.59047,0.70293 0.75917,1.09658 0.11247,0.25306 0.36553,0.42176 0.61859,0.42176 0.0844,0 0.1687,-0.0281 0.25306,-0.0562 0.25305,-0.11247 0.42176,-0.36553 0.42176,-0.61859 0,-0.0843 -0.0281,-0.1687 -0.0562,-0.25306 -0.25305,-0.59046 -0.59046,-1.06846 -1.09658,-1.54646 -0.87164,-0.87164 -2.10881,-1.43399 -3.45846,-1.43399 -2.75551,0 -4.94868,2.2494 -4.94868,4.94868 0,1.46211 0.87164,3.12105 2.05258,3.96457 l 5.90468,4.30198 c 1.15282,0.84353 1.63082,2.10882 1.63082,3.40222 0,2.50246 -2.05258,4.55504 -4.55504,4.55504 -1.29341,0 -2.44623,-0.50611 -3.26164,-1.32152 -0.42176,-0.42176 -0.75917,-0.89976 -0.98411,-1.46211 -0.11247,-0.25306 -0.36553,-0.39365 -0.61859,-0.39365 -0.0844,0 -0.1687,0 -0.25305,0.0281 z m -5.88228,-18.02333 c -0.36553,0 -0.6467,0.30929 -0.6467,0.67482 l 0,19.06368 -13.637,-19.42921 c -0.0562,-0.11247 -0.14059,-0.16871 -0.22494,-0.22494 -0.0844,-0.0562 -0.19683,-0.0843 -0.3093,-0.0843 -0.0562,0 -0.14058,0.0281 -0.19682,0.0562 -0.0562,0 -0.11247,0.0281 -0.1687,0.0844 -0.11247,0.0562 -0.16871,0.14059 -0.22494,0.22494 -0.0562,0.0844 -0.0562,0.19683 -0.0562,0.3093 l 0,21.17249 c 0,0.36553 0.28118,0.64671 0.6467,0.64671 0.36553,0 0.67482,-0.28118 0.67482,-0.64671 l 0,-19.06368 13.60889,19.42921 c 0.0562,0.11247 0.14059,0.16871 0.22494,0.22494 0.11247,0.0562 0.19682,0.0562 0.30929,0.0562 0.0844,0 0.14059,0 0.19682,-0.0281 0.0562,0 0.14059,-0.0281 0.19683,-0.0843 0.0843,-0.0562 0.14058,-0.14059 0.19682,-0.22494 0.0562,-0.0844 0.0844,-0.19683 0.0844,-0.3093 l 0,-21.17249 c 0,-0.36553 -0.30929,-0.67482 -0.67482,-0.67482 z m -31.53644,21.17249 c -5.48292,0 -9.92548,-4.41445 -9.92548,-9.92548 0,-5.48292 4.44256,-9.89737 9.92548,-9.89737 5.48292,0 9.92549,4.41445 9.92549,9.89737 0,5.51103 -4.44257,9.92548 -9.92549,9.92548 z m 0,1.32153 c 6.21398,0 11.24701,-5.03304 11.24701,-11.24701 0,-6.18586 -5.03303,-11.24701 -11.24701,-11.24701 -6.21397,0 -11.24701,5.06115 -11.24701,11.24701 0,6.21397 5.03304,11.24701 11.24701,11.24701 z m -17.07569,-22.49402 c -0.33741,0 -0.6467,0.30929 -0.6467,0.67482 l 0,21.17249 c 0,0.36553 0.30929,0.64671 0.6467,0.64671 0.36553,0 0.67482,-0.28118 0.67482,-0.64671 l 0,-21.17249 c 0,-0.36553 -0.30929,-0.67482 -0.67482,-0.67482 z m -16.78792,18.02333 c -0.25306,0.11247 -0.39364,0.36553 -0.39364,0.61859 0,0.0844 0,0.1687 0.0562,0.25305 0.28118,0.70294 0.70294,1.34965 1.23717,1.88388 1.06847,1.06846 2.58681,1.71517 4.21763,1.71517 3.23352,0 5.87656,-2.64305 5.87656,-5.87657 0,-1.60269 -0.61858,-3.34598 -2.16505,-4.47068 l -5.93279,-4.30198 c -0.78729,-0.59047 -1.49023,-1.94011 -1.49023,-2.89611 0,-1.96823 1.6027,-3.59904 3.62716,-3.59904 0.98411,0 1.88387,0.39364 2.55869,1.04035 0.33741,0.33741 0.59047,0.70293 0.75918,1.09658 0.11247,0.25306 0.36552,0.42176 0.61858,0.42176 0.0844,0 0.16871,-0.0281 0.25306,-0.0562 0.25306,-0.11247 0.42176,-0.36553 0.42176,-0.61859 0,-0.0843 -0.0281,-0.1687 -0.0562,-0.25306 -0.25306,-0.59046 -0.59047,-1.06846 -1.09659,-1.54646 -0.87164,-0.87164 -2.10881,-1.43399 -3.45845,-1.43399 -2.75552,0 -4.94869,2.2494 -4.94869,4.94868 0,1.46211 0.87165,3.12105 2.05258,3.96457 l 5.90468,4.30198 c 1.15282,0.84353 1.63082,2.10882 1.63082,3.40222 0,2.50246 -2.05258,4.55504 -4.55504,4.55504 -1.29341,0 -2.44622,-0.50611 -3.26163,-1.32152 -0.42177,-0.42176 -0.75918,-0.89976 -0.98412,-1.46211 -0.11247,-0.25306 -0.36552,-0.39365 -0.61858,-0.39365 -0.0844,0 -0.16871,0 -0.25306,0.0281 z m -14.75335,-7.42303 0,-9.25066 4.66751,0 c 2.55869,0 4.58316,2.05258 4.58316,4.61127 0,2.58681 -2.0807,4.63939 -4.6394,4.63939 l -4.61127,0 z m 0,1.32153 3.65528,0 5.14551,10.23478 c 0.11247,0.22494 0.33741,0.33741 0.59046,0.33741 0.0844,0 0.19683,0 0.28118,-0.0562 0.22494,-0.11247 0.36553,-0.36553 0.36553,-0.59047 0,-0.11247 -0.0281,-0.19682 -0.0562,-0.30929 l -4.86433,-9.64431 c 3.06481,-0.25306 5.4548,-2.78364 5.4548,-5.9328 0,-3.26163 -2.61493,-5.96091 -5.90468,-5.96091 l -5.34233,0 c -0.28118,0 -0.67482,0.28117 -0.67482,0.67482 l 0,21.17249 c 0,0.36553 0.30929,0.64671 0.67482,0.64671 0.36553,0 0.67482,-0.28118 0.67482,-0.64671 l 0,-9.92548 z m -5.87788,-11.24701 c 0,-0.36553 -0.3093,-0.67482 -0.67482,-0.67482 l -11.64066,0 c -0.39364,0 -0.6467,0.39364 -0.6467,0.67482 l 0,10.57219 0,10.6003 c 0,0.39365 0.36553,0.64671 0.6467,0.64671 l 11.64066,0 c 0.36552,0 0.67482,-0.28118 0.67482,-0.64671 0,-0.36552 -0.3093,-0.67482 -0.67482,-0.67482 l -10.96584,0 0,-9.25066 8.85702,0 c 0.36553,0 0.64671,-0.3093 0.64671,-0.67482 0,-0.33741 -0.28118,-0.64671 -0.64671,-0.64671 l -8.85702,0 0,-9.25066 10.96584,0 c 0.36552,0 0.67482,-0.3093 0.67482,-0.67482 z m -33.56882,-0.61859 c -0.25305,0.11247 -0.42176,0.36553 -0.42176,0.61859 0,0.0843 0.0281,0.1687 0.0562,0.22494 l 7.92914,21.17249 c 0,0 0.36553,0.53424 0.73105,0.53424 0.16871,0 0.36553,-0.14059 0.50612,-0.53424 l 7.92914,-21.17249 c 0.0281,-0.0562 0.0562,-0.14059 0.0562,-0.22494 0,-0.25306 -0.16871,-0.50612 -0.42177,-0.61859 -0.0844,-0.0281 -0.1687,-0.0281 -0.22494,-0.0281 -0.28117,0 -0.53423,0.14059 -0.6467,0.42177 l -7.31056,19.51356 -7.31055,-19.51356 c -0.11247,-0.28118 -0.36553,-0.42177 -0.61859,-0.42177 -0.0844,0 -0.1687,0 -0.25306,0.0281 z" />
    </g>
    <path
       inkscape:connector-curvature="0"
       style="fill:#0055dd;fill-opacity:1;stroke:none;stroke-width:0.1;stroke-miterlimit:4;stroke-dasharray:none"
       d="m 117.32771,796.93047 0,23.8145 17.34721,-23.7304 -17.34721,-0.0841 z m 40.97311,22.54815 0,5.14034 13.00885,0 0,-5.14034 -13.00885,0 z m -147.815012,0.11149 0,5.14038 18.251256,0 0,-5.14038 -18.251256,0 z m 112.071892,2.57018 0,8.50886 11.9488,16.7209 c 2.26221,0 4.52484,-2.1e-4 6.78701,0 L 122.5577,822.16029 Z"
       id="path10632" />
    <g
       transform="matrix(0.54040852,0,0,0.51869756,0,302.12601)"
       id="g10634">
      <g
         id="g10636"
         style="font-style:normal;font-weight:normal;font-size:40px;line-height:125%;font-family:sans-serif;letter-spacing:0px;word-spacing:0px;fill:#222222;fill-opacity:1;stroke:none;stroke-width:1px;stroke-linecap:butt;stroke-linejoin:miter;stroke-opacity:1"
         transform="matrix(3.5009785,0,0,3.5765379,-1158.5886,-1006.0692)">
        <path
           sodipodi:nodetypes="ccccccccccccccccssscssscsscccssccscssscscs"
           inkscape:connector-curvature="0"
           d="m 425.19217,575.21741 0,-2.6 -13.36,0 0,-9.68 0,-2.64 0,-9.68 13.36,0 0,-2.6 -16.16,0 0,27.2 z m -35.1725,0 0,-27.2 -2.8,0 0,27.2 z m -10.4025,-13.68 c 0,3.12 -1.12,5.76 -3.28,7.92 -2.2,2.2 -4.84,3.28 -7.92,3.28 -3.08,0 -5.72,-1.08 -7.88,-3.28 -2.2,-2.16 -3.28,-4.8 -3.28,-7.92 0,-3.04 1.08,-5.68 3.28,-7.88 2.16,-2.16 4.8,-3.28 7.88,-3.28 3.08,0 5.72,1.12 7.92,3.28 2.16,2.2 3.28,4.84 3.28,7.88 z m 2.8,0 c 0,-1.92 -0.4,-3.72 -1.12,-5.44 -0.72,-1.68 -1.72,-3.16 -3,-4.44 -1.28,-1.24 -2.76,-2.24 -4.44,-2.96 -1.72,-0.72 -3.52,-1.12 -5.44,-1.12 -1.92,0 -3.76,0.4 -5.44,1.12 -1.68,0.72 -3.16,1.72 -4.44,2.96 -1.28,1.28 -2.28,2.76 -3,4.44 -0.72,1.72 -1.08,3.52 -1.08,5.44 0,1.92 0.36,3.76 1.08,5.44 0.72,1.72 1.72,3.2 3,4.48 1.28,1.28 2.76,2.28 4.44,3 1.68,0.72 3.52,1.08 5.44,1.08 1.92,0 3.72,-0.36 5.44,-1.08 1.68,-0.72 3.16,-1.72 4.44,-3 1.28,-1.28 2.28,-2.76 3,-4.48 0.72,-1.68 1.12,-3.52 1.12,-5.44 z"
           style="font-style:normal;font-variant:normal;font-weight:normal;font-stretch:normal;font-family:'Glacial Indifference';-inkscape-font-specification:'Glacial Indifference';fill:#222222;fill-opacity:1"
           id="path10638" />
      </g>
      <rect
         style="fill:#222222;fill-opacity:1;stroke:none;stroke-width:0.1;stroke-miterlimit:4;stroke-dasharray:none"
         id="rect10640"
         width="9.7012939"
         height="97.281761"
         x="62.87751"
         y="953.93567" />
      <rect
         y="953.93567"
         x="0"
         height="97.281761"
         width="9.7012939"
         id="rect10642"
         style="fill:#222222;fill-opacity:1;stroke:none;stroke-width:0.1;stroke-miterlimit:4;stroke-dasharray:none" />
    </g>
    <g
       transform="scale(1.0207138,0.97970653)"
       style="font-style:normal;font-weight:normal;font-size:19.27735901px;line-height:125%;font-family:sans-serif;letter-spacing:0px;word-spacing:0px;fill:#0055dd;fill-opacity:1;stroke:none;stroke-width:1px;stroke-linecap:butt;stroke-linejoin:miter;stroke-opacity:1"
       id="text10644">
      <path
         id="path9734"
         style="font-style:normal;font-variant:normal;font-weight:bold;font-stretch:normal;font-family:Belgika;-inkscape-font-specification:'Belgika Bold';fill:#0055dd;fill-opacity:1"
         d="m 241.54706,830.99517 c -0.69399,0 -1.29159,0.59759 -1.29159,1.29158 l 0,8.7712 -6.65069,-9.50374 c -0.13494,-0.1735 -0.28916,-0.30844 -0.46265,-0.40483 -0.1735,-0.0964 -0.38555,-0.15421 -0.5976,-0.15421 -0.13494,0 -0.26988,0.0385 -0.40483,0.0771 -0.11566,0.0385 -0.23132,0.0964 -0.32771,0.17349 -0.1735,0.11567 -0.30844,0.26988 -0.40483,0.44338 -0.0964,0.19277 -0.13494,0.38555 -0.13494,0.5976 l 0,12.858 c 0,0.69398 0.57832,1.2723 1.27231,1.2723 0.69398,0 1.29158,-0.57832 1.29158,-1.2723 l 0,-8.7712 6.65069,9.50374 c 0.11566,0.17349 0.26988,0.30843 0.44338,0.38554 0.19277,0.11567 0.38555,0.15422 0.61688,0.15422 0.13494,0 0.2506,-0.0193 0.38554,-0.0578 0.11567,-0.0386 0.23133,-0.0964 0.34699,-0.1735 0.1735,-0.11566 0.30844,-0.28916 0.40483,-0.46265 0.0964,-0.1735 0.15422,-0.36627 0.15422,-0.57832 l 0,-12.858 c 0,-0.69399 -0.5976,-1.29158 -1.29158,-1.29158 z m -15.81286,0 c -0.69398,0 -1.2723,0.59759 -1.2723,1.29158 l 0,12.858 c 0,0.69398 0.57832,1.2723 1.2723,1.2723 0.71326,0 1.29158,-0.57832 1.29158,-1.2723 l 0,-12.858 c 0,-0.69399 -0.59759,-1.29158 -1.29158,-1.29158 z m -11.139,8.48203 1.13736,-3.27715 c 0.347,1.00243 0.73254,2.12051 1.15665,3.27715 l -2.29401,0 z m 2.35184,-7.63383 c -0.1735,-0.50121 -0.67471,-0.8482 -1.21448,-0.8482 0,0 0,0.0193 0,0.0193 -0.52048,0 -1.0217,0.32772 -1.21447,0.84821 l -4.45307,12.858 c -0.0578,0.13494 -0.0771,0.26988 -0.0771,0.40482 0,0.53977 0.32772,1.04098 0.86748,1.23375 0.13494,0.0386 0.26988,0.0578 0.40483,0.0578 0.53976,0 1.04097,-0.32771 1.21447,-0.8482 l 1.23375,-3.50848 4.06752,0 c 0.42411,1.21447 0.84821,2.42895 1.23375,3.50848 0.1735,0.52049 0.69399,0.8482 1.21448,0.8482 0.13494,0 0.28916,-0.0193 0.4241,-0.0578 0.52049,-0.19277 0.8482,-0.69398 0.8482,-1.23375 0,-0.13494 -0.0193,-0.26988 -0.0578,-0.40482 -1.71568,-4.89645 -4.37596,-12.54957 -4.49162,-12.87728 z m -25.17081,0.44338 0,12.858 c 0,0.69398 0.57832,1.2723 1.2723,1.2723 0.71327,0 1.29159,-0.57832 1.29159,-1.2723 l 0,-7.44106 4.02897,8.01938 c 0.0578,0.11566 0.13494,0.23133 0.23132,0.30844 0.0964,0.11566 0.21205,0.19277 0.32772,0.2506 0.19277,0.0964 0.38555,0.13494 0.57832,0.13494 0.19277,0 0.40482,-0.0385 0.57832,-0.13494 0.13494,-0.0578 0.25061,-0.13494 0.34699,-0.2506 0.0964,-0.0771 0.1735,-0.19278 0.23133,-0.30844 l 3.99041,-7.98083 0,7.40251 c 0,0.69398 0.57832,1.2723 1.29159,1.2723 0.69398,0 1.2723,-0.57832 1.2723,-1.2723 l 0,-12.858 c 0,-0.25061 -0.0771,-0.48193 -0.19277,-0.69399 -0.13494,-0.17349 -0.30844,-0.34699 -0.52049,-0.44338 -0.0771,-0.0578 -0.1735,-0.0964 -0.26988,-0.11566 -0.0964,-0.0193 -0.19278,-0.0385 -0.28916,-0.0385 -0.25061,0 -0.48194,0.0771 -0.67471,0.19277 -0.19277,0.11566 -0.36627,0.30844 -0.48193,0.52049 l -5.282,10.56399 -5.30127,-10.54471 c -0.21206,-0.42411 -0.63616,-0.73254 -1.15665,-0.73254 -0.71326,0 -1.2723,0.57832 -1.2723,1.29158 z" />
    </g>
    <path
       id="path10727"
       d="m 117.32771,865.51407 0,23.81449 17.34721,-23.7304 -17.34721,-0.0841 z m 40.97311,22.54814 0,5.14036 13.00885,0 0,-5.14036 -13.00885,0 z m -147.815012,0.11149 0,5.14038 18.251256,0 0,-5.14038 -18.251256,0 z m 112.071892,2.57018 0,8.50886 11.9488,16.7209 c 2.26221,0 4.52484,-2.1e-4 6.78701,0 L 122.5577,890.74388 Z"
       style="fill:#9c9c9c;fill-opacity:1;stroke:none;stroke-width:0.1;stroke-miterlimit:4;stroke-dasharray:none"
       inkscape:connector-curvature="0" />
    <g
       id="g10729"
       transform="matrix(0.54040852,0,0,0.51869756,0,370.70961)"
       style="fill:#555555;fill-opacity:1">
      <g
         transform="matrix(3.5009785,0,0,3.5765379,-1158.5886,-1006.0692)"
         style="font-style:normal;font-weight:normal;font-size:40px;line-height:125%;font-family:sans-serif;letter-spacing:0px;word-spacing:0px;fill:#555555;fill-opacity:1;stroke:none;stroke-width:1px;stroke-linecap:butt;stroke-linejoin:miter;stroke-opacity:1"
         id="g10731">
        <path
           id="path10733"
           style="font-style:normal;font-variant:normal;font-weight:normal;font-stretch:normal;font-family:'Glacial Indifference';-inkscape-font-specification:'Glacial Indifference';fill:#555555;fill-opacity:1"
           d="m 425.19217,575.21741 0,-2.6 -13.36,0 0,-9.68 0,-2.64 0,-9.68 13.36,0 0,-2.6 -16.16,0 0,27.2 z m -35.1725,0 0,-27.2 -2.8,0 0,27.2 z m -10.4025,-13.68 c 0,3.12 -1.12,5.76 -3.28,7.92 -2.2,2.2 -4.84,3.28 -7.92,3.28 -3.08,0 -5.72,-1.08 -7.88,-3.28 -2.2,-2.16 -3.28,-4.8 -3.28,-7.92 0,-3.04 1.08,-5.68 3.28,-7.88 2.16,-2.16 4.8,-3.28 7.88,-3.28 3.08,0 5.72,1.12 7.92,3.28 2.16,2.2 3.28,4.84 3.28,7.88 z m 2.8,0 c 0,-1.92 -0.4,-3.72 -1.12,-5.44 -0.72,-1.68 -1.72,-3.16 -3,-4.44 -1.28,-1.24 -2.76,-2.24 -4.44,-2.96 -1.72,-0.72 -3.52,-1.12 -5.44,-1.12 -1.92,0 -3.76,0.4 -5.44,1.12 -1.68,0.72 -3.16,1.72 -4.44,2.96 -1.28,1.28 -2.28,2.76 -3,4.44 -0.72,1.72 -1.08,3.52 -1.08,5.44 0,1.92 0.36,3.76 1.08,5.44 0.72,1.72 1.72,3.2 3,4.48 1.28,1.28 2.76,2.28 4.44,3 1.68,0.72 3.52,1.08 5.44,1.08 1.92,0 3.72,-0.36 5.44,-1.08 1.68,-0.72 3.16,-1.72 4.44,-3 1.28,-1.28 2.28,-2.76 3,-4.48 0.72,-1.68 1.12,-3.52 1.12,-5.44 z"
           inkscape:connector-curvature="0"
           sodipodi:nodetypes="ccccccccccccccccssscssscsscccssccscssscscs" />
      </g>
      <rect
         y="953.93567"
         x="62.87751"
         height="97.281761"
         width="9.7012939"
         id="rect10735"
         style="fill:#555555;fill-opacity:1;stroke:none;stroke-width:0.1;stroke-miterlimit:4;stroke-dasharray:none" />
      <rect
         style="fill:#555555;fill-opacity:1;stroke:none;stroke-width:0.1;stroke-miterlimit:4;stroke-dasharray:none"
         id="rect10737"
         width="9.7012939"
         height="97.281761"
         x="0"
         y="953.93567" />
    </g>
    <g
       transform="scale(1.0207138,0.97970653)"
       style="font-style:normal;font-weight:normal;font-size:19.27735901px;line-height:125%;font-family:sans-serif;letter-spacing:0px;word-spacing:0px;fill:#555555;fill-opacity:1;stroke:none;stroke-width:1px;stroke-linecap:butt;stroke-linejoin:miter;stroke-opacity:1"
       id="text10749">
      <path
         id="path9754"
         style="font-style:normal;font-variant:normal;font-weight:bold;font-stretch:normal;font-family:Belgika;-inkscape-font-specification:'Belgika Bold';fill:#555555;fill-opacity:1;stroke:none"
         d="m 308.60757,902.29102 c 0,-0.69398 -0.5976,-1.29158 -1.29159,-1.29158 l -7.07479,0 c -0.77109,0 -1.2723,0.75182 -1.2723,1.29158 l 0,6.41936 0,6.43864 c 0,0.77109 0.73254,1.27231 1.2723,1.27231 l 7.07479,0 c 0.69399,0 1.29159,-0.57833 1.29159,-1.27231 0,-0.71326 -0.5976,-1.29158 -1.29159,-1.29158 l -5.78321,0 0,-3.85547 4.49163,0 c 0.69398,0 1.29158,-0.57833 1.29158,-1.29159 0,-0.69398 -0.5976,-1.2723 -1.29158,-1.2723 l -4.49163,0 0,-3.85548 5.78321,0 c 0.69399,0 1.29159,-0.59759 1.29159,-1.29158 z m -21.39365,-1.29158 c -0.69399,0 -1.27231,0.5976 -1.27231,1.29158 l 0,12.858 c 0,0.77109 0.73254,1.27231 1.27231,1.27231 l 7.71094,0 c 0.69399,0 1.29158,-0.57833 1.29158,-1.27231 0,-0.71326 -0.59759,-1.29158 -1.29158,-1.29158 l -6.41936,0 0,-11.56642 c 0,-0.69398 -0.5976,-1.29158 -1.29158,-1.29158 z m -10.94624,8.48204 1.13737,-3.27715 c 0.34699,1.00242 0.73254,2.1205 1.15664,3.27715 l -2.29401,0 z m 2.35184,-7.63384 c -0.17349,-0.50121 -0.6747,-0.8482 -1.21447,-0.8482 0,0 0,0.0193 0,0.0193 -0.52049,0 -1.0217,0.32771 -1.21447,0.8482 l -4.45307,12.858 c -0.0578,0.13494 -0.0771,0.26988 -0.0771,0.40482 0,0.53977 0.32771,1.04098 0.86748,1.23375 0.13494,0.0386 0.26988,0.0578 0.40482,0.0578 0.53977,0 1.04098,-0.32772 1.21448,-0.84821 l 1.23375,-3.50848 4.06752,0 c 0.4241,1.21448 0.8482,2.42895 1.23375,3.50848 0.1735,0.52049 0.69399,0.84821 1.21447,0.84821 0.13495,0 0.28916,-0.0193 0.42411,-0.0578 0.52048,-0.19277 0.8482,-0.69398 0.8482,-1.23375 0,-0.13494 -0.0193,-0.26988 -0.0578,-0.40482 -1.71569,-4.89645 -4.37596,-12.54956 -4.49163,-12.87728 z m -9.4468,10.87243 c -0.23133,-0.23133 -0.57832,-0.36627 -0.90604,-0.36627 -0.32771,0 -0.65543,0.11567 -0.90603,0.36627 -0.69399,0.71327 -1.63858,1.13737 -2.71811,1.13737 -2.13979,0 -3.87475,-1.71569 -3.87475,-3.85547 l 0,-2.56389 c 0,-2.13979 1.73496,-3.85548 3.87475,-3.85548 1.07953,0 2.02412,0.42411 2.71811,1.13737 0.2506,0.2506 0.57832,0.36627 0.90603,0.36627 0.34699,0 0.67471,-0.11567 0.92531,-0.36627 0.23133,-0.25061 0.36627,-0.57832 0.36627,-0.90604 0,-0.34699 -0.13494,-0.6747 -0.36627,-0.92531 -1.17591,-1.15664 -2.75666,-1.88918 -4.54945,-1.88918 -3.54704,0 -6.43864,2.87232 -6.43864,6.43864 l 0,2.56389 c 0,3.56631 2.8916,6.41936 6.43864,6.41936 1.79279,0 3.37354,-0.71327 4.53018,-1.86991 0.2506,-0.2506 0.38554,-0.57832 0.38554,-0.90603 0,-0.347 -0.13494,-0.67471 -0.38554,-0.92532 z m -21.95209,-0.71326 c -0.48194,0.21205 -0.79038,0.69399 -0.79038,1.1952 0,0.17349 0.0386,0.32771 0.0964,0.50121 0.23133,0.52049 0.55904,1.00242 0.96387,1.42652 0.80965,0.80965 1.94701,1.29159 3.16149,1.29159 2.4675,0 4.45307,-2.00485 4.45307,-4.45307 0,-1.17592 -0.44338,-2.52534 -1.65786,-3.4121 l -3.60486,-2.62172 c -0.23133,-0.17349 -0.53977,-0.80965 -0.53977,-1.04098 0,-0.71326 0.57832,-1.31086 1.31086,-1.31086 0.36627,0 0.67471,0.13495 0.94459,0.38555 0.13494,0.13494 0.19278,0.23133 0.26988,0.38555 0.19278,0.48193 0.67471,0.79037 1.1952,0.79037 0.15422,0 0.32772,-0.0386 0.48193,-0.11566 0.48194,-0.19278 0.79038,-0.67471 0.79038,-1.17592 0,-0.1735 -0.0386,-0.34699 -0.11567,-0.50121 -0.19277,-0.46266 -0.48193,-0.88676 -0.8482,-1.23375 -0.67471,-0.65543 -1.65785,-1.11809 -2.71811,-1.11809 -2.15906,0 -3.89403,1.75424 -3.89403,3.89402 0,1.21448 0.65543,2.40967 1.60003,3.12294 l 3.60486,2.60244 c 0.4241,0.30844 0.61688,0.79037 0.61688,1.34942 0,1.04097 -0.84821,1.88918 -1.88918,1.88918 -0.53977,0 -1.00243,-0.21205 -1.34942,-0.55905 -0.1735,-0.15422 -0.28916,-0.34699 -0.40482,-0.59759 -0.19278,-0.48194 -0.67471,-0.79038 -1.1952,-0.79038 -0.15422,0 -0.32772,0.0386 -0.48193,0.0964 z M 232.9861,901.25004 c -0.32771,0.25061 -0.52049,0.65543 -0.52049,1.04098 0,0.26988 0.0771,0.53977 0.23133,0.75182 l 4.41452,6.09164 0,6.01454 c 0,0.69398 0.57832,1.27231 1.2723,1.27231 0.71327,0 1.29159,-0.57833 1.29159,-1.27231 l 0,-6.01454 4.41451,-6.09164 c 0.15422,-0.21205 0.23133,-0.48194 0.23133,-0.75182 0,-0.38555 -0.1735,-0.79037 -0.52049,-1.04098 -0.23133,-0.15421 -0.48193,-0.23132 -0.75182,-0.23132 -0.40482,0 -0.79037,0.17349 -1.04097,0.52048 l -3.62415,4.99284 -3.58559,-4.99284 c -0.2506,-0.34699 -0.65543,-0.52048 -1.06025,-0.52048 -0.25061,0 -0.52049,0.0771 -0.75182,0.23132 z m -8.90283,8.23144 1.13737,-3.27715 c 0.34699,1.00242 0.73254,2.1205 1.15664,3.27715 l -2.29401,0 z m 2.35184,-7.63384 c -0.17349,-0.50121 -0.6747,-0.8482 -1.21447,-0.8482 0,0 0,0.0193 0,0.0193 -0.52049,0 -1.0217,0.32771 -1.21447,0.8482 l -4.45307,12.858 c -0.0578,0.13494 -0.0771,0.26988 -0.0771,0.40482 0,0.53977 0.32771,1.04098 0.86748,1.23375 0.13494,0.0386 0.26988,0.0578 0.40482,0.0578 0.53977,0 1.04098,-0.32772 1.21448,-0.84821 l 1.23375,-3.50848 4.06752,0 c 0.4241,1.21448 0.8482,2.42895 1.23375,3.50848 0.1735,0.52049 0.69398,0.84821 1.21447,0.84821 0.13495,0 0.28916,-0.0193 0.42411,-0.0578 0.52048,-0.19277 0.8482,-0.69398 0.8482,-1.23375 0,-0.13494 -0.0193,-0.26988 -0.0578,-0.40482 -1.71569,-4.89645 -4.37596,-12.54956 -4.49163,-12.87728 z m -15.49086,8.15433 0.79037,0 2.87233,5.72537 c 0.23133,0.44338 0.69398,0.69399 1.15664,0.69399 0.19277,0 0.38555,-0.0386 0.57832,-0.13495 0.44338,-0.21205 0.69398,-0.6747 0.69398,-1.15664 0,-0.19277 -0.0385,-0.38554 -0.13494,-0.55904 l -2.42894,-4.8579 c 1.6964,-0.63615 2.8916,-2.27472 2.8916,-4.20246 0,-2.4675 -1.96629,-4.5109 -4.47235,-4.5109 l -3.23859,0 c -0.53977,0 -1.29159,0.52049 -1.29159,1.29158 l 0,12.858 c 0,0.69398 0.5976,1.27231 1.29159,1.27231 0.69398,0 1.29158,-0.57833 1.29158,-1.27231 l 0,-5.14705 z m 0,-2.56389 0,-3.85548 1.94701,0 c 1.06026,0 1.90846,0.84821 1.90846,1.92774 0,1.07953 -0.86748,1.92774 -1.92774,1.92774 l -1.92773,0 z m -12.40167,1.67713 c 0,0.71326 0.57832,1.29158 1.29158,1.29158 l 2.25546,0 0,2.29401 c -0.9446,0.77109 -2.10124,1.15664 -3.25788,1.15664 -1.31086,0 -2.641,-0.50121 -3.64342,-1.50364 -0.98314,-1.00242 -1.48436,-2.31328 -1.48436,-3.64342 0,-1.31086 0.50122,-2.62172 1.48436,-3.62414 1.0217,-1.00242 2.31328,-1.50364 3.62414,-1.50364 1.33014,0 2.641,0.48194 3.64343,1.48436 0.2506,0.25061 0.57832,0.36627 0.90603,0.36627 0.32772,0 0.67471,-0.11566 0.90604,-0.36627 0.2506,-0.2506 0.38554,-0.57832 0.38554,-0.90603 0,-0.32772 -0.13494,-0.65543 -0.38554,-0.90604 -1.50364,-1.52291 -3.4892,-2.25545 -5.4555,-2.25545 -1.96629,0 -3.93258,0.77109 -5.43621,2.27473 -1.50363,1.50363 -2.25545,3.4892 -2.25545,5.43621 0,1.96629 0.75182,3.95186 2.25545,5.45549 1.50363,1.52292 3.4892,2.25546 5.45549,2.25546 1.96629,0 3.95186,-0.73254 5.45549,-2.25546 0.21206,-0.19277 0.38555,-0.55904 0.38555,-0.90603 l 0,-4.14463 c 0,-0.53977 -0.52049,-1.27231 -1.29158,-1.27231 l -3.54704,0 c -0.71326,0 -1.29158,0.57832 -1.29158,1.27231 z" />
    </g>
    <g
       transform="scale(1.0207138,0.97970653)"
       style="font-style:normal;font-weight:normal;font-size:19.27735901px;line-height:125%;font-family:sans-serif;letter-spacing:0px;word-spacing:0px;fill:#222222;fill-opacity:1;stroke:none;stroke-width:1px;stroke-linecap:butt;stroke-linejoin:miter;stroke-opacity:1"
       id="text10777">
      <path
         id="path9766"
         style="font-style:normal;font-variant:normal;font-weight:bold;font-stretch:normal;font-family:Belgika;-inkscape-font-specification:'Belgika Bold';fill:#222222;fill-opacity:1;stroke:none"
         d="m 256.45204,970.78355 c -0.25061,-0.25061 -0.57833,-0.36627 -0.92532,-0.36627 -0.32771,0 -0.65543,0.11566 -0.88676,0.36627 l -5.20488,5.14705 0,-4.24102 c 0,-0.69398 -0.5976,-1.29158 -1.29159,-1.29158 -0.69398,0 -1.2723,0.5976 -1.2723,1.29158 l 0,12.858 c 0,0.69398 0.57832,1.27231 1.2723,1.27231 0.71327,0 1.29159,-0.57833 1.29159,-1.27231 l 0,-4.24102 5.20488,5.14706 c 0.23133,0.2506 0.55905,0.36627 0.90604,0.36627 0.32771,0 0.65543,-0.11567 0.90604,-0.36627 0.2506,-0.25061 0.36626,-0.57833 0.36626,-0.90604 0,-0.32772 -0.13494,-0.67471 -0.38554,-0.92531 l -5.55188,-5.51333 5.55188,-5.49405 c 0.2506,-0.2506 0.38554,-0.59759 0.38554,-0.92531 0,-0.32771 -0.11566,-0.65543 -0.36626,-0.90603 z m -13.36012,11.33508 c -0.23133,-0.23133 -0.57832,-0.36627 -0.90603,-0.36627 -0.32772,0 -0.65543,0.11567 -0.90604,0.36627 -0.69399,0.71326 -1.63858,1.13737 -2.71811,1.13737 -2.13978,0 -3.87475,-1.71569 -3.87475,-3.85548 l 0,-2.56388 c 0,-2.13979 1.73497,-3.85548 3.87475,-3.85548 1.07953,0 2.02412,0.42411 2.71811,1.13737 0.25061,0.2506 0.57832,0.36627 0.90604,0.36627 0.34699,0 0.6747,-0.11567 0.92531,-0.36627 0.23133,-0.25061 0.36627,-0.57832 0.36627,-0.90604 0,-0.34699 -0.13494,-0.67471 -0.36627,-0.92531 -1.17592,-1.15664 -2.75666,-1.88918 -4.54946,-1.88918 -3.54703,0 -6.43864,2.87232 -6.43864,6.43864 l 0,2.56388 c 0,3.56632 2.89161,6.41937 6.43864,6.41937 1.7928,0 3.37354,-0.71327 4.53018,-1.86991 0.25061,-0.2506 0.38555,-0.57832 0.38555,-0.90603 0,-0.347 -0.13494,-0.67471 -0.38555,-0.92532 z m -20.31502,-3.23859 1.13736,-3.27716 c 0.347,1.00243 0.73254,2.12051 1.15665,3.27716 l -2.29401,0 z m 2.35184,-7.63384 c -0.1735,-0.50121 -0.67471,-0.8482 -1.21448,-0.8482 0,0 0,0.0193 0,0.0193 -0.52049,0 -1.0217,0.32771 -1.21447,0.8482 l -4.45307,12.858 c -0.0578,0.13494 -0.0771,0.26988 -0.0771,0.40482 0,0.53977 0.32772,1.04098 0.86748,1.23375 0.13494,0.0386 0.26988,0.0578 0.40483,0.0578 0.53976,0 1.04097,-0.32772 1.21447,-0.84821 l 1.23375,-3.50848 4.06752,0 c 0.42411,1.21448 0.84821,2.42895 1.23375,3.50848 0.1735,0.52049 0.69399,0.84821 1.21448,0.84821 0.13494,0 0.28916,-0.0193 0.4241,-0.0578 0.52049,-0.19277 0.8482,-0.69398 0.8482,-1.23375 0,-0.13494 -0.0193,-0.26988 -0.0578,-0.40482 -1.71568,-4.89645 -4.37596,-12.54956 -4.49162,-12.87728 z m -17.42252,-0.8482 c -0.69398,0 -1.2723,0.5976 -1.2723,1.29158 l 0,12.858 c 0,0.77109 0.73254,1.27231 1.2723,1.27231 l 7.71094,0 c 0.69399,0 1.29159,-0.57833 1.29159,-1.27231 0,-0.71326 -0.5976,-1.29158 -1.29159,-1.29158 l -6.41936,0 0,-11.56642 c 0,-0.69398 -0.59759,-1.29158 -1.29158,-1.29158 z m -12.07455,5.14705 0,-2.56389 1.29158,0 c 0.71326,0 1.27231,0.57832 1.27231,1.29159 0,0.44338 -0.21206,0.82892 -0.55905,1.06025 -0.15422,0.11567 -0.32771,0.19278 -0.52049,0.21205 l -1.48435,0 z m 1.63857,2.56389 0.96387,0 c 0.0771,0.0193 0.13494,0.0193 0.21205,0.0193 1.31086,0.11566 2.33256,1.21447 2.33256,2.56389 0,1.42652 -1.15664,2.56389 -2.58316,2.56389 l -2.56389,0 0,-5.14706 1.07953,0 c 0.0771,0.0193 0.13494,0.0193 0.21205,0.0193 0.11566,0 0.23133,0 0.34699,-0.0193 z m 3.08438,-2.10123 c 0.26988,-0.52049 0.4241,-1.11809 0.4241,-1.73496 0,-2.13979 -1.73496,-3.8362 -3.83619,-3.87475 l -2.60245,0 c -0.53976,0 -1.29158,0.52049 -1.29158,1.29158 l 0,12.83872 c 0,0.63616 0.55904,1.29159 1.29158,1.29159 l 3.85548,0 c 2.83377,0 5.14705,-2.27473 5.14705,-5.12778 0,-2.06268 -1.21447,-3.85547 -2.98799,-4.6844 z" />
    </g>
    <rect
       y="-178.33482"
       x="1001.0861"
       height="178.33482"
       width="51.276108"
       id="rect10787"
       style="fill:#1a1a1a;fill-opacity:1;stroke:none;stroke-width:5;stroke-miterlimit:4;stroke-dasharray:none"
       transform="matrix(0,1,-1,0,0,0)" />
    <path
       id="path10789"
       d="m 115.91972,1002.8616 0,22.6238 16.47984,-22.5439 -16.47984,-0.08 z m 38.92446,21.4208 0,4.8833 12.35841,0 0,-4.8833 -12.35841,0 z m -140.424267,0.1059 0,4.8833 17.338688,0 0,-4.8833 -17.338688,0 z m 106.468287,2.4416 0,8.0835 11.35138,15.8848 c 2.14908,0 4.29858,-2e-4 6.44765,0 L 120.8882,1026.83 Z"
       style="fill:#eeeeee;fill-opacity:1;stroke:none;stroke-width:0.1;stroke-miterlimit:4;stroke-dasharray:none"
       inkscape:connector-curvature="0" />
    <g
       id="g10791"
       transform="matrix(0.51338809,0,0,0.49276267,4.4583828,532.79741)"
       style="fill:#eeeeee;fill-opacity:1">
      <g
         transform="matrix(3.5009785,0,0,3.5765379,-1158.5886,-1006.0692)"
         style="font-style:normal;font-weight:normal;font-size:40px;line-height:125%;font-family:sans-serif;letter-spacing:0px;word-spacing:0px;fill:#eeeeee;fill-opacity:1;stroke:none;stroke-width:1px;stroke-linecap:butt;stroke-linejoin:miter;stroke-opacity:1"
         id="g10793">
        <path
           id="path10795"
           style="font-style:normal;font-variant:normal;font-weight:normal;font-stretch:normal;font-family:'Glacial Indifference';-inkscape-font-specification:'Glacial Indifference';fill:#eeeeee;fill-opacity:1"
           d="m 425.19217,575.21741 0,-2.6 -13.36,0 0,-9.68 0,-2.64 0,-9.68 13.36,0 0,-2.6 -16.16,0 0,27.2 z m -35.1725,0 0,-27.2 -2.8,0 0,27.2 z m -10.4025,-13.68 c 0,3.12 -1.12,5.76 -3.28,7.92 -2.2,2.2 -4.84,3.28 -7.92,3.28 -3.08,0 -5.72,-1.08 -7.88,-3.28 -2.2,-2.16 -3.28,-4.8 -3.28,-7.92 0,-3.04 1.08,-5.68 3.28,-7.88 2.16,-2.16 4.8,-3.28 7.88,-3.28 3.08,0 5.72,1.12 7.92,3.28 2.16,2.2 3.28,4.84 3.28,7.88 z m 2.8,0 c 0,-1.92 -0.4,-3.72 -1.12,-5.44 -0.72,-1.68 -1.72,-3.16 -3,-4.44 -1.28,-1.24 -2.76,-2.24 -4.44,-2.96 -1.72,-0.72 -3.52,-1.12 -5.44,-1.12 -1.92,0 -3.76,0.4 -5.44,1.12 -1.68,0.72 -3.16,1.72 -4.44,2.96 -1.28,1.28 -2.28,2.76 -3,4.44 -0.72,1.72 -1.08,3.52 -1.08,5.44 0,1.92 0.36,3.76 1.08,5.44 0.72,1.72 1.72,3.2 3,4.48 1.28,1.28 2.76,2.28 4.44,3 1.68,0.72 3.52,1.08 5.44,1.08 1.92,0 3.72,-0.36 5.44,-1.08 1.68,-0.72 3.16,-1.72 4.44,-3 1.28,-1.28 2.28,-2.76 3,-4.48 0.72,-1.68 1.12,-3.52 1.12,-5.44 z"
           inkscape:connector-curvature="0"
           sodipodi:nodetypes="ccccccccccccccccssscssscsscccssccscssscscs" />
      </g>
      <rect
         y="953.93567"
         x="62.87751"
         height="97.281761"
         width="9.7012939"
         id="rect10797"
         style="fill:#eeeeee;fill-opacity:1;stroke:none;stroke-width:0.1;stroke-miterlimit:4;stroke-dasharray:none" />
      <rect
         style="fill:#eeeeee;fill-opacity:1;stroke:none;stroke-width:0.1;stroke-miterlimit:4;stroke-dasharray:none"
         id="rect10799"
         width="9.7012939"
         height="97.281761"
         x="0"
         y="953.93567" />
    </g>
    <g
       transform="scale(1.0207138,0.97970653)"
       style="font-style:normal;font-weight:normal;font-size:19.27735901px;line-height:125%;font-family:sans-serif;letter-spacing:0px;word-spacing:0px;fill:#9c9c9c;fill-opacity:1;stroke:none;stroke-width:1;stroke-linecap:butt;stroke-linejoin:miter;stroke-miterlimit:4;stroke-dasharray:none;stroke-opacity:1"
       id="text10803">
      <path
         id="path9778"
         style="font-style:normal;font-variant:normal;font-weight:bold;font-stretch:normal;font-family:Belgika;-inkscape-font-specification:'Belgika Bold';fill:#9c9c9c;fill-opacity:1;stroke:none;stroke-width:1;stroke-miterlimit:4;stroke-dasharray:none"
         d="m 256.73577,1041.0882 c 0,-0.694 -0.59759,-1.2916 -1.29158,-1.2916 l -7.07479,0 c -0.77109,0 -1.27231,0.7518 -1.27231,1.2916 l 0,6.4194 0,6.4386 c 0,0.7711 0.73254,1.2723 1.27231,1.2723 l 7.07479,0 c 0.69399,0 1.29158,-0.5783 1.29158,-1.2723 0,-0.7133 -0.59759,-1.2916 -1.29158,-1.2916 l -5.78321,0 0,-3.8555 4.49163,0 c 0.69398,0 1.29158,-0.5783 1.29158,-1.2915 0,-0.694 -0.5976,-1.2723 -1.29158,-1.2723 l -4.49163,0 0,-3.8555 5.78321,0 c 0.69399,0 1.29158,-0.5976 1.29158,-1.2916 z m -24.59369,0 c 0,0.694 0.57832,1.2916 1.2723,1.2916 l 3.85548,0 0,11.5664 c 0,0.694 0.59759,1.2723 1.29158,1.2723 0.69398,0 1.29158,-0.5783 1.29158,-1.2723 l 0,-11.5664 3.85547,0 c 0.69399,0 1.27231,-0.5783 1.27231,-1.2916 0,-0.694 -0.57832,-1.2916 -1.27231,-1.2916 l -5.14705,0 -5.14706,0 c -0.69398,0 -1.2723,0.5976 -1.2723,1.2916 z m -3.61029,-1.2916 c -0.69398,0 -1.2723,0.5976 -1.2723,1.2916 l 0,12.858 c 0,0.694 0.57832,1.2723 1.2723,1.2723 0.71327,0 1.29159,-0.5783 1.29159,-1.2723 l 0,-12.858 c 0,-0.694 -0.5976,-1.2916 -1.29159,-1.2916 z m -14.50019,15.4219 c 0.69399,0 1.29159,-0.5783 1.29159,-1.2723 l 0,-5.1471 5.14705,0 0,5.1471 c 0,0.694 0.57832,1.2723 1.27231,1.2723 0.69398,0 1.29158,-0.5783 1.29158,-1.2723 l 0,-12.858 c 0,-0.694 -0.57832,-1.2916 -1.29158,-1.2916 -0.69399,0 -1.27231,0.5976 -1.27231,1.2916 l 0,5.1471 -5.14705,0 0,-5.1471 c 0,-0.694 -0.57832,-1.2916 -1.29159,-1.2916 -0.69398,0 -1.2723,0.5976 -1.2723,1.2916 l 0,6.4194 0,6.4386 c 0,0.694 0.57832,1.2723 1.2723,1.2723 z m -21.34937,-15.364 c -0.53977,0.1734 -0.90603,0.6939 -0.90603,1.253 0,0.1156 0.0193,0.2313 0.0578,0.3662 l 3.89402,12.8388 c 0.0578,0.212 0.1735,0.3855 0.32772,0.5397 0.13494,0.135 0.32771,0.2506 0.53976,0.3278 0.11567,0.019 0.23133,0.038 0.347,0.038 0.13494,0.019 0.26988,0 0.38554,-0.038 0.21206,-0.077 0.40483,-0.1928 0.53977,-0.3278 0.15422,-0.1542 0.25061,-0.3277 0.32772,-0.5397 l 2.67955,-8.8098 2.67955,8.8098 c 0.0578,0.212 0.1735,0.3855 0.32772,0.5397 0.13494,0.135 0.32771,0.2506 0.52049,0.3278 0.13494,0.019 0.2506,0.038 0.36627,0.038 0.13494,0.019 0.26988,0 0.38554,-0.038 0.21205,-0.077 0.38555,-0.1928 0.53977,-0.3278 0.13494,-0.1542 0.2506,-0.3277 0.32771,-0.5397 l 3.91331,-12.8388 c 0.0385,-0.1349 0.0578,-0.2506 0.0578,-0.3662 0,-0.5591 -0.36627,-1.0796 -0.90604,-1.253 -0.13494,-0.039 -0.2506,-0.039 -0.36627,-0.039 -0.55904,0 -1.07953,0.347 -1.25302,0.906 l -2.67956,8.8098 -2.67955,-8.8098 c -0.0578,-0.212 -0.1735,-0.3855 -0.32772,-0.5397 -0.13494,-0.135 -0.30843,-0.2506 -0.52048,-0.3277 -0.13495,-0.039 -0.26989,-0.058 -0.38555,-0.039 -0.13494,0 -0.25061,0 -0.36627,0.039 -0.21205,0.077 -0.38555,0.1927 -0.53977,0.3277 -0.13494,0.1542 -0.2506,0.3277 -0.30844,0.5397 l -2.69883,8.8098 -2.67955,-8.8098 c -0.15422,-0.559 -0.67471,-0.906 -1.23375,-0.906 -0.11566,0 -0.2506,0 -0.36627,0.039 z" />
    </g>
    <path
       inkscape:connector-curvature="0"
       style="fill:#222222;fill-opacity:1;stroke:none;stroke-width:0.1;stroke-miterlimit:4;stroke-dasharray:none"
       d="m 117.32771,932.68776 0,23.81449 17.34721,-23.7304 -17.34721,-0.0841 z m 40.97311,22.54816 0,5.14034 13.00885,0 0,-5.14034 -13.00885,0 z m -147.815012,0.11147 0,5.14039 18.251256,0 0,-5.14039 -18.251256,0 z m 112.071892,2.57019 0,8.50886 11.9488,16.72089 c 2.26221,0 4.52484,-2.1e-4 6.78701,0 L 122.5577,957.91758 Z"
       id="path10811" />
    <g
       style="fill:#222222;fill-opacity:1"
       transform="matrix(0.54040852,0,0,0.51869756,0,437.88331)"
       id="g10813">
      <g
         id="g10815"
         style="font-style:normal;font-weight:normal;font-size:40px;line-height:125%;font-family:sans-serif;letter-spacing:0px;word-spacing:0px;fill:#222222;fill-opacity:1;stroke:none;stroke-width:1px;stroke-linecap:butt;stroke-linejoin:miter;stroke-opacity:1"
         transform="matrix(3.5009785,0,0,3.5765379,-1158.5886,-1006.0692)">
        <path
           sodipodi:nodetypes="ccccccccccccccccssscssscsscccssccscssscscs"
           inkscape:connector-curvature="0"
           d="m 425.19217,575.21741 0,-2.6 -13.36,0 0,-9.68 0,-2.64 0,-9.68 13.36,0 0,-2.6 -16.16,0 0,27.2 z m -35.1725,0 0,-27.2 -2.8,0 0,27.2 z m -10.4025,-13.68 c 0,3.12 -1.12,5.76 -3.28,7.92 -2.2,2.2 -4.84,3.28 -7.92,3.28 -3.08,0 -5.72,-1.08 -7.88,-3.28 -2.2,-2.16 -3.28,-4.8 -3.28,-7.92 0,-3.04 1.08,-5.68 3.28,-7.88 2.16,-2.16 4.8,-3.28 7.88,-3.28 3.08,0 5.72,1.12 7.92,3.28 2.16,2.2 3.28,4.84 3.28,7.88 z m 2.8,0 c 0,-1.92 -0.4,-3.72 -1.12,-5.44 -0.72,-1.68 -1.72,-3.16 -3,-4.44 -1.28,-1.24 -2.76,-2.24 -4.44,-2.96 -1.72,-0.72 -3.52,-1.12 -5.44,-1.12 -1.92,0 -3.76,0.4 -5.44,1.12 -1.68,0.72 -3.16,1.72 -4.44,2.96 -1.28,1.28 -2.28,2.76 -3,4.44 -0.72,1.72 -1.08,3.52 -1.08,5.44 0,1.92 0.36,3.76 1.08,5.44 0.72,1.72 1.72,3.2 3,4.48 1.28,1.28 2.76,2.28 4.44,3 1.68,0.72 3.52,1.08 5.44,1.08 1.92,0 3.72,-0.36 5.44,-1.08 1.68,-0.72 3.16,-1.72 4.44,-3 1.28,-1.28 2.28,-2.76 3,-4.48 0.72,-1.68 1.12,-3.52 1.12,-5.44 z"
           style="font-style:normal;font-variant:normal;font-weight:normal;font-stretch:normal;font-family:'Glacial Indifference';-inkscape-font-specification:'Glacial Indifference';fill:#222222;fill-opacity:1"
           id="path10817" />
      </g>
      <rect
         style="fill:#222222;fill-opacity:1;stroke:none;stroke-width:0.1;stroke-miterlimit:4;stroke-dasharray:none"
         id="rect10819"
         width="9.7012939"
         height="97.281761"
         x="62.87751"
         y="953.93567" />
      <rect
         y="953.93567"
         x="0"
         height="97.281761"
         width="9.7012939"
         id="rect10821"
         style="fill:#222222;fill-opacity:1;stroke:none;stroke-width:0.1;stroke-miterlimit:4;stroke-dasharray:none" />
    </g>
  </g>
</svg>
