<?xml version="1.0" encoding="UTF-8" standalone="no"?>
<!-- Created with Inkscape (http://www.inkscape.org/) -->

<svg
   xmlns:dc="http://purl.org/dc/elements/1.1/"
   xmlns:cc="http://creativecommons.org/ns#"
   xmlns:rdf="http://www.w3.org/1999/02/22-rdf-syntax-ns#"
   xmlns:svg="http://www.w3.org/2000/svg"
   xmlns="http://www.w3.org/2000/svg"
   xmlns:sodipodi="http://sodipodi.sourceforge.net/DTD/sodipodi-0.dtd"
   xmlns:inkscape="http://www.inkscape.org/namespaces/inkscape"
   width="345"
   height="140"
   viewBox="0 0 345 140"
   id="svg6735"
   version="1.1"
   inkscape:version="0.91 r13725"
   sodipodi:docname="logo-elements.svg">
  <defs
     id="defs6737">
    <marker
       inkscape:isstock="true"
       style="overflow:visible"
       id="marker8283"
       refX="0"
       refY="0"
       orient="auto"
       inkscape:stockid="StopL">
      <path
         inkscape:connector-curvature="0"
         transform="scale(0.8,0.8)"
         style="fill:#333333;fill-opacity:1;fill-rule:evenodd;stroke:#0055dd;stroke-width:1pt;stroke-opacity:1"
         d="M 0,5.65 0,-5.65"
         id="path8285" />
    </marker>
    <marker
       inkscape:stockid="StopL"
       orient="auto"
       refY="0"
       refX="0"
       id="StopL"
       style="overflow:visible"
       inkscape:isstock="true"
       inkscape:collect="always">
      <path
         id="path4872"
         d="M 0,5.65 0,-5.65"
         style="fill:#1a1a1a;fill-opacity:1;fill-rule:evenodd;stroke:#4d4d4d;stroke-width:1pt;stroke-opacity:1"
         transform="scale(0.8,0.8)"
         inkscape:connector-curvature="0" />
    </marker>
  </defs>
  <sodipodi:namedview
     id="base"
     pagecolor="#ffffff"
     bordercolor="#666666"
     borderopacity="1.0"
     inkscape:pageopacity="0.0"
     inkscape:pageshadow="2"
     inkscape:zoom="0.98994949"
     inkscape:cx="143.87404"
     inkscape:cy="31.638838"
     inkscape:document-units="px"
     inkscape:current-layer="text10334"
     showgrid="false"
     units="px"
     inkscape:window-width="1280"
     inkscape:window-height="709"
     inkscape:window-x="0"
     inkscape:window-y="0"
     inkscape:window-maximized="1" />
  <metadata
     id="metadata6740">
    <rdf:RDF>
      <cc:Work
         rdf:about="">
        <dc:format>image/svg+xml</dc:format>
        <dc:type
           rdf:resource="http://purl.org/dc/dcmitype/StillImage" />
        <dc:title></dc:title>
      </cc:Work>
    </rdf:RDF>
  </metadata>
  <g
     inkscape:label="Layer 1"
     inkscape:groupmode="layer"
     id="layer1"
     transform="translate(0,-912.36216)">
    <path
       id="path6881"
       style="fill:#1a1a1a;fill-rule:evenodd;stroke:#4d4d4d;stroke-width:2.21499991;stroke-linecap:butt;stroke-linejoin:miter;stroke-miterlimit:4;stroke-dasharray:2.215, 6.645;stroke-dashoffset:0;stroke-opacity:1;marker-start:url(#StopL);marker-end:url(#StopL)"
       d="m 41.93997,1044.1859 243.46104,0"
       inkscape:connector-curvature="0" />
    <rect
       style="fill:#ffffff;fill-opacity:1;stroke:none;stroke-width:1;stroke-miterlimit:4;stroke-dasharray:1, 2;stroke-dashoffset:0;stroke-opacity:1"
       id="rect10287"
       width="60.407593"
       height="18.797693"
       x="208.95795"
       y="1033.5645" />
    <g
       transform="scale(1.0138665,0.98632315)"
       style="font-style:normal;font-weight:normal;font-size:28.3779335px;line-height:125%;font-family:sans-serif;letter-spacing:0px;word-spacing:0px;fill:#000000;fill-opacity:1;stroke:none;stroke-width:1px;stroke-linecap:butt;stroke-linejoin:miter;stroke-opacity:1"
       id="text4369">
      <path
         id="path7488"
         style="font-style:normal;font-variant:normal;font-weight:bold;font-stretch:normal;font-family:Belgika;-inkscape-font-specification:'Belgika Bold'"
         d="m 80.776903,943.94156 c -4.171556,0 -7.54853,-3.37698 -7.54853,-7.57691 0,-4.17156 3.376974,-7.54853 7.54853,-7.54853 4.199934,0 7.576908,3.37697 7.576908,7.54853 0,4.19993 -3.376974,7.57691 -7.576908,7.57691 z m 0,3.77426 c 6.271523,0 11.351173,-5.07965 11.351173,-11.35117 0,-6.24315 -5.07965,-11.35118 -11.351173,-11.35118 -6.271523,0 -11.351173,5.10803 -11.351173,11.35118 0,6.27152 5.07965,11.35117 11.351173,11.35117 z M 55.908519,936.96058 c 0,1.04999 0.851338,1.90133 1.901322,1.90133 l 3.320218,0 0,3.37697 c -1.390519,1.13512 -3.093195,1.70268 -4.795871,1.70268 -1.929699,0 -3.887777,-0.73783 -5.363429,-2.21348 -1.447275,-1.47566 -2.185101,-3.40536 -2.185101,-5.36343 0,-1.9297 0.737826,-3.8594 2.185101,-5.33505 1.50403,-1.47566 3.405352,-2.21348 5.335051,-2.21348 1.958078,0 3.887777,0.70944 5.36343,2.1851 0.368913,0.36891 0.851338,0.53918 1.333763,0.53918 0.482425,0 0.993227,-0.17027 1.333763,-0.53918 0.368913,-0.36892 0.567558,-0.85134 0.567558,-1.33377 0,-0.48242 -0.198645,-0.96485 -0.567558,-1.33376 -2.213479,-2.24186 -5.136406,-3.32022 -8.030956,-3.32022 -2.894549,0 -5.789098,1.13512 -8.002577,3.3486 -2.213479,2.21348 -3.320218,5.13641 -3.320218,8.00258 0,2.89455 1.106739,5.81747 3.320218,8.03095 2.213479,2.24186 5.136406,3.32022 8.030955,3.32022 2.89455,0 5.817477,-1.07836 8.030955,-3.32022 0.312158,-0.28378 0.567559,-0.82296 0.567559,-1.33376 l 0,-6.10126 c 0,-0.79458 -0.766204,-1.87294 -1.901321,-1.87294 l -5.22154,0 c -1.049984,0 -1.901322,0.85134 -1.901322,1.87294 z m -26.344921,6.98098 c -4.171556,0 -7.54853,-3.37698 -7.54853,-7.57691 0,-4.17156 3.376974,-7.54853 7.54853,-7.54853 4.199935,0 7.576909,3.37697 7.576909,7.54853 0,4.19993 -3.376974,7.57691 -7.576909,7.57691 z m 0,3.77426 c 6.271524,0 11.351174,-5.07965 11.351174,-11.35117 0,-6.24315 -5.07965,-11.35118 -11.351174,-11.35118 -6.271523,0 -11.351173,5.10803 -11.351173,11.35118 0,6.27152 5.07965,11.35117 11.351173,11.35117 z M 1.8729437,925.01347 C 0.8513381,925.01347 9.5367432e-8,925.89319 9.5367432e-8,926.9148 l 0,18.92808 c 0,1.13511 1.078361504632568,1.87294 1.872943604632568,1.87294 l 11.3511733,0 c 1.021606,0 1.901322,-0.85134 1.901322,-1.87294 0,-1.04999 -0.879716,-1.90132 -1.901322,-1.90132 l -9.4498517,0 0,-17.02676 c 0,-1.02161 -0.879716,-1.90133 -1.9013216,-1.90133 z" />
    </g>
    <path
       id="path4399"
       d="m 195.99066,952.70497 0,28.23029 20.28882,-28.13061 -20.28882,-0.0997 z m 47.92103,26.72912 0,6.0935 15.2148,0 0,-6.0935 -15.2148,0 z m -172.8804,0.13216 0,6.09353 21.34616,0 0,-6.09353 -21.34616,0 z m 131.07622,3.04675 0,10.08662 13.97499,19.82138 c 2.64582,0 5.29212,-3e-4 7.93791,0 l -21.9129,-29.908 z"
       style="fill:#0055dd;fill-opacity:1;stroke:none;stroke-width:0.1;stroke-miterlimit:4;stroke-dasharray:none"
       inkscape:connector-curvature="0" />
    <g
       id="g4429"
       transform="matrix(0.6320471,0,0,0.61487649,58.76736,366.15193)">
      <g
         transform="matrix(3.5009785,0,0,3.5765379,-1158.5886,-1006.0692)"
         style="font-style:normal;font-weight:normal;font-size:40px;line-height:125%;font-family:sans-serif;letter-spacing:0px;word-spacing:0px;fill:#222222;fill-opacity:1;stroke:none;stroke-width:1px;stroke-linecap:butt;stroke-linejoin:miter;stroke-opacity:1"
         id="g4403">
        <path
           id="path4405"
           style="font-style:normal;font-variant:normal;font-weight:normal;font-stretch:normal;font-family:'Glacial Indifference';-inkscape-font-specification:'Glacial Indifference';fill:#222222;fill-opacity:1"
           d="m 425.19217,575.21741 0,-2.6 -13.36,0 0,-9.68 0,-2.64 0,-9.68 13.36,0 0,-2.6 -16.16,0 0,27.2 z m -35.1725,0 0,-27.2 -2.8,0 0,27.2 z m -10.4025,-13.68 c 0,3.12 -1.12,5.76 -3.28,7.92 -2.2,2.2 -4.84,3.28 -7.92,3.28 -3.08,0 -5.72,-1.08 -7.88,-3.28 -2.2,-2.16 -3.28,-4.8 -3.28,-7.92 0,-3.04 1.08,-5.68 3.28,-7.88 2.16,-2.16 4.8,-3.28 7.88,-3.28 3.08,0 5.72,1.12 7.92,3.28 2.16,2.2 3.28,4.84 3.28,7.88 z m 2.8,0 c 0,-1.92 -0.4,-3.72 -1.12,-5.44 -0.72,-1.68 -1.72,-3.16 -3,-4.44 -1.28,-1.24 -2.76,-2.24 -4.44,-2.96 -1.72,-0.72 -3.52,-1.12 -5.44,-1.12 -1.92,0 -3.76,0.4 -5.44,1.12 -1.68,0.72 -3.16,1.72 -4.44,2.96 -1.28,1.28 -2.28,2.76 -3,4.44 -0.72,1.72 -1.08,3.52 -1.08,5.44 0,1.92 0.36,3.76 1.08,5.44 0.72,1.72 1.72,3.2 3,4.48 1.28,1.28 2.76,2.28 4.44,3 1.68,0.72 3.52,1.08 5.44,1.08 1.92,0 3.72,-0.36 5.44,-1.08 1.68,-0.72 3.16,-1.72 4.44,-3 1.28,-1.28 2.28,-2.76 3,-4.48 0.72,-1.68 1.12,-3.52 1.12,-5.44 z"
           inkscape:connector-curvature="0"
           sodipodi:nodetypes="ccccccccccccccccssscssscsscccssccscssscscs" />
      </g>
      <rect
         y="953.93567"
         x="62.87751"
         height="97.281761"
         width="9.7012939"
         id="rect4407"
         style="fill:#222222;fill-opacity:1;stroke:none;stroke-width:0.1;stroke-miterlimit:4;stroke-dasharray:none" />
      <rect
         style="fill:#222222;fill-opacity:1;stroke:none;stroke-width:0.1;stroke-miterlimit:4;stroke-dasharray:none"
         id="rect4409"
         width="9.7012939"
         height="97.281761"
         x="0"
         y="953.93567" />
    </g>
    <g
       transform="scale(1.0138665,0.98632315)"
       style="font-style:normal;font-weight:normal;font-size:28.3779335px;line-height:125%;font-family:sans-serif;letter-spacing:0px;word-spacing:0px;fill:#0055dd;fill-opacity:1;stroke:none;stroke-width:1px;stroke-linecap:butt;stroke-linejoin:miter;stroke-opacity:1"
       id="text6877">
      <path
         id="path7506"
         style="font-style:normal;font-variant:normal;font-weight:normal;font-stretch:normal;font-family:Belgika;-inkscape-font-specification:Belgika;fill:#0055dd;fill-opacity:1"
         d="m 240.03573,943.20373 c -0.2554,0.11351 -0.39729,0.36891 -0.39729,0.62431 0,0.0851 0,0.17027 0.0567,0.2554 0.28378,0.70945 0.70945,1.36215 1.24863,1.90133 1.07836,1.07836 2.61077,1.73105 4.25669,1.73105 3.26346,0 5.93099,-2.66753 5.93099,-5.93099 0,-1.61754 -0.62432,-3.37697 -2.1851,-4.51209 l -5.98775,-4.34182 c -0.79458,-0.59594 -1.50403,-1.95808 -1.50403,-2.92293 0,-1.98646 1.61755,-3.63238 3.66076,-3.63238 0.99322,0 1.90132,0.3973 2.58239,1.04999 0.34053,0.34053 0.59594,0.70945 0.7662,1.10674 0.11351,0.2554 0.36892,0.42567 0.62432,0.42567 0.0851,0 0.17026,-0.0284 0.2554,-0.0568 0.2554,-0.11351 0.42567,-0.36891 0.42567,-0.62431 0,-0.0851 -0.0284,-0.17027 -0.0568,-0.25541 -0.2554,-0.59593 -0.59593,-1.07836 -1.10674,-1.56078 -0.87971,-0.87972 -2.12834,-1.44728 -3.49048,-1.44728 -2.78104,0 -4.99452,2.27024 -4.99452,4.99452 0,1.47565 0.87972,3.14995 2.07159,4.00129 l 5.95937,4.34182 c 1.16349,0.85134 1.64592,2.12835 1.64592,3.43373 0,2.52564 -2.07159,4.59723 -4.59723,4.59723 -1.30538,0 -2.46888,-0.51081 -3.29184,-1.33377 -0.42567,-0.42566 -0.7662,-0.90809 -0.99323,-1.47565 -0.11351,-0.2554 -0.36891,-0.39729 -0.62431,-0.39729 -0.0851,0 -0.17027,0 -0.2554,0.0284 z m -20.48356,-17.50919 c 0,0.36892 0.28378,0.68107 0.6527,0.68107 l 7.88906,0 0,20.68752 c 0,0.36891 0.28378,0.65269 0.65269,0.65269 0.36892,0 0.68108,-0.28378 0.68108,-0.65269 l 0,-20.68752 7.86068,0 c 0.36892,0 0.68107,-0.31215 0.68107,-0.68107 0,-0.36891 -0.31215,-0.68107 -0.68107,-0.68107 l -8.54176,0 -8.54175,0 c -0.36892,0 -0.6527,0.31216 -0.6527,0.68107 z m -3.41111,-0.68107 c -0.36891,0 -0.65269,0.31216 -0.65269,0.68107 l 0,19.24024 -13.7633,-19.60915 c -0.0568,-0.11351 -0.14189,-0.17027 -0.22702,-0.22702 -0.0851,-0.0568 -0.19865,-0.0851 -0.31216,-0.0851 -0.0568,0 -0.14189,0.0284 -0.19865,0.0568 -0.0568,0 -0.11351,0.0284 -0.17027,0.0851 -0.11351,0.0568 -0.17026,0.14189 -0.22702,0.22703 -0.0567,0.0851 -0.0567,0.19864 -0.0567,0.31215 l 0,21.36859 c 0,0.36891 0.28377,0.65269 0.65269,0.65269 0.36891,0 0.68107,-0.28378 0.68107,-0.65269 l 0,-19.24024 13.73492,19.60915 c 0.0567,0.11351 0.14189,0.17027 0.22702,0.22702 0.11351,0.0568 0.19865,0.0568 0.31216,0.0568 0.0851,0 0.14189,0 0.19864,-0.0284 0.0568,0 0.14189,-0.0284 0.19865,-0.0851 0.0851,-0.0568 0.14189,-0.14189 0.19865,-0.22702 0.0567,-0.0851 0.0851,-0.19865 0.0851,-0.31216 l 0,-21.36859 c 0,-0.36891 -0.31216,-0.68107 -0.68107,-0.68107 z m -20.20642,0.68107 c 0,-0.36891 -0.31216,-0.68107 -0.68107,-0.68107 l -11.74847,0 c -0.39729,0 -0.65269,0.39729 -0.65269,0.68107 l 0,10.67011 0,10.69848 c 0,0.39729 0.36891,0.65269 0.65269,0.65269 l 11.74847,0 c 0.36891,0 0.68107,-0.28378 0.68107,-0.65269 0,-0.36892 -0.31216,-0.68107 -0.68107,-0.68107 l -11.0674,0 0,-9.33634 8.93905,0 c 0.36891,0 0.65269,-0.31216 0.65269,-0.68107 0,-0.34054 -0.28378,-0.6527 -0.65269,-0.6527 l -8.93905,0 0,-9.33634 11.0674,0 c 0.36891,0 0.68107,-0.31215 0.68107,-0.68107 z m -41.79272,0 0,21.36859 c 0,0.36891 0.28378,0.65269 0.65269,0.65269 0.36892,0 0.68107,-0.28378 0.68107,-0.65269 l 0,-18.55917 9.44986,18.87133 c 0.0567,0.0568 0.0851,0.11351 0.14189,0.17026 0.0567,0.0284 0.11351,0.0851 0.17026,0.11351 0.0851,0.0568 0.19865,0.0568 0.28378,0.0568 0.11352,0 0.22703,0 0.31216,-0.0568 0.0568,-0.0284 0.11351,-0.0851 0.17027,-0.11351 0.0568,-0.0568 0.0851,-0.11351 0.11351,-0.19864 l 9.42147,-18.81457 0,18.53079 c 0,0.36891 0.31216,0.65269 0.68107,0.65269 0.36892,0 0.6527,-0.28378 0.6527,-0.65269 l 0,-21.36859 c 0,-0.11351 -0.0284,-0.2554 -0.0851,-0.34053 -0.0567,-0.11351 -0.17026,-0.19865 -0.28378,-0.2554 -0.0284,-0.0284 -0.0851,-0.0284 -0.14189,-0.0568 -0.0284,0 -0.0851,-0.0284 -0.14189,-0.0284 -0.14189,0 -0.2554,0.0568 -0.34053,0.11352 -0.11351,0.0567 -0.19865,0.14188 -0.2554,0.28377 l -10.10255,20.14834 -10.13092,-20.14834 c -0.11351,-0.22702 -0.34053,-0.39729 -0.59594,-0.39729 -0.36891,0 -0.65269,0.31216 -0.65269,0.68107 z m -4.59855,0 c 0,-0.36891 -0.31216,-0.68107 -0.68107,-0.68107 l -11.74846,0 c -0.3973,0 -0.6527,0.39729 -0.6527,0.68107 l 0,10.67011 0,10.69848 c 0,0.39729 0.36892,0.65269 0.6527,0.65269 l 11.74846,0 c 0.36891,0 0.68107,-0.28378 0.68107,-0.65269 0,-0.36892 -0.31216,-0.68107 -0.68107,-0.68107 l -11.06739,0 0,-9.33634 8.93905,0 c 0.36891,0 0.65269,-0.31216 0.65269,-0.68107 0,-0.34054 -0.28378,-0.6527 -0.65269,-0.6527 l -8.93905,0 0,-9.33634 11.06739,0 c 0.36891,0 0.68107,-0.31215 0.68107,-0.68107 z m -30.38745,-0.68107 c -0.36891,0 -0.65269,0.31216 -0.65269,0.68107 l 0,21.36859 c 0,0.39729 0.36891,0.65269 0.65269,0.65269 l 12.82683,0 c 0.36891,0 0.65269,-0.28378 0.65269,-0.65269 0,-0.36892 -0.28378,-0.68107 -0.65269,-0.68107 l -12.14576,0 0,-20.68752 c 0,-0.36891 -0.31215,-0.68107 -0.68107,-0.68107 z m -5.25124,0.68107 c 0,-0.36891 -0.31216,-0.68107 -0.68107,-0.68107 l -11.74847,0 c -0.39729,0 -0.65269,0.39729 -0.65269,0.68107 l 0,10.67011 0,10.69848 c 0,0.39729 0.36891,0.65269 0.65269,0.65269 l 11.74847,0 c 0.36891,0 0.68107,-0.28378 0.68107,-0.65269 0,-0.36892 -0.31216,-0.68107 -0.68107,-0.68107 l -11.0674,0 0,-9.33634 8.93905,0 c 0.36891,0 0.65269,-0.31216 0.65269,-0.68107 0,-0.34054 -0.28378,-0.6527 -0.65269,-0.6527 l -8.93905,0 0,-9.33634 11.0674,0 c 0.36891,0 0.68107,-0.31215 0.68107,-0.68107 z" />
    </g>
    <path
       id="path7053"
       style="fill:#333333;fill-rule:evenodd;stroke:#0055dd;stroke-width:2.21456027;stroke-linecap:butt;stroke-linejoin:miter;stroke-miterlimit:4;stroke-dasharray:2.21456043, 6.64368128;stroke-dashoffset:0;stroke-opacity:1;marker-start:url(#marker8283);marker-end:url(#marker8283)"
       d="m 49.99102,1025.6502 62.1214,0"
       inkscape:connector-curvature="0" />
    <g
       transform="matrix(1.0138665,0,0,0.98632315,-59.599,0)"
       style="font-style:normal;font-weight:normal;font-size:15.56477547px;line-height:125%;font-family:sans-serif;letter-spacing:0px;word-spacing:0px;fill:#0055dd;fill-opacity:1;stroke:none;stroke-width:1px;stroke-linecap:butt;stroke-linejoin:miter;stroke-opacity:1"
       id="text9965">
      <path
         id="path7520"
         style="font-style:normal;font-variant:normal;font-weight:600;font-stretch:normal;font-family:Belgika;-inkscape-font-specification:'Belgika Semi-Bold';fill:#0055dd;fill-opacity:1"
         d="m 237.20961,1032.9364 c -0.37356,0 -0.68485,0.3113 -0.68485,0.6849 l 0,10.8953 c 0,0.4047 0.38912,0.6693 0.68485,0.6693 l 6.5372,0 c 0.37356,0 0.68485,-0.2957 0.68485,-0.6693 0,-0.3735 -0.31129,-0.6848 -0.68485,-0.6848 l -5.85235,0 0,-10.2105 c 0,-0.3736 -0.3113,-0.6849 -0.68485,-0.6849 z m -9.44588,10.8954 c -2.63044,0 -4.76282,-2.1324 -4.76282,-4.7628 0,-2.6305 2.13238,-4.7784 4.76282,-4.7784 2.63045,0 4.76282,2.1479 4.76282,4.7784 0,2.6304 -2.13237,4.7628 -4.76282,4.7628 z m 0,1.3541 c 3.37756,0 6.13252,-2.7394 6.13252,-6.1169 0,-3.3932 -2.75496,-6.1326 -6.13252,-6.1326 -3.39312,0 -6.13252,2.7394 -6.13252,6.1326 0,3.3775 2.7394,6.1169 6.13252,6.1169 z m -14.5088,-7.8913 0,-3.004 1.50978,0 c 0.82494,0.015 1.49422,0.6848 1.49422,1.5098 0,0.5603 -0.29573,1.0428 -0.74711,1.3074 -0.15565,0.093 -0.34242,0.1556 -0.54477,0.1868 l -1.71212,0 z m 1.78995,1.3541 0.82493,0 c 1.43196,0.016 2.56819,1.1674 2.56819,2.5993 0,1.432 -1.16736,2.5838 -2.58375,2.5838 l -2.59932,-0.016 0,-5.1675 1.3697,0 c 0.0467,0.016 0.0934,0.016 0.14008,0.016 0.0934,0 0.18678,0 0.28017,-0.016 z m 2.02342,-1.1674 c 0.34242,-0.4669 0.56033,-1.0428 0.56033,-1.6809 0,-1.5877 -1.29188,-2.8484 -2.84835,-2.864 l -2.19464,0 c -0.29573,0 -0.68485,0.2646 -0.68485,0.6849 l 0,10.8798 c 0,0.3268 0.29573,0.6848 0.68485,0.6848 l 3.26861,0 c 2.17907,0 3.95345,-1.7432 3.95345,-3.9379 0,-1.7588 -1.15179,-3.2374 -2.7394,-3.7667 z m -20.64108,-3.86 0,10.8953 c 0,0.3736 0.31129,0.6693 0.68485,0.6693 0.37355,0 0.68485,-0.2957 0.68485,-0.6693 l 0,-8.0314 4.17136,8.3272 c 0.0467,0.078 0.0778,0.1245 0.14008,0.1867 0.0467,0.047 0.10895,0.093 0.17121,0.1246 0.0934,0.047 0.20235,0.062 0.3113,0.062 0.0934,0 0.20234,-0.016 0.29573,-0.062 0.0623,-0.031 0.12452,-0.078 0.17121,-0.1246 0.0623,-0.062 0.0934,-0.1089 0.14009,-0.1867 l 4.15579,-8.3116 0,8.0158 c 0,0.3736 0.3113,0.6693 0.68485,0.6693 0.35799,0 0.66929,-0.2957 0.66929,-0.6693 l 0,-10.8953 c 0,-0.1401 -0.0311,-0.2491 -0.0934,-0.358 -0.0778,-0.109 -0.15565,-0.2023 -0.28017,-0.249 -0.0467,-0.031 -0.0934,-0.047 -0.14008,-0.062 -0.0623,-0.016 -0.10896,-0.016 -0.15565,-0.016 -0.14008,0 -0.2646,0.031 -0.35799,0.109 -0.10895,0.062 -0.20234,0.1556 -0.2646,0.2646 l -4.84065,9.6813 -4.85621,-9.6657 c -0.10895,-0.2335 -0.34242,-0.3892 -0.60702,-0.3892 -0.37356,0 -0.68485,0.3113 -0.68485,0.6849 z m -11.05415,-0.5603 c -0.18678,0.14 -0.28017,0.3424 -0.28017,0.5603 0,0.1401 0.0467,0.2802 0.12452,0.3891 l 3.81337,5.2765 0,5.2297 c 0,0.3736 0.3113,0.6693 0.68485,0.6693 0.35799,0 0.66929,-0.2957 0.66929,-0.6693 l 0,-5.2297 3.82893,-5.2765 c 0.0778,-0.1089 0.12452,-0.249 0.12452,-0.3891 0,-0.2179 -0.0934,-0.4203 -0.28017,-0.5603 -0.12452,-0.078 -0.2646,-0.1246 -0.38912,-0.1246 -0.2179,0 -0.43581,0.093 -0.56033,0.2802 l -3.39312,4.685 -3.39312,-4.685 c -0.12452,-0.1868 -0.34243,-0.2802 -0.54477,-0.2802 -0.14008,0 -0.28016,0.047 -0.40468,0.1246 z m -7.94874,9.1676 c -0.2646,0.109 -0.42025,0.3736 -0.42025,0.6382 0,0.093 0.0156,0.1712 0.0467,0.2646 0.17121,0.4046 0.42025,0.7626 0.73154,1.0739 0.60703,0.6071 1.46309,0.9806 2.39698,0.9806 1.86777,0 3.36199,-1.5098 3.36199,-3.3775 0,-0.8872 -0.34243,-1.8989 -1.24518,-2.5527 l -3.0507,-2.2257 c -0.3113,-0.2335 -0.63816,-0.8561 -0.63816,-1.2141 0,-0.8249 0.68485,-1.5253 1.52535,-1.5253 0.42025,0 0.79381,0.1712 1.08954,0.4513 0.15564,0.1557 0.24903,0.2802 0.31129,0.467 0.10896,0.249 0.37356,0.4047 0.63816,0.4047 0.0934,0 0.17121,-0.016 0.2646,-0.047 0.24904,-0.109 0.40468,-0.3736 0.40468,-0.6382 0,-0.078 -0.0156,-0.1712 -0.0467,-0.2646 -0.14008,-0.3424 -0.35799,-0.6381 -0.63816,-0.9027 -0.49807,-0.4981 -1.22961,-0.825 -2.02342,-0.825 -1.60317,0 -2.87948,1.3075 -2.87948,2.8795 0,0.8872 0.49807,1.8055 1.18292,2.3192 l 3.0507,2.2102 c 0.48251,0.358 0.70041,0.9027 0.70041,1.4631 0,1.1206 -0.90275,2.0234 -2.00785,2.0234 -0.56034,0 -1.07397,-0.2179 -1.44753,-0.5915 -0.17121,-0.1868 -0.31129,-0.3891 -0.42025,-0.6381 -0.10895,-0.2646 -0.35799,-0.4203 -0.63815,-0.4203 -0.0778,0 -0.17121,0.016 -0.24904,0.047 z"
         inkscape:connector-curvature="0" />
    </g>
    <g
       transform="scale(1.0138665,0.98632315)"
       style="font-style:normal;font-weight:normal;font-size:15.56477547px;line-height:125%;font-family:sans-serif;letter-spacing:0px;word-spacing:0px;fill:#1a1a1a;fill-opacity:1;stroke:none;stroke-width:1px;stroke-linecap:butt;stroke-linejoin:miter;stroke-opacity:1"
       id="text10334">
      <path
         id="path7530"
         style="font-style:normal;font-variant:normal;font-weight:600;font-stretch:normal;font-family:Belgika;-inkscape-font-specification:'Belgika Semi-Bold';fill:#1a1a1a"
         d="m 254.18968,1062.1962 c -2.63044,0 -4.76282,-2.1324 -4.76282,-4.7629 0,-2.6304 2.13238,-4.7783 4.76282,-4.7783 2.63045,0 4.76282,2.1479 4.76282,4.7783 0,2.6305 -2.13237,4.7629 -4.76282,4.7629 z m 0,1.3541 c 3.37756,0 6.13252,-2.7394 6.13252,-6.117 0,-3.3931 -2.75496,-6.1325 -6.13252,-6.1325 -3.39312,0 -6.13252,2.7394 -6.13252,6.1325 0,3.3776 2.7394,6.117 6.13252,6.117 z m -12.88593,-5.7745 c 0,0.358 0.3113,0.6692 0.68485,0.6692 l 2.33472,0 0,2.5527 c -0.90276,0.7938 -2.05455,1.1985 -3.17522,1.1985 -1.21405,0 -2.44367,-0.467 -3.37755,-1.4009 -0.93389,-0.9183 -1.38527,-2.1479 -1.38527,-3.362 0,-1.214 0.45138,-2.4436 1.38527,-3.3775 0.93388,-0.9339 2.14794,-1.4008 3.36199,-1.4008 1.21405,0 2.44367,0.4669 3.37755,1.3852 0.12452,0.1401 0.29573,0.2024 0.48251,0.2024 0.17121,0 0.34243,-0.062 0.48251,-0.2024 0.12452,-0.1245 0.18678,-0.3113 0.18678,-0.4825 0,-0.1712 -0.0623,-0.3424 -0.18678,-0.4825 -1.21405,-1.1985 -2.78609,-1.7744 -4.34257,-1.7744 -1.55648,0 -3.12852,0.5915 -4.32701,1.79 -1.19849,1.1985 -1.78995,2.7705 -1.78995,4.3425 0,1.5565 0.59146,3.1286 1.78995,4.327 1.19849,1.1985 2.77053,1.79 4.34257,1.79 1.55648,0 3.14409,-0.5915 4.32701,-1.79 0.10895,-0.1089 0.20234,-0.2957 0.20234,-0.4825 l 0,-3.502 c 0,-0.2958 -0.2646,-0.6849 -0.68485,-0.6849 l -3.004,0 c -0.37355,0 -0.68485,0.3113 -0.68485,0.6849 z m -14.50442,4.4204 c -2.63045,0 -4.76283,-2.1324 -4.76283,-4.7629 0,-2.6304 2.13238,-4.7783 4.76283,-4.7783 2.63044,0 4.76282,2.1479 4.76282,4.7783 0,2.6305 -2.13238,4.7629 -4.76282,4.7629 z m 0,1.3541 c 3.37755,0 6.13252,-2.7394 6.13252,-6.117 0,-3.3931 -2.75497,-6.1325 -6.13252,-6.1325 -3.39313,0 -6.13253,2.7394 -6.13253,6.1325 0,3.3776 2.7394,6.117 6.13253,6.117 z m -14.90449,-12.2495 c -0.37356,0 -0.68485,0.3113 -0.68485,0.6849 l 0,10.8953 c 0,0.4047 0.38912,0.6693 0.68485,0.6693 l 6.5372,0 c 0.37356,0 0.68485,-0.2957 0.68485,-0.6693 0,-0.3735 -0.31129,-0.6848 -0.68485,-0.6848 l -5.85235,0 0,-10.2105 c 0,-0.3736 -0.3113,-0.6849 -0.68485,-0.6849 z"
         inkscape:connector-curvature="0" />
    </g>
  </g>
</svg>
