<?xml version="1.0" encoding="UTF-8" standalone="no"?>
<!-- Created with Inkscape (http://www.inkscape.org/) -->

<svg
   xmlns:dc="http://purl.org/dc/elements/1.1/"
   xmlns:cc="http://creativecommons.org/ns#"
   xmlns:rdf="http://www.w3.org/1999/02/22-rdf-syntax-ns#"
   xmlns:svg="http://www.w3.org/2000/svg"
   xmlns="http://www.w3.org/2000/svg"
   xmlns:sodipodi="http://sodipodi.sourceforge.net/DTD/sodipodi-0.dtd"
   xmlns:inkscape="http://www.inkscape.org/namespaces/inkscape"
   width="400"
   height="145"
   viewBox="0 0 400 145"
   id="svg10308"
   version="1.1"
   inkscape:version="0.91 r13725"
   sodipodi:docname="logo-colors.svg">
  <defs
     id="defs10310">
    <marker
       inkscape:stockid="DotM"
       orient="auto"
       refY="0"
       refX="0"
       id="marker5077"
       style="overflow:visible"
       inkscape:isstock="true">
      <path
         inkscape:connector-curvature="0"
         id="path5079"
         d="m -2.5,-1 c 0,2.76 -2.24,5 -5,5 -2.76,0 -5,-2.24 -5,-5 0,-2.76 2.24,-5 5,-5 2.76,0 5,2.24 5,5 z"
         style="fill:#bbbbbb;fill-opacity:1;fill-rule:evenodd;stroke:#bbbbbb;stroke-width:1pt;stroke-opacity:1"
         transform="matrix(0.4,0,0,0.4,2.96,0.4)" />
    </marker>
    <marker
       inkscape:stockid="DotM"
       orient="auto"
       refY="0"
       refX="0"
       id="marker5081"
       style="overflow:visible"
       inkscape:isstock="true">
      <path
         inkscape:connector-curvature="0"
         id="path5083"
         d="m -2.5,-1 c 0,2.76 -2.24,5 -5,5 -2.76,0 -5,-2.24 -5,-5 0,-2.76 2.24,-5 5,-5 2.76,0 5,2.24 5,5 z"
         style="fill:#bbbbbb;fill-opacity:1;fill-rule:evenodd;stroke:#bbbbbb;stroke-width:1pt;stroke-opacity:1"
         transform="matrix(0.4,0,0,0.4,2.96,0.4)" />
    </marker>
    <marker
       inkscape:stockid="DotM"
       orient="auto"
       refY="0"
       refX="0"
       id="marker5115"
       style="overflow:visible"
       inkscape:isstock="true">
      <path
         inkscape:connector-curvature="0"
         id="path5117"
         d="m -2.5,-1 c 0,2.76 -2.24,5 -5,5 -2.76,0 -5,-2.24 -5,-5 0,-2.76 2.24,-5 5,-5 2.76,0 5,2.24 5,5 z"
         style="fill:#555555;fill-opacity:1;fill-rule:evenodd;stroke:#555555;stroke-width:1pt;stroke-opacity:1"
         transform="matrix(0.4,0,0,0.4,2.96,0.4)" />
    </marker>
    <marker
       inkscape:stockid="DotM"
       orient="auto"
       refY="0"
       refX="0"
       id="marker5111"
       style="overflow:visible"
       inkscape:isstock="true">
      <path
         inkscape:connector-curvature="0"
         id="path5113"
         d="m -2.5,-1 c 0,2.76 -2.24,5 -5,5 -2.76,0 -5,-2.24 -5,-5 0,-2.76 2.24,-5 5,-5 2.76,0 5,2.24 5,5 z"
         style="fill:#555555;fill-opacity:1;fill-rule:evenodd;stroke:#555555;stroke-width:1pt;stroke-opacity:1"
         transform="matrix(0.4,0,0,0.4,2.96,0.4)" />
    </marker>
  </defs>
  <sodipodi:namedview
     id="base"
     pagecolor="#ffffff"
     bordercolor="#666666"
     borderopacity="1.0"
     inkscape:pageopacity="0.0"
     inkscape:pageshadow="2"
     inkscape:zoom="0.98994949"
     inkscape:cx="267.99462"
     inkscape:cy="92.554052"
     inkscape:document-units="px"
     inkscape:current-layer="text5051"
     showgrid="false"
     units="px"
     showguides="true"
     inkscape:guide-bbox="true"
     inkscape:snap-bbox="true"
     inkscape:bbox-paths="true"
     inkscape:bbox-nodes="true"
     inkscape:snap-bbox-midpoints="true"
     inkscape:snap-bbox-edge-midpoints="true"
     inkscape:window-width="1280"
     inkscape:window-height="709"
     inkscape:window-x="0"
     inkscape:window-y="0"
     inkscape:window-maximized="1"
     inkscape:snap-global="true">
    <sodipodi:guide
       position="0,85.714286"
       orientation="1,0"
       id="guide11918" />
    <sodipodi:guide
       position="170.71578,21.213204"
       orientation="0,1"
       id="guide4409" />
    <sodipodi:guide
       position="204.55589,40.957391"
       orientation="0,1"
       id="guide5011" />
    <sodipodi:guide
       position="86.129402,111.75971"
       orientation="0,1"
       id="guide5117" />
    <sodipodi:guide
       position="160.62834,106.1105"
       orientation="0,1"
       id="guide5119" />
    <sodipodi:guide
       position="160.62834,117.40892"
       orientation="0,1"
       id="guide5121" />
    <sodipodi:guide
       position="65.714286,95.374641"
       orientation="0,1"
       id="guide5261" />
    <sodipodi:guide
       position="51.071429,58.665127"
       orientation="0,1"
       id="guide5265" />
    <sodipodi:guide
       position="38.601611,47.929268"
       orientation="0,1"
       id="guide5267" />
    <sodipodi:guide
       position="176.78572,50.446429"
       orientation="1,0"
       id="guide5273" />
  </sodipodi:namedview>
  <metadata
     id="metadata10313">
    <rdf:RDF>
      <cc:Work
         rdf:about="">
        <dc:format>image/svg+xml</dc:format>
        <dc:type
           rdf:resource="http://purl.org/dc/dcmitype/StillImage" />
        <dc:title></dc:title>
      </cc:Work>
    </rdf:RDF>
  </metadata>
  <g
     inkscape:label="Layer 1"
     inkscape:groupmode="layer"
     id="layer1"
     transform="translate(0,-907.36219)">
    <g
       id="g5255"
       transform="matrix(1,0,0,1.0201564,-1.2662659e-7,20.980448)">
      <path
         inkscape:connector-curvature="0"
         d="m 6.7650807,1005.3545 152.9498393,0"
         style="fill:#0055dd;fill-opacity:1;fill-rule:evenodd;stroke:#0055dd;stroke-width:2.51099992;stroke-linecap:butt;stroke-linejoin:miter;stroke-miterlimit:4;stroke-dasharray:2.511, 7.533;stroke-dashoffset:0;stroke-opacity:1"
         id="path5045" />
      <path
         inkscape:connector-curvature="0"
         d="m 159.79929,1005.3545 152.94984,0"
         style="fill:none;fill-rule:evenodd;stroke:#555555;stroke-width:2.51099992;stroke-linecap:butt;stroke-linejoin:miter;stroke-miterlimit:4;stroke-dasharray:2.511, 7.533;stroke-dashoffset:0;stroke-opacity:1"
         id="path5043" />
    </g>
    <g
       id="g5139"
       transform="matrix(1,0,0,1.0201564,-1.2662659e-7,20.980448)">
      <path
         transform="matrix(0,1,-1,0,0,0)"
         sodipodi:open="true"
         d="m 1010.8629,-159.69887 a 5.578794,5.6492119 0 0 1 -2.7894,4.89236 5.578794,5.6492119 0 0 1 -5.5788,0 5.578794,5.6492119 0 0 1 -2.78938,-4.89236"
         sodipodi:end="3.1415927"
         sodipodi:start="0"
         sodipodi:ry="5.6492119"
         sodipodi:rx="5.578794"
         sodipodi:cy="-159.69887"
         sodipodi:cx="1005.2841"
         sodipodi:type="arc"
         id="ellipse5123"
         style="fill:#0055dd;fill-opacity:1;stroke:none;stroke-width:2.89199996;stroke-miterlimit:4;stroke-dasharray:2.892, 8.676;stroke-dashoffset:0;stroke-opacity:1" />
      <path
         style="fill:#555555;fill-opacity:1;stroke:none;stroke-width:2.89199996;stroke-miterlimit:4;stroke-dasharray:2.892, 8.676;stroke-dashoffset:0;stroke-opacity:1"
         id="path5137"
         sodipodi:type="arc"
         sodipodi:cx="1005.2841"
         sodipodi:cy="159.69887"
         sodipodi:rx="5.578794"
         sodipodi:ry="5.6492119"
         sodipodi:start="0"
         sodipodi:end="3.1415927"
         d="m 1010.8629,159.69887 a 5.578794,5.6492119 0 0 1 -2.7894,4.89236 5.578794,5.6492119 0 0 1 -5.5788,0 5.578794,5.6492119 0 0 1 -2.78938,-4.89236"
         sodipodi:open="true"
         transform="matrix(0,1,1,0,0,0)" />
    </g>
    <ellipse
       style="fill:#bbbbbb;fill-opacity:1;stroke:none;stroke-width:2.89199996;stroke-miterlimit:4;stroke-dasharray:2.892, 8.676;stroke-dashoffset:0;stroke-opacity:1"
       id="ellipse5089"
       cx="394.85028"
       cy="971.8772"
       rx="5.578794"
       ry="5.7630792" />
    <ellipse
       ry="5.7630792"
       rx="5.578794"
       cy="971.8772"
       cx="160.62834"
       id="ellipse5015"
       style="fill:#222222;fill-opacity:1;stroke:none;stroke-width:2.89199996;stroke-miterlimit:4;stroke-dasharray:2.892, 8.676;stroke-dashoffset:0;stroke-opacity:1" />
    <g
       transform="matrix(0.86816211,0,0,0.84899384,18.506883,142.12561)"
       style="font-style:normal;font-weight:normal;font-size:19.411129px;line-height:125%;font-family:sans-serif;letter-spacing:0px;word-spacing:0px;fill:#222222;fill-opacity:1;stroke:none;stroke-width:1px;stroke-linecap:butt;stroke-linejoin:miter;stroke-opacity:1"
       id="text4999">
      <path
         id="path12452"
         style="font-style:normal;font-variant:normal;font-weight:600;font-stretch:normal;font-family:Belgika;-inkscape-font-specification:'Belgika Semi-Bold';fill:#222222;fill-opacity:1"
         d="m 151.11941,967.96755 c -0.15529,-0.1747 -0.36881,-0.25235 -0.60175,-0.25235 -0.21352,0 -0.42704,0.0777 -0.60174,0.25235 l -6.34744,6.2892 0,-5.68746 c 0,-0.46587 -0.38822,-0.85409 -0.85409,-0.85409 -0.46587,0 -0.85409,0.38822 -0.85409,0.85409 l 0,13.58779 c 0,0.46587 0.38822,0.83468 0.85409,0.83468 0.46587,0 0.85409,-0.36881 0.85409,-0.83468 l 0,-5.70687 6.34744,6.30862 c 0.1747,0.15529 0.38822,0.23293 0.60174,0.23293 0.23294,0 0.44646,-0.0776 0.60175,-0.23293 0.1747,-0.1747 0.25234,-0.38823 0.25234,-0.60175 0,-0.23293 -0.0776,-0.44645 -0.25234,-0.60174 l -6.25039,-6.19215 6.25039,-6.19215 c 0.1747,-0.1747 0.25234,-0.38823 0.25234,-0.60175 0,-0.21352 -0.0776,-0.44645 -0.25234,-0.60174 z m -12.80649,11.99607 c -0.1747,-0.1747 -0.38823,-0.25234 -0.60175,-0.25234 -0.21352,0 -0.44646,0.0776 -0.60174,0.25234 -0.83468,0.83468 -1.96053,1.33937 -3.24166,1.33937 -2.54286,0 -4.60044,-2.05758 -4.60044,-4.58102 l 0,-2.71756 c 0,-2.54286 2.05758,-4.60044 4.60044,-4.60044 1.28113,0 2.40698,0.5241 3.24166,1.35878 0.15528,0.15529 0.38822,0.25234 0.60174,0.25234 0.21352,0 0.42705,-0.097 0.60175,-0.25234 0.15528,-0.1747 0.25234,-0.38822 0.25234,-0.60175 0,-0.21352 -0.0971,-0.44645 -0.25234,-0.60174 -1.14526,-1.12585 -2.69815,-1.84406 -4.44515,-1.84406 -3.47459,0 -6.28921,2.81462 -6.28921,6.28921 l 0,2.71756 c 0,3.47459 2.81462,6.26979 6.28921,6.26979 1.747,0 3.29989,-0.6988 4.44515,-1.84406 0.15528,-0.15529 0.23293,-0.36881 0.23293,-0.60174 0,-0.21352 -0.0777,-0.42705 -0.23293,-0.58234 z m -20.5112,-3.28048 1.9217,-5.53217 c 0.50469,1.47525 1.20349,3.45518 1.9217,5.53217 l -3.8434,0 z m 2.71756,-8.40502 c -0.0388,-0.13587 -0.13588,-0.27175 -0.25235,-0.36881 -0.0776,-0.0582 -0.1747,-0.11646 -0.27175,-0.15529 -0.0388,0 -0.0777,-0.0194 -0.11647,-0.0194 -0.0388,-0.0194 -0.097,-0.0194 -0.15529,-0.0194 0,0 0,0 0,0 -0.3494,0 -0.67939,0.23294 -0.79585,0.56292 l -4.73632,13.58779 c -0.0194,0.0971 -0.0388,0.19412 -0.0388,0.27176 0,0.36881 0.21352,0.6988 0.56292,0.81527 0.0971,0.0388 0.19411,0.0388 0.27176,0.0388 0.36881,0 0.6988,-0.21352 0.81526,-0.56292 l 1.41702,-4.05693 5.02748,0 c 0.48528,1.41701 0.97056,2.81462 1.41701,4.05693 0.11647,0.3494 0.44646,0.56292 0.79586,0.56292 0.0971,0 0.19411,0 0.29117,-0.0388 0.32998,-0.11647 0.56292,-0.44646 0.56292,-0.81527 0,-0.0776 -0.0194,-0.1747 -0.0582,-0.27176 -1.80523,-5.18277 -4.61984,-13.29662 -4.73631,-13.58779 z m -16.62715,-0.56292 c -0.46587,0 -0.85409,0.38822 -0.85409,0.85409 l 0,13.58779 c 0,0.50469 0.48528,0.83468 0.85409,0.83468 l 8.15268,0 c 0.46586,0 0.85409,-0.36881 0.85409,-0.83468 0,-0.46587 -0.38823,-0.85409 -0.85409,-0.85409 l -7.29859,0 0,-12.7337 c 0,-0.46587 -0.38822,-0.85409 -0.85409,-0.85409 z m -11.979698,5.43512 0,-3.74635 1.88288,0 c 1.028789,0.0194 1.863468,0.85409 1.863468,1.88288 0,0.6988 -0.368812,1.30055 -0.931734,1.63053 -0.194112,0.11647 -0.427045,0.19412 -0.67939,0.23294 l -2.135224,0 z m 2.23228,1.68877 1.02879,0 c 1.785824,0.0194 3.202836,1.45583 3.202836,3.24165 0,1.78583 -1.455835,3.22225 -3.222247,3.22225 l -3.241659,-0.0194 0,-6.44449 1.708179,0 c 0.05823,0.0194 0.116467,0.0194 0.174701,0.0194 0.116466,0 0.232933,0 0.3494,-0.0194 z m 2.523447,-1.45584 c 0.427044,-0.58233 0.6988,-1.30054 0.6988,-2.0964 0,-1.97994 -1.611123,-3.55224 -3.552236,-3.57165 l -2.73697,0 c -0.368811,0 -0.854089,0.32999 -0.854089,0.85409 l 0,13.56838 c 0,0.40763 0.368811,0.85409 0.854089,0.85409 l 4.076338,0 c 2.717558,0 4.930429,-2.17405 4.930429,-4.91102 0,-2.19345 -1.436426,-4.03751 -3.416361,-4.69749 z"
         inkscape:connector-curvature="0" />
    </g>
    <g
       transform="matrix(1.0213662,0,0,0.99881545,-1.2662659e-7,12.315573)"
       style="font-style:normal;font-weight:normal;font-size:28.31264114px;line-height:125%;font-family:sans-serif;letter-spacing:0px;word-spacing:0px;fill:#000000;fill-opacity:1;stroke:none;stroke-width:1px;stroke-linecap:butt;stroke-linejoin:miter;stroke-opacity:1"
       id="text11930">
      <path
         id="path11941"
         style="font-style:normal;font-variant:normal;font-weight:bold;font-stretch:normal;font-family:Belgika;-inkscape-font-specification:'Belgika Bold'"
         d="m 80.591049,914.99266 c -4.161958,0 -7.531162,-3.36921 -7.531162,-7.55948 0,-4.16195 3.369204,-7.53116 7.531162,-7.53116 4.190271,0 7.559475,3.36921 7.559475,7.53116 0,4.19027 -3.369204,7.55948 -7.559475,7.55948 z m 0,3.76558 c 6.257094,0 11.325057,-5.06796 11.325057,-11.32506 0,-6.22878 -5.067963,-11.32505 -11.325057,-11.32505 -6.257093,0 -11.325056,5.09627 -11.325056,11.32505 0,6.2571 5.067963,11.32506 11.325056,11.32506 z M 55.779885,908.02775 c 0,1.04757 0.849379,1.89695 1.896947,1.89695 l 3.312579,0 0,3.3692 c -1.387319,1.13251 -3.086078,1.69876 -4.784836,1.69876 -1.92526,0 -3.878832,-0.73613 -5.35109,-2.20839 -1.443944,-1.47225 -2.180073,-3.39751 -2.180073,-5.35109 0,-1.92526 0.736129,-3.85052 2.180073,-5.32277 1.50057,-1.47226 3.397517,-2.20839 5.322777,-2.20839 1.953572,0 3.878832,0.70782 5.351089,2.18007 0.368064,0.36807 0.849379,0.53794 1.330694,0.53794 0.481315,0 0.990943,-0.16987 1.330694,-0.53794 0.368065,-0.36806 0.566253,-0.84938 0.566253,-1.33069 0,-0.48131 -0.198188,-0.96263 -0.566253,-1.33069 -2.208386,-2.2367 -5.124588,-3.31258 -8.012477,-3.31258 -2.887889,0 -5.775779,1.1325 -7.984165,3.34089 -2.208386,2.20838 -3.312579,5.12459 -3.312579,7.98416 0,2.88789 1.104193,5.80409 3.312579,8.01248 2.208386,2.2367 5.124588,3.31258 8.012478,3.31258 2.887889,0 5.804091,-1.07588 8.012477,-3.31258 0.311439,-0.28313 0.566253,-0.82107 0.566253,-1.33069 l 0,-6.08722 c 0,-0.79276 -0.764441,-1.86864 -1.896947,-1.86864 l -5.209526,0 c -1.047568,0 -1.896947,0.84938 -1.896947,1.86864 z m -26.284306,6.96491 c -4.161958,0 -7.531163,-3.36921 -7.531163,-7.55948 0,-4.16195 3.369205,-7.53116 7.531163,-7.53116 4.190271,0 7.559475,3.36921 7.559475,7.53116 0,4.19027 -3.369204,7.55948 -7.559475,7.55948 z m 0,3.76558 c 6.257093,0 11.325056,-5.06796 11.325056,-11.32506 0,-6.22878 -5.067963,-11.32505 -11.325056,-11.32505 -6.257094,0 -11.325057,5.09627 -11.325057,11.32505 0,6.2571 5.067963,11.32506 11.325057,11.32506 z M 1.8686344,896.10813 c -1.01925504,0 -1.86863427602234,0.87769 -1.86863427602234,1.89694 l 0,18.88454 c 0,1.1325 1.07588037602234,1.86863 1.86863427602234,1.86863 l 11.3250566,0 c 1.019255,0 1.896947,-0.84938 1.896947,-1.86863 0,-1.04757 -0.877692,-1.89695 -1.896947,-1.89695 l -9.4281096,0 0,-16.98759 c 0,-1.01925 -0.8776919,-1.89694 -1.896947,-1.89694 z"
         inkscape:connector-curvature="0" />
    </g>
    <rect
       y="988.59253"
       x="161.2419"
       height="37.449444"
       width="77.734055"
       id="rect4553"
       style="fill:#555555;fill-opacity:1;stroke:none;stroke-width:1;stroke-miterlimit:4;stroke-dasharray:none;stroke-dashoffset:0;stroke-opacity:1" />
    <path
       id="rect4614"
       style="fill:#222222;fill-opacity:1;stroke:none;stroke-width:1;stroke-miterlimit:4;stroke-dasharray:none;stroke-dashoffset:0;stroke-opacity:1"
       d="m 83.50782,988.5925 77.73405,0 0,37.4495 -77.73405,0 z"
       inkscape:connector-curvature="0" />
    <rect
       style="fill:#eeeeee;fill-opacity:1;stroke:none;stroke-width:1;stroke-miterlimit:4;stroke-dasharray:none;stroke-dashoffset:0;stroke-opacity:1"
       id="rect4620"
       width="77.734055"
       height="37.449444"
       x="316.71011"
       y="988.59253" />
    <rect
       y="988.59253"
       x="238.97603"
       height="37.449444"
       width="77.734055"
       id="rect4626"
       style="fill:#9c9c9c;fill-opacity:1;stroke:none;stroke-width:1;stroke-miterlimit:4;stroke-dasharray:none;stroke-dashoffset:0;stroke-opacity:1" />
    <rect
       style="fill:#0055dd;fill-opacity:1;stroke:none;stroke-width:1;stroke-miterlimit:4;stroke-dasharray:none;stroke-dashoffset:0;stroke-opacity:1"
       id="rect4638"
       width="77.734055"
       height="37.449444"
       x="5.7737412"
       y="988.59253" />
    <g
       transform="matrix(1.0133735,0,0,1.0066934,-1.2662659e-7,-14.208493)"
       style="font-style:normal;font-weight:normal;font-size:13.68063068px;line-height:125%;font-family:sans-serif;letter-spacing:0px;word-spacing:0px;fill:#ffffff;fill-opacity:1;stroke:none;stroke-width:1px;stroke-linecap:butt;stroke-linejoin:miter;stroke-opacity:1"
       id="text4555">
      <path
         id="path12844"
         style="font-style:normal;font-variant:normal;font-weight:bold;font-stretch:normal;font-family:Belgika;-inkscape-font-specification:'Belgika Bold';text-align:center;text-anchor:middle;fill:#ffffff;fill-opacity:1"
         d="m 220.87732,1017.7517 c -0.34202,0.1368 -0.56091,0.4788 -0.56091,0.8345 0,0.1231 0.0274,0.2462 0.0684,0.3557 0.54723,1.286 1.83321,2.2026 3.3244,2.2026 1.99737,0 3.62536,-1.6143 3.62536,-3.6117 0,-1.9837 -1.58695,-3.5707 -3.57064,-3.6254 l -0.82084,0 0,-1.8742 2.74981,0 c 0.4925,0 0.90292,-0.4241 0.90292,-0.9166 0,-0.4925 -0.41042,-0.9166 -0.90292,-0.9166 l -3.66641,0 c -0.4925,0 -0.9166,0.4241 -0.9166,0.9166 l 0,3.7074 c 0,0.5062 0.4241,0.9166 0.9166,0.9166 l 1.71008,0 c 0.985,0.027 1.7648,0.8209 1.7648,1.7922 0,0.9987 -0.79348,1.7921 -1.79216,1.7921 -0.72508,0 -1.36807,-0.4514 -1.64168,-1.0944 -0.15049,-0.342 -0.4925,-0.5609 -0.8482,-0.5609 -0.10944,0 -0.23257,0.027 -0.34201,0.082 z m -8.44352,0 c -0.34201,0.1368 -0.5609,0.4788 -0.5609,0.8345 0,0.1231 0.0274,0.2462 0.0684,0.3557 0.54723,1.286 1.83321,2.2026 3.3244,2.2026 1.99737,0 3.62536,-1.6143 3.62536,-3.6117 0,-1.9837 -1.58695,-3.5707 -3.57064,-3.6254 l -0.82084,0 0,-1.8742 2.74981,0 c 0.4925,0 0.90292,-0.4241 0.90292,-0.9166 0,-0.4925 -0.41042,-0.9166 -0.90292,-0.9166 l -3.66641,0 c -0.49251,0 -0.9166,0.4241 -0.9166,0.9166 l 0,3.7074 c 0,0.5062 0.42409,0.9166 0.9166,0.9166 l 1.71008,0 c 0.985,0.027 1.7648,0.8209 1.7648,1.7922 0,0.9987 -0.79348,1.7921 -1.79216,1.7921 -0.72508,0 -1.36807,-0.4514 -1.64168,-1.0944 -0.15049,-0.342 -0.4925,-0.5609 -0.8482,-0.5609 -0.10944,0 -0.23257,0.027 -0.34202,0.082 z m -8.44351,0 c -0.34202,0.1368 -0.56091,0.4788 -0.56091,0.8345 0,0.1231 0.0274,0.2462 0.0684,0.3557 0.54722,1.286 1.8332,2.2026 3.32439,2.2026 1.99737,0 3.62537,-1.6143 3.62537,-3.6117 0,-1.9837 -1.58696,-3.5707 -3.57065,-3.6254 l -0.82084,0 0,-1.8742 2.74981,0 c 0.4925,0 0.90292,-0.4241 0.90292,-0.9166 0,-0.4925 -0.41042,-0.9166 -0.90292,-0.9166 l -3.66641,0 c -0.4925,0 -0.9166,0.4241 -0.9166,0.9166 l 0,3.7074 c 0,0.5062 0.4241,0.9166 0.9166,0.9166 l 1.71008,0 c 0.98501,0.027 1.7648,0.8209 1.7648,1.7922 0,0.9987 -0.79347,1.7921 -1.79216,1.7921 -0.72507,0 -1.36806,-0.4514 -1.64168,-1.0944 -0.15048,-0.342 -0.4925,-0.5609 -0.8482,-0.5609 -0.10944,0 -0.23257,0.027 -0.34201,0.082 z m -8.44351,0 c -0.34202,0.1368 -0.56091,0.4788 -0.56091,0.8345 0,0.1231 0.0274,0.2462 0.0684,0.3557 0.54723,1.286 1.83321,2.2026 3.3244,2.2026 1.99737,0 3.62536,-1.6143 3.62536,-3.6117 0,-1.9837 -1.58695,-3.5707 -3.57064,-3.6254 l -0.82084,0 0,-1.8742 2.74981,0 c 0.4925,0 0.90292,-0.4241 0.90292,-0.9166 0,-0.4925 -0.41042,-0.9166 -0.90292,-0.9166 l -3.66641,0 c -0.4925,0 -0.9166,0.4241 -0.9166,0.9166 l 0,3.7074 c 0,0.5062 0.4241,0.9166 0.9166,0.9166 l 1.71008,0 c 0.985,0.027 1.7648,0.8209 1.7648,1.7922 0,0.9987 -0.79348,1.7921 -1.79216,1.7921 -0.72508,0 -1.36807,-0.4514 -1.64168,-1.0944 -0.15049,-0.342 -0.4925,-0.5609 -0.8482,-0.5609 -0.10944,0 -0.23257,0.027 -0.34201,0.082 z m -8.44352,0 c -0.34201,0.1368 -0.5609,0.4788 -0.5609,0.8345 0,0.1231 0.0274,0.2462 0.0684,0.3557 0.54722,1.286 1.8332,2.2026 3.32439,2.2026 1.99737,0 3.62537,-1.6143 3.62537,-3.6117 0,-1.9837 -1.58695,-3.5707 -3.57065,-3.6254 l -0.82083,0 0,-1.8742 2.7498,0 c 0.49251,0 0.90292,-0.4241 0.90292,-0.9166 0,-0.4925 -0.41041,-0.9166 -0.90292,-0.9166 l -3.66641,0 c -0.4925,0 -0.9166,0.4241 -0.9166,0.9166 l 0,3.7074 c 0,0.5062 0.4241,0.9166 0.9166,0.9166 l 1.71008,0 c 0.98501,0.027 1.7648,0.8209 1.7648,1.7922 0,0.9987 -0.79347,1.7921 -1.79216,1.7921 -0.72507,0 -1.36806,-0.4514 -1.64167,-1.0944 -0.15049,-0.342 -0.49251,-0.5609 -0.8482,-0.5609 -0.10945,0 -0.23257,0.027 -0.34202,0.082 z m -8.44351,0 c -0.34202,0.1368 -0.56091,0.4788 -0.56091,0.8345 0,0.1231 0.0274,0.2462 0.0684,0.3557 0.54722,1.286 1.8332,2.2026 3.32439,2.2026 1.99737,0 3.62537,-1.6143 3.62537,-3.6117 0,-1.9837 -1.58696,-3.5707 -3.57065,-3.6254 l -0.82084,0 0,-1.8742 2.74981,0 c 0.4925,0 0.90292,-0.4241 0.90292,-0.9166 0,-0.4925 -0.41042,-0.9166 -0.90292,-0.9166 l -3.66641,0 c -0.4925,0 -0.9166,0.4241 -0.9166,0.9166 l 0,3.7074 c 0,0.5062 0.4241,0.9166 0.9166,0.9166 l 1.71008,0 c 0.98501,0.027 1.7648,0.8209 1.7648,1.7922 0,0.9987 -0.79348,1.7921 -1.79216,1.7921 -0.72507,0 -1.36806,-0.4514 -1.64168,-1.0944 -0.15048,-0.342 -0.4925,-0.5609 -0.8482,-0.5609 -0.10944,0 -0.23257,0.027 -0.34201,0.082 z m -6.29737,-1.4228 -1.28598,0 0.23257,-0.7114 1.2723,0 -0.21889,0.7114 z m -0.30097,-6.0742 c -0.0958,-0.027 -0.17785,-0.041 -0.27361,-0.041 -0.38306,0 -0.75244,0.2463 -0.87556,0.6294 l -0.94397,2.955 -0.58826,0 c -0.49251,0 -0.90293,0.4104 -0.90293,0.9166 0,0.4925 0.41042,0.9029 0.90293,0.9029 l 0.0137,0 -0.23257,0.7114 -0.65667,0 c -0.49251,0 -0.90293,0.4104 -0.90293,0.9166 0,0.4925 0.41042,0.9029 0.90293,0.9029 l 0.0821,0 -0.57459,1.8195 c -0.0274,0.082 -0.041,0.1779 -0.041,0.26 0,0.3967 0.24625,0.7524 0.62931,0.8755 0.0958,0.027 0.17785,0.041 0.27361,0.041 0.38306,0 0.75244,-0.2463 0.87556,-0.6293 l 0.75244,-2.3668 1.2723,0 -0.57459,1.8195 c -0.0274,0.082 -0.041,0.1779 -0.041,0.26 0,0.3967 0.24625,0.7524 0.62931,0.8755 0.0958,0.027 0.19153,0.041 0.27361,0.041 0.39674,0 0.75243,-0.2463 0.87556,-0.6293 l 0.75243,-2.3668 0.60195,0 c 0.4925,0 0.90292,-0.4104 0.90292,-0.9029 0,-0.5062 -0.41042,-0.9166 -0.90292,-0.9166 l -0.0137,0 0.21889,-0.7114 0.56091,0 c 0.4925,0 0.90292,-0.4104 0.90292,-0.9029 0,-0.4925 -0.39674,-0.9029 -0.87556,-0.9166 l 0.76611,-2.4078 c 0.0274,-0.082 0.041,-0.1779 0.041,-0.26 0,-0.3967 -0.25994,-0.7524 -0.64299,-0.8755 -0.0821,-0.027 -0.17785,-0.041 -0.27362,-0.041 -0.38305,0 -0.73875,0.2463 -0.86188,0.6294 l -0.94396,2.955 -1.28598,0 0.76612,-2.4078 c 0.0274,-0.082 0.041,-0.1779 0.041,-0.26 0,-0.3967 -0.24625,-0.7524 -0.62931,-0.8755 z"
         inkscape:connector-curvature="0" />
    </g>
    <g
       transform="matrix(1.0133735,0,0,1.0066934,-1.2662659e-7,-14.208493)"
       style="font-style:normal;font-weight:normal;font-size:13.68063068px;line-height:125%;font-family:sans-serif;letter-spacing:0px;word-spacing:0px;fill:#ffffff;fill-opacity:1;stroke:none;stroke-width:1px;stroke-linecap:butt;stroke-linejoin:miter;stroke-opacity:1"
       id="text4616">
      <path
         id="path12862"
         style="font-style:normal;font-variant:normal;font-weight:bold;font-stretch:normal;font-family:Belgika;-inkscape-font-specification:'Belgika Bold';text-align:center;text-anchor:middle;fill:#ffffff;fill-opacity:1"
         d="m 145.29097,1013.0592 c 0.12312,0.055 0.23257,0.082 0.35569,0.082 0.3557,0 0.69771,-0.2189 0.8482,-0.5609 0.041,-0.1094 0.0821,-0.1779 0.19153,-0.2736 0.19153,-0.1915 0.39674,-0.2736 0.65667,-0.2736 0.50618,0 0.94396,0.4241 0.94396,0.9303 0,0.041 -0.041,0.2188 -0.12312,0.3693 l -3.8853,6.4299 c 0,0 -0.25993,0.3831 -0.25993,0.7388 0,0.3283 0.21889,0.643 1.03973,0.643 l 4.4462,0 c 0.4925,0 0.9166,-0.4104 0.9166,-0.903 0,-0.5061 -0.4241,-0.9166 -0.9166,-0.9166 l -2.83189,0 3.07814,-5.0755 c 0,-0.014 0.0137,-0.041 0.0274,-0.055 0.17785,-0.3557 0.32834,-0.7661 0.32834,-1.2312 0,-1.5323 -1.25862,-2.7635 -2.76349,-2.7635 -0.75243,0 -1.43647,0.3146 -1.92897,0.7934 -0.23257,0.2326 -0.46514,0.5473 -0.60195,0.8756 -0.0547,0.1094 -0.0684,0.2326 -0.0684,0.3557 0,0.3557 0.20521,0.6977 0.54723,0.8345 z m -8.44352,0 c 0.12313,0.055 0.23257,0.082 0.3557,0.082 0.3557,0 0.69771,-0.2189 0.8482,-0.5609 0.041,-0.1094 0.0821,-0.1779 0.19153,-0.2736 0.19153,-0.1915 0.39674,-0.2736 0.65667,-0.2736 0.50618,0 0.94396,0.4241 0.94396,0.9303 0,0.041 -0.041,0.2188 -0.12312,0.3693 l -3.8853,6.4299 c 0,0 -0.25993,0.3831 -0.25993,0.7388 0,0.3283 0.21889,0.643 1.03972,0.643 l 4.44621,0 c 0.4925,0 0.9166,-0.4104 0.9166,-0.903 0,-0.5061 -0.4241,-0.9166 -0.9166,-0.9166 l -2.83189,0 3.07814,-5.0755 c 0,-0.014 0.0137,-0.041 0.0274,-0.055 0.17785,-0.3557 0.32834,-0.7661 0.32834,-1.2312 0,-1.5323 -1.25862,-2.7635 -2.76349,-2.7635 -0.75244,0 -1.43647,0.3146 -1.92897,0.7934 -0.23257,0.2326 -0.46514,0.5473 -0.60195,0.8756 -0.0547,0.1094 -0.0684,0.2326 -0.0684,0.3557 0,0.3557 0.20521,0.6977 0.54722,0.8345 z m -8.44351,0 c 0.12312,0.055 0.23257,0.082 0.35569,0.082 0.3557,0 0.69772,-0.2189 0.8482,-0.5609 0.041,-0.1094 0.0821,-0.1779 0.19153,-0.2736 0.19153,-0.1915 0.39674,-0.2736 0.65667,-0.2736 0.50619,0 0.94397,0.4241 0.94397,0.9303 0,0.041 -0.0411,0.2188 -0.12313,0.3693 l -3.8853,6.4299 c 0,0 -0.25993,0.3831 -0.25993,0.7388 0,0.3283 0.21889,0.643 1.03973,0.643 l 4.4462,0 c 0.49251,0 0.9166,-0.4104 0.9166,-0.903 0,-0.5061 -0.42409,-0.9166 -0.9166,-0.9166 l -2.83189,0 3.07814,-5.0755 c 0,-0.014 0.0137,-0.041 0.0274,-0.055 0.17784,-0.3557 0.32833,-0.7661 0.32833,-1.2312 0,-1.5323 -1.25862,-2.7635 -2.76349,-2.7635 -0.75243,0 -1.43646,0.3146 -1.92897,0.7934 -0.23257,0.2326 -0.46514,0.5473 -0.60194,0.8756 -0.0547,0.1094 -0.0684,0.2326 -0.0684,0.3557 0,0.3557 0.20521,0.6977 0.54723,0.8345 z m -8.44351,0 c 0.12312,0.055 0.23257,0.082 0.35569,0.082 0.3557,0 0.69772,-0.2189 0.8482,-0.5609 0.041,-0.1094 0.0821,-0.1779 0.19153,-0.2736 0.19153,-0.1915 0.39674,-0.2736 0.65667,-0.2736 0.50618,0 0.94396,0.4241 0.94396,0.9303 0,0.041 -0.041,0.2188 -0.12312,0.3693 l -3.8853,6.4299 c 0,0 -0.25993,0.3831 -0.25993,0.7388 0,0.3283 0.21889,0.643 1.03973,0.643 l 4.4462,0 c 0.4925,0 0.9166,-0.4104 0.9166,-0.903 0,-0.5061 -0.4241,-0.9166 -0.9166,-0.9166 l -2.83189,0 3.07814,-5.0755 c 0,-0.014 0.0137,-0.041 0.0274,-0.055 0.17785,-0.3557 0.32834,-0.7661 0.32834,-1.2312 0,-1.5323 -1.25862,-2.7635 -2.76349,-2.7635 -0.75243,0 -1.43647,0.3146 -1.92897,0.7934 -0.23257,0.2326 -0.46514,0.5473 -0.60195,0.8756 -0.0547,0.1094 -0.0684,0.2326 -0.0684,0.3557 0,0.3557 0.20521,0.6977 0.54723,0.8345 z m -8.44352,0 c 0.12313,0.055 0.23257,0.082 0.3557,0.082 0.35569,0 0.69771,-0.2189 0.8482,-0.5609 0.041,-0.1094 0.0821,-0.1779 0.19152,-0.2736 0.19153,-0.1915 0.39674,-0.2736 0.65668,-0.2736 0.50618,0 0.94396,0.4241 0.94396,0.9303 0,0.041 -0.041,0.2188 -0.12313,0.3693 l -3.8853,6.4299 c 0,0 -0.25993,0.3831 -0.25993,0.7388 0,0.3283 0.21889,0.643 1.03973,0.643 l 4.4462,0 c 0.49251,0 0.91661,-0.4104 0.91661,-0.903 0,-0.5061 -0.4241,-0.9166 -0.91661,-0.9166 l -2.83189,0 3.07815,-5.0755 c 0,-0.014 0.0137,-0.041 0.0274,-0.055 0.17785,-0.3557 0.32833,-0.7661 0.32833,-1.2312 0,-1.5323 -1.25862,-2.7635 -2.76348,-2.7635 -0.75244,0 -1.43647,0.3146 -1.92897,0.7934 -0.23257,0.2326 -0.46515,0.5473 -0.60195,0.8756 -0.0547,0.1094 -0.0684,0.2326 -0.0684,0.3557 0,0.3557 0.2052,0.6977 0.54722,0.8345 z m -8.44351,0 c 0.12312,0.055 0.23257,0.082 0.35569,0.082 0.3557,0 0.69772,-0.2189 0.8482,-0.5609 0.0411,-0.1094 0.0821,-0.1779 0.19153,-0.2736 0.19153,-0.1915 0.39674,-0.2736 0.65667,-0.2736 0.50619,0 0.94397,0.4241 0.94397,0.9303 0,0.041 -0.0411,0.2188 -0.12313,0.3693 l -3.8853,6.4299 c 0,0 -0.25993,0.3831 -0.25993,0.7388 0,0.3283 0.21889,0.643 1.03973,0.643 l 4.4462,0 c 0.4925,0 0.9166,-0.4104 0.9166,-0.903 0,-0.5061 -0.4241,-0.9166 -0.9166,-0.9166 l -2.83189,0 3.07814,-5.0755 c 0,-0.014 0.0137,-0.041 0.0274,-0.055 0.17785,-0.3557 0.32834,-0.7661 0.32834,-1.2312 0,-1.5323 -1.25862,-2.7635 -2.76349,-2.7635 -0.75243,0 -1.43646,0.3146 -1.92897,0.7934 -0.23257,0.2326 -0.46514,0.5473 -0.60194,0.8756 -0.0547,0.1094 -0.0684,0.2326 -0.0684,0.3557 0,0.3557 0.20521,0.6977 0.54723,0.8345 z m -7.21397,3.2697 -1.285979,0 0.232571,-0.7114 1.272299,0 -0.218891,0.7114 z m -0.300973,-6.0742 c -0.09577,-0.027 -0.177849,-0.041 -0.273613,-0.041 -0.383058,0 -0.752435,0.2463 -0.87556,0.6294 l -0.943964,2.955 -0.588267,0 c -0.492503,0 -0.902922,0.4104 -0.902922,0.9166 0,0.4925 0.410419,0.9029 0.902922,0.9029 l 0.01368,0 -0.232571,0.7114 -0.65667,0 c -0.492503,0 -0.902922,0.4104 -0.902922,0.9166 0,0.4925 0.410419,0.9029 0.902922,0.9029 l 0.08208,0 -0.574586,1.8195 c -0.02736,0.082 -0.04104,0.1779 -0.04104,0.26 0,0.3967 0.246251,0.7524 0.629309,0.8755 0.09576,0.027 0.177848,0.041 0.273613,0.041 0.383057,0 0.752434,-0.2463 0.87556,-0.6293 l 0.752435,-2.3668 1.272298,0 -0.574586,1.8195 c -0.02736,0.082 -0.04104,0.1779 -0.04104,0.26 0,0.3967 0.246251,0.7524 0.629309,0.8755 0.09576,0.027 0.191529,0.041 0.273613,0.041 0.396738,0 0.752434,-0.2463 0.87556,-0.6293 l 0.752435,-2.3668 0.601947,0 c 0.492503,0 0.902922,-0.4104 0.902922,-0.9029 0,-0.5062 -0.410419,-0.9166 -0.902922,-0.9166 l -0.01368,0 0.21889,-0.7114 0.560906,0 c 0.492502,0 0.902921,-0.4104 0.902921,-0.9029 0,-0.4925 -0.396738,-0.9029 -0.87556,-0.9166 l 0.766115,-2.4078 c 0.02736,-0.082 0.04104,-0.1779 0.04104,-0.26 0,-0.3967 -0.259932,-0.7524 -0.642989,-0.8755 -0.08208,-0.027 -0.177849,-0.041 -0.273613,-0.041 -0.383058,0 -0.738754,0.2463 -0.86188,0.6294 l -0.943963,2.955 -1.28598,0 0.766116,-2.4078 c 0.02736,-0.082 0.04104,-0.1779 0.04104,-0.26 0,-0.3967 -0.246252,-0.7524 -0.629309,-0.8755 z"
         inkscape:connector-curvature="0" />
    </g>
    <g
       transform="matrix(1.0133735,0,0,1.0066934,-1.2662659e-7,-14.208493)"
       style="font-style:normal;font-weight:normal;font-size:13.68063068px;line-height:125%;font-family:sans-serif;letter-spacing:0px;word-spacing:0px;fill:#222222;fill-opacity:1;stroke:none;stroke-width:1px;stroke-linecap:butt;stroke-linejoin:miter;stroke-opacity:1"
       id="text4622">
      <path
         id="path12812"
         style="font-style:normal;font-variant:normal;font-weight:bold;font-stretch:normal;font-family:Belgika;-inkscape-font-specification:'Belgika Bold';text-align:center;text-anchor:middle;fill:#222222;fill-opacity:1"
         d="m 382.76155,1011.1166 c 0,-0.4925 -0.4241,-0.9166 -0.9166,-0.9166 l -5.02079,0 c -0.54723,0 -0.90292,0.5335 -0.90292,0.9166 l 0,4.5556 0,4.5693 c 0,0.5473 0.51986,0.903 0.90292,0.903 l 5.02079,0 c 0.4925,0 0.9166,-0.4104 0.9166,-0.903 0,-0.5061 -0.4241,-0.9166 -0.9166,-0.9166 l -4.10419,0 0,-2.7361 3.18759,0 c 0.4925,0 0.9166,-0.4104 0.9166,-0.9166 0,-0.4925 -0.4241,-0.9029 -0.9166,-0.9029 l -3.18759,0 0,-2.7361 4.10419,0 c 0.4925,0 0.9166,-0.4241 0.9166,-0.9166 z m -9.13823,0 c 0,-0.4925 -0.4241,-0.9166 -0.9166,-0.9166 l -5.02079,0 c -0.54723,0 -0.90292,0.5335 -0.90292,0.9166 l 0,4.5556 0,4.5693 c 0,0.5473 0.51986,0.903 0.90292,0.903 l 5.02079,0 c 0.4925,0 0.9166,-0.4104 0.9166,-0.903 0,-0.5061 -0.4241,-0.9166 -0.9166,-0.9166 l -4.10419,0 0,-2.7361 3.18759,0 c 0.4925,0 0.9166,-0.4104 0.9166,-0.9166 0,-0.4925 -0.4241,-0.9029 -0.9166,-0.9029 l -3.18759,0 0,-2.7361 4.10419,0 c 0.4925,0 0.9166,-0.4241 0.9166,-0.9166 z m -9.13824,0 c 0,-0.4925 -0.4241,-0.9166 -0.9166,-0.9166 l -5.02079,0 c -0.54723,0 -0.90292,0.5335 -0.90292,0.9166 l 0,4.5556 0,4.5693 c 0,0.5473 0.51986,0.903 0.90292,0.903 l 5.02079,0 c 0.4925,0 0.9166,-0.4104 0.9166,-0.903 0,-0.5061 -0.4241,-0.9166 -0.9166,-0.9166 l -4.10419,0 0,-2.7361 3.18759,0 c 0.4925,0 0.9166,-0.4104 0.9166,-0.9166 0,-0.4925 -0.4241,-0.9029 -0.9166,-0.9029 l -3.18759,0 0,-2.7361 4.10419,0 c 0.4925,0 0.9166,-0.4241 0.9166,-0.9166 z m -9.13823,0 c 0,-0.4925 -0.4241,-0.9166 -0.9166,-0.9166 l -5.02079,0 c -0.54723,0 -0.90292,0.5335 -0.90292,0.9166 l 0,4.5556 0,4.5693 c 0,0.5473 0.51986,0.903 0.90292,0.903 l 5.02079,0 c 0.4925,0 0.9166,-0.4104 0.9166,-0.903 0,-0.5061 -0.4241,-0.9166 -0.9166,-0.9166 l -4.10419,0 0,-2.7361 3.18759,0 c 0.4925,0 0.9166,-0.4104 0.9166,-0.9166 0,-0.4925 -0.4241,-0.9029 -0.9166,-0.9029 l -3.18759,0 0,-2.7361 4.10419,0 c 0.4925,0 0.9166,-0.4241 0.9166,-0.9166 z m -9.13823,0 c 0,-0.4925 -0.4241,-0.9166 -0.91661,-0.9166 l -5.02079,0 c -0.54722,0 -0.90292,0.5335 -0.90292,0.9166 l 0,4.5556 0,4.5693 c 0,0.5473 0.51987,0.903 0.90292,0.903 l 5.02079,0 c 0.49251,0 0.91661,-0.4104 0.91661,-0.903 0,-0.5061 -0.4241,-0.9166 -0.91661,-0.9166 l -4.10418,0 0,-2.7361 3.18758,0 c 0.49251,0 0.9166,-0.4104 0.9166,-0.9166 0,-0.4925 -0.42409,-0.9029 -0.9166,-0.9029 l -3.18758,0 0,-2.7361 4.10418,0 c 0.49251,0 0.91661,-0.4241 0.91661,-0.9166 z m -9.13824,0 c 0,-0.4925 -0.4241,-0.9166 -0.9166,-0.9166 l -5.02079,0 c -0.54723,0 -0.90292,0.5335 -0.90292,0.9166 l 0,4.5556 0,4.5693 c 0,0.5473 0.51986,0.903 0.90292,0.903 l 5.02079,0 c 0.4925,0 0.9166,-0.4104 0.9166,-0.903 0,-0.5061 -0.4241,-0.9166 -0.9166,-0.9166 l -4.10419,0 0,-2.7361 3.18759,0 c 0.4925,0 0.9166,-0.4104 0.9166,-0.9166 0,-0.4925 -0.4241,-0.9029 -0.9166,-0.9029 l -3.18759,0 0,-2.7361 4.10419,0 c 0.4925,0 0.9166,-0.4241 0.9166,-0.9166 z m -13.30184,5.2123 -1.28598,0 0.23257,-0.7114 1.2723,0 -0.21889,0.7114 z m -0.30098,-6.0742 c -0.0958,-0.027 -0.17785,-0.041 -0.27361,-0.041 -0.38306,0 -0.75244,0.2463 -0.87556,0.6294 l -0.94397,2.955 -0.58826,0 c -0.49251,0 -0.90292,0.4104 -0.90292,0.9166 0,0.4925 0.41041,0.9029 0.90292,0.9029 l 0.0137,0 -0.23257,0.7114 -0.65667,0 c -0.49251,0 -0.90292,0.4104 -0.90292,0.9166 0,0.4925 0.41041,0.9029 0.90292,0.9029 l 0.0821,0 -0.57459,1.8195 c -0.0274,0.082 -0.041,0.1779 -0.041,0.26 0,0.3967 0.24625,0.7524 0.62931,0.8755 0.0958,0.027 0.17785,0.041 0.27361,0.041 0.38306,0 0.75244,-0.2463 0.87556,-0.6293 l 0.75244,-2.3668 1.2723,0 -0.57459,1.8195 c -0.0274,0.082 -0.041,0.1779 -0.041,0.26 0,0.3967 0.24625,0.7524 0.62931,0.8755 0.0958,0.027 0.19153,0.041 0.27361,0.041 0.39674,0 0.75244,-0.2463 0.87556,-0.6293 l 0.75244,-2.3668 0.60194,0 c 0.49251,0 0.90293,-0.4104 0.90293,-0.9029 0,-0.5062 -0.41042,-0.9166 -0.90293,-0.9166 l -0.0137,0 0.21889,-0.7114 0.56091,0 c 0.4925,0 0.90292,-0.4104 0.90292,-0.9029 0,-0.4925 -0.39674,-0.9029 -0.87556,-0.9166 l 0.76612,-2.4078 c 0.0274,-0.082 0.041,-0.1779 0.041,-0.26 0,-0.3967 -0.25993,-0.7524 -0.64299,-0.8755 -0.0821,-0.027 -0.17785,-0.041 -0.27361,-0.041 -0.38306,0 -0.73876,0.2463 -0.86188,0.6294 l -0.94397,2.955 -1.28598,0 0.76612,-2.4078 c 0.0274,-0.082 0.041,-0.1779 0.041,-0.26 0,-0.3967 -0.24625,-0.7524 -0.62931,-0.8755 z"
         inkscape:connector-curvature="0" />
    </g>
    <g
       transform="matrix(1.0133735,0,0,1.0066934,-1.2662659e-7,-14.208493)"
       style="font-style:normal;font-weight:normal;font-size:13.68063068px;line-height:125%;font-family:sans-serif;letter-spacing:0px;word-spacing:0px;fill:#ffffff;fill-opacity:1;stroke:none;stroke-width:1px;stroke-linecap:butt;stroke-linejoin:miter;stroke-opacity:1"
       id="text4628">
      <path
         id="path12828"
         style="font-style:normal;font-variant:normal;font-weight:bold;font-stretch:normal;font-family:Belgika;-inkscape-font-specification:'Belgika Bold';text-align:center;text-anchor:middle;fill:#ffffff;fill-opacity:1"
         d="m 306.32561,1018.5178 c -0.16417,-0.1642 -0.41042,-0.2599 -0.64299,-0.2599 -0.23257,0 -0.46514,0.082 -0.64299,0.2599 -0.4925,0.5062 -1.16285,0.8071 -1.92897,0.8071 -1.51855,0 -2.74981,-1.2175 -2.74981,-2.7361 l 0,-1.8195 c 0,-1.5186 1.23126,-2.7361 2.74981,-2.7361 0.76612,0 1.43647,0.3009 1.92897,0.8071 0.17785,0.1779 0.41042,0.26 0.64299,0.26 0.24625,0 0.47882,-0.082 0.65667,-0.26 0.16417,-0.1778 0.25993,-0.4104 0.25993,-0.643 0,-0.2462 -0.0958,-0.4788 -0.25993,-0.6566 -0.83452,-0.8209 -1.95633,-1.3407 -3.22863,-1.3407 -2.51724,0 -4.56933,2.0384 -4.56933,4.5693 l 0,1.8195 c 0,2.5309 2.05209,4.5557 4.56933,4.5557 1.2723,0 2.39411,-0.5062 3.21495,-1.3271 0.17785,-0.1778 0.27361,-0.4104 0.27361,-0.6429 0,-0.2463 -0.0958,-0.4789 -0.27361,-0.6567 z m -11.41221,-1.5459 0,0.5609 c 0,0.014 0,0.027 0,0.041 -0.0137,0.9714 -0.82084,1.7511 -1.79216,1.7511 -0.72508,0 -1.32702,-0.4104 -1.628,-1.0123 -0.15049,-0.3147 -0.47882,-0.5062 -0.82084,-0.5062 -0.1368,0 -0.27361,0.041 -0.39673,0.096 -0.31466,0.1641 -0.50619,0.4925 -0.50619,0.8208 0,0.1368 0.0274,0.2736 0.0958,0.4104 0.58826,1.1902 1.81952,2.0111 3.25599,2.0111 1.98369,0 3.62536,-1.6007 3.62536,-3.6117 0,-0.014 0,-0.027 0,-0.041 l 0,-3.6664 c 0,-1.9973 -1.62799,-3.6253 -3.62536,-3.6253 -1.99738,0 -3.62537,1.628 -3.62537,3.6253 0,2.0111 1.62799,3.6254 3.62537,3.6254 0.64299,0 1.2723,-0.1642 1.79216,-0.4788 z m 0,-3.1466 c 0,0.9987 -0.80716,1.8059 -1.79216,1.8059 -0.99869,0 -1.80585,-0.8072 -1.80585,-1.8059 0,-0.985 0.80716,-1.7921 1.80585,-1.7921 0.985,0 1.79216,0.8071 1.79216,1.7921 z m -7.26506,4.6925 c -0.16416,-0.1642 -0.41042,-0.2599 -0.64299,-0.2599 -0.23257,0 -0.46514,0.082 -0.64299,0.2599 -0.4925,0.5062 -1.16285,0.8071 -1.92897,0.8071 -1.51855,0 -2.7498,-1.2175 -2.7498,-2.7361 l 0,-1.8195 c 0,-1.5186 1.23125,-2.7361 2.7498,-2.7361 0.76612,0 1.43647,0.3009 1.92897,0.8071 0.17785,0.1779 0.41042,0.26 0.64299,0.26 0.24625,0 0.47883,-0.082 0.65667,-0.26 0.16417,-0.1778 0.25994,-0.4104 0.25994,-0.643 0,-0.2462 -0.0958,-0.4788 -0.25994,-0.6566 -0.83451,-0.8209 -1.95633,-1.3407 -3.22863,-1.3407 -2.51723,0 -4.56933,2.0384 -4.56933,4.5693 l 0,1.8195 c 0,2.5309 2.0521,4.5557 4.56933,4.5557 1.2723,0 2.39412,-0.5062 3.21495,-1.3271 0.17785,-0.1778 0.27362,-0.4104 0.27362,-0.6429 0,-0.2463 -0.0958,-0.4789 -0.27362,-0.6567 z m -11.41221,-1.5459 0,0.5609 c 0,0.014 0,0.027 0,0.041 -0.0137,0.9714 -0.82084,1.7511 -1.79216,1.7511 -0.72508,0 -1.32702,-0.4104 -1.628,-1.0123 -0.15048,-0.3147 -0.47882,-0.5062 -0.82084,-0.5062 -0.1368,0 -0.27361,0.041 -0.39673,0.096 -0.31466,0.1641 -0.50619,0.4925 -0.50619,0.8208 0,0.1368 0.0274,0.2736 0.0958,0.4104 0.58826,1.1902 1.81952,2.0111 3.25599,2.0111 1.98369,0 3.62536,-1.6007 3.62536,-3.6117 0,-0.014 0,-0.027 0,-0.041 l 0,-3.6664 c 0,-1.9973 -1.62799,-3.6253 -3.62536,-3.6253 -1.99737,0 -3.62537,1.628 -3.62537,3.6253 0,2.0111 1.628,3.6254 3.62537,3.6254 0.64299,0 1.2723,-0.1642 1.79216,-0.4788 z m 0,-3.1466 c 0,0.9987 -0.80716,1.8059 -1.79216,1.8059 -0.99869,0 -1.80585,-0.8072 -1.80585,-1.8059 0,-0.985 0.80716,-1.7921 1.80585,-1.7921 0.985,0 1.79216,0.8071 1.79216,1.7921 z m -7.26506,4.6925 c -0.16416,-0.1642 -0.41041,-0.2599 -0.64299,-0.2599 -0.23257,0 -0.46514,0.082 -0.64299,0.2599 -0.4925,0.5062 -1.16285,0.8071 -1.92896,0.8071 -1.51855,0 -2.74981,-1.2175 -2.74981,-2.7361 l 0,-1.8195 c 0,-1.5186 1.23126,-2.7361 2.74981,-2.7361 0.76611,0 1.43646,0.3009 1.92896,0.8071 0.17785,0.1779 0.41042,0.26 0.64299,0.26 0.24626,0 0.47883,-0.082 0.65667,-0.26 0.16417,-0.1778 0.25994,-0.4104 0.25994,-0.643 0,-0.2462 -0.0958,-0.4788 -0.25994,-0.6566 -0.83451,-0.8209 -1.95633,-1.3407 -3.22862,-1.3407 -2.51724,0 -4.56933,2.0384 -4.56933,4.5693 l 0,1.8195 c 0,2.5309 2.05209,4.5557 4.56933,4.5557 1.27229,0 2.39411,-0.5062 3.21494,-1.3271 0.17785,-0.1778 0.27362,-0.4104 0.27362,-0.6429 0,-0.2463 -0.0958,-0.4789 -0.27362,-0.6567 z m -11.41221,-1.5459 0,0.5609 c 0,0.014 0,0.027 0,0.041 -0.0137,0.9714 -0.82083,1.7511 -1.79216,1.7511 -0.72507,0 -1.32702,-0.4104 -1.62799,-1.0123 -0.15049,-0.3147 -0.47883,-0.5062 -0.82084,-0.5062 -0.13681,0 -0.27361,0.041 -0.39674,0.096 -0.31465,0.1641 -0.50618,0.4925 -0.50618,0.8208 0,0.1368 0.0274,0.2736 0.0958,0.4104 0.58827,1.1902 1.81953,2.0111 3.25599,2.0111 1.98369,0 3.62537,-1.6007 3.62537,-3.6117 0,-0.014 0,-0.027 0,-0.041 l 0,-3.6664 c 0,-1.9973 -1.628,-3.6253 -3.62537,-3.6253 -1.99737,0 -3.62537,1.628 -3.62537,3.6253 0,2.0111 1.628,3.6254 3.62537,3.6254 0.64299,0 1.2723,-0.1642 1.79216,-0.4788 z m 0,-3.1466 c 0,0.9987 -0.80715,1.8059 -1.79216,1.8059 -0.99868,0 -1.80584,-0.8072 -1.80584,-1.8059 0,-0.985 0.80716,-1.7921 1.80584,-1.7921 0.98501,0 1.79216,0.8071 1.79216,1.7921 z m -11.04454,2.5036 -1.28598,0 0.23257,-0.7114 1.2723,0 -0.21889,0.7114 z m -0.30097,-6.0742 c -0.0958,-0.027 -0.17785,-0.041 -0.27362,-0.041 -0.38305,0 -0.75243,0.2463 -0.87556,0.6294 l -0.94396,2.955 -0.58827,0 c -0.4925,0 -0.90292,0.4104 -0.90292,0.9166 0,0.4925 0.41042,0.9029 0.90292,0.9029 l 0.0137,0 -0.23257,0.7114 -0.65667,0 c -0.4925,0 -0.90292,0.4104 -0.90292,0.9166 0,0.4925 0.41042,0.9029 0.90292,0.9029 l 0.0821,0 -0.57459,1.8195 c -0.0274,0.082 -0.041,0.1779 -0.041,0.26 0,0.3967 0.24625,0.7524 0.62931,0.8755 0.0958,0.027 0.17785,0.041 0.27361,0.041 0.38306,0 0.75243,-0.2463 0.87556,-0.6293 l 0.75243,-2.3668 1.2723,0 -0.57458,1.8195 c -0.0274,0.082 -0.0411,0.1779 -0.0411,0.26 0,0.3967 0.24626,0.7524 0.62931,0.8755 0.0958,0.027 0.19153,0.041 0.27362,0.041 0.39673,0 0.75243,-0.2463 0.87556,-0.6293 l 0.75243,-2.3668 0.60195,0 c 0.4925,0 0.90292,-0.4104 0.90292,-0.9029 0,-0.5062 -0.41042,-0.9166 -0.90292,-0.9166 l -0.0137,0 0.21889,-0.7114 0.5609,0 c 0.49251,0 0.90293,-0.4104 0.90293,-0.9029 0,-0.4925 -0.39674,-0.9029 -0.87556,-0.9166 l 0.76611,-2.4078 c 0.0274,-0.082 0.041,-0.1779 0.041,-0.26 0,-0.3967 -0.25993,-0.7524 -0.64299,-0.8755 -0.0821,-0.027 -0.17784,-0.041 -0.27361,-0.041 -0.38306,0 -0.73875,0.2463 -0.86188,0.6294 l -0.94396,2.955 -1.28598,0 0.76611,-2.4078 c 0.0274,-0.082 0.041,-0.1779 0.041,-0.26 0,-0.3967 -0.24626,-0.7524 -0.62931,-0.8755 z"
         inkscape:connector-curvature="0" />
    </g>
    <g
       transform="matrix(1.0133735,0,0,1.0066934,-1.2662659e-7,-14.208493)"
       style="font-style:normal;font-weight:normal;font-size:13.68063068px;line-height:125%;font-family:sans-serif;letter-spacing:0px;word-spacing:0px;fill:#ffffff;fill-opacity:1;stroke:none;stroke-width:1px;stroke-linecap:butt;stroke-linejoin:miter;stroke-opacity:1"
       id="text4640">
      <path
         id="path12878"
         style="font-style:normal;font-variant:normal;font-weight:bold;font-stretch:normal;font-family:Belgika;-inkscape-font-specification:'Belgika Bold';text-align:center;text-anchor:middle;fill:#ffffff;fill-opacity:1"
         d="m 69.577357,1019.3249 0,-7.2917 1.368063,0 c 0.930283,0 1.860566,0.3557 2.571959,1.0671 0.711393,0.7114 1.067089,1.6416 1.067089,2.5719 0,0.944 -0.355696,1.8743 -1.067089,2.5857 -0.711393,0.7113 -1.669037,1.067 -2.585639,1.067 l -1.354383,0 z m -1.819524,0.9166 c 0,0.3831 0.355697,0.903 0.902922,0.903 l 2.270985,0 c 1.381743,0 2.804529,-0.5199 3.871618,-1.6007 1.067089,-1.0671 1.600634,-2.4625 1.600634,-3.8716 0,-1.3954 -0.533545,-2.7908 -1.600634,-3.8579 -1.067089,-1.0671 -2.462513,-1.6143 -3.857938,-1.6143 l -2.284665,0 c -0.383058,0 -0.902922,0.3693 -0.902922,0.9166 l 0,9.1249 z m -9.242549,-0.9166 0,-7.2917 1.368064,0 c 0.930282,0 1.860565,0.3557 2.571958,1.0671 0.711393,0.7114 1.067089,1.6416 1.067089,2.5719 0,0.944 -0.355696,1.8743 -1.067089,2.5857 -0.711393,0.7113 -1.669037,1.067 -2.585639,1.067 l -1.354383,0 z m -1.819523,0.9166 c 0,0.3831 0.355696,0.903 0.902921,0.903 l 2.270985,0 c 1.381744,0 2.804529,-0.5199 3.871618,-1.6007 1.06709,-1.0671 1.600634,-2.4625 1.600634,-3.8716 0,-1.3954 -0.533544,-2.7908 -1.600634,-3.8579 -1.067089,-1.0671 -2.462513,-1.6143 -3.857937,-1.6143 l -2.284666,0 c -0.383057,0 -0.902921,0.3693 -0.902921,0.9166 l 0,9.1249 z m -8.607684,-2.4898 c -0.342016,0.1368 -0.560906,0.4788 -0.560906,0.8345 0,0.1231 0.02736,0.2462 0.0684,0.3557 0.547225,1.286 1.833204,2.2026 3.324393,2.2026 1.997372,0 3.625367,-1.6143 3.625367,-3.6117 0,-1.9837 -1.586953,-3.5707 -3.570645,-3.6254 l -0.820838,0 0,-1.8742 2.749807,0 c 0.492503,0 0.902922,-0.4241 0.902922,-0.9166 0,-0.4925 -0.410419,-0.9166 -0.902922,-0.9166 l -3.666409,0 c -0.492502,0 -0.916602,0.4241 -0.916602,0.9166 l 0,3.7074 c 0,0.5062 0.4241,0.9166 0.916602,0.9166 l 1.710079,0 c 0.985005,0.027 1.764801,0.8209 1.764801,1.7922 0,0.9987 -0.793476,1.7921 -1.792162,1.7921 -0.725074,0 -1.368063,-0.4514 -1.641676,-1.0944 -0.150487,-0.342 -0.492503,-0.5609 -0.848199,-0.5609 -0.109445,0 -0.232571,0.027 -0.342016,0.082 z m -8.443512,0 c -0.342015,0.1368 -0.560906,0.4788 -0.560906,0.8345 0,0.1231 0.02736,0.2462 0.0684,0.3557 0.547225,1.286 1.833204,2.2026 3.324393,2.2026 1.997372,0 3.625367,-1.6143 3.625367,-3.6117 0,-1.9837 -1.586953,-3.5707 -3.570645,-3.6254 l -0.820837,0 0,-1.8742 2.749806,0 c 0.492503,0 0.902922,-0.4241 0.902922,-0.9166 0,-0.4925 -0.410419,-0.9166 -0.902922,-0.9166 l -3.666409,0 c -0.492502,0 -0.916602,0.4241 -0.916602,0.9166 l 0,3.7074 c 0,0.5062 0.4241,0.9166 0.916602,0.9166 l 1.710079,0 c 0.985006,0.027 1.764801,0.8209 1.764801,1.7922 0,0.9987 -0.793476,1.7921 -1.792162,1.7921 -0.725074,0 -1.368063,-0.4514 -1.641676,-1.0944 -0.150487,-0.342 -0.492503,-0.5609 -0.848199,-0.5609 -0.109445,0 -0.232571,0.027 -0.342016,0.082 z m -8.922338,-4.1179 0,4.0905 c 0,1.8879 1.532231,3.4202 3.433839,3.4202 1.887927,0 3.420157,-1.5323 3.420157,-3.4202 l 0,-4.0905 c 0,-1.8879 -1.53223,-3.4338 -3.420157,-3.4338 -1.901608,0 -3.433839,1.5459 -3.433839,3.4338 z m 1.819524,0 c 0,-0.8892 0.725074,-1.6006 1.614315,-1.6006 0.889241,0 1.600634,0.7114 1.600634,1.6006 l 0,4.0905 c 0,0.8893 -0.711393,1.6006 -1.600634,1.6006 -0.889241,0 -1.614315,-0.7113 -1.614315,-1.6006 l 0,-4.0905 z m -10.263036,0 0,4.0905 c 0,1.8879 1.53223,3.4202 3.433838,3.4202 1.887927,0 3.420157,-1.5323 3.420157,-3.4202 l 0,-4.0905 c 0,-1.8879 -1.53223,-3.4338 -3.420157,-3.4338 -1.901608,0 -3.433838,1.5459 -3.433838,3.4338 z m 1.819523,0 c 0,-0.8892 0.725074,-1.6006 1.614315,-1.6006 0.889241,0 1.600634,0.7114 1.600634,1.6006 l 0,4.0905 c 0,0.8893 -0.711393,1.6006 -1.600634,1.6006 -0.889241,0 -1.614315,-0.7113 -1.614315,-1.6006 l 0,-4.0905 z m -7.638066,2.6951 -1.28598,0 0.232571,-0.7114 1.272299,0 -0.21889,0.7114 z m -0.300974,-6.0742 c -0.09577,-0.027 -0.177849,-0.041 -0.273613,-0.041 -0.383058,0 -0.752435,0.2463 -0.87556,0.6294 l -0.943964,2.955 -0.588267,0 c -0.492503,0 -0.902922,0.4104 -0.902922,0.9166 0,0.4925 0.410419,0.9029 0.902922,0.9029 l 0.01368,0 -0.232571,0.7114 -0.65667,0 c -0.492503,0 -0.902922,0.4104 -0.902922,0.9166 0,0.4925 0.410419,0.9029 0.902922,0.9029 l 0.08208,0 -0.574586,1.8195 c -0.02736,0.082 -0.04104,0.1779 -0.04104,0.26 0,0.3967 0.246251,0.7524 0.629309,0.8755 0.09577,0.027 0.177848,0.041 0.273613,0.041 0.383057,0 0.752434,-0.2463 0.87556,-0.6293 l 0.752435,-2.3668 1.272298,0 -0.574586,1.8195 c -0.02736,0.082 -0.04104,0.1779 -0.04104,0.26 0,0.3967 0.246251,0.7524 0.629309,0.8755 0.09576,0.027 0.191529,0.041 0.273613,0.041 0.396738,0 0.752434,-0.2463 0.87556,-0.6293 l 0.752435,-2.3668 0.601947,0 c 0.492503,0 0.902922,-0.4104 0.902922,-0.9029 0,-0.5062 -0.410419,-0.9166 -0.902922,-0.9166 l -0.01368,0 0.21889,-0.7114 0.560906,0 c 0.492503,0 0.902921,-0.4104 0.902921,-0.9029 0,-0.4925 -0.396738,-0.9029 -0.87556,-0.9166 l 0.766115,-2.4078 c 0.02736,-0.082 0.04104,-0.1779 0.04104,-0.26 0,-0.3967 -0.259932,-0.7524 -0.642989,-0.8755 -0.08208,-0.027 -0.177849,-0.041 -0.273613,-0.041 -0.383058,0 -0.738754,0.2463 -0.86188,0.6294 l -0.943963,2.955 -1.28598,0 0.766116,-2.4078 c 0.02736,-0.082 0.04104,-0.1779 0.04104,-0.26 0,-0.3967 -0.246252,-0.7524 -0.629309,-0.8755 z"
         inkscape:connector-curvature="0" />
    </g>
    <rect
       style="fill:#ffffff;fill-opacity:1;stroke:none;stroke-width:2.51099992;stroke-miterlimit:4;stroke-dasharray:2.511, 7.533;stroke-dashoffset:0;stroke-opacity:1"
       id="rect5269"
       width="75.040497"
       height="15.258533"
       x="41.817867"
       y="1036.9941" />
    <g
       transform="matrix(1.0213663,0,0,0.99881541,-1.4931877,99.532487)"
       style="font-style:normal;font-weight:normal;font-size:19.411129px;line-height:125%;font-family:sans-serif;letter-spacing:0px;word-spacing:0px;fill:#0055dd;fill-opacity:1;stroke:none;stroke-width:1px;stroke-linecap:butt;stroke-linejoin:miter;stroke-opacity:1"
       id="text5047">
      <path
         id="path12219"
         style="font-style:normal;font-variant:normal;font-weight:600;font-stretch:normal;font-family:Belgika;-inkscape-font-specification:'Belgika Semi-Bold';fill:#0055dd;fill-opacity:1"
         d="m 102.77645,938.57354 c -0.46587,0 -0.85409,0.38822 -0.85409,0.85409 l 0,10.88964 -7.958565,-11.37492 c -0.09706,-0.11647 -0.194112,-0.21352 -0.310578,-0.27176 -0.116467,-0.0582 -0.252345,-0.097 -0.388223,-0.097 -0.09706,0 -0.1747,0.0194 -0.252345,0.0388 -0.09705,0.0194 -0.1747,0.0582 -0.232933,0.11647 -0.116467,0.0776 -0.213523,0.1747 -0.271756,0.31058 -0.05823,0.11646 -0.09706,0.25234 -0.09706,0.38822 l 0,13.58779 c 0,0.46587 0.388223,0.83468 0.85409,0.83468 0.465867,0 0.85409,-0.36881 0.85409,-0.83468 l 0,-10.88964 7.95857,11.37492 c 0.0776,0.11646 0.1747,0.19411 0.31057,0.25234 0.11647,0.0776 0.25235,0.0971 0.38823,0.0971 0.0776,0 0.1747,0 0.25234,-0.0388 0.0777,-0.0194 0.15529,-0.0582 0.23294,-0.0971 0.11646,-0.0971 0.19411,-0.19411 0.25234,-0.31058 0.0776,-0.11647 0.11647,-0.25234 0.11647,-0.38822 l 0,-13.58779 c 0,-0.46587 -0.38823,-0.85409 -0.85409,-0.85409 z m -15.383324,0 c -0.465867,0 -0.834678,0.38822 -0.834678,0.85409 l 0,13.58779 c 0,0.46587 0.368811,0.83468 0.834678,0.83468 0.465867,0 0.85409,-0.36881 0.85409,-0.83468 l 0,-13.58779 c 0,-0.46587 -0.388223,-0.85409 -0.85409,-0.85409 z m -11.155028,8.96794 1.921702,-5.53217 c 0.504689,1.47524 1.20349,3.45518 1.921701,5.53217 l -3.843403,0 z m 2.717558,-8.40502 c -0.03882,-0.13588 -0.135878,-0.27175 -0.252345,-0.36881 -0.07764,-0.0582 -0.1747,-0.11647 -0.271756,-0.15529 -0.03882,0 -0.07764,-0.0194 -0.116466,-0.0194 -0.03882,-0.0194 -0.09706,-0.0194 -0.155289,-0.0194 0,0 0,0 0,0 -0.349401,0 -0.67939,0.23293 -0.795857,0.56292 l -4.736315,13.58779 c -0.01941,0.0971 -0.03882,0.19411 -0.03882,0.27176 0,0.36881 0.213522,0.6988 0.562922,0.81527 0.09706,0.0388 0.194112,0.0388 0.271756,0.0388 0.368812,0 0.698801,-0.21352 0.815268,-0.56293 l 1.417012,-4.05692 5.027482,0 c 0.485279,1.41701 0.970557,2.81461 1.417013,4.05692 0.116467,0.34941 0.446456,0.56293 0.795856,0.56293 0.09706,0 0.194111,0 0.291167,-0.0388 0.329989,-0.11647 0.562923,-0.44646 0.562923,-0.81527 0,-0.0776 -0.01941,-0.1747 -0.05823,-0.27176 -1.805235,-5.18277 -4.619848,-13.29662 -4.736315,-13.58779 z m -24.305463,0.29117 0,13.58779 c 0,0.46587 0.388222,0.83468 0.854089,0.83468 0.465867,0 0.85409,-0.36881 0.85409,-0.83468 l 0,-10.01614 5.202183,10.38495 c 0.05823,0.0971 0.09705,0.15529 0.1747,0.23293 0.05823,0.0582 0.135878,0.11647 0.213522,0.15529 0.116467,0.0582 0.252345,0.0776 0.388223,0.0776 0.116467,0 0.252344,-0.0194 0.368811,-0.0776 0.07765,-0.0388 0.155289,-0.0971 0.213523,-0.15529 0.07764,-0.0776 0.116466,-0.13587 0.1747,-0.23293 l 5.182771,-10.36554 0,9.99673 c 0,0.46587 0.388223,0.83468 0.85409,0.83468 0.446456,0 0.834679,-0.36881 0.834679,-0.83468 l 0,-13.58779 c 0,-0.1747 -0.03882,-0.31058 -0.116467,-0.44646 -0.09706,-0.13588 -0.194112,-0.25234 -0.349401,-0.31058 -0.05823,-0.0388 -0.116466,-0.0582 -0.1747,-0.0776 -0.07764,-0.0194 -0.135878,-0.0194 -0.194111,-0.0194 -0.1747,0 -0.329989,0.0388 -0.446456,0.13588 -0.135878,0.0776 -0.252345,0.19411 -0.329989,0.32999 l -6.036861,12.07372 -6.056273,-12.05431 c -0.135877,-0.29117 -0.427044,-0.48528 -0.757034,-0.48528 -0.465867,0 -0.854089,0.38822 -0.854089,0.85409 z"
         inkscape:connector-curvature="0" />
    </g>
    <rect
       y="1036.4495"
       x="176.78572"
       height="15.258533"
       width="119.01908"
       id="rect5271"
       style="fill:#ffffff;fill-opacity:1;stroke:none;stroke-width:2.51099992;stroke-miterlimit:4;stroke-dasharray:2.511, 7.533;stroke-dashoffset:0;stroke-opacity:1" />
    <g
       transform="matrix(1.0213663,0,0,0.97908067,0,-33.506326)"
       style="font-style:normal;font-weight:normal;font-size:19.411129px;line-height:125%;font-family:sans-serif;letter-spacing:0px;word-spacing:0px;fill:#555555;fill-opacity:1;stroke:none;stroke-width:1px;stroke-linecap:butt;stroke-linejoin:miter;stroke-opacity:1"
       id="text5051">
      <path
         id="path12708"
         style="font-style:normal;font-variant:normal;font-weight:600;font-stretch:normal;font-family:Belgika;-inkscape-font-specification:'Belgika Semi-Bold';fill:#555555;fill-opacity:1"
         d="m 289.61674,1093.6879 c 0,-0.4753 -0.38822,-0.8713 -0.85409,-0.8713 l -7.47328,0 c -0.5241,0 -0.85409,0.4951 -0.85409,0.8713 l 0,6.9308 0,6.9309 c 0,0.5148 0.48528,0.8515 0.85409,0.8515 l 7.47328,0 c 0.46587,0 0.85409,-0.3762 0.85409,-0.8515 0,-0.4753 -0.38822,-0.8713 -0.85409,-0.8713 l -6.61919,0 0,-5.208 5.26042,0 c 0.46586,0 0.85409,-0.3763 0.85409,-0.8516 0,-0.4753 -0.38823,-0.8713 -0.85409,-0.8713 l -5.26042,0 0,-5.208 6.61919,0 c 0.46587,0 0.85409,-0.3762 0.85409,-0.8515 z m -20.80054,-0.8713 c -0.46586,0 -0.85409,0.396 -0.85409,0.8713 l 0,13.8617 c 0,0.5148 0.48528,0.8515 0.85409,0.8515 l 8.15268,0 c 0.46586,0 0.85409,-0.3762 0.85409,-0.8515 0,-0.4753 -0.38823,-0.8713 -0.85409,-0.8713 l -7.29859,0 0,-12.9904 c 0,-0.4753 -0.38822,-0.8713 -0.85409,-0.8713 z m -10.96091,9.1487 1.9217,-5.6437 c 0.50469,1.505 1.20349,3.5249 1.9217,5.6437 l -3.8434,0 z m 2.71756,-8.5745 c -0.0388,-0.1385 -0.13588,-0.2772 -0.25235,-0.3762 -0.0776,-0.059 -0.1747,-0.1188 -0.27176,-0.1584 -0.0388,0 -0.0776,-0.019 -0.11646,-0.019 -0.0388,-0.019 -0.0971,-0.019 -0.15529,-0.019 0,0 0,0 0,0 -0.3494,0 -0.67939,0.2376 -0.79586,0.5742 l -4.73631,13.8617 c -0.0194,0.099 -0.0388,0.198 -0.0388,0.2773 0,0.3762 0.21353,0.7129 0.56293,0.8316 0.097,0.04 0.19411,0.04 0.27175,0.04 0.36881,0 0.6988,-0.2179 0.81527,-0.5743 l 1.41701,-4.1387 5.02749,0 c 0.48527,1.4456 0.97055,2.8713 1.41701,4.1387 0.11646,0.3564 0.44645,0.5743 0.79585,0.5743 0.0971,0 0.19412,0 0.29117,-0.04 0.32999,-0.1187 0.56292,-0.4554 0.56292,-0.8316 0,-0.08 -0.0194,-0.1782 -0.0582,-0.2773 -1.80523,-5.2871 -4.61985,-13.5646 -4.73631,-13.8617 z m -8.55546,11.9211 c -0.1747,-0.1783 -0.38823,-0.2574 -0.60175,-0.2574 -0.21352,0 -0.44645,0.08 -0.60174,0.2574 -0.83468,0.8515 -1.96053,1.3664 -3.24166,1.3664 -2.54286,0 -4.60044,-2.0991 -4.60044,-4.6734 l 0,-2.7724 c 0,-2.594 2.05758,-4.6931 4.60044,-4.6931 1.28113,0 2.40698,0.5347 3.24166,1.3862 0.15529,0.1583 0.38822,0.2574 0.60174,0.2574 0.21352,0 0.42705,-0.099 0.60175,-0.2574 0.15529,-0.1782 0.25234,-0.3961 0.25234,-0.6139 0,-0.2178 -0.097,-0.4554 -0.25234,-0.6139 -1.14526,-1.1486 -2.69815,-1.8812 -4.44515,-1.8812 -3.47459,0 -6.28921,2.8713 -6.28921,6.4159 l 0,2.7724 c 0,3.5447 2.81462,6.3962 6.28921,6.3962 1.747,0 3.29989,-0.7129 4.44515,-1.8813 0.15529,-0.1584 0.23293,-0.3762 0.23293,-0.6138 0,-0.2179 -0.0776,-0.4357 -0.23293,-0.5941 z m -21.32677,-0.6732 c -0.32998,0.1385 -0.5241,0.4751 -0.5241,0.8118 0,0.1188 0.0194,0.2178 0.0582,0.3366 0.21352,0.5149 0.5241,0.9703 0.91232,1.3664 0.75703,0.7723 1.82465,1.2476 2.98931,1.2476 2.32934,0 4.19281,-1.9209 4.19281,-4.2971 0,-1.1288 -0.42705,-2.4159 -1.55289,-3.2477 l -3.80458,-2.8317 c -0.38823,-0.297 -0.79586,-1.0891 -0.79586,-1.5445 0,-1.0496 0.85409,-1.9407 1.90229,-1.9407 0.5241,0 0.98997,0.2178 1.35878,0.5743 0.19411,0.198 0.31058,0.3564 0.38822,0.594 0.13588,0.3169 0.46587,0.5149 0.79586,0.5149 0.11647,0 0.21352,-0.019 0.32999,-0.059 0.31058,-0.1386 0.50469,-0.4753 0.50469,-0.8119 0,-0.099 -0.0194,-0.2178 -0.0582,-0.3367 -0.1747,-0.4356 -0.44645,-0.8118 -0.79585,-1.1485 -0.62116,-0.6337 -1.53348,-1.0495 -2.52345,-1.0495 -1.99935,0 -3.59106,1.6633 -3.59106,3.6635 0,1.1287 0.62116,2.297 1.47525,2.9505 l 3.80458,2.8119 c 0.60174,0.4555 0.8735,1.1486 0.8735,1.8615 0,1.4258 -1.12585,2.5743 -2.50404,2.5743 -0.6988,0 -1.33936,-0.2773 -1.80523,-0.7525 -0.21352,-0.2377 -0.38822,-0.4951 -0.5241,-0.812 -0.13588,-0.3366 -0.44646,-0.5346 -0.79586,-0.5346 -0.0971,0 -0.21352,0.019 -0.31058,0.059 z m -13.63055,-11.6637 c -0.23294,0.1782 -0.3494,0.4356 -0.3494,0.7129 0,0.1782 0.0582,0.3564 0.15529,0.4951 l 4.75572,6.713 0,6.6536 c 0,0.4753 0.38823,0.8515 0.85409,0.8515 0.44646,0 0.83468,-0.3762 0.83468,-0.8515 l 0,-6.6536 4.77514,-6.713 c 0.0971,-0.1387 0.15529,-0.3169 0.15529,-0.4951 0,-0.2773 -0.11647,-0.5347 -0.3494,-0.7129 -0.15529,-0.099 -0.32999,-0.1584 -0.48528,-0.1584 -0.27176,0 -0.54351,0.1188 -0.6988,0.3564 l -4.23163,5.9606 -4.23162,-5.9606 c -0.15529,-0.2376 -0.42705,-0.3564 -0.67939,-0.3564 -0.1747,0 -0.3494,0.059 -0.50469,0.1584 z m -9.09745,8.9903 1.9217,-5.6437 c 0.50469,1.505 1.20349,3.5249 1.9217,5.6437 l -3.8434,0 z m 2.71756,-8.5745 c -0.0388,-0.1385 -0.13588,-0.2772 -0.25235,-0.3762 -0.0776,-0.059 -0.1747,-0.1188 -0.27175,-0.1584 -0.0388,0 -0.0777,-0.019 -0.11647,-0.019 -0.0388,-0.019 -0.0971,-0.019 -0.15529,-0.019 0,0 0,0 0,0 -0.3494,0 -0.67939,0.2376 -0.79586,0.5742 l -4.73631,13.8617 c -0.0194,0.099 -0.0388,0.198 -0.0388,0.2773 0,0.3762 0.21352,0.7129 0.56292,0.8316 0.0971,0.04 0.19411,0.04 0.27176,0.04 0.36881,0 0.6988,-0.2179 0.81526,-0.5743 l 1.41702,-4.1387 5.02748,0 c 0.48528,1.4456 0.97055,2.8713 1.41701,4.1387 0.11647,0.3564 0.44646,0.5743 0.79586,0.5743 0.097,0 0.19411,0 0.29116,-0.04 0.32999,-0.1187 0.56293,-0.4554 0.56293,-0.8316 0,-0.08 -0.0194,-0.1782 -0.0582,-0.2773 -1.80523,-5.2871 -4.61985,-13.5646 -4.73631,-13.8617 z m -15.11005,8.0795 1.66936,0 3.18342,6.4555 c 0.15529,0.3169 0.44646,0.4753 0.77645,0.4753 0.11646,0 0.25234,-0.019 0.36881,-0.08 0.29117,-0.1584 0.46587,-0.4554 0.46587,-0.792 0,-0.1189 -0.0388,-0.2575 -0.0971,-0.3763 l -2.85344,-5.7823 c 1.88288,-0.4554 3.2999,-2.1585 3.2999,-4.2179 0,-2.3763 -1.86347,-4.3367 -4.23163,-4.3367 l -3.41636,0 c -0.36881,0 -0.85409,0.3366 -0.85409,0.8713 l 0,13.8617 c 0,0.4753 0.38822,0.8515 0.85409,0.8515 0.46587,0 0.83468,-0.3762 0.83468,-0.8515 l 0,-6.0794 z m 0,-1.7229 0,-5.208 2.58168,0 c 1.3976,0 2.52345,1.1683 2.52345,2.6139 0,1.4456 -1.14526,2.5941 -2.54286,2.5941 l -2.56227,0 z m -10.79046,1.3069 c 0,0.4555 0.38822,0.8516 0.85409,0.8516 l 2.91166,0 0,3.2475 c -1.12584,1.01 -2.56226,1.5249 -3.95987,1.5249 -1.51406,0 -3.04754,-0.5941 -4.21221,-1.7823 -1.16467,-1.1683 -1.72759,-2.7327 -1.72759,-4.2773 0,-1.5446 0.56292,-3.109 1.72759,-4.2971 1.16467,-1.1882 2.67874,-1.7822 4.1928,-1.7822 1.51407,0 3.04755,0.594 4.21222,1.7624 0.15529,0.1783 0.36881,0.2574 0.60174,0.2574 0.21353,0 0.42705,-0.08 0.60175,-0.2574 0.15529,-0.1584 0.23293,-0.3961 0.23293,-0.6139 0,-0.2178 -0.0776,-0.4356 -0.23293,-0.6138 -1.51407,-1.5249 -3.47459,-2.2575 -5.41571,-2.2575 -1.94111,0 -3.90163,0.7524 -5.39629,2.2773 -1.49466,1.5247 -2.23228,3.5248 -2.23228,5.5248 0,1.9803 0.73762,3.9803 2.23228,5.5051 1.49466,1.5247 3.45518,2.2773 5.4157,2.2773 1.94112,0 3.92105,-0.7526 5.3963,-2.2773 0.13588,-0.1386 0.25234,-0.3762 0.25234,-0.6139 l 0,-4.4556 c 0,-0.3762 -0.32999,-0.8713 -0.85409,-0.8713 l -3.74634,0 c -0.46587,0 -0.85409,0.3961 -0.85409,0.8713 z"
         inkscape:connector-curvature="0" />
    </g>
    <g
       transform="matrix(0.86816211,0,0,0.84899384,54.506883,142.12561)"
       style="font-style:normal;font-weight:normal;font-size:19.411129px;line-height:125%;font-family:sans-serif;letter-spacing:0px;word-spacing:0px;fill:#bbbbbb;fill-opacity:1;stroke:none;stroke-width:1px;stroke-linecap:butt;stroke-linejoin:miter;stroke-opacity:1"
       id="text5073">
      <path
         id="path12540"
         style="font-style:normal;font-variant:normal;font-weight:600;font-stretch:normal;font-family:Belgika;-inkscape-font-specification:'Belgika Semi-Bold';fill:#bbbbbb;fill-opacity:1"
         d="m 380.17913,968.56929 c 0,-0.46587 -0.38822,-0.85409 -0.85409,-0.85409 l -7.47328,0 c -0.5241,0 -0.85409,0.48528 -0.85409,0.85409 l 0,6.7939 0,6.79389 c 0,0.50469 0.48528,0.83468 0.85409,0.83468 l 7.47328,0 c 0.46587,0 0.85409,-0.36881 0.85409,-0.83468 0,-0.46587 -0.38822,-0.85409 -0.85409,-0.85409 l -6.61919,0 0,-5.10512 5.26041,0 c 0.46587,0 0.85409,-0.36882 0.85409,-0.83468 0,-0.46587 -0.38822,-0.85409 -0.85409,-0.85409 l -5.26041,0 0,-5.10513 6.61919,0 c 0.46587,0 0.85409,-0.36881 0.85409,-0.83468 z m -23.69279,0 c 0,0.46587 0.38822,0.83468 0.85409,0.83468 l 4.58102,0 0,12.75311 c 0,0.46587 0.38823,0.83468 0.85409,0.83468 0.46587,0 0.85409,-0.36881 0.85409,-0.83468 l 0,-12.75311 4.58103,0 c 0.46587,0 0.85409,-0.36881 0.85409,-0.83468 0,-0.46587 -0.38822,-0.85409 -0.85409,-0.85409 l -5.43512,0 -5.43511,0 c -0.46587,0 -0.85409,0.38822 -0.85409,0.85409 z m -2.97961,-0.85409 c -0.46587,0 -0.83468,0.38822 -0.83468,0.85409 l 0,13.58779 c 0,0.46587 0.36881,0.83468 0.83468,0.83468 0.46587,0 0.85409,-0.36881 0.85409,-0.83468 l 0,-13.58779 c 0,-0.46587 -0.38822,-0.85409 -0.85409,-0.85409 z m -14.03213,15.27656 c 0.46587,0 0.85409,-0.36881 0.85409,-0.83468 l 0,-5.95921 6.4445,0 0,5.95921 c 0,0.46587 0.38822,0.83468 0.85409,0.83468 0.46587,0 0.85409,-0.36881 0.85409,-0.83468 l 0,-13.58779 c 0,-0.46587 -0.38822,-0.85409 -0.85409,-0.85409 -0.46587,0 -0.85409,0.38822 -0.85409,0.85409 l 0,5.93981 -6.4445,0 0,-5.93981 c 0,-0.46587 -0.38822,-0.85409 -0.85409,-0.85409 -0.46586,0 -0.85409,0.38822 -0.85409,0.85409 l 0,6.7939 0,6.79389 c 0,0.46587 0.38823,0.83468 0.85409,0.83468 z m -12.82893,-15.23774 c -0.13588,0.0388 -0.25235,0.11647 -0.3494,0.21353 -0.0971,0.0971 -0.1747,0.21352 -0.21353,0.3494 l -3.33871,10.92846 -3.29989,-10.92846 c -0.11647,-0.36881 -0.46587,-0.60175 -0.83468,-0.60175 -0.0776,0 -0.15529,0.0194 -0.23293,0.0388 -0.36881,0.11647 -0.60175,0.44646 -0.60175,0.81527 0,0.0776 0.0194,0.15529 0.0388,0.23293 l 4.13457,13.5878 c 0.0388,0.15528 0.11647,0.27175 0.21353,0.36881 0.0776,0.097 0.21352,0.15529 0.3494,0.21352 0.0776,0.0194 0.15529,0.0194 0.23293,0.0194 0.0971,0 0.1747,0 0.25235,-0.0194 0.13587,-0.0582 0.25234,-0.11647 0.3494,-0.21352 0.0971,-0.0971 0.1747,-0.21353 0.21352,-0.3494 l 3.33871,-10.92847 3.31931,10.90906 c 0.0388,0.15528 0.11646,0.27175 0.21352,0.36881 0.0971,0.097 0.21352,0.15529 0.3494,0.21352 0.0776,0.0194 0.15529,0.0194 0.23293,0.0194 0.0971,0 0.1747,0 0.25235,-0.0194 0.13587,-0.0582 0.25234,-0.11647 0.3494,-0.21352 0.0971,-0.0971 0.1747,-0.21353 0.21352,-0.3494 l 4.15398,-13.58779 c 0.0194,-0.0971 0.0388,-0.1747 0.0388,-0.25235 0,-0.36881 -0.25234,-0.6988 -0.60174,-0.81527 -0.0777,-0.0194 -0.1747,-0.0388 -0.25235,-0.0388 -0.3494,0 -0.6988,0.23294 -0.81526,0.60175 l -3.31931,10.92846 -3.3193,-10.92846 c -0.0388,-0.13588 -0.11647,-0.25235 -0.21352,-0.3494 -0.0971,-0.0971 -0.21353,-0.1747 -0.3494,-0.21353 -0.0971,-0.0194 -0.1747,-0.0388 -0.25235,-0.0388 -0.0776,0 -0.1747,0.0194 -0.25234,0.0388 z"
         inkscape:connector-curvature="0" />
    </g>
    <g
       transform="matrix(1.0213662,0,0,0.99881546,-1.2662659e-7,12.315573)"
       style="font-style:normal;font-weight:normal;font-size:28.31264114px;line-height:125%;font-family:sans-serif;letter-spacing:0px;word-spacing:0px;fill:#0055dd;fill-opacity:1;stroke:none;stroke-width:1px;stroke-linecap:butt;stroke-linejoin:miter;stroke-opacity:1"
       id="text10244">
      <path
         id="path11931"
         style="font-style:normal;font-variant:normal;font-weight:normal;font-stretch:normal;font-family:Belgika;-inkscape-font-specification:Belgika;fill:#0055dd;fill-opacity:1"
         d="m 208.58815,914.25653 c -0.25482,0.11325 -0.39638,0.36806 -0.39638,0.62288 0,0.0849 0,0.16987 0.0566,0.25481 0.28313,0.70782 0.70782,1.35901 1.24576,1.89695 1.07588,1.07588 2.60476,1.72707 4.2469,1.72707 3.25595,0 5.91734,-2.66139 5.91734,-5.91734 0,-1.61382 -0.62288,-3.36921 -2.18007,-4.50171 l -5.97397,-4.33184 c -0.79276,-0.59456 -1.50057,-1.95357 -1.50057,-2.9162 0,-1.98188 1.61382,-3.62402 3.65233,-3.62402 0.99094,0 1.89695,0.39638 2.57645,1.04757 0.33975,0.33975 0.59457,0.70782 0.76444,1.10419 0.11325,0.25482 0.36807,0.42469 0.62288,0.42469 0.0849,0 0.16987,-0.0283 0.25481,-0.0566 0.25482,-0.11325 0.42469,-0.36807 0.42469,-0.62288 0,-0.0849 -0.0283,-0.16988 -0.0566,-0.25481 -0.25482,-0.59457 -0.59457,-1.07588 -1.1042,-1.5572 -0.87769,-0.87769 -2.12344,-1.44394 -3.48245,-1.44394 -2.77464,0 -4.98303,2.26501 -4.98303,4.98302 0,1.47226 0.8777,3.1427 2.06683,3.99208 l 5.94565,4.33184 c 1.16082,0.84938 1.64214,2.12345 1.64214,3.42583 0,2.51982 -2.06683,4.58665 -4.58665,4.58665 -1.30238,0 -2.4632,-0.50963 -3.28427,-1.3307 -0.42469,-0.42469 -0.76444,-0.906 -0.99094,-1.47226 -0.11325,-0.25481 -0.36807,-0.39637 -0.62288,-0.39637 -0.0849,0 -0.16988,0 -0.25481,0.0283 z m -14.85573,-7.47454 0,-9.31486 4.6999,0 c 2.57645,0 4.61496,2.06683 4.61496,4.64328 0,2.60476 -2.09513,4.67158 -4.67158,4.67158 l -4.64328,0 z m 0,1.3307 3.68065,0 5.18121,10.3058 c 0.11325,0.2265 0.33975,0.33975 0.59457,0.33975 0.0849,0 0.19818,0 0.28312,-0.0566 0.2265,-0.11325 0.36807,-0.36806 0.36807,-0.59456 0,-0.11325 -0.0283,-0.19819 -0.0566,-0.31144 l -4.89809,-9.71124 c 3.08608,-0.25481 5.49266,-2.80295 5.49266,-5.97396 0,-3.28427 -2.63308,-6.00228 -5.94566,-6.00228 l -5.3794,0 c -0.28313,0 -0.6795,0.28312 -0.6795,0.6795 l 0,21.31942 c 0,0.36806 0.31144,0.65119 0.6795,0.65119 0.36806,0 0.6795,-0.28313 0.6795,-0.65119 l 0,-9.99436 z m -17.51403,9.31486 c -5.52096,0 -9.99436,-4.44509 -9.99436,-9.99437 0,-5.52096 4.4734,-9.96605 9.99436,-9.96605 5.52097,0 9.99437,4.44509 9.99437,9.96605 0,5.54928 -4.4734,9.99437 -9.99437,9.99437 z m 0,1.33069 c 6.2571,0 11.32506,-5.06796 11.32506,-11.32506 0,-6.22878 -5.06796,-11.32505 -11.32506,-11.32505 -6.25709,0 -11.32505,5.09627 -11.32505,11.32505 0,6.2571 5.06796,11.32506 11.32505,11.32506 z m -27.51457,-22.65011 c -0.36807,0 -0.65119,0.31144 -0.65119,0.6795 l 0,21.31942 c 0,0.39638 0.36806,0.65119 0.65119,0.65119 l 12.79731,0 c 0.36807,0 0.65119,-0.28313 0.65119,-0.65119 0,-0.36807 -0.28312,-0.6795 -0.65119,-0.6795 l -12.11781,0 0,-20.63992 c 0,-0.36806 -0.31144,-0.6795 -0.6795,-0.6795 z m -16.83452,21.31942 c -5.52097,0 -9.99436,-4.44509 -9.99436,-9.99437 0,-5.52096 4.47339,-9.96605 9.99436,-9.96605 5.52096,0 9.99436,4.44509 9.99436,9.96605 0,5.54928 -4.4734,9.99437 -9.99436,9.99437 z m 0,1.33069 c 6.25709,0 11.32505,-5.06796 11.32505,-11.32506 0,-6.22878 -5.06796,-11.32505 -11.32505,-11.32505 -6.2571,0 -11.32506,5.09627 -11.32506,11.32505 0,6.2571 5.06796,11.32506 11.32506,11.32506 z m -15.31272,-3.62402 c -0.14156,-0.14156 -0.31144,-0.19819 -0.48131,-0.19819 -0.16988,0 -0.33975,0.0566 -0.48132,0.19819 -1.41563,1.41563 -3.34089,2.29333 -5.54927,2.29333 -4.33184,0 -7.87092,-3.51077 -7.87092,-7.84261 l 0,-4.2752 c 0,-4.33184 3.53908,-7.84261 7.87092,-7.84261 2.20838,0 4.13364,0.8777 5.54927,2.29333 0.14157,0.14156 0.31144,0.19819 0.48132,0.19819 0.16987,0 0.33975,-0.0566 0.48131,-0.19819 0.11325,-0.11325 0.16988,-0.28313 0.16988,-0.48132 0,-0.16987 -0.0566,-0.33975 -0.16988,-0.453 -1.67044,-1.67045 -3.93545,-2.71801 -6.5119,-2.71801 -5.06797,0 -9.20161,4.13364 -9.20161,9.20161 l 0,4.2752 c 0,5.06797 4.13364,9.1733 9.20161,9.1733 2.57645,0 4.84146,-1.01926 6.5119,-2.6897 0.11325,-0.11325 0.16988,-0.28313 0.16988,-0.48132 0,-0.16987 -0.0566,-0.33975 -0.16988,-0.453 z"
         inkscape:connector-curvature="0" />
    </g>
    <ellipse
       style="fill:#222222;fill-opacity:1;stroke:none;stroke-width:2.89199996;stroke-miterlimit:4;stroke-dasharray:2.892, 8.676;stroke-dashoffset:0;stroke-opacity:1"
       id="path5013"
       cx="86.129402"
       cy="971.8772"
       rx="5.578794"
       ry="5.7630792" />
    <ellipse
       ry="5.7630792"
       rx="5.578794"
       cy="971.8772"
       cx="320.35135"
       id="ellipse5091"
       style="fill:#bbbbbb;fill-opacity:1;stroke:none;stroke-width:2.89199996;stroke-miterlimit:4;stroke-dasharray:2.892, 8.676;stroke-dashoffset:0;stroke-opacity:1" />
    <ellipse
       style="fill:#0055dd;fill-opacity:1;stroke:none;stroke-width:2.89199996;stroke-miterlimit:4;stroke-dasharray:2.892, 8.676;stroke-dashoffset:0;stroke-opacity:1"
       id="ellipse5155"
       cx="6.594244"
       cy="1046.5991"
       rx="5.578794"
       ry="5.7630792" />
    <ellipse
       ry="5.7630792"
       rx="5.578794"
       cy="1046.5991"
       cx="312.71912"
       id="ellipse5157"
       style="fill:#555555;fill-opacity:1;stroke:none;stroke-width:2.89199996;stroke-miterlimit:4;stroke-dasharray:2.892, 8.676;stroke-dashoffset:0;stroke-opacity:1" />
  </g>
</svg>
