<?xml version="1.0" encoding="UTF-8" standalone="no"?>
<!-- Created with Inkscape (http://www.inkscape.org/) -->

<svg
   xmlns:dc="http://purl.org/dc/elements/1.1/"
   xmlns:cc="http://creativecommons.org/ns#"
   xmlns:rdf="http://www.w3.org/1999/02/22-rdf-syntax-ns#"
   xmlns:svg="http://www.w3.org/2000/svg"
   xmlns="http://www.w3.org/2000/svg"
   xmlns:sodipodi="http://sodipodi.sourceforge.net/DTD/sodipodi-0.dtd"
   xmlns:inkscape="http://www.inkscape.org/namespaces/inkscape"
   width="215"
   height="72"
   viewBox="0 0 215 72"
   id="svg4476"
   version="1.1"
   inkscape:version="0.91 r13725"
   sodipodi:docname="logo-size.svg">
  <defs
     id="defs4478">
    <marker
       inkscape:isstock="true"
       style="overflow:visible"
       id="marker4668"
       refX="0"
       refY="0"
       orient="auto"
       inkscape:stockid="StopL">
      <path
         transform="scale(0.8,0.8)"
         style="fill:none;fill-opacity:0.75;fill-rule:evenodd;stroke:#808080;stroke-width:1pt;stroke-opacity:1"
         d="M 0,5.65 0,-5.65"
         id="path4670"
         inkscape:connector-curvature="0" />
    </marker>
    <marker
       inkscape:isstock="true"
       style="overflow:visible"
       id="marker4646"
       refX="0"
       refY="0"
       orient="auto"
       inkscape:stockid="StopL">
      <path
         transform="scale(0.8,0.8)"
         style="fill:none;fill-opacity:0.75;fill-rule:evenodd;stroke:#808080;stroke-width:1pt;stroke-opacity:1"
         d="M 0,5.65 0,-5.65"
         id="path4648"
         inkscape:connector-curvature="0" />
    </marker>
    <marker
       inkscape:stockid="StopL"
       orient="auto"
       refY="0"
       refX="0"
       id="StopL"
       style="overflow:visible"
       inkscape:isstock="true"
       inkscape:collect="always">
      <path
         id="path4339"
         d="M 0,5.65 0,-5.65"
         style="fill:none;fill-opacity:0.75;fill-rule:evenodd;stroke:#666666;stroke-width:1pt;stroke-opacity:1"
         transform="scale(0.8,0.8)"
         inkscape:connector-curvature="0" />
    </marker>
  </defs>
  <sodipodi:namedview
     id="base"
     pagecolor="#ffffff"
     bordercolor="#666666"
     borderopacity="1.0"
     inkscape:pageopacity="0.0"
     inkscape:pageshadow="2"
     inkscape:zoom="2.8"
     inkscape:cx="124.33279"
     inkscape:cy="29.471737"
     inkscape:document-units="px"
     inkscape:current-layer="g4172"
     showgrid="false"
     units="px"
     inkscape:window-width="1280"
     inkscape:window-height="709"
     inkscape:window-x="0"
     inkscape:window-y="0"
     inkscape:window-maximized="1"
     inkscape:snap-bbox="true"
     inkscape:bbox-paths="true"
     inkscape:bbox-nodes="true"
     inkscape:snap-bbox-edge-midpoints="true"
     inkscape:snap-bbox-midpoints="true"
     showguides="true"
     inkscape:guide-bbox="true">
    <sodipodi:guide
       position="220.21325,74.751288"
       orientation="0,1"
       id="guide4140" />
    <sodipodi:guide
       position="0,49.213247"
       orientation="1,0"
       id="guide4142" />
    <sodipodi:guide
       position="219.70818,0.50507627"
       orientation="1,0"
       id="guide4144" />
    <sodipodi:guide
       position="219.70818,0.50507627"
       orientation="0,1"
       id="guide4146" />
    <sodipodi:guide
       position="27.463501,12.554677"
       orientation="1,0"
       id="guide4162" />
  </sodipodi:namedview>
  <metadata
     id="metadata4481">
    <rdf:RDF>
      <cc:Work
         rdf:about="">
        <dc:format>image/svg+xml</dc:format>
        <dc:type
           rdf:resource="http://purl.org/dc/dcmitype/StillImage" />
        <dc:title></dc:title>
      </cc:Work>
    </rdf:RDF>
  </metadata>
  <g
     inkscape:label="Layer 1"
     inkscape:groupmode="layer"
     id="layer1"
     transform="translate(0,-980.36215)">
    <g
       id="g4172"
       transform="matrix(0.97887403,0,0,1,0,-1.7411035e-6)">
      <g
         id="g4150"
         transform="matrix(0.99808413,0,0,0.99277993,36.734057,-2.6846993)">
        <path
           inkscape:connector-curvature="0"
           style="fill:#0055dd;fill-opacity:1;stroke:none;stroke-width:0.1;stroke-miterlimit:4;stroke-dasharray:none"
           d="m 118.99092,992.37984 0,22.95596 16.39648,-22.87496 -16.39648,-0.081 z m 38.72754,21.73526 0,4.9551 12.2959,0 0,-4.9551 -12.2959,0 z m -139.713858,0.1074 0,4.9551 17.250972,0 0,-4.9551 -17.250972,0 z m 105.929678,2.4776 0,8.2021 11.29394,16.1182 c 2.13822,0 4.27684,-2e-4 6.41504,0 l -17.70898,-24.3203 z"
           id="path4323" />
        <g
           transform="matrix(0.5,0,0,0.5,8.0934685,515.41161)"
           id="g4166">
          <g
             id="text4277"
             style="font-style:normal;font-weight:normal;font-size:40px;line-height:125%;font-family:sans-serif;letter-spacing:0px;word-spacing:0px;fill:#222222;fill-opacity:1;stroke:none;stroke-width:1px;stroke-linecap:butt;stroke-linejoin:miter;stroke-opacity:1"
             transform="matrix(3.5765363,0,0,3.5765379,-1183.5932,-1006.0692)">
            <path
               sodipodi:nodetypes="ccccccccccccccccssscssscsscccssccscssscscs"
               inkscape:connector-curvature="0"
               d="m 425.19217,575.21741 0,-2.6 -13.36,0 0,-9.68 0,-2.64 0,-9.68 13.36,0 0,-2.6 -16.16,0 0,27.2 z m -35.1725,0 0,-27.2 -2.8,0 0,27.2 z m -10.4025,-13.68 c 0,3.12 -1.12,5.76 -3.28,7.92 -2.2,2.2 -4.84,3.28 -7.92,3.28 -3.08,0 -5.72,-1.08 -7.88,-3.28 -2.2,-2.16 -3.28,-4.8 -3.28,-7.92 0,-3.04 1.08,-5.68 3.28,-7.88 2.16,-2.16 4.8,-3.28 7.88,-3.28 3.08,0 5.72,1.12 7.92,3.28 2.16,2.2 3.28,4.84 3.28,7.88 z m 2.8,0 c 0,-1.92 -0.4,-3.72 -1.12,-5.44 -0.72,-1.68 -1.72,-3.16 -3,-4.44 -1.28,-1.24 -2.76,-2.24 -4.44,-2.96 -1.72,-0.72 -3.52,-1.12 -5.44,-1.12 -1.92,0 -3.76,0.4 -5.44,1.12 -1.68,0.72 -3.16,1.72 -4.44,2.96 -1.28,1.28 -2.28,2.76 -3,4.44 -0.72,1.72 -1.08,3.52 -1.08,5.44 0,1.92 0.36,3.76 1.08,5.44 0.72,1.72 1.72,3.2 3,4.48 1.28,1.28 2.76,2.28 4.44,3 1.68,0.72 3.52,1.08 5.44,1.08 1.92,0 3.72,-0.36 5.44,-1.08 1.68,-0.72 3.16,-1.72 4.44,-3 1.28,-1.28 2.28,-2.76 3,-4.48 0.72,-1.68 1.12,-3.52 1.12,-5.44 z"
               style="font-style:normal;font-variant:normal;font-weight:normal;font-stretch:normal;font-family:'Glacial Indifference';-inkscape-font-specification:'Glacial Indifference';fill:#222222;fill-opacity:1"
               id="path4296" />
          </g>
          <rect
             style="fill:#222222;fill-opacity:1;stroke:none;stroke-width:0.1;stroke-miterlimit:4;stroke-dasharray:none"
             id="rect4315"
             width="9.9106665"
             height="97.281761"
             x="64.234528"
             y="953.93567" />
          <rect
             y="953.93567"
             x="0"
             height="97.281761"
             width="9.9106665"
             id="rect4321"
             style="fill:#222222;fill-opacity:1;stroke:none;stroke-width:0.1;stroke-miterlimit:4;stroke-dasharray:none" />
        </g>
      </g>
      <path
         style="fill:none;fill-rule:evenodd;stroke:#808080;stroke-width:1.00611281;stroke-linecap:butt;stroke-linejoin:miter;stroke-miterlimit:4;stroke-dasharray:1.00611277, 2.01222553;stroke-dashoffset:0;stroke-opacity:1;marker-start:url(#StopL);marker-end:url(#StopL)"
         d="m 40.763908,1035.7266 178.373142,0"
         id="path4158"
         inkscape:connector-curvature="0" />
      <path
         inkscape:connector-curvature="0"
         id="path4644"
         d="m 34.89376,980.86531 0,49.34539"
         style="fill:none;fill-rule:evenodd;stroke:#808080;stroke-width:1.00611281;stroke-linecap:butt;stroke-linejoin:miter;stroke-miterlimit:4;stroke-dasharray:1.00611277, 2.01222553;stroke-dashoffset:0;stroke-opacity:1;marker-start:url(#marker4646);marker-end:url(#marker4668)" />
      <g
         transform="matrix(1.0134298,0,0,0.98674817,-2.5539548,1.5000194)"
         style="font-style:normal;font-weight:normal;font-size:14.68911839px;line-height:125%;font-family:sans-serif;letter-spacing:0px;word-spacing:0px;fill:#808080;fill-opacity:1;stroke:none;stroke-width:1px;stroke-linecap:butt;stroke-linejoin:miter;stroke-opacity:1"
         id="text5200" />
      <g
         transform="matrix(1.0134298,0,0,0.98674817,-2.5539548,1.5000194)"
         style="font-style:normal;font-weight:normal;font-size:14.68911839px;line-height:125%;font-family:sans-serif;letter-spacing:0px;word-spacing:0px;fill:#808080;fill-opacity:1;stroke:none;stroke-width:1px;stroke-linecap:butt;stroke-linejoin:miter;stroke-opacity:1"
         id="text5276">
        <path
           id="path5296"
           style="font-style:normal;font-variant:normal;font-weight:normal;font-stretch:normal;font-family:'Glacial Indifference';-inkscape-font-specification:'Glacial Indifference';fill:#808080"
           d="m 31.479707,1025.3845 1.307332,0 -2.262124,-3.2316 2.262124,-3.2316 -1.307332,0 -1.615803,2.4825 -1.615803,-2.4825 -1.307331,0 2.262124,3.2169 -2.262124,3.2463 1.307331,0 1.615803,-2.5118 1.615803,2.5118 z m -11.153631,3.6723 0,-4.774 c 0.04407,0.088 0.117513,0.1616 0.176269,0.2204 0.616943,0.6904 1.366088,1.0282 2.262125,1.0282 0.881347,0 1.630492,-0.3378 2.247435,-1.0282 0.587565,-0.661 0.896036,-1.4396 0.896036,-2.3503 0,-0.896 -0.308471,-1.6745 -0.896036,-2.3502 -0.616943,-0.6757 -1.366088,-1.0283 -2.247435,-1.0283 -0.896037,0 -1.645182,0.3526 -2.262125,1.0283 -0.05876,0.073 -0.132202,0.1468 -0.176269,0.235 l 0,-1.1164 -1.028238,0 0,10.1355 1.028238,0 z m 4.553627,-6.9039 c 0,0.6316 -0.220337,1.1898 -0.661011,1.6452 -0.440673,0.47 -0.984171,0.7051 -1.615803,0.7051 -0.646321,0 -1.189818,-0.2351 -1.630492,-0.7051 -0.440673,-0.4554 -0.646321,-1.0136 -0.646321,-1.6452 0,-0.6169 0.205648,-1.1751 0.646321,-1.6452 0.440674,-0.47 0.984171,-0.705 1.630492,-0.705 0.631632,0 1.17513,0.235 1.615803,0.705 0.440674,0.4701 0.661011,1.0283 0.661011,1.6452 z m -13.9705,-5.5965 c 0.470052,0.2937 0.807902,0.7491 1.042928,1.366 0.279093,0.7933 0.425984,1.6159 0.425984,2.4972 0,0.2056 -0.01469,0.4554 -0.04407,0.7345 -0.117513,1.087 -0.396606,1.9389 -0.851969,2.5412 -0.381917,0.5288 -0.83728,0.7785 -1.380777,0.7785 -0.6169433,0 -1.1163733,-0.2497 -1.4982904,-0.7638 -0.1762694,-0.2351 -0.3084714,-0.4848 -0.4259844,-0.7786 -0.1175129,-0.2937 -0.1909585,-0.5875 -0.249715,-0.896 -0.058757,-0.2938 -0.1028238,-0.5876 -0.1322021,-0.8813 -0.029378,-0.2791 -0.029378,-0.6023 -0.029378,-0.9695 0,-0.3673 0.044067,-0.8373 0.1615803,-1.3808 0.058756,-0.2938 0.1322021,-0.6023 0.249715,-0.896 0.1028238,-0.2938 0.2350259,-0.5582 0.4112953,-0.7933 0.1762694,-0.235 0.3819171,-0.4112 0.616943,-0.5581 0.2350259,-0.1469 0.5288083,-0.2204 0.8519683,-0.2204 0.323161,0 0.616943,0.073 0.851969,0.2204 z m -0.793212,8.9603 c 1.175129,0 2.056476,-0.5729 2.65873,-1.7333 0.470052,-0.9254 0.719767,-2.0565 0.719767,-3.4079 0,-1.3367 -0.249715,-2.4677 -0.719767,-3.3932 -0.602254,-1.1604 -1.483601,-1.748 -2.65873,-1.748 -1.1898188,0 -2.0711659,0.5876 -2.6734197,1.748 -0.4700518,0.9255 -0.7050777,2.0565 -0.7050777,3.3932 0,1.3514 0.2350259,2.4825 0.7050777,3.4079 0.6022538,1.1604 1.4836009,1.7333 2.6734197,1.7333 z m -6.1563472,-0.1322 1.0282383,0 0,-10.1061 -2.4677719,0.2644 0,0.896 1.4395336,0 0,8.9457 z m 134.9581162,35.9182 1.30733,0 -2.26212,-3.2316 2.26212,-3.2316 -1.30733,0 -1.6158,2.4825 -1.61581,-2.4825 -1.30733,0 2.26213,3.2169 -2.26213,3.2463 1.30733,0 1.61581,-2.5118 1.6158,2.5118 z m -11.15363,3.6723 0,-4.7739 c 0.0441,0.088 0.11751,0.1615 0.17627,0.2203 0.61694,0.6904 1.36608,1.0282 2.26212,1.0282 0.88135,0 1.63049,-0.3378 2.24744,-1.0282 0.58756,-0.661 0.89603,-1.4395 0.89603,-2.3503 0,-0.896 -0.30847,-1.6745 -0.89603,-2.3502 -0.61695,-0.6757 -1.36609,-1.0283 -2.24744,-1.0283 -0.89604,0 -1.64518,0.3526 -2.26212,1.0283 -0.0588,0.073 -0.13221,0.1469 -0.17627,0.235 l 0,-1.1164 -1.02824,0 0,10.1355 1.02824,0 z m 4.55362,-6.9039 c 0,0.6317 -0.22033,1.1898 -0.66101,1.6452 -0.44067,0.4701 -0.98417,0.7051 -1.6158,0.7051 -0.64632,0 -1.18982,-0.235 -1.63049,-0.7051 -0.44068,-0.4554 -0.64632,-1.0135 -0.64632,-1.6452 0,-0.6169 0.20564,-1.1751 0.64632,-1.6452 0.44067,-0.47 0.98417,-0.705 1.63049,-0.705 0.63163,0 1.17513,0.235 1.6158,0.705 0.44068,0.4701 0.66101,1.0283 0.66101,1.6452 z m -13.04485,3.1288 c 0.41129,-0.1763 0.76383,-0.4113 1.0723,-0.7051 0.66102,-0.6463 0.99886,-1.4248 0.99886,-2.3649 0,-0.9254 -0.33784,-1.7186 -1.01354,-2.365 -0.63164,-0.6022 -1.42485,-0.9401 -2.37964,-1.0135 l -0.44068,0.2644 3.12879,-3.7017 -5.37622,0 0,1.0283 3.29036,0 -3.02596,3.5254 0.77853,0.6316 c 0.47005,-0.4701 1.02824,-0.7051 1.67456,-0.7051 0.64632,0 1.18982,0.235 1.64518,0.6904 0.45536,0.4554 0.69039,0.9989 0.69039,1.6305 0,0.6316 -0.23503,1.1751 -0.70508,1.6158 -0.20565,0.2056 -0.45536,0.3819 -0.73446,0.4994 -0.29378,0.1175 -0.63163,0.1763 -1.02824,0.1763 -0.41129,0 -0.8079,-0.1322 -1.2045,-0.3966 -0.4113,-0.2644 -0.69039,-0.6316 -0.85197,-1.1017 l -0.99886,0.3379 c 0.22033,0.661 0.63163,1.1898 1.23388,1.6011 0.2791,0.1909 0.58757,0.3378 0.92542,0.4406 0.32316,0.1176 0.69039,0.1616 1.10168,0.1616 0.4113,0 0.8079,-0.073 1.2192,-0.2497 z m -7.63146,0 c 0.4113,-0.1763 0.76384,-0.4113 1.07231,-0.7051 0.66101,-0.6463 0.99886,-1.4248 0.99886,-2.3649 0,-0.9254 -0.33785,-1.7186 -1.01355,-2.365 -0.63163,-0.6022 -1.42484,-0.9401 -2.37964,-1.0135 l -0.44067,0.2644 3.12878,-3.7017 -5.37622,0 0,1.0283 3.29037,0 -3.02596,3.5254 0.77852,0.6316 c 0.47005,-0.4701 1.02824,-0.7051 1.67456,-0.7051 0.64632,0 1.18982,0.235 1.64518,0.6904 0.45536,0.4554 0.69039,0.9989 0.69039,1.6305 0,0.6316 -0.23503,1.1751 -0.70508,1.6158 -0.20564,0.2056 -0.45536,0.3819 -0.73445,0.4994 -0.29379,0.1175 -0.63164,0.1763 -1.02824,0.1763 -0.4113,0 -0.8079,-0.1322 -1.20451,-0.3966 -0.41129,-0.2644 -0.69039,-0.6316 -0.85197,-1.1017 l -0.99886,0.3379 c 0.22034,0.661 0.63163,1.1898 1.23389,1.6011 0.27909,0.1909 0.58756,0.3378 0.92541,0.4406 0.32316,0.1176 0.69039,0.1616 1.10169,0.1616 0.41129,0 0.8079,-0.073 1.21919,-0.2497 z"
           inkscape:connector-curvature="0" />
      </g>
    </g>
  </g>
</svg>
