<?xml version="1.0" encoding="UTF-8" standalone="no"?>
<!-- Created with Inkscape (http://www.inkscape.org/) -->

<svg
   xmlns:dc="http://purl.org/dc/elements/1.1/"
   xmlns:cc="http://creativecommons.org/ns#"
   xmlns:rdf="http://www.w3.org/1999/02/22-rdf-syntax-ns#"
   xmlns:svg="http://www.w3.org/2000/svg"
   xmlns="http://www.w3.org/2000/svg"
   xmlns:sodipodi="http://sodipodi.sourceforge.net/DTD/sodipodi-0.dtd"
   xmlns:inkscape="http://www.inkscape.org/namespaces/inkscape"
   width="250"
   height="200"
   viewBox="0 0 250 200"
   id="svg9050"
   version="1.1"
   inkscape:version="0.91 r13725"
   sodipodi:docname="versions.svg">
  <defs
     id="defs9052" />
  <sodipodi:namedview
     id="base"
     pagecolor="#ffffff"
     bordercolor="#666666"
     borderopacity="1.0"
     inkscape:pageopacity="0.0"
     inkscape:pageshadow="2"
     inkscape:zoom="1.4"
     inkscape:cx="138.78932"
     inkscape:cy="124.33797"
     inkscape:document-units="px"
     inkscape:current-layer="layer1"
     showgrid="false"
     units="px"
     showguides="true"
     inkscape:guide-bbox="true"
     inkscape:snap-bbox="true"
     inkscape:bbox-paths="true"
     inkscape:bbox-nodes="true"
     inkscape:snap-bbox-edge-midpoints="true"
     inkscape:snap-bbox-midpoints="true"
     inkscape:window-width="1280"
     inkscape:window-height="709"
     inkscape:window-x="0"
     inkscape:window-y="0"
     inkscape:window-maximized="1">
    <sodipodi:guide
       position="-1.0101525,146.47212"
       orientation="1,0"
       id="guide9678" />
  </sodipodi:namedview>
  <metadata
     id="metadata9055">
    <rdf:RDF>
      <cc:Work
         rdf:about="">
        <dc:format>image/svg+xml</dc:format>
        <dc:type
           rdf:resource="http://purl.org/dc/dcmitype/StillImage" />
        <dc:title></dc:title>
      </cc:Work>
    </rdf:RDF>
  </metadata>
  <g
     inkscape:label="Layer 1"
     inkscape:groupmode="layer"
     id="layer1"
     transform="translate(0,-852.36216)">
    <path
       inkscape:connector-curvature="0"
       style="fill:#0055dd;fill-opacity:1;stroke:none;stroke-width:0.1;stroke-miterlimit:4;stroke-dasharray:none"
       d="m 93.117229,852.99949 0,18.58706 13.767631,-18.52142 -13.767631,-0.0657 z m 32.518341,17.59868 0,4.012 10.32448,0 0,-4.012 -10.32448,0 z m -117.3135003,0.087 0,4.01203 14.4851233,0 0,-4.01203 -14.4851233,0 z m 88.9459443,2.006 0,6.64111 9.483176,13.05055 c 1.7954,0 3.59114,-1.7e-4 5.38651,0 L 97.268014,872.69119 Z"
       id="path10632" />
    <g
       transform="matrix(0.42889564,0,0,0.40483988,0,466.80801)"
       id="g10634">
      <g
         id="g10636"
         style="font-style:normal;font-weight:normal;font-size:40px;line-height:125%;font-family:sans-serif;letter-spacing:0px;word-spacing:0px;fill:#222222;fill-opacity:1;stroke:none;stroke-width:1px;stroke-linecap:butt;stroke-linejoin:miter;stroke-opacity:1"
         transform="matrix(3.5009785,0,0,3.5765379,-1158.5886,-1006.0692)">
        <path
           sodipodi:nodetypes="ccccccccccccccccssscssscsscccssccscssscscs"
           inkscape:connector-curvature="0"
           d="m 425.19217,575.21741 0,-2.6 -13.36,0 0,-9.68 0,-2.64 0,-9.68 13.36,0 0,-2.6 -16.16,0 0,27.2 z m -35.1725,0 0,-27.2 -2.8,0 0,27.2 z m -10.4025,-13.68 c 0,3.12 -1.12,5.76 -3.28,7.92 -2.2,2.2 -4.84,3.28 -7.92,3.28 -3.08,0 -5.72,-1.08 -7.88,-3.28 -2.2,-2.16 -3.28,-4.8 -3.28,-7.92 0,-3.04 1.08,-5.68 3.28,-7.88 2.16,-2.16 4.8,-3.28 7.88,-3.28 3.08,0 5.72,1.12 7.92,3.28 2.16,2.2 3.28,4.84 3.28,7.88 z m 2.8,0 c 0,-1.92 -0.4,-3.72 -1.12,-5.44 -0.72,-1.68 -1.72,-3.16 -3,-4.44 -1.28,-1.24 -2.76,-2.24 -4.44,-2.96 -1.72,-0.72 -3.52,-1.12 -5.44,-1.12 -1.92,0 -3.76,0.4 -5.44,1.12 -1.68,0.72 -3.16,1.72 -4.44,2.96 -1.28,1.28 -2.28,2.76 -3,4.44 -0.72,1.72 -1.08,3.52 -1.08,5.44 0,1.92 0.36,3.76 1.08,5.44 0.72,1.72 1.72,3.2 3,4.48 1.28,1.28 2.76,2.28 4.44,3 1.68,0.72 3.52,1.08 5.44,1.08 1.92,0 3.72,-0.36 5.44,-1.08 1.68,-0.72 3.16,-1.72 4.44,-3 1.28,-1.28 2.28,-2.76 3,-4.48 0.72,-1.68 1.12,-3.52 1.12,-5.44 z"
           style="font-style:normal;font-variant:normal;font-weight:normal;font-stretch:normal;font-family:'Glacial Indifference';-inkscape-font-specification:'Glacial Indifference';fill:#222222;fill-opacity:1"
           id="path10638" />
      </g>
      <rect
         style="fill:#222222;fill-opacity:1;stroke:none;stroke-width:0.1;stroke-miterlimit:4;stroke-dasharray:none"
         id="rect10640"
         width="9.7012939"
         height="97.281761"
         x="62.87751"
         y="953.93567" />
      <rect
         y="953.93567"
         x="0"
         height="97.281761"
         width="9.7012939"
         id="rect10642"
         style="fill:#222222;fill-opacity:1;stroke:none;stroke-width:0.1;stroke-miterlimit:4;stroke-dasharray:none" />
    </g>
    <g
       transform="matrix(0.8100903,0,0,0.76465422,0,231.00073)"
       style="font-style:normal;font-weight:normal;font-size:19.27735901px;line-height:125%;font-family:sans-serif;letter-spacing:0px;word-spacing:0px;fill:#0055dd;fill-opacity:1;stroke:none;stroke-width:1px;stroke-linecap:butt;stroke-linejoin:miter;stroke-opacity:1"
       id="text10644">
      <path
         id="path9734"
         style="font-style:normal;font-variant:normal;font-weight:bold;font-stretch:normal;font-family:Belgika;-inkscape-font-specification:'Belgika Bold';fill:#0055dd;fill-opacity:1"
         d="m 241.54706,830.99517 c -0.69399,0 -1.29159,0.59759 -1.29159,1.29158 l 0,8.7712 -6.65069,-9.50374 c -0.13494,-0.1735 -0.28916,-0.30844 -0.46265,-0.40483 -0.1735,-0.0964 -0.38555,-0.15421 -0.5976,-0.15421 -0.13494,0 -0.26988,0.0385 -0.40483,0.0771 -0.11566,0.0385 -0.23132,0.0964 -0.32771,0.17349 -0.1735,0.11567 -0.30844,0.26988 -0.40483,0.44338 -0.0964,0.19277 -0.13494,0.38555 -0.13494,0.5976 l 0,12.858 c 0,0.69398 0.57832,1.2723 1.27231,1.2723 0.69398,0 1.29158,-0.57832 1.29158,-1.2723 l 0,-8.7712 6.65069,9.50374 c 0.11566,0.17349 0.26988,0.30843 0.44338,0.38554 0.19277,0.11567 0.38555,0.15422 0.61688,0.15422 0.13494,0 0.2506,-0.0193 0.38554,-0.0578 0.11567,-0.0386 0.23133,-0.0964 0.34699,-0.1735 0.1735,-0.11566 0.30844,-0.28916 0.40483,-0.46265 0.0964,-0.1735 0.15422,-0.36627 0.15422,-0.57832 l 0,-12.858 c 0,-0.69399 -0.5976,-1.29158 -1.29158,-1.29158 z m -15.81286,0 c -0.69398,0 -1.2723,0.59759 -1.2723,1.29158 l 0,12.858 c 0,0.69398 0.57832,1.2723 1.2723,1.2723 0.71326,0 1.29158,-0.57832 1.29158,-1.2723 l 0,-12.858 c 0,-0.69399 -0.59759,-1.29158 -1.29158,-1.29158 z m -11.139,8.48203 1.13736,-3.27715 c 0.347,1.00243 0.73254,2.12051 1.15665,3.27715 l -2.29401,0 z m 2.35184,-7.63383 c -0.1735,-0.50121 -0.67471,-0.8482 -1.21448,-0.8482 0,0 0,0.0193 0,0.0193 -0.52048,0 -1.0217,0.32772 -1.21447,0.84821 l -4.45307,12.858 c -0.0578,0.13494 -0.0771,0.26988 -0.0771,0.40482 0,0.53977 0.32772,1.04098 0.86748,1.23375 0.13494,0.0386 0.26988,0.0578 0.40483,0.0578 0.53976,0 1.04097,-0.32771 1.21447,-0.8482 l 1.23375,-3.50848 4.06752,0 c 0.42411,1.21447 0.84821,2.42895 1.23375,3.50848 0.1735,0.52049 0.69399,0.8482 1.21448,0.8482 0.13494,0 0.28916,-0.0193 0.4241,-0.0578 0.52049,-0.19277 0.8482,-0.69398 0.8482,-1.23375 0,-0.13494 -0.0193,-0.26988 -0.0578,-0.40482 -1.71568,-4.89645 -4.37596,-12.54957 -4.49162,-12.87728 z m -25.17081,0.44338 0,12.858 c 0,0.69398 0.57832,1.2723 1.2723,1.2723 0.71327,0 1.29159,-0.57832 1.29159,-1.2723 l 0,-7.44106 4.02897,8.01938 c 0.0578,0.11566 0.13494,0.23133 0.23132,0.30844 0.0964,0.11566 0.21205,0.19277 0.32772,0.2506 0.19277,0.0964 0.38555,0.13494 0.57832,0.13494 0.19277,0 0.40482,-0.0385 0.57832,-0.13494 0.13494,-0.0578 0.25061,-0.13494 0.34699,-0.2506 0.0964,-0.0771 0.1735,-0.19278 0.23133,-0.30844 l 3.99041,-7.98083 0,7.40251 c 0,0.69398 0.57832,1.2723 1.29159,1.2723 0.69398,0 1.2723,-0.57832 1.2723,-1.2723 l 0,-12.858 c 0,-0.25061 -0.0771,-0.48193 -0.19277,-0.69399 -0.13494,-0.17349 -0.30844,-0.34699 -0.52049,-0.44338 -0.0771,-0.0578 -0.1735,-0.0964 -0.26988,-0.11566 -0.0964,-0.0193 -0.19278,-0.0385 -0.28916,-0.0385 -0.25061,0 -0.48194,0.0771 -0.67471,0.19277 -0.19277,0.11566 -0.36627,0.30844 -0.48193,0.52049 l -5.282,10.56399 -5.30127,-10.54471 c -0.21206,-0.42411 -0.63616,-0.73254 -1.15665,-0.73254 -0.71326,0 -1.2723,0.57832 -1.2723,1.29158 z"
         inkscape:connector-curvature="0" />
    </g>
    <path
       id="path10727"
       d="m 93.117229,906.52852 0,18.58705 13.767631,-18.52142 -13.767631,-0.0657 z m 32.518341,17.59867 0,4.01201 10.32448,0 0,-4.01201 -10.32448,0 z m -117.3135003,0.087 0,4.01204 14.4851233,0 0,-4.01204 -14.4851233,0 z m 88.9459443,2.00602 0,6.6411 9.483176,13.05055 c 1.7954,0 3.59114,-1.7e-4 5.38651,0 L 97.268014,926.22022 Z"
       style="fill:#9c9c9c;fill-opacity:1;stroke:none;stroke-width:0.1;stroke-miterlimit:4;stroke-dasharray:none"
       inkscape:connector-curvature="0" />
    <g
       id="g10729"
       transform="matrix(0.42889564,0,0,0.40483988,0,520.33704)"
       style="fill:#555555;fill-opacity:1">
      <g
         transform="matrix(3.5009785,0,0,3.5765379,-1158.5886,-1006.0692)"
         style="font-style:normal;font-weight:normal;font-size:40px;line-height:125%;font-family:sans-serif;letter-spacing:0px;word-spacing:0px;fill:#555555;fill-opacity:1;stroke:none;stroke-width:1px;stroke-linecap:butt;stroke-linejoin:miter;stroke-opacity:1"
         id="g10731">
        <path
           id="path10733"
           style="font-style:normal;font-variant:normal;font-weight:normal;font-stretch:normal;font-family:'Glacial Indifference';-inkscape-font-specification:'Glacial Indifference';fill:#555555;fill-opacity:1"
           d="m 425.19217,575.21741 0,-2.6 -13.36,0 0,-9.68 0,-2.64 0,-9.68 13.36,0 0,-2.6 -16.16,0 0,27.2 z m -35.1725,0 0,-27.2 -2.8,0 0,27.2 z m -10.4025,-13.68 c 0,3.12 -1.12,5.76 -3.28,7.92 -2.2,2.2 -4.84,3.28 -7.92,3.28 -3.08,0 -5.72,-1.08 -7.88,-3.28 -2.2,-2.16 -3.28,-4.8 -3.28,-7.92 0,-3.04 1.08,-5.68 3.28,-7.88 2.16,-2.16 4.8,-3.28 7.88,-3.28 3.08,0 5.72,1.12 7.92,3.28 2.16,2.2 3.28,4.84 3.28,7.88 z m 2.8,0 c 0,-1.92 -0.4,-3.72 -1.12,-5.44 -0.72,-1.68 -1.72,-3.16 -3,-4.44 -1.28,-1.24 -2.76,-2.24 -4.44,-2.96 -1.72,-0.72 -3.52,-1.12 -5.44,-1.12 -1.92,0 -3.76,0.4 -5.44,1.12 -1.68,0.72 -3.16,1.72 -4.44,2.96 -1.28,1.28 -2.28,2.76 -3,4.44 -0.72,1.72 -1.08,3.52 -1.08,5.44 0,1.92 0.36,3.76 1.08,5.44 0.72,1.72 1.72,3.2 3,4.48 1.28,1.28 2.76,2.28 4.44,3 1.68,0.72 3.52,1.08 5.44,1.08 1.92,0 3.72,-0.36 5.44,-1.08 1.68,-0.72 3.16,-1.72 4.44,-3 1.28,-1.28 2.28,-2.76 3,-4.48 0.72,-1.68 1.12,-3.52 1.12,-5.44 z"
           inkscape:connector-curvature="0"
           sodipodi:nodetypes="ccccccccccccccccssscssscsscccssccscssscscs" />
      </g>
      <rect
         y="953.93567"
         x="62.87751"
         height="97.281761"
         width="9.7012939"
         id="rect10735"
         style="fill:#555555;fill-opacity:1;stroke:none;stroke-width:0.1;stroke-miterlimit:4;stroke-dasharray:none" />
      <rect
         style="fill:#555555;fill-opacity:1;stroke:none;stroke-width:0.1;stroke-miterlimit:4;stroke-dasharray:none"
         id="rect10737"
         width="9.7012939"
         height="97.281761"
         x="0"
         y="953.93567" />
    </g>
    <g
       transform="matrix(0.8100903,0,0,0.76465422,0,231.00073)"
       style="font-style:normal;font-weight:normal;font-size:19.27735901px;line-height:125%;font-family:sans-serif;letter-spacing:0px;word-spacing:0px;fill:#555555;fill-opacity:1;stroke:none;stroke-width:1px;stroke-linecap:butt;stroke-linejoin:miter;stroke-opacity:1"
       id="text10749">
      <path
         id="path9754"
         style="font-style:normal;font-variant:normal;font-weight:bold;font-stretch:normal;font-family:Belgika;-inkscape-font-specification:'Belgika Bold';fill:#555555;fill-opacity:1;stroke:none"
         d="m 308.60757,902.29102 c 0,-0.69398 -0.5976,-1.29158 -1.29159,-1.29158 l -7.07479,0 c -0.77109,0 -1.2723,0.75182 -1.2723,1.29158 l 0,6.41936 0,6.43864 c 0,0.77109 0.73254,1.27231 1.2723,1.27231 l 7.07479,0 c 0.69399,0 1.29159,-0.57833 1.29159,-1.27231 0,-0.71326 -0.5976,-1.29158 -1.29159,-1.29158 l -5.78321,0 0,-3.85547 4.49163,0 c 0.69398,0 1.29158,-0.57833 1.29158,-1.29159 0,-0.69398 -0.5976,-1.2723 -1.29158,-1.2723 l -4.49163,0 0,-3.85548 5.78321,0 c 0.69399,0 1.29159,-0.59759 1.29159,-1.29158 z m -21.39365,-1.29158 c -0.69399,0 -1.27231,0.5976 -1.27231,1.29158 l 0,12.858 c 0,0.77109 0.73254,1.27231 1.27231,1.27231 l 7.71094,0 c 0.69399,0 1.29158,-0.57833 1.29158,-1.27231 0,-0.71326 -0.59759,-1.29158 -1.29158,-1.29158 l -6.41936,0 0,-11.56642 c 0,-0.69398 -0.5976,-1.29158 -1.29158,-1.29158 z m -10.94624,8.48204 1.13737,-3.27715 c 0.34699,1.00242 0.73254,2.1205 1.15664,3.27715 l -2.29401,0 z m 2.35184,-7.63384 c -0.17349,-0.50121 -0.6747,-0.8482 -1.21447,-0.8482 0,0 0,0.0193 0,0.0193 -0.52049,0 -1.0217,0.32771 -1.21447,0.8482 l -4.45307,12.858 c -0.0578,0.13494 -0.0771,0.26988 -0.0771,0.40482 0,0.53977 0.32771,1.04098 0.86748,1.23375 0.13494,0.0386 0.26988,0.0578 0.40482,0.0578 0.53977,0 1.04098,-0.32772 1.21448,-0.84821 l 1.23375,-3.50848 4.06752,0 c 0.4241,1.21448 0.8482,2.42895 1.23375,3.50848 0.1735,0.52049 0.69399,0.84821 1.21447,0.84821 0.13495,0 0.28916,-0.0193 0.42411,-0.0578 0.52048,-0.19277 0.8482,-0.69398 0.8482,-1.23375 0,-0.13494 -0.0193,-0.26988 -0.0578,-0.40482 -1.71569,-4.89645 -4.37596,-12.54956 -4.49163,-12.87728 z m -9.4468,10.87243 c -0.23133,-0.23133 -0.57832,-0.36627 -0.90604,-0.36627 -0.32771,0 -0.65543,0.11567 -0.90603,0.36627 -0.69399,0.71327 -1.63858,1.13737 -2.71811,1.13737 -2.13979,0 -3.87475,-1.71569 -3.87475,-3.85547 l 0,-2.56389 c 0,-2.13979 1.73496,-3.85548 3.87475,-3.85548 1.07953,0 2.02412,0.42411 2.71811,1.13737 0.2506,0.2506 0.57832,0.36627 0.90603,0.36627 0.34699,0 0.67471,-0.11567 0.92531,-0.36627 0.23133,-0.25061 0.36627,-0.57832 0.36627,-0.90604 0,-0.34699 -0.13494,-0.6747 -0.36627,-0.92531 -1.17591,-1.15664 -2.75666,-1.88918 -4.54945,-1.88918 -3.54704,0 -6.43864,2.87232 -6.43864,6.43864 l 0,2.56389 c 0,3.56631 2.8916,6.41936 6.43864,6.41936 1.79279,0 3.37354,-0.71327 4.53018,-1.86991 0.2506,-0.2506 0.38554,-0.57832 0.38554,-0.90603 0,-0.347 -0.13494,-0.67471 -0.38554,-0.92532 z m -21.95209,-0.71326 c -0.48194,0.21205 -0.79038,0.69399 -0.79038,1.1952 0,0.17349 0.0386,0.32771 0.0964,0.50121 0.23133,0.52049 0.55904,1.00242 0.96387,1.42652 0.80965,0.80965 1.94701,1.29159 3.16149,1.29159 2.4675,0 4.45307,-2.00485 4.45307,-4.45307 0,-1.17592 -0.44338,-2.52534 -1.65786,-3.4121 l -3.60486,-2.62172 c -0.23133,-0.17349 -0.53977,-0.80965 -0.53977,-1.04098 0,-0.71326 0.57832,-1.31086 1.31086,-1.31086 0.36627,0 0.67471,0.13495 0.94459,0.38555 0.13494,0.13494 0.19278,0.23133 0.26988,0.38555 0.19278,0.48193 0.67471,0.79037 1.1952,0.79037 0.15422,0 0.32772,-0.0386 0.48193,-0.11566 0.48194,-0.19278 0.79038,-0.67471 0.79038,-1.17592 0,-0.1735 -0.0386,-0.34699 -0.11567,-0.50121 -0.19277,-0.46266 -0.48193,-0.88676 -0.8482,-1.23375 -0.67471,-0.65543 -1.65785,-1.11809 -2.71811,-1.11809 -2.15906,0 -3.89403,1.75424 -3.89403,3.89402 0,1.21448 0.65543,2.40967 1.60003,3.12294 l 3.60486,2.60244 c 0.4241,0.30844 0.61688,0.79037 0.61688,1.34942 0,1.04097 -0.84821,1.88918 -1.88918,1.88918 -0.53977,0 -1.00243,-0.21205 -1.34942,-0.55905 -0.1735,-0.15422 -0.28916,-0.34699 -0.40482,-0.59759 -0.19278,-0.48194 -0.67471,-0.79038 -1.1952,-0.79038 -0.15422,0 -0.32772,0.0386 -0.48193,0.0964 z M 232.9861,901.25004 c -0.32771,0.25061 -0.52049,0.65543 -0.52049,1.04098 0,0.26988 0.0771,0.53977 0.23133,0.75182 l 4.41452,6.09164 0,6.01454 c 0,0.69398 0.57832,1.27231 1.2723,1.27231 0.71327,0 1.29159,-0.57833 1.29159,-1.27231 l 0,-6.01454 4.41451,-6.09164 c 0.15422,-0.21205 0.23133,-0.48194 0.23133,-0.75182 0,-0.38555 -0.1735,-0.79037 -0.52049,-1.04098 -0.23133,-0.15421 -0.48193,-0.23132 -0.75182,-0.23132 -0.40482,0 -0.79037,0.17349 -1.04097,0.52048 l -3.62415,4.99284 -3.58559,-4.99284 c -0.2506,-0.34699 -0.65543,-0.52048 -1.06025,-0.52048 -0.25061,0 -0.52049,0.0771 -0.75182,0.23132 z m -8.90283,8.23144 1.13737,-3.27715 c 0.34699,1.00242 0.73254,2.1205 1.15664,3.27715 l -2.29401,0 z m 2.35184,-7.63384 c -0.17349,-0.50121 -0.6747,-0.8482 -1.21447,-0.8482 0,0 0,0.0193 0,0.0193 -0.52049,0 -1.0217,0.32771 -1.21447,0.8482 l -4.45307,12.858 c -0.0578,0.13494 -0.0771,0.26988 -0.0771,0.40482 0,0.53977 0.32771,1.04098 0.86748,1.23375 0.13494,0.0386 0.26988,0.0578 0.40482,0.0578 0.53977,0 1.04098,-0.32772 1.21448,-0.84821 l 1.23375,-3.50848 4.06752,0 c 0.4241,1.21448 0.8482,2.42895 1.23375,3.50848 0.1735,0.52049 0.69398,0.84821 1.21447,0.84821 0.13495,0 0.28916,-0.0193 0.42411,-0.0578 0.52048,-0.19277 0.8482,-0.69398 0.8482,-1.23375 0,-0.13494 -0.0193,-0.26988 -0.0578,-0.40482 -1.71569,-4.89645 -4.37596,-12.54956 -4.49163,-12.87728 z m -15.49086,8.15433 0.79037,0 2.87233,5.72537 c 0.23133,0.44338 0.69398,0.69399 1.15664,0.69399 0.19277,0 0.38555,-0.0386 0.57832,-0.13495 0.44338,-0.21205 0.69398,-0.6747 0.69398,-1.15664 0,-0.19277 -0.0385,-0.38554 -0.13494,-0.55904 l -2.42894,-4.8579 c 1.6964,-0.63615 2.8916,-2.27472 2.8916,-4.20246 0,-2.4675 -1.96629,-4.5109 -4.47235,-4.5109 l -3.23859,0 c -0.53977,0 -1.29159,0.52049 -1.29159,1.29158 l 0,12.858 c 0,0.69398 0.5976,1.27231 1.29159,1.27231 0.69398,0 1.29158,-0.57833 1.29158,-1.27231 l 0,-5.14705 z m 0,-2.56389 0,-3.85548 1.94701,0 c 1.06026,0 1.90846,0.84821 1.90846,1.92774 0,1.07953 -0.86748,1.92774 -1.92774,1.92774 l -1.92773,0 z m -12.40167,1.67713 c 0,0.71326 0.57832,1.29158 1.29158,1.29158 l 2.25546,0 0,2.29401 c -0.9446,0.77109 -2.10124,1.15664 -3.25788,1.15664 -1.31086,0 -2.641,-0.50121 -3.64342,-1.50364 -0.98314,-1.00242 -1.48436,-2.31328 -1.48436,-3.64342 0,-1.31086 0.50122,-2.62172 1.48436,-3.62414 1.0217,-1.00242 2.31328,-1.50364 3.62414,-1.50364 1.33014,0 2.641,0.48194 3.64343,1.48436 0.2506,0.25061 0.57832,0.36627 0.90603,0.36627 0.32772,0 0.67471,-0.11566 0.90604,-0.36627 0.2506,-0.2506 0.38554,-0.57832 0.38554,-0.90603 0,-0.32772 -0.13494,-0.65543 -0.38554,-0.90604 -1.50364,-1.52291 -3.4892,-2.25545 -5.4555,-2.25545 -1.96629,0 -3.93258,0.77109 -5.43621,2.27473 -1.50363,1.50363 -2.25545,3.4892 -2.25545,5.43621 0,1.96629 0.75182,3.95186 2.25545,5.45549 1.50363,1.52292 3.4892,2.25546 5.45549,2.25546 1.96629,0 3.95186,-0.73254 5.45549,-2.25546 0.21206,-0.19277 0.38555,-0.55904 0.38555,-0.90603 l 0,-4.14463 c 0,-0.53977 -0.52049,-1.27231 -1.29158,-1.27231 l -3.54704,0 c -0.71326,0 -1.29158,0.57832 -1.29158,1.27231 z"
         inkscape:connector-curvature="0" />
    </g>
    <g
       transform="matrix(0.8100903,0,0,0.76465422,0,231.00073)"
       style="font-style:normal;font-weight:normal;font-size:19.27735901px;line-height:125%;font-family:sans-serif;letter-spacing:0px;word-spacing:0px;fill:#222222;fill-opacity:1;stroke:none;stroke-width:1px;stroke-linecap:butt;stroke-linejoin:miter;stroke-opacity:1"
       id="text10777">
      <path
         id="path9766"
         style="font-style:normal;font-variant:normal;font-weight:bold;font-stretch:normal;font-family:Belgika;-inkscape-font-specification:'Belgika Bold';fill:#222222;fill-opacity:1;stroke:none"
         d="m 256.45204,970.78355 c -0.25061,-0.25061 -0.57833,-0.36627 -0.92532,-0.36627 -0.32771,0 -0.65543,0.11566 -0.88676,0.36627 l -5.20488,5.14705 0,-4.24102 c 0,-0.69398 -0.5976,-1.29158 -1.29159,-1.29158 -0.69398,0 -1.2723,0.5976 -1.2723,1.29158 l 0,12.858 c 0,0.69398 0.57832,1.27231 1.2723,1.27231 0.71327,0 1.29159,-0.57833 1.29159,-1.27231 l 0,-4.24102 5.20488,5.14706 c 0.23133,0.2506 0.55905,0.36627 0.90604,0.36627 0.32771,0 0.65543,-0.11567 0.90604,-0.36627 0.2506,-0.25061 0.36626,-0.57833 0.36626,-0.90604 0,-0.32772 -0.13494,-0.67471 -0.38554,-0.92531 l -5.55188,-5.51333 5.55188,-5.49405 c 0.2506,-0.2506 0.38554,-0.59759 0.38554,-0.92531 0,-0.32771 -0.11566,-0.65543 -0.36626,-0.90603 z m -13.36012,11.33508 c -0.23133,-0.23133 -0.57832,-0.36627 -0.90603,-0.36627 -0.32772,0 -0.65543,0.11567 -0.90604,0.36627 -0.69399,0.71326 -1.63858,1.13737 -2.71811,1.13737 -2.13978,0 -3.87475,-1.71569 -3.87475,-3.85548 l 0,-2.56388 c 0,-2.13979 1.73497,-3.85548 3.87475,-3.85548 1.07953,0 2.02412,0.42411 2.71811,1.13737 0.25061,0.2506 0.57832,0.36627 0.90604,0.36627 0.34699,0 0.6747,-0.11567 0.92531,-0.36627 0.23133,-0.25061 0.36627,-0.57832 0.36627,-0.90604 0,-0.34699 -0.13494,-0.67471 -0.36627,-0.92531 -1.17592,-1.15664 -2.75666,-1.88918 -4.54946,-1.88918 -3.54703,0 -6.43864,2.87232 -6.43864,6.43864 l 0,2.56388 c 0,3.56632 2.89161,6.41937 6.43864,6.41937 1.7928,0 3.37354,-0.71327 4.53018,-1.86991 0.25061,-0.2506 0.38555,-0.57832 0.38555,-0.90603 0,-0.347 -0.13494,-0.67471 -0.38555,-0.92532 z m -20.31502,-3.23859 1.13736,-3.27716 c 0.347,1.00243 0.73254,2.12051 1.15665,3.27716 l -2.29401,0 z m 2.35184,-7.63384 c -0.1735,-0.50121 -0.67471,-0.8482 -1.21448,-0.8482 0,0 0,0.0193 0,0.0193 -0.52049,0 -1.0217,0.32771 -1.21447,0.8482 l -4.45307,12.858 c -0.0578,0.13494 -0.0771,0.26988 -0.0771,0.40482 0,0.53977 0.32772,1.04098 0.86748,1.23375 0.13494,0.0386 0.26988,0.0578 0.40483,0.0578 0.53976,0 1.04097,-0.32772 1.21447,-0.84821 l 1.23375,-3.50848 4.06752,0 c 0.42411,1.21448 0.84821,2.42895 1.23375,3.50848 0.1735,0.52049 0.69399,0.84821 1.21448,0.84821 0.13494,0 0.28916,-0.0193 0.4241,-0.0578 0.52049,-0.19277 0.8482,-0.69398 0.8482,-1.23375 0,-0.13494 -0.0193,-0.26988 -0.0578,-0.40482 -1.71568,-4.89645 -4.37596,-12.54956 -4.49162,-12.87728 z m -17.42252,-0.8482 c -0.69398,0 -1.2723,0.5976 -1.2723,1.29158 l 0,12.858 c 0,0.77109 0.73254,1.27231 1.2723,1.27231 l 7.71094,0 c 0.69399,0 1.29159,-0.57833 1.29159,-1.27231 0,-0.71326 -0.5976,-1.29158 -1.29159,-1.29158 l -6.41936,0 0,-11.56642 c 0,-0.69398 -0.59759,-1.29158 -1.29158,-1.29158 z m -12.07455,5.14705 0,-2.56389 1.29158,0 c 0.71326,0 1.27231,0.57832 1.27231,1.29159 0,0.44338 -0.21206,0.82892 -0.55905,1.06025 -0.15422,0.11567 -0.32771,0.19278 -0.52049,0.21205 l -1.48435,0 z m 1.63857,2.56389 0.96387,0 c 0.0771,0.0193 0.13494,0.0193 0.21205,0.0193 1.31086,0.11566 2.33256,1.21447 2.33256,2.56389 0,1.42652 -1.15664,2.56389 -2.58316,2.56389 l -2.56389,0 0,-5.14706 1.07953,0 c 0.0771,0.0193 0.13494,0.0193 0.21205,0.0193 0.11566,0 0.23133,0 0.34699,-0.0193 z m 3.08438,-2.10123 c 0.26988,-0.52049 0.4241,-1.11809 0.4241,-1.73496 0,-2.13979 -1.73496,-3.8362 -3.83619,-3.87475 l -2.60245,0 c -0.53976,0 -1.29158,0.52049 -1.29158,1.29158 l 0,12.83872 c 0,0.63616 0.55904,1.29159 1.29158,1.29159 l 3.85548,0 c 2.83377,0 5.14705,-2.27473 5.14705,-5.12778 0,-2.06268 -1.21447,-3.85547 -2.98799,-4.6844 z"
         inkscape:connector-curvature="0" />
    </g>
    <rect
       y="-141.53557"
       x="1012.3416"
       height="141.53557"
       width="40.020653"
       id="rect10787"
       style="fill:#1a1a1a;fill-opacity:1;stroke:none;stroke-width:5;stroke-miterlimit:4;stroke-dasharray:none"
       transform="matrix(0,1,-1,0,0,0)" />
    <path
       id="path10789"
       d="m 91.999776,1013.7273 0,17.6577 13.079234,-17.5953 -13.079234,-0.062 z m 30.892424,16.7189 0,3.8113 9.80827,0 0,-3.8113 -9.80827,0 z m -111.447825,0.083 0,3.8113 13.760863,0 0,-3.8113 -13.760863,0 z m 84.498639,1.9056 0,6.3092 9.009036,12.3979 c 1.70561,0 3.41157,-10e-5 5.11718,0 l -14.126216,-18.707 z"
       style="fill:#eeeeee;fill-opacity:1;stroke:none;stroke-width:0.1;stroke-miterlimit:4;stroke-dasharray:none"
       inkscape:connector-curvature="0" />
    <g
       id="g10791"
       transform="matrix(0.40745086,0,0,0.38459789,3.538399,646.84546)"
       style="fill:#eeeeee;fill-opacity:1">
      <g
         transform="matrix(3.5009785,0,0,3.5765379,-1158.5886,-1006.0692)"
         style="font-style:normal;font-weight:normal;font-size:40px;line-height:125%;font-family:sans-serif;letter-spacing:0px;word-spacing:0px;fill:#eeeeee;fill-opacity:1;stroke:none;stroke-width:1px;stroke-linecap:butt;stroke-linejoin:miter;stroke-opacity:1"
         id="g10793">
        <path
           id="path10795"
           style="font-style:normal;font-variant:normal;font-weight:normal;font-stretch:normal;font-family:'Glacial Indifference';-inkscape-font-specification:'Glacial Indifference';fill:#eeeeee;fill-opacity:1"
           d="m 425.19217,575.21741 0,-2.6 -13.36,0 0,-9.68 0,-2.64 0,-9.68 13.36,0 0,-2.6 -16.16,0 0,27.2 z m -35.1725,0 0,-27.2 -2.8,0 0,27.2 z m -10.4025,-13.68 c 0,3.12 -1.12,5.76 -3.28,7.92 -2.2,2.2 -4.84,3.28 -7.92,3.28 -3.08,0 -5.72,-1.08 -7.88,-3.28 -2.2,-2.16 -3.28,-4.8 -3.28,-7.92 0,-3.04 1.08,-5.68 3.28,-7.88 2.16,-2.16 4.8,-3.28 7.88,-3.28 3.08,0 5.72,1.12 7.92,3.28 2.16,2.2 3.28,4.84 3.28,7.88 z m 2.8,0 c 0,-1.92 -0.4,-3.72 -1.12,-5.44 -0.72,-1.68 -1.72,-3.16 -3,-4.44 -1.28,-1.24 -2.76,-2.24 -4.44,-2.96 -1.72,-0.72 -3.52,-1.12 -5.44,-1.12 -1.92,0 -3.76,0.4 -5.44,1.12 -1.68,0.72 -3.16,1.72 -4.44,2.96 -1.28,1.28 -2.28,2.76 -3,4.44 -0.72,1.72 -1.08,3.52 -1.08,5.44 0,1.92 0.36,3.76 1.08,5.44 0.72,1.72 1.72,3.2 3,4.48 1.28,1.28 2.76,2.28 4.44,3 1.68,0.72 3.52,1.08 5.44,1.08 1.92,0 3.72,-0.36 5.44,-1.08 1.68,-0.72 3.16,-1.72 4.44,-3 1.28,-1.28 2.28,-2.76 3,-4.48 0.72,-1.68 1.12,-3.52 1.12,-5.44 z"
           inkscape:connector-curvature="0"
           sodipodi:nodetypes="ccccccccccccccccssscssscsscccssccscssscscs" />
      </g>
      <rect
         y="953.93567"
         x="62.87751"
         height="97.281761"
         width="9.7012939"
         id="rect10797"
         style="fill:#eeeeee;fill-opacity:1;stroke:none;stroke-width:0.1;stroke-miterlimit:4;stroke-dasharray:none" />
      <rect
         style="fill:#eeeeee;fill-opacity:1;stroke:none;stroke-width:0.1;stroke-miterlimit:4;stroke-dasharray:none"
         id="rect10799"
         width="9.7012939"
         height="97.281761"
         x="0"
         y="953.93567" />
    </g>
    <g
       transform="matrix(0.8100903,0,0,0.76465422,0,231.00073)"
       style="font-style:normal;font-weight:normal;font-size:19.27735901px;line-height:125%;font-family:sans-serif;letter-spacing:0px;word-spacing:0px;fill:#9c9c9c;fill-opacity:1;stroke:none;stroke-width:1;stroke-linecap:butt;stroke-linejoin:miter;stroke-miterlimit:4;stroke-dasharray:none;stroke-opacity:1"
       id="text10803">
      <path
         id="path9778"
         style="font-style:normal;font-variant:normal;font-weight:bold;font-stretch:normal;font-family:Belgika;-inkscape-font-specification:'Belgika Bold';fill:#9c9c9c;fill-opacity:1;stroke:none;stroke-width:1;stroke-miterlimit:4;stroke-dasharray:none"
         d="m 256.73577,1041.0882 c 0,-0.694 -0.59759,-1.2916 -1.29158,-1.2916 l -7.07479,0 c -0.77109,0 -1.27231,0.7518 -1.27231,1.2916 l 0,6.4194 0,6.4386 c 0,0.7711 0.73254,1.2723 1.27231,1.2723 l 7.07479,0 c 0.69399,0 1.29158,-0.5783 1.29158,-1.2723 0,-0.7133 -0.59759,-1.2916 -1.29158,-1.2916 l -5.78321,0 0,-3.8555 4.49163,0 c 0.69398,0 1.29158,-0.5783 1.29158,-1.2915 0,-0.694 -0.5976,-1.2723 -1.29158,-1.2723 l -4.49163,0 0,-3.8555 5.78321,0 c 0.69399,0 1.29158,-0.5976 1.29158,-1.2916 z m -24.59369,0 c 0,0.694 0.57832,1.2916 1.2723,1.2916 l 3.85548,0 0,11.5664 c 0,0.694 0.59759,1.2723 1.29158,1.2723 0.69398,0 1.29158,-0.5783 1.29158,-1.2723 l 0,-11.5664 3.85547,0 c 0.69399,0 1.27231,-0.5783 1.27231,-1.2916 0,-0.694 -0.57832,-1.2916 -1.27231,-1.2916 l -5.14705,0 -5.14706,0 c -0.69398,0 -1.2723,0.5976 -1.2723,1.2916 z m -3.61029,-1.2916 c -0.69398,0 -1.2723,0.5976 -1.2723,1.2916 l 0,12.858 c 0,0.694 0.57832,1.2723 1.2723,1.2723 0.71327,0 1.29159,-0.5783 1.29159,-1.2723 l 0,-12.858 c 0,-0.694 -0.5976,-1.2916 -1.29159,-1.2916 z m -14.50019,15.4219 c 0.69399,0 1.29159,-0.5783 1.29159,-1.2723 l 0,-5.1471 5.14705,0 0,5.1471 c 0,0.694 0.57832,1.2723 1.27231,1.2723 0.69398,0 1.29158,-0.5783 1.29158,-1.2723 l 0,-12.858 c 0,-0.694 -0.57832,-1.2916 -1.29158,-1.2916 -0.69399,0 -1.27231,0.5976 -1.27231,1.2916 l 0,5.1471 -5.14705,0 0,-5.1471 c 0,-0.694 -0.57832,-1.2916 -1.29159,-1.2916 -0.69398,0 -1.2723,0.5976 -1.2723,1.2916 l 0,6.4194 0,6.4386 c 0,0.694 0.57832,1.2723 1.2723,1.2723 z m -21.34937,-15.364 c -0.53977,0.1734 -0.90603,0.6939 -0.90603,1.253 0,0.1156 0.0193,0.2313 0.0578,0.3662 l 3.89402,12.8388 c 0.0578,0.212 0.1735,0.3855 0.32772,0.5397 0.13494,0.135 0.32771,0.2506 0.53976,0.3278 0.11567,0.019 0.23133,0.038 0.347,0.038 0.13494,0.019 0.26988,0 0.38554,-0.038 0.21206,-0.077 0.40483,-0.1928 0.53977,-0.3278 0.15422,-0.1542 0.25061,-0.3277 0.32772,-0.5397 l 2.67955,-8.8098 2.67955,8.8098 c 0.0578,0.212 0.1735,0.3855 0.32772,0.5397 0.13494,0.135 0.32771,0.2506 0.52049,0.3278 0.13494,0.019 0.2506,0.038 0.36627,0.038 0.13494,0.019 0.26988,0 0.38554,-0.038 0.21205,-0.077 0.38555,-0.1928 0.53977,-0.3278 0.13494,-0.1542 0.2506,-0.3277 0.32771,-0.5397 l 3.91331,-12.8388 c 0.0385,-0.1349 0.0578,-0.2506 0.0578,-0.3662 0,-0.5591 -0.36627,-1.0796 -0.90604,-1.253 -0.13494,-0.039 -0.2506,-0.039 -0.36627,-0.039 -0.55904,0 -1.07953,0.347 -1.25302,0.906 l -2.67956,8.8098 -2.67955,-8.8098 c -0.0578,-0.212 -0.1735,-0.3855 -0.32772,-0.5397 -0.13494,-0.135 -0.30843,-0.2506 -0.52048,-0.3277 -0.13495,-0.039 -0.26989,-0.058 -0.38555,-0.039 -0.13494,0 -0.25061,0 -0.36627,0.039 -0.21205,0.077 -0.38555,0.1927 -0.53977,0.3277 -0.13494,0.1542 -0.2506,0.3277 -0.30844,0.5397 l -2.69883,8.8098 -2.67955,-8.8098 c -0.15422,-0.559 -0.67471,-0.906 -1.23375,-0.906 -0.11566,0 -0.2506,0 -0.36627,0.039 z"
         inkscape:connector-curvature="0" />
    </g>
    <path
       inkscape:connector-curvature="0"
       style="fill:#222222;fill-opacity:1;stroke:none;stroke-width:0.1;stroke-miterlimit:4;stroke-dasharray:none"
       d="m 93.117229,958.95712 0,18.58705 13.767631,-18.52141 -13.767631,-0.0656 z m 32.518341,17.59869 0,4.012 10.32448,0 0,-4.012 -10.32448,0 z m -117.3135003,0.087 0,4.01203 14.4851233,0 0,-4.01203 -14.4851233,0 z m 88.9459443,2.00601 0,6.6411 9.483176,13.05054 c 1.7954,0 3.59114,-1.6e-4 5.38651,0 L 97.268014,978.64883 Z"
       id="path10811" />
    <g
       style="fill:#222222;fill-opacity:1"
       transform="matrix(0.42889564,0,0,0.40483988,0,572.76565)"
       id="g10813">
      <g
         id="g10815"
         style="font-style:normal;font-weight:normal;font-size:40px;line-height:125%;font-family:sans-serif;letter-spacing:0px;word-spacing:0px;fill:#222222;fill-opacity:1;stroke:none;stroke-width:1px;stroke-linecap:butt;stroke-linejoin:miter;stroke-opacity:1"
         transform="matrix(3.5009785,0,0,3.5765379,-1158.5886,-1006.0692)">
        <path
           sodipodi:nodetypes="ccccccccccccccccssscssscsscccssccscssscscs"
           inkscape:connector-curvature="0"
           d="m 425.19217,575.21741 0,-2.6 -13.36,0 0,-9.68 0,-2.64 0,-9.68 13.36,0 0,-2.6 -16.16,0 0,27.2 z m -35.1725,0 0,-27.2 -2.8,0 0,27.2 z m -10.4025,-13.68 c 0,3.12 -1.12,5.76 -3.28,7.92 -2.2,2.2 -4.84,3.28 -7.92,3.28 -3.08,0 -5.72,-1.08 -7.88,-3.28 -2.2,-2.16 -3.28,-4.8 -3.28,-7.92 0,-3.04 1.08,-5.68 3.28,-7.88 2.16,-2.16 4.8,-3.28 7.88,-3.28 3.08,0 5.72,1.12 7.92,3.28 2.16,2.2 3.28,4.84 3.28,7.88 z m 2.8,0 c 0,-1.92 -0.4,-3.72 -1.12,-5.44 -0.72,-1.68 -1.72,-3.16 -3,-4.44 -1.28,-1.24 -2.76,-2.24 -4.44,-2.96 -1.72,-0.72 -3.52,-1.12 -5.44,-1.12 -1.92,0 -3.76,0.4 -5.44,1.12 -1.68,0.72 -3.16,1.72 -4.44,2.96 -1.28,1.28 -2.28,2.76 -3,4.44 -0.72,1.72 -1.08,3.52 -1.08,5.44 0,1.92 0.36,3.76 1.08,5.44 0.72,1.72 1.72,3.2 3,4.48 1.28,1.28 2.76,2.28 4.44,3 1.68,0.72 3.52,1.08 5.44,1.08 1.92,0 3.72,-0.36 5.44,-1.08 1.68,-0.72 3.16,-1.72 4.44,-3 1.28,-1.28 2.28,-2.76 3,-4.48 0.72,-1.68 1.12,-3.52 1.12,-5.44 z"
           style="font-style:normal;font-variant:normal;font-weight:normal;font-stretch:normal;font-family:'Glacial Indifference';-inkscape-font-specification:'Glacial Indifference';fill:#222222;fill-opacity:1"
           id="path10817" />
      </g>
      <rect
         style="fill:#222222;fill-opacity:1;stroke:none;stroke-width:0.1;stroke-miterlimit:4;stroke-dasharray:none"
         id="rect10819"
         width="9.7012939"
         height="97.281761"
         x="62.87751"
         y="953.93567" />
      <rect
         y="953.93567"
         x="0"
         height="97.281761"
         width="9.7012939"
         id="rect10821"
         style="fill:#222222;fill-opacity:1;stroke:none;stroke-width:0.1;stroke-miterlimit:4;stroke-dasharray:none" />
    </g>
  </g>
</svg>
