<?xml version="1.0" encoding="UTF-8" standalone="no"?>
<!-- Created with Inkscape (http://www.inkscape.org/) -->

<svg
   xmlns:dc="http://purl.org/dc/elements/1.1/"
   xmlns:cc="http://creativecommons.org/ns#"
   xmlns:rdf="http://www.w3.org/1999/02/22-rdf-syntax-ns#"
   xmlns:svg="http://www.w3.org/2000/svg"
   xmlns="http://www.w3.org/2000/svg"
   xmlns:sodipodi="http://sodipodi.sourceforge.net/DTD/sodipodi-0.dtd"
   xmlns:inkscape="http://www.inkscape.org/namespaces/inkscape"
   width="330"
   height="100"
   viewBox="0 0 330 100"
   id="svg4476"
   version="1.1"
   inkscape:version="0.91 r13725"
   sodipodi:docname="hoike-full.svg">
  <defs
     id="defs4478" />
  <sodipodi:namedview
     id="base"
     pagecolor="#ffffff"
     bordercolor="#666666"
     borderopacity="1.0"
     inkscape:pageopacity="0.0"
     inkscape:pageshadow="2"
     inkscape:zoom="0.98994949"
     inkscape:cx="61.815179"
     inkscape:cy="39.604482"
     inkscape:document-units="px"
     inkscape:current-layer="layer1"
     showgrid="false"
     units="px"
     inkscape:window-width="1280"
     inkscape:window-height="709"
     inkscape:window-x="0"
     inkscape:window-y="0"
     inkscape:window-maximized="1" />
  <metadata
     id="metadata4481">
    <rdf:RDF>
      <cc:Work
         rdf:about="">
        <dc:format>image/svg+xml</dc:format>
        <dc:type
           rdf:resource="http://purl.org/dc/dcmitype/StillImage" />
        <dc:title></dc:title>
      </cc:Work>
    </rdf:RDF>
  </metadata>
  <g
     inkscape:label="Layer 1"
     inkscape:groupmode="layer"
     id="layer1"
     transform="translate(0,-952.36216)">
    <g
       id="g4172"
       transform="matrix(0.97887403,0,0,1,0,-1.7411035e-6)">
      <path
         id="path4323"
         transform="translate(0,952.36216)"
         d="m 221.79492,1.5742188 0,45.9121092 L 254.58789,1.7363281 221.79492,1.5742188 Z M 299.25,45.044922 l 0,9.910156 24.5918,0 0,-9.910156 -24.5918,0 z m -279.427734,0.214844 0,9.910156 34.501953,0 0,-9.910156 -34.501953,0 z m 211.859374,4.955078 0,16.404297 22.58789,32.236328 c 4.27643,0 8.55368,-4e-4 12.83008,0 L 231.68164,50.214844 Z"
         style="fill:#dd2a2b;fill-opacity:1;stroke:none;stroke-width:0.1;stroke-miterlimit:4;stroke-dasharray:none"
         inkscape:connector-curvature="0" />
      <g
         id="g4166">
        <g
           transform="matrix(3.5765363,0,0,3.5765379,-1183.5932,-1006.0692)"
           style="font-style:normal;font-weight:normal;font-size:40px;line-height:125%;font-family:sans-serif;letter-spacing:0px;word-spacing:0px;fill:#333333;fill-opacity:1;stroke:none;stroke-width:1px;stroke-linecap:butt;stroke-linejoin:miter;stroke-opacity:1"
           id="text4277">
          <path
             id="path4296"
             style="font-style:normal;font-variant:normal;font-weight:normal;font-stretch:normal;font-family:'Glacial Indifference';-inkscape-font-specification:'Glacial Indifference';fill:#333333;fill-opacity:1"
             d="m 425.19217,575.21741 0,-2.6 -13.36,0 0,-9.68 0,-2.64 0,-9.68 13.36,0 0,-2.6 -16.16,0 0,27.2 z m -35.1725,0 0,-27.2 -2.8,0 0,27.2 z m -10.4025,-13.68 c 0,3.12 -1.12,5.76 -3.28,7.92 -2.2,2.2 -4.84,3.28 -7.92,3.28 -3.08,0 -5.72,-1.08 -7.88,-3.28 -2.2,-2.16 -3.28,-4.8 -3.28,-7.92 0,-3.04 1.08,-5.68 3.28,-7.88 2.16,-2.16 4.8,-3.28 7.88,-3.28 3.08,0 5.72,1.12 7.92,3.28 2.16,2.2 3.28,4.84 3.28,7.88 z m 2.8,0 c 0,-1.92 -0.4,-3.72 -1.12,-5.44 -0.72,-1.68 -1.72,-3.16 -3,-4.44 -1.28,-1.24 -2.76,-2.24 -4.44,-2.96 -1.72,-0.72 -3.52,-1.12 -5.44,-1.12 -1.92,0 -3.76,0.4 -5.44,1.12 -1.68,0.72 -3.16,1.72 -4.44,2.96 -1.28,1.28 -2.28,2.76 -3,4.44 -0.72,1.72 -1.08,3.52 -1.08,5.44 0,1.92 0.36,3.76 1.08,5.44 0.72,1.72 1.72,3.2 3,4.48 1.28,1.28 2.76,2.28 4.44,3 1.68,0.72 3.52,1.08 5.44,1.08 1.92,0 3.72,-0.36 5.44,-1.08 1.68,-0.72 3.16,-1.72 4.44,-3 1.28,-1.28 2.28,-2.76 3,-4.48 0.72,-1.68 1.12,-3.52 1.12,-5.44 z"
             inkscape:connector-curvature="0"
             sodipodi:nodetypes="ccccccccccccccccssscssscsscccssccscssscscs" />
        </g>
        <rect
           y="953.93567"
           x="64.234528"
           height="97.281761"
           width="9.9106665"
           id="rect4315"
           style="fill:#333333;fill-opacity:1;stroke:none;stroke-width:0.1;stroke-miterlimit:4;stroke-dasharray:none" />
        <rect
           style="fill:#333333;fill-opacity:1;stroke:none;stroke-width:0.1;stroke-miterlimit:4;stroke-dasharray:none"
           id="rect4321"
           width="9.9106665"
           height="97.281761"
           x="0"
           y="953.93567" />
      </g>
    </g>
  </g>
</svg>
